G04*
G04 #@! TF.GenerationSoftware,Altium Limited,Altium Designer,24.6.1 (21)*
G04*
G04 Layer_Color=32896*
%FSAX43Y43*%
%MOMM*%
G71*
G04*
G04 #@! TF.SameCoordinates,72FB08D7-BAFD-4CC0-8052-66671FA49B15*
G04*
G04*
G04 #@! TF.FilePolarity,Positive*
G04*
G01*
G75*
G36*
X0059067Y0016608D02*
X0059086Y0016607D01*
X0059120Y0016598D01*
X0059151Y0016585D01*
X0059176Y0016573D01*
X0059197Y0016559D01*
X0059206Y0016552D01*
X0059214Y0016546D01*
X0059220Y0016542D01*
X0059224Y0016537D01*
X0059225Y0016536D01*
X0059227Y0016535D01*
X0059239Y0016521D01*
X0059251Y0016505D01*
X0059261Y0016490D01*
X0059269Y0016475D01*
X0059282Y0016444D01*
X0059290Y0016418D01*
X0059296Y0016394D01*
X0059297Y0016382D01*
X0059299Y0016374D01*
X0059300Y0016367D01*
Y0016361D01*
Y0016358D01*
Y0016357D01*
Y0015851D01*
X0059299Y0015833D01*
X0059297Y0015814D01*
X0059289Y0015780D01*
X0059277Y0015749D01*
X0059263Y0015724D01*
X0059249Y0015703D01*
X0059244Y0015694D01*
X0059238Y0015686D01*
X0059234Y0015680D01*
X0059230Y0015676D01*
X0059228Y0015675D01*
X0059227Y0015673D01*
X0059213Y0015661D01*
X0059197Y0015649D01*
X0059183Y0015639D01*
X0059167Y0015631D01*
X0059138Y0015618D01*
X0059110Y0015610D01*
X0059086Y0015604D01*
X0059076Y0015603D01*
X0059066Y0015601D01*
X0059059Y0015600D01*
X0059049D01*
X0059031Y0015601D01*
X0059012Y0015603D01*
X0058977Y0015611D01*
X0058946Y0015623D01*
X0058921Y0015637D01*
X0058898Y0015651D01*
X0058890Y0015656D01*
X0058883Y0015662D01*
X0058877Y0015666D01*
X0058871Y0015670D01*
X0058870Y0015672D01*
X0058869Y0015673D01*
X0058856Y0015687D01*
X0058845Y0015703D01*
X0058835Y0015717D01*
X0058826Y0015733D01*
X0058814Y0015762D01*
X0058804Y0015790D01*
X0058800Y0015814D01*
X0058798Y0015824D01*
X0058797Y0015834D01*
X0058795Y0015841D01*
Y0015847D01*
Y0015850D01*
Y0015851D01*
Y0016357D01*
X0058797Y0016375D01*
X0058798Y0016394D01*
X0058807Y0016427D01*
X0058818Y0016459D01*
X0058832Y0016484D01*
X0058846Y0016505D01*
X0058852Y0016513D01*
X0058857Y0016521D01*
X0058862Y0016528D01*
X0058866Y0016532D01*
X0058867Y0016533D01*
X0058869Y0016535D01*
X0058883Y0016547D01*
X0058898Y0016560D01*
X0058914Y0016570D01*
X0058929Y0016578D01*
X0058960Y0016591D01*
X0058988Y0016599D01*
X0059012Y0016605D01*
X0059022Y0016607D01*
X0059032Y0016608D01*
X0059039Y0016609D01*
X0059049D01*
X0059067Y0016608D01*
D02*
G37*
G36*
X0058195D02*
X0058203Y0016604D01*
X0058210Y0016598D01*
X0058215Y0016591D01*
X0058217Y0016584D01*
X0058219Y0016578D01*
Y0016574D01*
Y0016573D01*
Y0015637D01*
X0058217Y0015624D01*
X0058213Y0015616D01*
X0058207Y0015608D01*
X0058200Y0015604D01*
X0058195Y0015601D01*
X0058189Y0015600D01*
X0058003D01*
X0057982Y0015601D01*
X0057961Y0015604D01*
X0057940Y0015608D01*
X0057921Y0015613D01*
X0057886Y0015627D01*
X0057856Y0015642D01*
X0057844Y0015651D01*
X0057833Y0015658D01*
X0057823Y0015665D01*
X0057816Y0015672D01*
X0057809Y0015676D01*
X0057804Y0015680D01*
X0057801Y0015683D01*
X0057800Y0015685D01*
X0057785Y0015701D01*
X0057772Y0015717D01*
X0057761Y0015735D01*
X0057751Y0015752D01*
X0057742Y0015769D01*
X0057735Y0015786D01*
X0057725Y0015818D01*
X0057721Y0015833D01*
X0057718Y0015845D01*
X0057717Y0015858D01*
X0057715Y0015868D01*
X0057714Y0015876D01*
Y0015882D01*
Y0015886D01*
Y0015888D01*
X0057715Y0015909D01*
X0057718Y0015930D01*
X0057723Y0015951D01*
X0057727Y0015969D01*
X0057741Y0016005D01*
X0057756Y0016034D01*
X0057765Y0016047D01*
X0057773Y0016058D01*
X0057780Y0016068D01*
X0057786Y0016075D01*
X0057792Y0016082D01*
X0057796Y0016086D01*
X0057799Y0016089D01*
X0057800Y0016091D01*
X0057823Y0016112D01*
X0057845Y0016127D01*
X0057855Y0016134D01*
X0057862Y0016139D01*
X0057868Y0016141D01*
X0057869Y0016143D01*
X0057858Y0016151D01*
X0057849Y0016158D01*
X0057841Y0016164D01*
X0057835Y0016170D01*
X0057831Y0016172D01*
X0057828Y0016175D01*
X0057825Y0016178D01*
X0057813Y0016192D01*
X0057800Y0016206D01*
X0057790Y0016222D01*
X0057782Y0016237D01*
X0057769Y0016267D01*
X0057761Y0016295D01*
X0057755Y0016320D01*
X0057754Y0016330D01*
X0057752Y0016340D01*
X0057751Y0016347D01*
Y0016353D01*
Y0016356D01*
Y0016357D01*
X0057752Y0016377D01*
X0057754Y0016395D01*
X0057762Y0016429D01*
X0057775Y0016459D01*
X0057787Y0016485D01*
X0057801Y0016506D01*
X0057809Y0016515D01*
X0057814Y0016522D01*
X0057818Y0016528D01*
X0057823Y0016532D01*
X0057824Y0016533D01*
X0057825Y0016535D01*
X0057840Y0016547D01*
X0057854Y0016560D01*
X0057869Y0016570D01*
X0057885Y0016578D01*
X0057914Y0016591D01*
X0057941Y0016599D01*
X0057966Y0016605D01*
X0057976Y0016607D01*
X0057986Y0016608D01*
X0057993Y0016609D01*
X0058184D01*
X0058195Y0016608D01*
D02*
G37*
G36*
X0059376Y0021608D02*
X0059384Y0021604D01*
X0059392Y0021597D01*
X0059396Y0021591D01*
X0059399Y0021584D01*
X0059400Y0021577D01*
Y0021573D01*
Y0021571D01*
Y0020851D01*
X0059399Y0020833D01*
X0059397Y0020814D01*
X0059389Y0020780D01*
X0059377Y0020749D01*
X0059363Y0020724D01*
X0059349Y0020703D01*
X0059344Y0020694D01*
X0059338Y0020686D01*
X0059334Y0020680D01*
X0059330Y0020676D01*
X0059328Y0020675D01*
X0059327Y0020673D01*
X0059313Y0020661D01*
X0059297Y0020649D01*
X0059283Y0020639D01*
X0059267Y0020631D01*
X0059236Y0020618D01*
X0059210Y0020610D01*
X0059184Y0020604D01*
X0059174Y0020603D01*
X0059165Y0020601D01*
X0059158Y0020600D01*
X0059148D01*
X0059129Y0020601D01*
X0059111Y0020603D01*
X0059077Y0020611D01*
X0059046Y0020623D01*
X0059019Y0020637D01*
X0058998Y0020651D01*
X0058990Y0020656D01*
X0058983Y0020662D01*
X0058977Y0020666D01*
X0058971Y0020670D01*
X0058970Y0020672D01*
X0058969Y0020673D01*
X0058956Y0020687D01*
X0058945Y0020703D01*
X0058935Y0020717D01*
X0058926Y0020733D01*
X0058914Y0020762D01*
X0058904Y0020790D01*
X0058900Y0020814D01*
X0058898Y0020824D01*
X0058897Y0020834D01*
X0058895Y0020841D01*
Y0020847D01*
Y0020850D01*
Y0020851D01*
Y0021571D01*
X0058897Y0021584D01*
X0058901Y0021594D01*
X0058907Y0021599D01*
X0058912Y0021605D01*
X0058919Y0021608D01*
X0058925Y0021609D01*
X0058931D01*
X0058943Y0021608D01*
X0058952Y0021604D01*
X0058959Y0021597D01*
X0058963Y0021591D01*
X0058966Y0021584D01*
X0058967Y0021577D01*
Y0021573D01*
Y0021571D01*
Y0020851D01*
X0058970Y0020824D01*
X0058976Y0020800D01*
X0058984Y0020778D01*
X0058994Y0020759D01*
X0059004Y0020745D01*
X0059012Y0020734D01*
X0059018Y0020727D01*
X0059021Y0020724D01*
X0059041Y0020707D01*
X0059063Y0020694D01*
X0059084Y0020685D01*
X0059104Y0020679D01*
X0059121Y0020675D01*
X0059135Y0020673D01*
X0059141Y0020672D01*
X0059148D01*
X0059174Y0020675D01*
X0059200Y0020680D01*
X0059221Y0020689D01*
X0059241Y0020699D01*
X0059255Y0020707D01*
X0059266Y0020716D01*
X0059273Y0020721D01*
X0059276Y0020724D01*
X0059293Y0020745D01*
X0059306Y0020766D01*
X0059315Y0020787D01*
X0059321Y0020807D01*
X0059325Y0020824D01*
X0059327Y0020838D01*
X0059328Y0020844D01*
Y0020848D01*
Y0020850D01*
Y0020851D01*
Y0021571D01*
X0059330Y0021584D01*
X0059334Y0021594D01*
X0059339Y0021599D01*
X0059345Y0021605D01*
X0059352Y0021608D01*
X0059358Y0021609D01*
X0059363D01*
X0059376Y0021608D01*
D02*
G37*
G36*
X0058728D02*
X0058736Y0021604D01*
X0058743Y0021597D01*
X0058747Y0021591D01*
X0058750Y0021584D01*
X0058752Y0021577D01*
Y0021573D01*
Y0021571D01*
Y0020635D01*
X0058750Y0020624D01*
X0058746Y0020616D01*
X0058740Y0020608D01*
X0058733Y0020604D01*
X0058726Y0020601D01*
X0058721Y0020600D01*
X0058715D01*
X0058704Y0020601D01*
X0058695Y0020606D01*
X0058688Y0020611D01*
X0058684Y0020618D01*
X0058681Y0020624D01*
X0058680Y0020630D01*
Y0020634D01*
Y0020635D01*
Y0021571D01*
X0058681Y0021584D01*
X0058685Y0021594D01*
X0058691Y0021599D01*
X0058697Y0021605D01*
X0058704Y0021608D01*
X0058709Y0021609D01*
X0058715D01*
X0058728Y0021608D01*
D02*
G37*
G36*
X0058512D02*
X0058520Y0021604D01*
X0058527Y0021597D01*
X0058532Y0021591D01*
X0058534Y0021584D01*
X0058536Y0021577D01*
Y0021573D01*
Y0021571D01*
Y0020635D01*
X0058534Y0020624D01*
X0058530Y0020616D01*
X0058525Y0020608D01*
X0058518Y0020604D01*
X0058512Y0020601D01*
X0058506Y0020600D01*
X0058501D01*
X0058488Y0020601D01*
X0058479Y0020606D01*
X0058472Y0020611D01*
X0058468Y0020618D01*
X0058465Y0020624D01*
X0058464Y0020630D01*
Y0020634D01*
Y0020635D01*
Y0021033D01*
X0058341D01*
X0058099Y0020618D01*
X0058092Y0020610D01*
X0058083Y0020604D01*
X0058076Y0020601D01*
X0058068Y0020600D01*
X0058061Y0020601D01*
X0058055Y0020603D01*
X0058051Y0020604D01*
X0058050D01*
X0058041Y0020613D01*
X0058035Y0020620D01*
X0058033Y0020628D01*
X0058031Y0020637D01*
X0058033Y0020644D01*
X0058034Y0020649D01*
X0058035Y0020652D01*
Y0020654D01*
X0058261Y0021038D01*
X0058230Y0021047D01*
X0058202Y0021060D01*
X0058178Y0021072D01*
X0058157Y0021085D01*
X0058140Y0021098D01*
X0058127Y0021107D01*
X0058120Y0021115D01*
X0058117Y0021117D01*
X0058102Y0021134D01*
X0058089Y0021150D01*
X0058078Y0021168D01*
X0058068Y0021185D01*
X0058059Y0021202D01*
X0058052Y0021219D01*
X0058042Y0021251D01*
X0058038Y0021265D01*
X0058035Y0021278D01*
X0058034Y0021291D01*
X0058033Y0021301D01*
X0058031Y0021309D01*
Y0021315D01*
Y0021319D01*
Y0021320D01*
X0058033Y0021341D01*
X0058035Y0021363D01*
X0058040Y0021384D01*
X0058044Y0021402D01*
X0058058Y0021437D01*
X0058073Y0021467D01*
X0058082Y0021480D01*
X0058090Y0021491D01*
X0058097Y0021501D01*
X0058103Y0021508D01*
X0058109Y0021515D01*
X0058113Y0021519D01*
X0058116Y0021522D01*
X0058117Y0021523D01*
X0058133Y0021539D01*
X0058150Y0021552D01*
X0058168Y0021563D01*
X0058185Y0021573D01*
X0058202Y0021581D01*
X0058219Y0021588D01*
X0058250Y0021598D01*
X0058265Y0021602D01*
X0058278Y0021605D01*
X0058291Y0021607D01*
X0058300Y0021608D01*
X0058309Y0021609D01*
X0058501D01*
X0058512Y0021608D01*
D02*
G37*
G36*
X0033313Y0005829D02*
X0033332Y0005828D01*
X0033365Y0005819D01*
X0033396Y0005807D01*
X0033422Y0005794D01*
X0033443Y0005780D01*
X0033451Y0005773D01*
X0033460Y0005767D01*
X0033466Y0005763D01*
X0033470Y0005759D01*
X0033471Y0005757D01*
X0033473Y0005756D01*
X0033485Y0005742D01*
X0033497Y0005726D01*
X0033506Y0005711D01*
X0033515Y0005695D01*
X0033528Y0005666D01*
X0033536Y0005637D01*
X0033542Y0005613D01*
X0033543Y0005604D01*
X0033544Y0005594D01*
X0033546Y0005587D01*
Y0005581D01*
Y0005578D01*
Y0005577D01*
Y0005072D01*
X0033544Y0005054D01*
X0033543Y0005035D01*
X0033535Y0005002D01*
X0033523Y0004971D01*
X0033509Y0004945D01*
X0033495Y0004924D01*
X0033490Y0004916D01*
X0033484Y0004907D01*
X0033480Y0004902D01*
X0033475Y0004897D01*
X0033474Y0004896D01*
X0033473Y0004894D01*
X0033458Y0004882D01*
X0033443Y0004870D01*
X0033429Y0004861D01*
X0033413Y0004852D01*
X0033384Y0004839D01*
X0033356Y0004831D01*
X0033332Y0004825D01*
X0033322Y0004824D01*
X0033312Y0004823D01*
X0033305Y0004821D01*
X0033151D01*
X0033139Y0004823D01*
X0033130Y0004827D01*
X0033123Y0004832D01*
X0033119Y0004839D01*
X0033116Y0004845D01*
X0033115Y0004851D01*
Y0004855D01*
Y0004856D01*
X0033116Y0004869D01*
X0033120Y0004878D01*
X0033126Y0004885D01*
X0033133Y0004889D01*
X0033140Y0004892D01*
X0033146Y0004893D01*
X0033295D01*
X0033322Y0004896D01*
X0033346Y0004902D01*
X0033368Y0004910D01*
X0033387Y0004920D01*
X0033401Y0004928D01*
X0033412Y0004937D01*
X0033419Y0004942D01*
X0033422Y0004945D01*
X0033439Y0004966D01*
X0033451Y0004987D01*
X0033461Y0005009D01*
X0033467Y0005028D01*
X0033471Y0005045D01*
X0033473Y0005059D01*
X0033474Y0005065D01*
Y0005069D01*
Y0005071D01*
Y0005072D01*
Y0005577D01*
X0033471Y0005604D01*
X0033466Y0005629D01*
X0033457Y0005651D01*
X0033447Y0005670D01*
X0033439Y0005684D01*
X0033430Y0005695D01*
X0033425Y0005702D01*
X0033422Y0005705D01*
X0033401Y0005723D01*
X0033380Y0005736D01*
X0033358Y0005746D01*
X0033339Y0005752D01*
X0033322Y0005756D01*
X0033308Y0005757D01*
X0033302Y0005759D01*
X0033151D01*
X0033139Y0005760D01*
X0033130Y0005764D01*
X0033123Y0005770D01*
X0033119Y0005777D01*
X0033116Y0005783D01*
X0033115Y0005788D01*
Y0005792D01*
Y0005794D01*
X0033116Y0005807D01*
X0033120Y0005815D01*
X0033126Y0005822D01*
X0033133Y0005826D01*
X0033140Y0005829D01*
X0033146Y0005830D01*
X0033295D01*
X0033313Y0005829D01*
D02*
G37*
G36*
X0032945D02*
X0032954Y0005825D01*
X0032961Y0005818D01*
X0032965Y0005812D01*
X0032968Y0005805D01*
X0032969Y0005798D01*
Y0005794D01*
Y0005792D01*
Y0004856D01*
X0032968Y0004845D01*
X0032964Y0004837D01*
X0032958Y0004830D01*
X0032951Y0004825D01*
X0032945Y0004823D01*
X0032940Y0004821D01*
X0032645D01*
X0032632Y0004823D01*
X0032624Y0004827D01*
X0032617Y0004832D01*
X0032613Y0004839D01*
X0032610Y0004845D01*
X0032608Y0004851D01*
Y0004855D01*
Y0004856D01*
X0032610Y0004869D01*
X0032614Y0004878D01*
X0032620Y0004885D01*
X0032627Y0004889D01*
X0032634Y0004892D01*
X0032639Y0004893D01*
X0032897D01*
Y0005792D01*
X0032899Y0005805D01*
X0032903Y0005815D01*
X0032909Y0005821D01*
X0032916Y0005826D01*
X0032923Y0005829D01*
X0032928Y0005830D01*
X0032934D01*
X0032945Y0005829D01*
D02*
G37*
G36*
X0033960Y0005849D02*
X0033991Y0005846D01*
X0034018Y0005840D01*
X0034029Y0005838D01*
X0034038Y0005835D01*
X0034046Y0005832D01*
X0034053Y0005830D01*
X0034059Y0005828D01*
X0034063Y0005826D01*
X0034065Y0005825D01*
X0034066D01*
X0034084Y0005815D01*
X0034101Y0005804D01*
X0034117Y0005792D01*
X0034130Y0005781D01*
X0034141Y0005771D01*
X0034148Y0005764D01*
X0034153Y0005759D01*
X0034155Y0005757D01*
X0034168Y0005740D01*
X0034177Y0005723D01*
X0034184Y0005706D01*
X0034190Y0005691D01*
X0034194Y0005677D01*
X0034197Y0005666D01*
X0034199Y0005659D01*
Y0005656D01*
X0034200Y0005633D01*
X0034199Y0005613D01*
X0034196Y0005594D01*
X0034192Y0005575D01*
X0034187Y0005561D01*
X0034184Y0005550D01*
X0034182Y0005543D01*
X0034180Y0005540D01*
X0034170Y0005520D01*
X0034159Y0005502D01*
X0034148Y0005485D01*
X0034137Y0005471D01*
X0034127Y0005460D01*
X0034120Y0005451D01*
X0034114Y0005446D01*
X0034113Y0005444D01*
X0033825Y0005155D01*
X0033805Y0005131D01*
X0033790Y0005109D01*
X0033784Y0005099D01*
X0033778Y0005092D01*
X0033777Y0005086D01*
X0033776Y0005085D01*
X0033769Y0005071D01*
X0033764Y0005055D01*
X0033762Y0005041D01*
X0033759Y0005030D01*
Y0005018D01*
Y0005010D01*
Y0005004D01*
Y0005003D01*
X0033762Y0004989D01*
X0033766Y0004975D01*
X0033771Y0004964D01*
X0033777Y0004954D01*
X0033783Y0004945D01*
X0033787Y0004940D01*
X0033790Y0004935D01*
X0033791Y0004934D01*
X0033811Y0004916D01*
X0033831Y0004902D01*
X0033838Y0004896D01*
X0033845Y0004892D01*
X0033849Y0004890D01*
X0033850Y0004889D01*
X0033872Y0004880D01*
X0033896Y0004875D01*
X0033919Y0004872D01*
X0033942Y0004870D01*
X0033963Y0004872D01*
X0033986D01*
X0033990Y0004873D01*
X0033994D01*
X0034024Y0004878D01*
X0034052Y0004885D01*
X0034076Y0004893D01*
X0034097Y0004902D01*
X0034114Y0004910D01*
X0034127Y0004916D01*
X0034135Y0004921D01*
X0034137Y0004923D01*
X0034138D01*
X0034149Y0004928D01*
X0034159Y0004930D01*
X0034168Y0004928D01*
X0034175Y0004925D01*
X0034180Y0004921D01*
X0034184Y0004917D01*
X0034187Y0004914D01*
X0034189Y0004913D01*
X0034194Y0004902D01*
X0034196Y0004893D01*
X0034194Y0004885D01*
X0034192Y0004878D01*
X0034187Y0004872D01*
X0034183Y0004868D01*
X0034180Y0004865D01*
X0034179Y0004863D01*
X0034151Y0004847D01*
X0034121Y0004834D01*
X0034091Y0004823D01*
X0034063Y0004816D01*
X0034039Y0004810D01*
X0034029Y0004807D01*
X0034020Y0004806D01*
X0034013Y0004804D01*
X0034007Y0004803D01*
X0034003D01*
X0033963Y0004800D01*
X0033928Y0004801D01*
X0033897Y0004804D01*
X0033870Y0004810D01*
X0033849Y0004816D01*
X0033839Y0004818D01*
X0033832Y0004820D01*
X0033826Y0004823D01*
X0033822Y0004824D01*
X0033821Y0004825D01*
X0033819D01*
X0033801Y0004835D01*
X0033784Y0004847D01*
X0033770Y0004858D01*
X0033756Y0004869D01*
X0033746Y0004879D01*
X0033739Y0004886D01*
X0033733Y0004892D01*
X0033732Y0004893D01*
X0033719Y0004910D01*
X0033709Y0004927D01*
X0033701Y0004944D01*
X0033695Y0004959D01*
X0033691Y0004973D01*
X0033688Y0004985D01*
X0033687Y0004992D01*
Y0004995D01*
X0033685Y0005017D01*
X0033687Y0005037D01*
X0033690Y0005057D01*
X0033694Y0005073D01*
X0033698Y0005088D01*
X0033701Y0005099D01*
X0033704Y0005106D01*
X0033705Y0005109D01*
X0033715Y0005128D01*
X0033726Y0005147D01*
X0033738Y0005164D01*
X0033749Y0005178D01*
X0033759Y0005189D01*
X0033767Y0005199D01*
X0033773Y0005205D01*
X0033774Y0005206D01*
X0034060Y0005495D01*
X0034082Y0005519D01*
X0034090Y0005530D01*
X0034098Y0005540D01*
X0034104Y0005550D01*
X0034108Y0005557D01*
X0034111Y0005563D01*
X0034113Y0005564D01*
X0034118Y0005580D01*
X0034122Y0005594D01*
X0034125Y0005608D01*
X0034127Y0005620D01*
Y0005632D01*
Y0005640D01*
Y0005646D01*
Y0005647D01*
X0034124Y0005661D01*
X0034120Y0005674D01*
X0034115Y0005687D01*
X0034110Y0005697D01*
X0034104Y0005704D01*
X0034100Y0005709D01*
X0034097Y0005713D01*
X0034096Y0005715D01*
X0034075Y0005735D01*
X0034055Y0005749D01*
X0034048Y0005754D01*
X0034041Y0005759D01*
X0034036Y0005760D01*
X0034035Y0005761D01*
X0034014Y0005770D01*
X0033990Y0005774D01*
X0033966Y0005777D01*
X0033943Y0005778D01*
X0033900D01*
X0033896Y0005777D01*
X0033891D01*
X0033862Y0005773D01*
X0033835Y0005766D01*
X0033810Y0005757D01*
X0033788Y0005749D01*
X0033771Y0005740D01*
X0033759Y0005735D01*
X0033750Y0005729D01*
X0033747Y0005728D01*
X0033736Y0005722D01*
X0033726Y0005721D01*
X0033718Y0005722D01*
X0033709Y0005725D01*
X0033704Y0005729D01*
X0033700Y0005733D01*
X0033697Y0005736D01*
X0033695Y0005737D01*
X0033691Y0005749D01*
X0033690Y0005757D01*
X0033691Y0005766D01*
X0033694Y0005773D01*
X0033698Y0005778D01*
X0033701Y0005784D01*
X0033704Y0005785D01*
X0033705Y0005787D01*
X0033735Y0005804D01*
X0033766Y0005818D01*
X0033795Y0005828D01*
X0033824Y0005836D01*
X0033848Y0005842D01*
X0033857Y0005845D01*
X0033866Y0005846D01*
X0033873Y0005847D01*
X0033879Y0005849D01*
X0033883D01*
X0033924Y0005850D01*
X0033960Y0005849D01*
D02*
G37*
G36*
X0027792Y0005829D02*
X0027799Y0005826D01*
X0027806Y0005822D01*
X0027810Y0005816D01*
X0027816Y0005807D01*
X0027817Y0005804D01*
Y0005802D01*
X0027841Y0005715D01*
X0027864Y0005630D01*
X0027875Y0005589D01*
X0027885Y0005551D01*
X0027895Y0005515D01*
X0027904Y0005479D01*
X0027913Y0005448D01*
X0027920Y0005420D01*
X0027927Y0005395D01*
X0027933Y0005374D01*
X0027938Y0005357D01*
X0027941Y0005344D01*
X0027942Y0005336D01*
X0027944Y0005333D01*
X0027966Y0005245D01*
X0027989Y0005161D01*
X0028000Y0005121D01*
X0028010Y0005082D01*
X0028020Y0005045D01*
X0028028Y0005011D01*
X0028037Y0004980D01*
X0028045Y0004952D01*
X0028051Y0004927D01*
X0028057Y0004906D01*
X0028062Y0004889D01*
X0028065Y0004876D01*
X0028067Y0004869D01*
X0028068Y0004866D01*
X0028069Y0004855D01*
Y0004845D01*
X0028065Y0004838D01*
X0028059Y0004832D01*
X0028054Y0004828D01*
X0028048Y0004825D01*
X0028044Y0004823D01*
X0028031D01*
X0028021Y0004824D01*
X0028014Y0004828D01*
X0028007Y0004834D01*
X0028003Y0004838D01*
X0028000Y0004844D01*
X0027999Y0004847D01*
Y0004848D01*
X0027928Y0005110D01*
X0027635D01*
X0027563Y0004848D01*
X0027559Y0004838D01*
X0027553Y0004831D01*
X0027546Y0004827D01*
X0027539Y0004824D01*
X0027531Y0004823D01*
X0027520D01*
X0027508Y0004827D01*
X0027501Y0004834D01*
X0027496Y0004841D01*
X0027494Y0004848D01*
X0027493Y0004855D01*
Y0004861D01*
X0027494Y0004865D01*
Y0004866D01*
X0027518Y0004954D01*
X0027541Y0005037D01*
X0027552Y0005078D01*
X0027562Y0005116D01*
X0027572Y0005152D01*
X0027582Y0005186D01*
X0027590Y0005219D01*
X0027597Y0005247D01*
X0027604Y0005271D01*
X0027610Y0005293D01*
X0027615Y0005310D01*
X0027618Y0005323D01*
X0027620Y0005330D01*
X0027621Y0005333D01*
X0027645Y0005420D01*
X0027668Y0005506D01*
X0027679Y0005546D01*
X0027689Y0005585D01*
X0027699Y0005622D01*
X0027707Y0005656D01*
X0027715Y0005688D01*
X0027724Y0005716D01*
X0027730Y0005740D01*
X0027735Y0005761D01*
X0027741Y0005780D01*
X0027744Y0005792D01*
X0027745Y0005799D01*
X0027747Y0005802D01*
X0027751Y0005812D01*
X0027756Y0005819D01*
X0027762Y0005823D01*
X0027768Y0005828D01*
X0027773Y0005829D01*
X0027778Y0005830D01*
X0027782D01*
X0027792Y0005829D01*
D02*
G37*
G36*
X0028622D02*
X0028630Y0005825D01*
X0028637Y0005818D01*
X0028642Y0005812D01*
X0028644Y0005805D01*
X0028646Y0005798D01*
Y0005794D01*
Y0005792D01*
Y0004856D01*
X0028644Y0004845D01*
X0028640Y0004837D01*
X0028635Y0004830D01*
X0028628Y0004825D01*
X0028622Y0004823D01*
X0028616Y0004821D01*
X0028467D01*
X0028449Y0004823D01*
X0028430Y0004824D01*
X0028395Y0004832D01*
X0028364Y0004844D01*
X0028339Y0004858D01*
X0028316Y0004872D01*
X0028308Y0004878D01*
X0028301Y0004883D01*
X0028295Y0004887D01*
X0028289Y0004892D01*
X0028288Y0004893D01*
X0028286Y0004894D01*
X0028274Y0004909D01*
X0028262Y0004924D01*
X0028253Y0004938D01*
X0028244Y0004954D01*
X0028231Y0004983D01*
X0028222Y0005011D01*
X0028217Y0005035D01*
X0028216Y0005045D01*
X0028215Y0005055D01*
X0028213Y0005062D01*
Y0005068D01*
Y0005071D01*
Y0005072D01*
Y0005577D01*
X0028215Y0005595D01*
X0028216Y0005613D01*
X0028224Y0005649D01*
X0028236Y0005678D01*
X0028250Y0005705D01*
X0028264Y0005726D01*
X0028270Y0005735D01*
X0028275Y0005742D01*
X0028279Y0005749D01*
X0028284Y0005753D01*
X0028285Y0005754D01*
X0028286Y0005756D01*
X0028301Y0005768D01*
X0028316Y0005781D01*
X0028332Y0005791D01*
X0028347Y0005799D01*
X0028378Y0005812D01*
X0028406Y0005821D01*
X0028430Y0005826D01*
X0028440Y0005828D01*
X0028450Y0005829D01*
X0028457Y0005830D01*
X0028611D01*
X0028622Y0005829D01*
D02*
G37*
G36*
X0029060Y0005849D02*
X0029091Y0005846D01*
X0029118Y0005840D01*
X0029129Y0005838D01*
X0029138Y0005835D01*
X0029146Y0005832D01*
X0029153Y0005830D01*
X0029159Y0005828D01*
X0029163Y0005826D01*
X0029165Y0005825D01*
X0029166D01*
X0029184Y0005815D01*
X0029201Y0005804D01*
X0029217Y0005792D01*
X0029230Y0005781D01*
X0029241Y0005771D01*
X0029248Y0005764D01*
X0029253Y0005759D01*
X0029255Y0005757D01*
X0029268Y0005740D01*
X0029277Y0005723D01*
X0029284Y0005706D01*
X0029290Y0005691D01*
X0029294Y0005677D01*
X0029297Y0005666D01*
X0029299Y0005659D01*
Y0005656D01*
X0029300Y0005633D01*
X0029299Y0005613D01*
X0029296Y0005594D01*
X0029292Y0005575D01*
X0029287Y0005561D01*
X0029284Y0005550D01*
X0029282Y0005543D01*
X0029280Y0005540D01*
X0029270Y0005520D01*
X0029259Y0005502D01*
X0029248Y0005485D01*
X0029237Y0005471D01*
X0029227Y0005460D01*
X0029220Y0005451D01*
X0029214Y0005446D01*
X0029213Y0005444D01*
X0028925Y0005155D01*
X0028905Y0005131D01*
X0028890Y0005109D01*
X0028884Y0005099D01*
X0028878Y0005092D01*
X0028877Y0005086D01*
X0028876Y0005085D01*
X0028869Y0005071D01*
X0028864Y0005055D01*
X0028862Y0005041D01*
X0028859Y0005030D01*
Y0005018D01*
Y0005010D01*
Y0005004D01*
Y0005003D01*
X0028862Y0004989D01*
X0028866Y0004975D01*
X0028871Y0004964D01*
X0028877Y0004954D01*
X0028883Y0004945D01*
X0028887Y0004940D01*
X0028890Y0004935D01*
X0028891Y0004934D01*
X0028911Y0004916D01*
X0028931Y0004902D01*
X0028938Y0004896D01*
X0028945Y0004892D01*
X0028949Y0004890D01*
X0028950Y0004889D01*
X0028972Y0004880D01*
X0028996Y0004875D01*
X0029019Y0004872D01*
X0029042Y0004870D01*
X0029063Y0004872D01*
X0029086D01*
X0029090Y0004873D01*
X0029094D01*
X0029124Y0004878D01*
X0029152Y0004885D01*
X0029176Y0004893D01*
X0029197Y0004902D01*
X0029214Y0004910D01*
X0029227Y0004916D01*
X0029235Y0004921D01*
X0029237Y0004923D01*
X0029238D01*
X0029249Y0004928D01*
X0029259Y0004930D01*
X0029268Y0004928D01*
X0029275Y0004925D01*
X0029280Y0004921D01*
X0029284Y0004917D01*
X0029287Y0004914D01*
X0029289Y0004913D01*
X0029294Y0004902D01*
X0029296Y0004893D01*
X0029294Y0004885D01*
X0029292Y0004878D01*
X0029287Y0004872D01*
X0029283Y0004868D01*
X0029280Y0004865D01*
X0029279Y0004863D01*
X0029251Y0004847D01*
X0029221Y0004834D01*
X0029191Y0004823D01*
X0029163Y0004816D01*
X0029139Y0004810D01*
X0029129Y0004807D01*
X0029120Y0004806D01*
X0029113Y0004804D01*
X0029107Y0004803D01*
X0029103D01*
X0029063Y0004800D01*
X0029028Y0004801D01*
X0028997Y0004804D01*
X0028970Y0004810D01*
X0028949Y0004816D01*
X0028939Y0004818D01*
X0028932Y0004820D01*
X0028926Y0004823D01*
X0028922Y0004824D01*
X0028921Y0004825D01*
X0028919D01*
X0028901Y0004835D01*
X0028884Y0004847D01*
X0028870Y0004858D01*
X0028856Y0004869D01*
X0028846Y0004879D01*
X0028839Y0004886D01*
X0028833Y0004892D01*
X0028832Y0004893D01*
X0028819Y0004910D01*
X0028809Y0004927D01*
X0028801Y0004944D01*
X0028795Y0004959D01*
X0028791Y0004973D01*
X0028788Y0004985D01*
X0028787Y0004992D01*
Y0004995D01*
X0028785Y0005017D01*
X0028787Y0005037D01*
X0028790Y0005057D01*
X0028794Y0005073D01*
X0028798Y0005088D01*
X0028801Y0005099D01*
X0028804Y0005106D01*
X0028805Y0005109D01*
X0028815Y0005128D01*
X0028826Y0005147D01*
X0028838Y0005164D01*
X0028849Y0005178D01*
X0028859Y0005189D01*
X0028867Y0005199D01*
X0028873Y0005205D01*
X0028874Y0005206D01*
X0029160Y0005495D01*
X0029182Y0005519D01*
X0029190Y0005530D01*
X0029198Y0005540D01*
X0029204Y0005550D01*
X0029208Y0005557D01*
X0029211Y0005563D01*
X0029213Y0005564D01*
X0029218Y0005580D01*
X0029222Y0005594D01*
X0029225Y0005608D01*
X0029227Y0005620D01*
Y0005632D01*
Y0005640D01*
Y0005646D01*
Y0005647D01*
X0029224Y0005661D01*
X0029220Y0005674D01*
X0029215Y0005687D01*
X0029210Y0005697D01*
X0029204Y0005704D01*
X0029200Y0005709D01*
X0029197Y0005713D01*
X0029196Y0005715D01*
X0029175Y0005735D01*
X0029155Y0005749D01*
X0029148Y0005754D01*
X0029141Y0005759D01*
X0029136Y0005760D01*
X0029135Y0005761D01*
X0029114Y0005770D01*
X0029090Y0005774D01*
X0029066Y0005777D01*
X0029043Y0005778D01*
X0029000D01*
X0028996Y0005777D01*
X0028991D01*
X0028962Y0005773D01*
X0028935Y0005766D01*
X0028910Y0005757D01*
X0028888Y0005749D01*
X0028871Y0005740D01*
X0028859Y0005735D01*
X0028850Y0005729D01*
X0028847Y0005728D01*
X0028836Y0005722D01*
X0028826Y0005721D01*
X0028818Y0005722D01*
X0028809Y0005725D01*
X0028804Y0005729D01*
X0028800Y0005733D01*
X0028797Y0005736D01*
X0028795Y0005737D01*
X0028791Y0005749D01*
X0028790Y0005757D01*
X0028791Y0005766D01*
X0028794Y0005773D01*
X0028798Y0005778D01*
X0028801Y0005784D01*
X0028804Y0005785D01*
X0028805Y0005787D01*
X0028835Y0005804D01*
X0028866Y0005818D01*
X0028895Y0005828D01*
X0028924Y0005836D01*
X0028948Y0005842D01*
X0028957Y0005845D01*
X0028966Y0005846D01*
X0028973Y0005847D01*
X0028979Y0005849D01*
X0028983D01*
X0029024Y0005850D01*
X0029060Y0005849D01*
D02*
G37*
G36*
X0009422Y0008129D02*
X0009429Y0008126D01*
X0009436Y0008122D01*
X0009441Y0008116D01*
X0009446Y0008107D01*
X0009448Y0008104D01*
Y0008102D01*
X0009472Y0008015D01*
X0009494Y0007930D01*
X0009505Y0007889D01*
X0009515Y0007851D01*
X0009525Y0007815D01*
X0009535Y0007779D01*
X0009544Y0007748D01*
X0009551Y0007720D01*
X0009558Y0007695D01*
X0009563Y0007674D01*
X0009569Y0007657D01*
X0009572Y0007644D01*
X0009573Y0007636D01*
X0009575Y0007633D01*
X0009597Y0007545D01*
X0009620Y0007461D01*
X0009631Y0007421D01*
X0009641Y0007382D01*
X0009651Y0007345D01*
X0009659Y0007311D01*
X0009668Y0007280D01*
X0009676Y0007252D01*
X0009682Y0007227D01*
X0009687Y0007206D01*
X0009693Y0007189D01*
X0009696Y0007176D01*
X0009697Y0007169D01*
X0009699Y0007166D01*
X0009700Y0007155D01*
Y0007145D01*
X0009696Y0007138D01*
X0009690Y0007132D01*
X0009684Y0007128D01*
X0009679Y0007125D01*
X0009675Y0007123D01*
X0009662D01*
X0009652Y0007124D01*
X0009645Y0007128D01*
X0009638Y0007134D01*
X0009634Y0007138D01*
X0009631Y0007144D01*
X0009630Y0007147D01*
Y0007148D01*
X0009559Y0007410D01*
X0009266D01*
X0009194Y0007148D01*
X0009190Y0007138D01*
X0009184Y0007131D01*
X0009177Y0007127D01*
X0009170Y0007124D01*
X0009161Y0007123D01*
X0009150D01*
X0009139Y0007127D01*
X0009132Y0007134D01*
X0009126Y0007141D01*
X0009125Y0007148D01*
X0009123Y0007155D01*
Y0007161D01*
X0009125Y0007165D01*
Y0007166D01*
X0009149Y0007254D01*
X0009171Y0007337D01*
X0009183Y0007378D01*
X0009193Y0007416D01*
X0009202Y0007452D01*
X0009212Y0007486D01*
X0009221Y0007519D01*
X0009228Y0007547D01*
X0009235Y0007571D01*
X0009240Y0007593D01*
X0009246Y0007610D01*
X0009249Y0007623D01*
X0009250Y0007630D01*
X0009252Y0007633D01*
X0009276Y0007720D01*
X0009298Y0007806D01*
X0009310Y0007846D01*
X0009319Y0007885D01*
X0009329Y0007922D01*
X0009338Y0007956D01*
X0009346Y0007988D01*
X0009355Y0008016D01*
X0009360Y0008040D01*
X0009366Y0008061D01*
X0009372Y0008080D01*
X0009374Y0008092D01*
X0009376Y0008099D01*
X0009377Y0008102D01*
X0009381Y0008112D01*
X0009387Y0008119D01*
X0009393Y0008123D01*
X0009398Y0008128D01*
X0009404Y0008129D01*
X0009408Y0008130D01*
X0009412D01*
X0009422Y0008129D01*
D02*
G37*
G36*
X0008956D02*
X0008964Y0008125D01*
X0008971Y0008118D01*
X0008975Y0008112D01*
X0008978Y0008105D01*
X0008980Y0008098D01*
Y0008094D01*
Y0008092D01*
Y0007156D01*
X0008978Y0007145D01*
X0008974Y0007137D01*
X0008968Y0007130D01*
X0008961Y0007125D01*
X0008956Y0007123D01*
X0008950Y0007121D01*
X0008801D01*
X0008782Y0007123D01*
X0008764Y0007124D01*
X0008729Y0007132D01*
X0008698Y0007144D01*
X0008672Y0007158D01*
X0008650Y0007172D01*
X0008641Y0007178D01*
X0008634Y0007183D01*
X0008629Y0007187D01*
X0008623Y0007192D01*
X0008622Y0007193D01*
X0008620Y0007194D01*
X0008607Y0007209D01*
X0008596Y0007224D01*
X0008586Y0007238D01*
X0008578Y0007254D01*
X0008565Y0007283D01*
X0008555Y0007311D01*
X0008551Y0007335D01*
X0008550Y0007345D01*
X0008548Y0007355D01*
X0008547Y0007362D01*
Y0007368D01*
Y0007371D01*
Y0007372D01*
Y0007877D01*
X0008548Y0007895D01*
X0008550Y0007913D01*
X0008558Y0007949D01*
X0008569Y0007978D01*
X0008584Y0008005D01*
X0008598Y0008026D01*
X0008603Y0008035D01*
X0008609Y0008042D01*
X0008613Y0008049D01*
X0008617Y0008053D01*
X0008619Y0008054D01*
X0008620Y0008056D01*
X0008634Y0008068D01*
X0008650Y0008081D01*
X0008665Y0008091D01*
X0008681Y0008099D01*
X0008712Y0008112D01*
X0008740Y0008121D01*
X0008764Y0008126D01*
X0008774Y0008128D01*
X0008784Y0008129D01*
X0008791Y0008130D01*
X0008944D01*
X0008956Y0008129D01*
D02*
G37*
G36*
X0008379D02*
X0008388Y0008125D01*
X0008395Y0008118D01*
X0008399Y0008112D01*
X0008402Y0008105D01*
X0008403Y0008098D01*
Y0008094D01*
Y0008092D01*
Y0007156D01*
X0008402Y0007145D01*
X0008397Y0007137D01*
X0008392Y0007130D01*
X0008385Y0007125D01*
X0008379Y0007123D01*
X0008373Y0007121D01*
X0008224D01*
X0008206Y0007123D01*
X0008187Y0007124D01*
X0008152Y0007132D01*
X0008121Y0007144D01*
X0008096Y0007158D01*
X0008073Y0007172D01*
X0008065Y0007178D01*
X0008058Y0007183D01*
X0008052Y0007187D01*
X0008046Y0007192D01*
X0008045Y0007193D01*
X0008044Y0007194D01*
X0008031Y0007209D01*
X0008020Y0007224D01*
X0008010Y0007238D01*
X0008001Y0007254D01*
X0007989Y0007283D01*
X0007979Y0007311D01*
X0007975Y0007335D01*
X0007973Y0007345D01*
X0007972Y0007355D01*
X0007970Y0007362D01*
Y0007368D01*
Y0007371D01*
Y0007372D01*
Y0007877D01*
X0007972Y0007895D01*
X0007973Y0007913D01*
X0007982Y0007949D01*
X0007993Y0007978D01*
X0008007Y0008005D01*
X0008021Y0008026D01*
X0008027Y0008035D01*
X0008032Y0008042D01*
X0008037Y0008049D01*
X0008041Y0008053D01*
X0008042Y0008054D01*
X0008044Y0008056D01*
X0008058Y0008068D01*
X0008073Y0008081D01*
X0008089Y0008091D01*
X0008104Y0008099D01*
X0008135Y0008112D01*
X0008163Y0008121D01*
X0008187Y0008126D01*
X0008197Y0008128D01*
X0008207Y0008129D01*
X0008214Y0008130D01*
X0008368D01*
X0008379Y0008129D01*
D02*
G37*
G36*
X0007803D02*
X0007811Y0008125D01*
X0007818Y0008118D01*
X0007822Y0008112D01*
X0007825Y0008105D01*
X0007827Y0008098D01*
Y0008094D01*
Y0008092D01*
Y0007156D01*
X0007825Y0007145D01*
X0007821Y0007137D01*
X0007815Y0007130D01*
X0007808Y0007125D01*
X0007803Y0007123D01*
X0007797Y0007121D01*
X0007791D01*
X0007779Y0007123D01*
X0007770Y0007127D01*
X0007763Y0007132D01*
X0007759Y0007139D01*
X0007756Y0007145D01*
X0007755Y0007151D01*
Y0007155D01*
Y0007156D01*
Y0007554D01*
X0007632D01*
X0007390Y0007139D01*
X0007382Y0007131D01*
X0007374Y0007125D01*
X0007367Y0007123D01*
X0007358Y0007121D01*
X0007351Y0007123D01*
X0007346Y0007124D01*
X0007342Y0007125D01*
X0007340D01*
X0007332Y0007134D01*
X0007326Y0007141D01*
X0007323Y0007149D01*
X0007322Y0007158D01*
X0007323Y0007165D01*
X0007325Y0007170D01*
X0007326Y0007173D01*
Y0007175D01*
X0007552Y0007560D01*
X0007521Y0007568D01*
X0007492Y0007581D01*
X0007468Y0007593D01*
X0007447Y0007606D01*
X0007430Y0007619D01*
X0007418Y0007629D01*
X0007411Y0007636D01*
X0007408Y0007639D01*
X0007392Y0007655D01*
X0007380Y0007671D01*
X0007368Y0007689D01*
X0007358Y0007706D01*
X0007350Y0007723D01*
X0007343Y0007740D01*
X0007333Y0007772D01*
X0007329Y0007787D01*
X0007326Y0007799D01*
X0007325Y0007812D01*
X0007323Y0007822D01*
X0007322Y0007830D01*
Y0007836D01*
Y0007840D01*
Y0007842D01*
X0007323Y0007863D01*
X0007326Y0007884D01*
X0007330Y0007905D01*
X0007335Y0007923D01*
X0007349Y0007959D01*
X0007364Y0007988D01*
X0007373Y0008001D01*
X0007381Y0008012D01*
X0007388Y0008022D01*
X0007394Y0008029D01*
X0007399Y0008036D01*
X0007404Y0008040D01*
X0007406Y0008043D01*
X0007408Y0008045D01*
X0007423Y0008060D01*
X0007440Y0008073D01*
X0007459Y0008084D01*
X0007475Y0008094D01*
X0007492Y0008102D01*
X0007509Y0008109D01*
X0007540Y0008119D01*
X0007556Y0008123D01*
X0007569Y0008126D01*
X0007581Y0008128D01*
X0007591Y0008129D01*
X0007600Y0008130D01*
X0007791D01*
X0007803Y0008129D01*
D02*
G37*
G36*
X0007154D02*
X0007163Y0008125D01*
X0007170Y0008118D01*
X0007174Y0008112D01*
X0007177Y0008105D01*
X0007178Y0008098D01*
Y0008094D01*
Y0008092D01*
Y0007156D01*
X0007177Y0007145D01*
X0007172Y0007137D01*
X0007167Y0007130D01*
X0007160Y0007125D01*
X0007153Y0007123D01*
X0007147Y0007121D01*
X0006783D01*
X0006771Y0007123D01*
X0006762Y0007127D01*
X0006755Y0007132D01*
X0006751Y0007139D01*
X0006748Y0007145D01*
X0006747Y0007151D01*
Y0007155D01*
Y0007156D01*
X0006748Y0007169D01*
X0006752Y0007178D01*
X0006758Y0007185D01*
X0006765Y0007189D01*
X0006772Y0007192D01*
X0006778Y0007193D01*
X0007106D01*
Y0007626D01*
X0006926D01*
X0006913Y0007627D01*
X0006905Y0007631D01*
X0006898Y0007637D01*
X0006893Y0007644D01*
X0006890Y0007650D01*
X0006889Y0007655D01*
Y0007660D01*
Y0007661D01*
X0006890Y0007674D01*
X0006895Y0007682D01*
X0006900Y0007689D01*
X0006907Y0007693D01*
X0006914Y0007696D01*
X0006920Y0007698D01*
X0007106D01*
Y0008059D01*
X0006783D01*
X0006771Y0008060D01*
X0006762Y0008064D01*
X0006755Y0008070D01*
X0006751Y0008077D01*
X0006748Y0008083D01*
X0006747Y0008088D01*
Y0008092D01*
Y0008094D01*
X0006748Y0008107D01*
X0006752Y0008115D01*
X0006758Y0008122D01*
X0006765Y0008126D01*
X0006772Y0008129D01*
X0006778Y0008130D01*
X0007141D01*
X0007154Y0008129D01*
D02*
G37*
G36*
X0006367Y0008149D02*
X0006398Y0008146D01*
X0006425Y0008140D01*
X0006437Y0008138D01*
X0006445Y0008135D01*
X0006453Y0008132D01*
X0006461Y0008130D01*
X0006466Y0008128D01*
X0006470Y0008126D01*
X0006472Y0008125D01*
X0006473D01*
X0006492Y0008115D01*
X0006508Y0008104D01*
X0006524Y0008092D01*
X0006537Y0008081D01*
X0006548Y0008071D01*
X0006555Y0008064D01*
X0006561Y0008059D01*
X0006562Y0008057D01*
X0006575Y0008040D01*
X0006585Y0008023D01*
X0006592Y0008006D01*
X0006597Y0007991D01*
X0006601Y0007977D01*
X0006604Y0007966D01*
X0006606Y0007959D01*
Y0007956D01*
X0006607Y0007933D01*
X0006606Y0007913D01*
X0006603Y0007894D01*
X0006599Y0007875D01*
X0006594Y0007861D01*
X0006592Y0007850D01*
X0006589Y0007843D01*
X0006587Y0007840D01*
X0006578Y0007820D01*
X0006566Y0007802D01*
X0006555Y0007785D01*
X0006544Y0007771D01*
X0006534Y0007760D01*
X0006527Y0007751D01*
X0006521Y0007746D01*
X0006520Y0007744D01*
X0006232Y0007455D01*
X0006212Y0007431D01*
X0006197Y0007409D01*
X0006191Y0007399D01*
X0006186Y0007392D01*
X0006184Y0007386D01*
X0006183Y0007385D01*
X0006176Y0007371D01*
X0006172Y0007355D01*
X0006169Y0007341D01*
X0006166Y0007330D01*
Y0007319D01*
Y0007310D01*
Y0007304D01*
Y0007303D01*
X0006169Y0007289D01*
X0006173Y0007275D01*
X0006179Y0007264D01*
X0006184Y0007254D01*
X0006190Y0007245D01*
X0006194Y0007240D01*
X0006197Y0007235D01*
X0006198Y0007234D01*
X0006218Y0007216D01*
X0006238Y0007201D01*
X0006245Y0007196D01*
X0006252Y0007192D01*
X0006256Y0007190D01*
X0006258Y0007189D01*
X0006279Y0007180D01*
X0006303Y0007175D01*
X0006327Y0007172D01*
X0006349Y0007170D01*
X0006370Y0007172D01*
X0006393D01*
X0006397Y0007173D01*
X0006401D01*
X0006431Y0007178D01*
X0006459Y0007185D01*
X0006483Y0007193D01*
X0006504Y0007201D01*
X0006521Y0007210D01*
X0006534Y0007216D01*
X0006542Y0007221D01*
X0006544Y0007223D01*
X0006545D01*
X0006556Y0007228D01*
X0006566Y0007230D01*
X0006575Y0007228D01*
X0006582Y0007225D01*
X0006587Y0007221D01*
X0006592Y0007217D01*
X0006594Y0007214D01*
X0006596Y0007213D01*
X0006601Y0007201D01*
X0006603Y0007193D01*
X0006601Y0007185D01*
X0006599Y0007178D01*
X0006594Y0007172D01*
X0006590Y0007168D01*
X0006587Y0007165D01*
X0006586Y0007163D01*
X0006558Y0007147D01*
X0006528Y0007134D01*
X0006499Y0007123D01*
X0006470Y0007116D01*
X0006446Y0007110D01*
X0006437Y0007107D01*
X0006427Y0007106D01*
X0006420Y0007104D01*
X0006414Y0007103D01*
X0006410D01*
X0006370Y0007100D01*
X0006335Y0007101D01*
X0006304Y0007104D01*
X0006277Y0007110D01*
X0006256Y0007116D01*
X0006246Y0007118D01*
X0006239Y0007120D01*
X0006234Y0007123D01*
X0006229Y0007124D01*
X0006228Y0007125D01*
X0006227D01*
X0006208Y0007135D01*
X0006191Y0007147D01*
X0006177Y0007158D01*
X0006163Y0007169D01*
X0006153Y0007179D01*
X0006146Y0007186D01*
X0006141Y0007192D01*
X0006139Y0007193D01*
X0006126Y0007210D01*
X0006117Y0007227D01*
X0006108Y0007244D01*
X0006102Y0007259D01*
X0006098Y0007273D01*
X0006095Y0007285D01*
X0006094Y0007292D01*
Y0007295D01*
X0006093Y0007317D01*
X0006094Y0007337D01*
X0006097Y0007357D01*
X0006101Y0007373D01*
X0006105Y0007388D01*
X0006108Y0007399D01*
X0006111Y0007406D01*
X0006112Y0007409D01*
X0006122Y0007428D01*
X0006133Y0007447D01*
X0006145Y0007464D01*
X0006156Y0007478D01*
X0006166Y0007489D01*
X0006174Y0007499D01*
X0006180Y0007505D01*
X0006181Y0007506D01*
X0006468Y0007795D01*
X0006489Y0007819D01*
X0006497Y0007830D01*
X0006506Y0007840D01*
X0006511Y0007850D01*
X0006515Y0007857D01*
X0006518Y0007863D01*
X0006520Y0007864D01*
X0006525Y0007880D01*
X0006530Y0007894D01*
X0006532Y0007908D01*
X0006534Y0007920D01*
Y0007932D01*
Y0007940D01*
Y0007946D01*
Y0007947D01*
X0006531Y0007961D01*
X0006527Y0007974D01*
X0006523Y0007987D01*
X0006517Y0007997D01*
X0006511Y0008004D01*
X0006507Y0008009D01*
X0006504Y0008013D01*
X0006503Y0008015D01*
X0006482Y0008035D01*
X0006462Y0008049D01*
X0006455Y0008054D01*
X0006448Y0008059D01*
X0006444Y0008060D01*
X0006442Y0008061D01*
X0006421Y0008070D01*
X0006397Y0008074D01*
X0006373Y0008077D01*
X0006351Y0008078D01*
X0006307D01*
X0006303Y0008077D01*
X0006298D01*
X0006269Y0008073D01*
X0006242Y0008066D01*
X0006217Y0008057D01*
X0006195Y0008049D01*
X0006179Y0008040D01*
X0006166Y0008035D01*
X0006157Y0008029D01*
X0006155Y0008028D01*
X0006143Y0008022D01*
X0006133Y0008021D01*
X0006125Y0008022D01*
X0006117Y0008025D01*
X0006111Y0008029D01*
X0006107Y0008033D01*
X0006104Y0008036D01*
X0006102Y0008037D01*
X0006098Y0008049D01*
X0006097Y0008057D01*
X0006098Y0008066D01*
X0006101Y0008073D01*
X0006105Y0008078D01*
X0006108Y0008084D01*
X0006111Y0008085D01*
X0006112Y0008087D01*
X0006142Y0008104D01*
X0006173Y0008118D01*
X0006203Y0008128D01*
X0006231Y0008136D01*
X0006255Y0008142D01*
X0006265Y0008145D01*
X0006273Y0008146D01*
X0006280Y0008147D01*
X0006286Y0008149D01*
X0006290D01*
X0006331Y0008150D01*
X0006367Y0008149D01*
D02*
G37*
G36*
X0005719D02*
X0005750Y0008146D01*
X0005777Y0008140D01*
X0005788Y0008138D01*
X0005797Y0008135D01*
X0005805Y0008132D01*
X0005812Y0008130D01*
X0005818Y0008128D01*
X0005822Y0008126D01*
X0005823Y0008125D01*
X0005825D01*
X0005843Y0008115D01*
X0005860Y0008104D01*
X0005875Y0008092D01*
X0005888Y0008081D01*
X0005899Y0008071D01*
X0005906Y0008064D01*
X0005912Y0008059D01*
X0005914Y0008057D01*
X0005926Y0008040D01*
X0005936Y0008023D01*
X0005943Y0008006D01*
X0005949Y0007991D01*
X0005953Y0007977D01*
X0005956Y0007966D01*
X0005957Y0007959D01*
Y0007956D01*
X0005959Y0007933D01*
X0005957Y0007913D01*
X0005954Y0007894D01*
X0005950Y0007875D01*
X0005946Y0007861D01*
X0005943Y0007850D01*
X0005940Y0007843D01*
X0005939Y0007840D01*
X0005929Y0007820D01*
X0005918Y0007802D01*
X0005906Y0007785D01*
X0005895Y0007771D01*
X0005885Y0007760D01*
X0005878Y0007751D01*
X0005873Y0007746D01*
X0005871Y0007744D01*
X0005584Y0007455D01*
X0005564Y0007431D01*
X0005548Y0007409D01*
X0005543Y0007399D01*
X0005537Y0007392D01*
X0005536Y0007386D01*
X0005534Y0007385D01*
X0005527Y0007371D01*
X0005523Y0007355D01*
X0005520Y0007341D01*
X0005517Y0007330D01*
Y0007319D01*
Y0007310D01*
Y0007304D01*
Y0007303D01*
X0005520Y0007289D01*
X0005524Y0007275D01*
X0005530Y0007264D01*
X0005536Y0007254D01*
X0005541Y0007245D01*
X0005546Y0007240D01*
X0005548Y0007235D01*
X0005550Y0007234D01*
X0005570Y0007216D01*
X0005589Y0007201D01*
X0005596Y0007196D01*
X0005603Y0007192D01*
X0005608Y0007190D01*
X0005609Y0007189D01*
X0005630Y0007180D01*
X0005654Y0007175D01*
X0005678Y0007172D01*
X0005701Y0007170D01*
X0005722Y0007172D01*
X0005744D01*
X0005749Y0007173D01*
X0005753D01*
X0005782Y0007178D01*
X0005811Y0007185D01*
X0005835Y0007193D01*
X0005856Y0007201D01*
X0005873Y0007210D01*
X0005885Y0007216D01*
X0005894Y0007221D01*
X0005895Y0007223D01*
X0005897D01*
X0005908Y0007228D01*
X0005918Y0007230D01*
X0005926Y0007228D01*
X0005933Y0007225D01*
X0005939Y0007221D01*
X0005943Y0007217D01*
X0005946Y0007214D01*
X0005947Y0007213D01*
X0005953Y0007201D01*
X0005954Y0007193D01*
X0005953Y0007185D01*
X0005950Y0007178D01*
X0005946Y0007172D01*
X0005942Y0007168D01*
X0005939Y0007165D01*
X0005938Y0007163D01*
X0005909Y0007147D01*
X0005880Y0007134D01*
X0005850Y0007123D01*
X0005822Y0007116D01*
X0005798Y0007110D01*
X0005788Y0007107D01*
X0005778Y0007106D01*
X0005771Y0007104D01*
X0005766Y0007103D01*
X0005761D01*
X0005722Y0007100D01*
X0005687Y0007101D01*
X0005656Y0007104D01*
X0005629Y0007110D01*
X0005608Y0007116D01*
X0005598Y0007118D01*
X0005591Y0007120D01*
X0005585Y0007123D01*
X0005581Y0007124D01*
X0005579Y0007125D01*
X0005578D01*
X0005560Y0007135D01*
X0005543Y0007147D01*
X0005529Y0007158D01*
X0005515Y0007169D01*
X0005505Y0007179D01*
X0005498Y0007186D01*
X0005492Y0007192D01*
X0005491Y0007193D01*
X0005478Y0007210D01*
X0005468Y0007227D01*
X0005460Y0007244D01*
X0005454Y0007259D01*
X0005450Y0007273D01*
X0005447Y0007285D01*
X0005446Y0007292D01*
Y0007295D01*
X0005444Y0007317D01*
X0005446Y0007337D01*
X0005448Y0007357D01*
X0005453Y0007373D01*
X0005457Y0007388D01*
X0005460Y0007399D01*
X0005462Y0007406D01*
X0005464Y0007409D01*
X0005474Y0007428D01*
X0005485Y0007447D01*
X0005496Y0007464D01*
X0005508Y0007478D01*
X0005517Y0007489D01*
X0005526Y0007499D01*
X0005532Y0007505D01*
X0005533Y0007506D01*
X0005819Y0007795D01*
X0005840Y0007819D01*
X0005849Y0007830D01*
X0005857Y0007840D01*
X0005863Y0007850D01*
X0005867Y0007857D01*
X0005870Y0007863D01*
X0005871Y0007864D01*
X0005877Y0007880D01*
X0005881Y0007894D01*
X0005884Y0007908D01*
X0005885Y0007920D01*
Y0007932D01*
Y0007940D01*
Y0007946D01*
Y0007947D01*
X0005883Y0007961D01*
X0005878Y0007974D01*
X0005874Y0007987D01*
X0005868Y0007997D01*
X0005863Y0008004D01*
X0005859Y0008009D01*
X0005856Y0008013D01*
X0005854Y0008015D01*
X0005833Y0008035D01*
X0005813Y0008049D01*
X0005806Y0008054D01*
X0005799Y0008059D01*
X0005795Y0008060D01*
X0005794Y0008061D01*
X0005773Y0008070D01*
X0005749Y0008074D01*
X0005725Y0008077D01*
X0005702Y0008078D01*
X0005658D01*
X0005654Y0008077D01*
X0005650D01*
X0005620Y0008073D01*
X0005594Y0008066D01*
X0005568Y0008057D01*
X0005547Y0008049D01*
X0005530Y0008040D01*
X0005517Y0008035D01*
X0005509Y0008029D01*
X0005506Y0008028D01*
X0005495Y0008022D01*
X0005485Y0008021D01*
X0005477Y0008022D01*
X0005468Y0008025D01*
X0005462Y0008029D01*
X0005458Y0008033D01*
X0005455Y0008036D01*
X0005454Y0008037D01*
X0005450Y0008049D01*
X0005448Y0008057D01*
X0005450Y0008066D01*
X0005453Y0008073D01*
X0005457Y0008078D01*
X0005460Y0008084D01*
X0005462Y0008085D01*
X0005464Y0008087D01*
X0005493Y0008104D01*
X0005524Y0008118D01*
X0005554Y0008128D01*
X0005582Y0008136D01*
X0005606Y0008142D01*
X0005616Y0008145D01*
X0005625Y0008146D01*
X0005632Y0008147D01*
X0005637Y0008149D01*
X0005641D01*
X0005682Y0008150D01*
X0005719Y0008149D01*
D02*
G37*
G36*
X0006967Y0013208D02*
X0006986Y0013207D01*
X0007020Y0013198D01*
X0007051Y0013185D01*
X0007076Y0013173D01*
X0007097Y0013159D01*
X0007106Y0013152D01*
X0007114Y0013146D01*
X0007120Y0013142D01*
X0007124Y0013137D01*
X0007125Y0013136D01*
X0007127Y0013135D01*
X0007139Y0013121D01*
X0007151Y0013105D01*
X0007161Y0013090D01*
X0007169Y0013075D01*
X0007182Y0013044D01*
X0007190Y0013018D01*
X0007196Y0012994D01*
X0007197Y0012982D01*
X0007199Y0012974D01*
X0007200Y0012967D01*
Y0012961D01*
Y0012958D01*
Y0012957D01*
Y0012451D01*
X0007199Y0012433D01*
X0007197Y0012414D01*
X0007189Y0012380D01*
X0007177Y0012349D01*
X0007163Y0012324D01*
X0007149Y0012303D01*
X0007144Y0012294D01*
X0007138Y0012286D01*
X0007134Y0012280D01*
X0007130Y0012276D01*
X0007128Y0012275D01*
X0007127Y0012273D01*
X0007113Y0012261D01*
X0007097Y0012249D01*
X0007083Y0012239D01*
X0007067Y0012231D01*
X0007038Y0012218D01*
X0007010Y0012210D01*
X0006986Y0012204D01*
X0006976Y0012203D01*
X0006966Y0012201D01*
X0006959Y0012200D01*
X0006949D01*
X0006931Y0012201D01*
X0006912Y0012203D01*
X0006877Y0012211D01*
X0006846Y0012223D01*
X0006821Y0012237D01*
X0006798Y0012251D01*
X0006790Y0012256D01*
X0006783Y0012262D01*
X0006777Y0012266D01*
X0006771Y0012270D01*
X0006770Y0012272D01*
X0006769Y0012273D01*
X0006756Y0012287D01*
X0006745Y0012303D01*
X0006735Y0012317D01*
X0006726Y0012333D01*
X0006714Y0012362D01*
X0006704Y0012390D01*
X0006700Y0012414D01*
X0006698Y0012424D01*
X0006697Y0012434D01*
X0006695Y0012441D01*
Y0012447D01*
Y0012450D01*
Y0012451D01*
Y0012957D01*
X0006697Y0012975D01*
X0006698Y0012994D01*
X0006707Y0013028D01*
X0006718Y0013059D01*
X0006732Y0013084D01*
X0006746Y0013105D01*
X0006752Y0013113D01*
X0006757Y0013121D01*
X0006762Y0013128D01*
X0006766Y0013132D01*
X0006767Y0013133D01*
X0006769Y0013135D01*
X0006783Y0013147D01*
X0006798Y0013160D01*
X0006814Y0013170D01*
X0006829Y0013178D01*
X0006860Y0013191D01*
X0006888Y0013199D01*
X0006912Y0013205D01*
X0006922Y0013207D01*
X0006932Y0013208D01*
X0006939Y0013209D01*
X0006949D01*
X0006967Y0013208D01*
D02*
G37*
G36*
X0006095D02*
X0006103Y0013204D01*
X0006110Y0013198D01*
X0006115Y0013191D01*
X0006117Y0013184D01*
X0006119Y0013178D01*
Y0013174D01*
Y0013173D01*
Y0012237D01*
X0006117Y0012224D01*
X0006113Y0012216D01*
X0006107Y0012208D01*
X0006100Y0012204D01*
X0006095Y0012201D01*
X0006089Y0012200D01*
X0005903D01*
X0005882Y0012201D01*
X0005861Y0012204D01*
X0005840Y0012208D01*
X0005821Y0012213D01*
X0005786Y0012227D01*
X0005756Y0012242D01*
X0005744Y0012251D01*
X0005733Y0012258D01*
X0005723Y0012265D01*
X0005716Y0012272D01*
X0005709Y0012276D01*
X0005704Y0012280D01*
X0005701Y0012283D01*
X0005700Y0012285D01*
X0005685Y0012302D01*
X0005672Y0012317D01*
X0005661Y0012335D01*
X0005651Y0012352D01*
X0005642Y0012369D01*
X0005635Y0012386D01*
X0005625Y0012419D01*
X0005621Y0012433D01*
X0005618Y0012445D01*
X0005617Y0012458D01*
X0005615Y0012468D01*
X0005614Y0012476D01*
Y0012482D01*
Y0012486D01*
Y0012488D01*
X0005615Y0012509D01*
X0005618Y0012530D01*
X0005623Y0012551D01*
X0005627Y0012569D01*
X0005641Y0012605D01*
X0005656Y0012634D01*
X0005665Y0012647D01*
X0005673Y0012658D01*
X0005680Y0012668D01*
X0005686Y0012675D01*
X0005692Y0012682D01*
X0005696Y0012686D01*
X0005699Y0012689D01*
X0005700Y0012691D01*
X0005723Y0012712D01*
X0005745Y0012727D01*
X0005755Y0012734D01*
X0005762Y0012739D01*
X0005768Y0012741D01*
X0005769Y0012743D01*
X0005758Y0012751D01*
X0005749Y0012758D01*
X0005741Y0012764D01*
X0005735Y0012770D01*
X0005731Y0012772D01*
X0005728Y0012775D01*
X0005725Y0012778D01*
X0005713Y0012792D01*
X0005700Y0012806D01*
X0005690Y0012822D01*
X0005682Y0012837D01*
X0005669Y0012867D01*
X0005661Y0012895D01*
X0005655Y0012920D01*
X0005654Y0012930D01*
X0005652Y0012940D01*
X0005651Y0012947D01*
Y0012953D01*
Y0012956D01*
Y0012957D01*
X0005652Y0012977D01*
X0005654Y0012995D01*
X0005662Y0013029D01*
X0005675Y0013059D01*
X0005687Y0013085D01*
X0005701Y0013106D01*
X0005709Y0013115D01*
X0005714Y0013122D01*
X0005718Y0013128D01*
X0005723Y0013132D01*
X0005724Y0013133D01*
X0005725Y0013135D01*
X0005740Y0013147D01*
X0005754Y0013160D01*
X0005769Y0013170D01*
X0005785Y0013178D01*
X0005814Y0013191D01*
X0005841Y0013199D01*
X0005866Y0013205D01*
X0005876Y0013207D01*
X0005886Y0013208D01*
X0005893Y0013209D01*
X0006084D01*
X0006095Y0013208D01*
D02*
G37*
G36*
X0006905Y0018108D02*
X0006933Y0018102D01*
X0006957Y0018094D01*
X0006979Y0018085D01*
X0006996Y0018077D01*
X0007010Y0018068D01*
X0007019Y0018063D01*
X0007020Y0018061D01*
X0007022D01*
X0007044Y0018042D01*
X0007064Y0018022D01*
X0007079Y0018001D01*
X0007092Y0017981D01*
X0007102Y0017963D01*
X0007108Y0017949D01*
X0007110Y0017943D01*
X0007112Y0017939D01*
X0007113Y0017937D01*
Y0017936D01*
X0007116Y0017923D01*
X0007115Y0017913D01*
X0007110Y0017906D01*
X0007106Y0017901D01*
X0007101Y0017896D01*
X0007096Y0017894D01*
X0007092Y0017891D01*
X0007091D01*
X0007079Y0017888D01*
X0007070Y0017889D01*
X0007061Y0017892D01*
X0007055Y0017898D01*
X0007051Y0017904D01*
X0007048Y0017908D01*
X0007046Y0017912D01*
Y0017913D01*
X0007037Y0017933D01*
X0007027Y0017950D01*
X0007016Y0017966D01*
X0007006Y0017978D01*
X0006995Y0017988D01*
X0006986Y0017997D01*
X0006981Y0018001D01*
X0006979Y0018002D01*
X0006961Y0018013D01*
X0006943Y0018022D01*
X0006926Y0018029D01*
X0006910Y0018033D01*
X0006896Y0018036D01*
X0006885Y0018037D01*
X0006875D01*
X0006848Y0018035D01*
X0006823Y0018029D01*
X0006800Y0018021D01*
X0006782Y0018011D01*
X0006768Y0018001D01*
X0006757Y0017992D01*
X0006750Y0017987D01*
X0006747Y0017984D01*
X0006728Y0017964D01*
X0006716Y0017942D01*
X0006706Y0017920D01*
X0006700Y0017901D01*
X0006696Y0017884D01*
X0006695Y0017870D01*
X0006693Y0017864D01*
Y0017860D01*
Y0017858D01*
Y0017857D01*
X0006695Y0017836D01*
X0006697Y0017818D01*
X0006703Y0017801D01*
X0006709Y0017787D01*
X0006714Y0017774D01*
X0006720Y0017765D01*
X0006723Y0017758D01*
X0006724Y0017757D01*
X0007120Y0017155D01*
X0007124Y0017148D01*
X0007126Y0017142D01*
Y0017131D01*
X0007124Y0017121D01*
X0007123Y0017120D01*
Y0017118D01*
X0007119Y0017113D01*
X0007113Y0017108D01*
X0007102Y0017103D01*
X0007093Y0017100D01*
X0006658D01*
X0006645Y0017101D01*
X0006637Y0017106D01*
X0006630Y0017111D01*
X0006625Y0017118D01*
X0006623Y0017124D01*
X0006621Y0017130D01*
Y0017134D01*
Y0017135D01*
X0006623Y0017148D01*
X0006627Y0017156D01*
X0006634Y0017163D01*
X0006640Y0017168D01*
X0006647Y0017170D01*
X0006654Y0017172D01*
X0007023D01*
X0006664Y0017717D01*
X0006649Y0017741D01*
X0006640Y0017765D01*
X0006631Y0017789D01*
X0006627Y0017810D01*
X0006624Y0017830D01*
X0006621Y0017844D01*
Y0017850D01*
Y0017854D01*
Y0017856D01*
Y0017857D01*
X0006623Y0017875D01*
X0006624Y0017894D01*
X0006633Y0017927D01*
X0006644Y0017959D01*
X0006658Y0017984D01*
X0006672Y0018005D01*
X0006678Y0018013D01*
X0006683Y0018021D01*
X0006687Y0018028D01*
X0006692Y0018032D01*
X0006693Y0018033D01*
X0006695Y0018035D01*
X0006709Y0018047D01*
X0006724Y0018060D01*
X0006740Y0018070D01*
X0006755Y0018078D01*
X0006786Y0018091D01*
X0006814Y0018099D01*
X0006838Y0018105D01*
X0006848Y0018107D01*
X0006858Y0018108D01*
X0006865Y0018109D01*
X0006875D01*
X0006905Y0018108D01*
D02*
G37*
G36*
X0007320Y0018105D02*
X0007329Y0018101D01*
X0007330Y0018099D01*
X0007332Y0018098D01*
X0007549Y0017882D01*
X0007556Y0017873D01*
X0007560Y0017863D01*
Y0017854D01*
X0007559Y0017846D01*
X0007556Y0017840D01*
X0007553Y0017834D01*
X0007550Y0017832D01*
X0007549Y0017830D01*
X0007539Y0017823D01*
X0007530Y0017819D01*
X0007522D01*
X0007514Y0017820D01*
X0007508Y0017823D01*
X0007502Y0017827D01*
X0007499Y0017829D01*
X0007498Y0017830D01*
X0007342Y0017985D01*
Y0017135D01*
X0007340Y0017124D01*
X0007336Y0017116D01*
X0007330Y0017108D01*
X0007323Y0017104D01*
X0007318Y0017101D01*
X0007312Y0017100D01*
X0007306D01*
X0007294Y0017101D01*
X0007285Y0017106D01*
X0007278Y0017111D01*
X0007274Y0017118D01*
X0007271Y0017124D01*
X0007270Y0017130D01*
Y0017134D01*
Y0017135D01*
Y0018073D01*
X0007271Y0018081D01*
X0007273Y0018087D01*
X0007281Y0018098D01*
X0007288Y0018104D01*
X0007291Y0018105D01*
X0007292D01*
X0007301Y0018108D01*
X0007315D01*
X0007320Y0018105D01*
D02*
G37*
G36*
X0008076Y0017496D02*
X0008084Y0017492D01*
X0008092Y0017486D01*
X0008096Y0017479D01*
X0008099Y0017472D01*
X0008100Y0017467D01*
Y0017462D01*
Y0017461D01*
X0008099Y0017448D01*
X0008094Y0017440D01*
X0008089Y0017433D01*
X0008082Y0017428D01*
X0008075Y0017426D01*
X0008069Y0017424D01*
X0007704D01*
X0007693Y0017426D01*
X0007684Y0017430D01*
X0007677Y0017436D01*
X0007673Y0017443D01*
X0007670Y0017450D01*
X0007669Y0017455D01*
Y0017459D01*
Y0017461D01*
X0007670Y0017474D01*
X0007674Y0017482D01*
X0007680Y0017489D01*
X0007686Y0017493D01*
X0007693Y0017496D01*
X0007698Y0017498D01*
X0008063D01*
X0008076Y0017496D01*
D02*
G37*
G36*
X0006021Y0018108D02*
X0006029Y0018104D01*
X0006036Y0018098D01*
X0006040Y0018091D01*
X0006043Y0018084D01*
X0006045Y0018078D01*
Y0018074D01*
Y0018073D01*
Y0017137D01*
X0006043Y0017124D01*
X0006039Y0017116D01*
X0006033Y0017108D01*
X0006026Y0017104D01*
X0006021Y0017101D01*
X0006015Y0017100D01*
X0005829D01*
X0005808Y0017101D01*
X0005787Y0017104D01*
X0005766Y0017108D01*
X0005747Y0017113D01*
X0005712Y0017127D01*
X0005682Y0017142D01*
X0005670Y0017151D01*
X0005658Y0017158D01*
X0005649Y0017165D01*
X0005641Y0017172D01*
X0005634Y0017176D01*
X0005630Y0017180D01*
X0005627Y0017183D01*
X0005626Y0017185D01*
X0005610Y0017201D01*
X0005598Y0017217D01*
X0005587Y0017235D01*
X0005577Y0017252D01*
X0005568Y0017269D01*
X0005561Y0017286D01*
X0005551Y0017319D01*
X0005547Y0017333D01*
X0005544Y0017345D01*
X0005543Y0017358D01*
X0005541Y0017368D01*
X0005540Y0017376D01*
Y0017382D01*
Y0017386D01*
Y0017388D01*
X0005541Y0017409D01*
X0005544Y0017430D01*
X0005548Y0017451D01*
X0005553Y0017469D01*
X0005567Y0017505D01*
X0005582Y0017534D01*
X0005591Y0017547D01*
X0005599Y0017558D01*
X0005606Y0017568D01*
X0005612Y0017575D01*
X0005618Y0017582D01*
X0005622Y0017586D01*
X0005625Y0017589D01*
X0005626Y0017591D01*
X0005649Y0017612D01*
X0005671Y0017627D01*
X0005681Y0017634D01*
X0005688Y0017639D01*
X0005694Y0017641D01*
X0005695Y0017643D01*
X0005684Y0017651D01*
X0005675Y0017658D01*
X0005667Y0017664D01*
X0005661Y0017670D01*
X0005657Y0017672D01*
X0005654Y0017675D01*
X0005651Y0017678D01*
X0005639Y0017692D01*
X0005626Y0017706D01*
X0005616Y0017722D01*
X0005608Y0017737D01*
X0005595Y0017767D01*
X0005587Y0017795D01*
X0005581Y0017820D01*
X0005579Y0017830D01*
X0005578Y0017840D01*
X0005577Y0017847D01*
Y0017853D01*
Y0017856D01*
Y0017857D01*
X0005578Y0017877D01*
X0005579Y0017895D01*
X0005588Y0017929D01*
X0005601Y0017959D01*
X0005613Y0017985D01*
X0005627Y0018006D01*
X0005634Y0018015D01*
X0005640Y0018022D01*
X0005644Y0018028D01*
X0005649Y0018032D01*
X0005650Y0018033D01*
X0005651Y0018035D01*
X0005665Y0018047D01*
X0005680Y0018060D01*
X0005695Y0018070D01*
X0005711Y0018078D01*
X0005740Y0018091D01*
X0005767Y0018099D01*
X0005792Y0018105D01*
X0005802Y0018107D01*
X0005812Y0018108D01*
X0005819Y0018109D01*
X0006009D01*
X0006021Y0018108D01*
D02*
G37*
G36*
X0007044Y0022908D02*
X0007073Y0022902D01*
X0007097Y0022894D01*
X0007119Y0022885D01*
X0007136Y0022877D01*
X0007150Y0022868D01*
X0007159Y0022863D01*
X0007160Y0022861D01*
X0007161D01*
X0007184Y0022842D01*
X0007204Y0022822D01*
X0007219Y0022801D01*
X0007232Y0022781D01*
X0007242Y0022763D01*
X0007247Y0022749D01*
X0007250Y0022743D01*
X0007252Y0022739D01*
X0007253Y0022737D01*
Y0022736D01*
X0007256Y0022723D01*
X0007255Y0022713D01*
X0007250Y0022706D01*
X0007246Y0022701D01*
X0007240Y0022696D01*
X0007236Y0022694D01*
X0007232Y0022691D01*
X0007231D01*
X0007219Y0022688D01*
X0007209Y0022689D01*
X0007201Y0022692D01*
X0007195Y0022698D01*
X0007191Y0022704D01*
X0007188Y0022708D01*
X0007185Y0022712D01*
Y0022713D01*
X0007177Y0022733D01*
X0007167Y0022750D01*
X0007156Y0022766D01*
X0007146Y0022778D01*
X0007135Y0022788D01*
X0007126Y0022797D01*
X0007121Y0022801D01*
X0007119Y0022802D01*
X0007101Y0022813D01*
X0007083Y0022822D01*
X0007066Y0022829D01*
X0007050Y0022833D01*
X0007036Y0022836D01*
X0007025Y0022837D01*
X0007015D01*
X0006988Y0022835D01*
X0006963Y0022829D01*
X0006940Y0022821D01*
X0006922Y0022811D01*
X0006908Y0022801D01*
X0006896Y0022792D01*
X0006889Y0022787D01*
X0006887Y0022784D01*
X0006868Y0022764D01*
X0006856Y0022742D01*
X0006846Y0022720D01*
X0006840Y0022701D01*
X0006836Y0022684D01*
X0006834Y0022670D01*
X0006833Y0022664D01*
Y0022660D01*
Y0022658D01*
Y0022657D01*
X0006834Y0022636D01*
X0006837Y0022618D01*
X0006843Y0022601D01*
X0006849Y0022587D01*
X0006854Y0022574D01*
X0006860Y0022565D01*
X0006863Y0022558D01*
X0006864Y0022557D01*
X0007260Y0021955D01*
X0007264Y0021948D01*
X0007266Y0021942D01*
Y0021931D01*
X0007264Y0021921D01*
X0007263Y0021920D01*
Y0021918D01*
X0007259Y0021913D01*
X0007253Y0021908D01*
X0007242Y0021903D01*
X0007233Y0021900D01*
X0006798D01*
X0006785Y0021901D01*
X0006777Y0021906D01*
X0006770Y0021911D01*
X0006765Y0021918D01*
X0006763Y0021924D01*
X0006761Y0021930D01*
Y0021934D01*
Y0021935D01*
X0006763Y0021948D01*
X0006767Y0021956D01*
X0006774Y0021963D01*
X0006779Y0021968D01*
X0006787Y0021970D01*
X0006794Y0021972D01*
X0007163D01*
X0006803Y0022517D01*
X0006789Y0022541D01*
X0006779Y0022565D01*
X0006771Y0022589D01*
X0006767Y0022610D01*
X0006764Y0022630D01*
X0006761Y0022644D01*
Y0022650D01*
Y0022654D01*
Y0022656D01*
Y0022657D01*
X0006763Y0022675D01*
X0006764Y0022694D01*
X0006772Y0022728D01*
X0006784Y0022759D01*
X0006798Y0022784D01*
X0006812Y0022805D01*
X0006818Y0022813D01*
X0006823Y0022821D01*
X0006827Y0022828D01*
X0006832Y0022832D01*
X0006833Y0022833D01*
X0006834Y0022835D01*
X0006849Y0022847D01*
X0006864Y0022860D01*
X0006880Y0022870D01*
X0006895Y0022878D01*
X0006926Y0022891D01*
X0006954Y0022899D01*
X0006978Y0022905D01*
X0006988Y0022907D01*
X0006998Y0022908D01*
X0007005Y0022909D01*
X0007015D01*
X0007044Y0022908D01*
D02*
G37*
G36*
X0007460Y0022905D02*
X0007469Y0022901D01*
X0007470Y0022899D01*
X0007472Y0022898D01*
X0007689Y0022682D01*
X0007696Y0022673D01*
X0007700Y0022663D01*
Y0022654D01*
X0007699Y0022646D01*
X0007696Y0022640D01*
X0007693Y0022634D01*
X0007690Y0022632D01*
X0007689Y0022630D01*
X0007679Y0022623D01*
X0007670Y0022619D01*
X0007662D01*
X0007653Y0022620D01*
X0007648Y0022623D01*
X0007642Y0022627D01*
X0007639Y0022629D01*
X0007638Y0022630D01*
X0007482Y0022785D01*
Y0021935D01*
X0007480Y0021924D01*
X0007476Y0021916D01*
X0007470Y0021908D01*
X0007463Y0021904D01*
X0007458Y0021901D01*
X0007452Y0021900D01*
X0007446D01*
X0007434Y0021901D01*
X0007425Y0021906D01*
X0007418Y0021911D01*
X0007414Y0021918D01*
X0007411Y0021924D01*
X0007410Y0021930D01*
Y0021934D01*
Y0021935D01*
Y0022873D01*
X0007411Y0022881D01*
X0007412Y0022887D01*
X0007421Y0022898D01*
X0007428Y0022904D01*
X0007431Y0022905D01*
X0007432D01*
X0007441Y0022908D01*
X0007455D01*
X0007460Y0022905D01*
D02*
G37*
G36*
X0006161Y0022908D02*
X0006169Y0022904D01*
X0006176Y0022898D01*
X0006180Y0022891D01*
X0006183Y0022884D01*
X0006185Y0022878D01*
Y0022874D01*
Y0022873D01*
Y0021937D01*
X0006183Y0021924D01*
X0006179Y0021916D01*
X0006173Y0021908D01*
X0006166Y0021904D01*
X0006161Y0021901D01*
X0006155Y0021900D01*
X0005969D01*
X0005948Y0021901D01*
X0005927Y0021904D01*
X0005905Y0021908D01*
X0005887Y0021913D01*
X0005852Y0021927D01*
X0005822Y0021942D01*
X0005810Y0021951D01*
X0005798Y0021958D01*
X0005788Y0021965D01*
X0005781Y0021972D01*
X0005774Y0021976D01*
X0005770Y0021980D01*
X0005767Y0021983D01*
X0005766Y0021985D01*
X0005750Y0022001D01*
X0005738Y0022017D01*
X0005726Y0022035D01*
X0005717Y0022052D01*
X0005708Y0022069D01*
X0005701Y0022086D01*
X0005691Y0022119D01*
X0005687Y0022133D01*
X0005684Y0022145D01*
X0005683Y0022158D01*
X0005681Y0022168D01*
X0005680Y0022176D01*
Y0022182D01*
Y0022186D01*
Y0022188D01*
X0005681Y0022209D01*
X0005684Y0022230D01*
X0005688Y0022251D01*
X0005693Y0022269D01*
X0005707Y0022305D01*
X0005722Y0022334D01*
X0005731Y0022347D01*
X0005739Y0022358D01*
X0005746Y0022368D01*
X0005752Y0022375D01*
X0005757Y0022382D01*
X0005762Y0022386D01*
X0005764Y0022389D01*
X0005766Y0022391D01*
X0005788Y0022412D01*
X0005811Y0022427D01*
X0005821Y0022434D01*
X0005828Y0022439D01*
X0005834Y0022441D01*
X0005835Y0022443D01*
X0005824Y0022451D01*
X0005815Y0022458D01*
X0005807Y0022464D01*
X0005801Y0022470D01*
X0005797Y0022472D01*
X0005794Y0022475D01*
X0005791Y0022478D01*
X0005779Y0022492D01*
X0005766Y0022506D01*
X0005756Y0022522D01*
X0005748Y0022537D01*
X0005735Y0022567D01*
X0005726Y0022595D01*
X0005721Y0022620D01*
X0005719Y0022630D01*
X0005718Y0022640D01*
X0005717Y0022647D01*
Y0022653D01*
Y0022656D01*
Y0022657D01*
X0005718Y0022677D01*
X0005719Y0022695D01*
X0005728Y0022729D01*
X0005741Y0022759D01*
X0005753Y0022785D01*
X0005767Y0022806D01*
X0005774Y0022815D01*
X0005780Y0022822D01*
X0005784Y0022828D01*
X0005788Y0022832D01*
X0005790Y0022833D01*
X0005791Y0022835D01*
X0005805Y0022847D01*
X0005819Y0022860D01*
X0005835Y0022870D01*
X0005850Y0022878D01*
X0005880Y0022891D01*
X0005907Y0022899D01*
X0005932Y0022905D01*
X0005942Y0022907D01*
X0005952Y0022908D01*
X0005959Y0022909D01*
X0006149D01*
X0006161Y0022908D01*
D02*
G37*
%LPC*%
G36*
X0059056Y0016537D02*
X0059049D01*
X0059022Y0016535D01*
X0058997Y0016529D01*
X0058974Y0016521D01*
X0058956Y0016511D01*
X0058942Y0016501D01*
X0058931Y0016492D01*
X0058924Y0016487D01*
X0058921Y0016484D01*
X0058902Y0016464D01*
X0058890Y0016442D01*
X0058880Y0016420D01*
X0058874Y0016401D01*
X0058870Y0016384D01*
X0058869Y0016370D01*
X0058867Y0016364D01*
Y0016360D01*
Y0016358D01*
Y0016357D01*
Y0015851D01*
X0058870Y0015824D01*
X0058876Y0015800D01*
X0058884Y0015778D01*
X0058894Y0015759D01*
X0058904Y0015745D01*
X0058912Y0015734D01*
X0058918Y0015727D01*
X0058921Y0015724D01*
X0058942Y0015707D01*
X0058963Y0015694D01*
X0058984Y0015685D01*
X0059004Y0015679D01*
X0059022Y0015675D01*
X0059036Y0015673D01*
X0059042Y0015672D01*
X0059049D01*
X0059076Y0015675D01*
X0059100Y0015680D01*
X0059122Y0015689D01*
X0059141Y0015699D01*
X0059155Y0015707D01*
X0059166Y0015716D01*
X0059173Y0015721D01*
X0059176Y0015724D01*
X0059193Y0015745D01*
X0059206Y0015766D01*
X0059215Y0015787D01*
X0059221Y0015807D01*
X0059225Y0015824D01*
X0059227Y0015838D01*
X0059228Y0015844D01*
Y0015848D01*
Y0015850D01*
Y0015851D01*
Y0016357D01*
X0059225Y0016384D01*
X0059220Y0016408D01*
X0059211Y0016430D01*
X0059201Y0016449D01*
X0059193Y0016464D01*
X0059184Y0016474D01*
X0059179Y0016481D01*
X0059176Y0016484D01*
X0059155Y0016502D01*
X0059134Y0016515D01*
X0059113Y0016525D01*
X0059093Y0016530D01*
X0059076Y0016535D01*
X0059062Y0016536D01*
X0059056Y0016537D01*
D02*
G37*
G36*
X0058147D02*
X0058003D01*
X0057976Y0016535D01*
X0057952Y0016529D01*
X0057930Y0016521D01*
X0057911Y0016511D01*
X0057896Y0016501D01*
X0057886Y0016492D01*
X0057879Y0016487D01*
X0057876Y0016484D01*
X0057858Y0016464D01*
X0057845Y0016442D01*
X0057835Y0016420D01*
X0057830Y0016401D01*
X0057825Y0016384D01*
X0057824Y0016370D01*
X0057823Y0016364D01*
Y0016360D01*
Y0016358D01*
Y0016357D01*
X0057825Y0016330D01*
X0057831Y0016305D01*
X0057840Y0016284D01*
X0057849Y0016264D01*
X0057859Y0016250D01*
X0057868Y0016239D01*
X0057873Y0016232D01*
X0057876Y0016229D01*
X0057896Y0016212D01*
X0057918Y0016199D01*
X0057940Y0016189D01*
X0057959Y0016184D01*
X0057976Y0016179D01*
X0057990Y0016178D01*
X0057996Y0016177D01*
X0058147D01*
Y0016537D01*
D02*
G37*
G36*
Y0016105D02*
X0057986D01*
X0057971Y0016102D01*
X0057942Y0016095D01*
X0057916Y0016084D01*
X0057893Y0016072D01*
X0057876Y0016061D01*
X0057862Y0016050D01*
X0057854Y0016043D01*
X0057851Y0016041D01*
Y0016040D01*
X0057840Y0016029D01*
X0057830Y0016016D01*
X0057813Y0015990D01*
X0057801Y0015965D01*
X0057794Y0015941D01*
X0057789Y0015920D01*
X0057787Y0015910D01*
Y0015903D01*
X0057786Y0015896D01*
Y0015892D01*
Y0015889D01*
Y0015888D01*
Y0015871D01*
X0057789Y0015855D01*
X0057796Y0015827D01*
X0057807Y0015800D01*
X0057818Y0015778D01*
X0057830Y0015761D01*
X0057841Y0015747D01*
X0057848Y0015738D01*
X0057849Y0015737D01*
X0057851Y0015735D01*
X0057864Y0015724D01*
X0057876Y0015714D01*
X0057902Y0015699D01*
X0057927Y0015687D01*
X0057951Y0015680D01*
X0057972Y0015675D01*
X0057981Y0015673D01*
X0057988D01*
X0057995Y0015672D01*
X0058147D01*
Y0016105D01*
D02*
G37*
G36*
X0058464Y0021537D02*
X0058303D01*
X0058288Y0021535D01*
X0058260Y0021528D01*
X0058233Y0021516D01*
X0058210Y0021505D01*
X0058193Y0021494D01*
X0058179Y0021482D01*
X0058171Y0021475D01*
X0058168Y0021474D01*
Y0021473D01*
X0058157Y0021460D01*
X0058147Y0021447D01*
X0058130Y0021422D01*
X0058119Y0021396D01*
X0058112Y0021373D01*
X0058106Y0021351D01*
X0058104Y0021343D01*
Y0021336D01*
X0058103Y0021329D01*
Y0021325D01*
Y0021322D01*
Y0021320D01*
Y0021303D01*
X0058106Y0021288D01*
X0058113Y0021258D01*
X0058124Y0021232D01*
X0058136Y0021210D01*
X0058147Y0021192D01*
X0058158Y0021179D01*
X0058165Y0021171D01*
X0058167Y0021170D01*
X0058168Y0021168D01*
X0058181Y0021157D01*
X0058193Y0021147D01*
X0058219Y0021131D01*
X0058244Y0021120D01*
X0058268Y0021113D01*
X0058289Y0021107D01*
X0058298Y0021106D01*
X0058305D01*
X0058312Y0021105D01*
X0058464D01*
Y0021537D01*
D02*
G37*
G36*
X0027782Y0005656D02*
X0027655Y0005182D01*
X0027909D01*
X0027782Y0005656D01*
D02*
G37*
G36*
X0028574Y0005759D02*
X0028467D01*
X0028440Y0005756D01*
X0028415Y0005750D01*
X0028392Y0005742D01*
X0028374Y0005732D01*
X0028360Y0005722D01*
X0028348Y0005713D01*
X0028341Y0005708D01*
X0028339Y0005705D01*
X0028320Y0005684D01*
X0028308Y0005663D01*
X0028298Y0005642D01*
X0028292Y0005622D01*
X0028288Y0005604D01*
X0028286Y0005589D01*
X0028285Y0005584D01*
Y0005580D01*
Y0005578D01*
Y0005577D01*
Y0005072D01*
X0028288Y0005045D01*
X0028293Y0005021D01*
X0028302Y0004999D01*
X0028312Y0004980D01*
X0028322Y0004966D01*
X0028330Y0004955D01*
X0028336Y0004948D01*
X0028339Y0004945D01*
X0028360Y0004928D01*
X0028381Y0004916D01*
X0028402Y0004906D01*
X0028422Y0004900D01*
X0028440Y0004896D01*
X0028454Y0004894D01*
X0028460Y0004893D01*
X0028574D01*
Y0005759D01*
D02*
G37*
G36*
X0009412Y0007956D02*
X0009286Y0007482D01*
X0009539D01*
X0009412Y0007956D01*
D02*
G37*
G36*
X0008908Y0008059D02*
X0008801D01*
X0008774Y0008056D01*
X0008748Y0008050D01*
X0008726Y0008042D01*
X0008708Y0008032D01*
X0008693Y0008022D01*
X0008682Y0008013D01*
X0008675Y0008008D01*
X0008672Y0008005D01*
X0008654Y0007984D01*
X0008641Y0007963D01*
X0008631Y0007942D01*
X0008626Y0007922D01*
X0008622Y0007904D01*
X0008620Y0007889D01*
X0008619Y0007884D01*
Y0007880D01*
Y0007878D01*
Y0007877D01*
Y0007372D01*
X0008622Y0007345D01*
X0008627Y0007321D01*
X0008636Y0007299D01*
X0008646Y0007280D01*
X0008655Y0007266D01*
X0008664Y0007255D01*
X0008670Y0007248D01*
X0008672Y0007245D01*
X0008693Y0007228D01*
X0008715Y0007216D01*
X0008736Y0007206D01*
X0008755Y0007200D01*
X0008774Y0007196D01*
X0008788Y0007194D01*
X0008794Y0007193D01*
X0008908D01*
Y0008059D01*
D02*
G37*
G36*
X0008331D02*
X0008224D01*
X0008197Y0008056D01*
X0008172Y0008050D01*
X0008149Y0008042D01*
X0008131Y0008032D01*
X0008117Y0008022D01*
X0008106Y0008013D01*
X0008099Y0008008D01*
X0008096Y0008005D01*
X0008077Y0007984D01*
X0008065Y0007963D01*
X0008055Y0007942D01*
X0008049Y0007922D01*
X0008045Y0007904D01*
X0008044Y0007889D01*
X0008042Y0007884D01*
Y0007880D01*
Y0007878D01*
Y0007877D01*
Y0007372D01*
X0008045Y0007345D01*
X0008051Y0007321D01*
X0008059Y0007299D01*
X0008069Y0007280D01*
X0008079Y0007266D01*
X0008087Y0007255D01*
X0008093Y0007248D01*
X0008096Y0007245D01*
X0008117Y0007228D01*
X0008138Y0007216D01*
X0008159Y0007206D01*
X0008179Y0007200D01*
X0008197Y0007196D01*
X0008211Y0007194D01*
X0008217Y0007193D01*
X0008331D01*
Y0008059D01*
D02*
G37*
G36*
X0007755D02*
X0007594D01*
X0007578Y0008056D01*
X0007550Y0008049D01*
X0007523Y0008037D01*
X0007501Y0008026D01*
X0007484Y0008015D01*
X0007470Y0008004D01*
X0007461Y0007997D01*
X0007459Y0007995D01*
Y0007994D01*
X0007447Y0007981D01*
X0007437Y0007968D01*
X0007421Y0007943D01*
X0007409Y0007918D01*
X0007402Y0007894D01*
X0007397Y0007873D01*
X0007395Y0007864D01*
Y0007857D01*
X0007394Y0007850D01*
Y0007846D01*
Y0007843D01*
Y0007842D01*
Y0007825D01*
X0007397Y0007809D01*
X0007404Y0007779D01*
X0007415Y0007753D01*
X0007426Y0007732D01*
X0007437Y0007713D01*
X0007449Y0007701D01*
X0007456Y0007692D01*
X0007457Y0007691D01*
X0007459Y0007689D01*
X0007471Y0007678D01*
X0007484Y0007668D01*
X0007509Y0007653D01*
X0007535Y0007641D01*
X0007559Y0007634D01*
X0007580Y0007629D01*
X0007588Y0007627D01*
X0007595D01*
X0007602Y0007626D01*
X0007755D01*
Y0008059D01*
D02*
G37*
G36*
X0006956Y0013137D02*
X0006949D01*
X0006922Y0013135D01*
X0006897Y0013129D01*
X0006874Y0013121D01*
X0006856Y0013111D01*
X0006842Y0013101D01*
X0006831Y0013092D01*
X0006824Y0013087D01*
X0006821Y0013084D01*
X0006802Y0013064D01*
X0006790Y0013042D01*
X0006780Y0013020D01*
X0006774Y0013001D01*
X0006770Y0012984D01*
X0006769Y0012970D01*
X0006767Y0012964D01*
Y0012960D01*
Y0012958D01*
Y0012957D01*
Y0012451D01*
X0006770Y0012424D01*
X0006776Y0012400D01*
X0006784Y0012378D01*
X0006794Y0012359D01*
X0006804Y0012345D01*
X0006812Y0012334D01*
X0006818Y0012327D01*
X0006821Y0012324D01*
X0006842Y0012307D01*
X0006863Y0012294D01*
X0006884Y0012285D01*
X0006904Y0012279D01*
X0006922Y0012275D01*
X0006936Y0012273D01*
X0006942Y0012272D01*
X0006949D01*
X0006976Y0012275D01*
X0007000Y0012280D01*
X0007022Y0012289D01*
X0007041Y0012299D01*
X0007055Y0012307D01*
X0007066Y0012316D01*
X0007073Y0012321D01*
X0007076Y0012324D01*
X0007093Y0012345D01*
X0007106Y0012366D01*
X0007115Y0012387D01*
X0007121Y0012407D01*
X0007125Y0012424D01*
X0007127Y0012438D01*
X0007128Y0012444D01*
Y0012448D01*
Y0012450D01*
Y0012451D01*
Y0012957D01*
X0007125Y0012984D01*
X0007120Y0013008D01*
X0007111Y0013030D01*
X0007101Y0013049D01*
X0007093Y0013064D01*
X0007084Y0013074D01*
X0007079Y0013081D01*
X0007076Y0013084D01*
X0007055Y0013102D01*
X0007034Y0013115D01*
X0007013Y0013125D01*
X0006993Y0013130D01*
X0006976Y0013135D01*
X0006962Y0013136D01*
X0006956Y0013137D01*
D02*
G37*
G36*
X0006047D02*
X0005903D01*
X0005876Y0013135D01*
X0005852Y0013129D01*
X0005830Y0013121D01*
X0005811Y0013111D01*
X0005796Y0013101D01*
X0005786Y0013092D01*
X0005779Y0013087D01*
X0005776Y0013084D01*
X0005758Y0013064D01*
X0005745Y0013042D01*
X0005735Y0013020D01*
X0005730Y0013001D01*
X0005725Y0012984D01*
X0005724Y0012970D01*
X0005723Y0012964D01*
Y0012960D01*
Y0012958D01*
Y0012957D01*
X0005725Y0012930D01*
X0005731Y0012905D01*
X0005740Y0012884D01*
X0005749Y0012864D01*
X0005759Y0012850D01*
X0005768Y0012839D01*
X0005773Y0012832D01*
X0005776Y0012829D01*
X0005796Y0012812D01*
X0005818Y0012799D01*
X0005840Y0012789D01*
X0005859Y0012784D01*
X0005876Y0012779D01*
X0005890Y0012778D01*
X0005896Y0012777D01*
X0006047D01*
Y0013137D01*
D02*
G37*
G36*
Y0012705D02*
X0005886D01*
X0005871Y0012702D01*
X0005842Y0012695D01*
X0005816Y0012684D01*
X0005793Y0012672D01*
X0005776Y0012661D01*
X0005762Y0012650D01*
X0005754Y0012643D01*
X0005751Y0012641D01*
Y0012640D01*
X0005740Y0012629D01*
X0005730Y0012616D01*
X0005713Y0012590D01*
X0005701Y0012565D01*
X0005694Y0012541D01*
X0005689Y0012520D01*
X0005687Y0012510D01*
Y0012503D01*
X0005686Y0012496D01*
Y0012492D01*
Y0012489D01*
Y0012488D01*
Y0012471D01*
X0005689Y0012455D01*
X0005696Y0012427D01*
X0005707Y0012400D01*
X0005718Y0012378D01*
X0005730Y0012361D01*
X0005741Y0012347D01*
X0005748Y0012338D01*
X0005749Y0012337D01*
X0005751Y0012335D01*
X0005764Y0012324D01*
X0005776Y0012314D01*
X0005802Y0012299D01*
X0005827Y0012287D01*
X0005851Y0012280D01*
X0005872Y0012275D01*
X0005881Y0012273D01*
X0005888D01*
X0005895Y0012272D01*
X0006047D01*
Y0012705D01*
D02*
G37*
G36*
X0005973Y0018037D02*
X0005829D01*
X0005802Y0018035D01*
X0005778Y0018029D01*
X0005756Y0018021D01*
X0005737Y0018011D01*
X0005722Y0018001D01*
X0005712Y0017992D01*
X0005705Y0017987D01*
X0005702Y0017984D01*
X0005684Y0017964D01*
X0005671Y0017942D01*
X0005661Y0017920D01*
X0005656Y0017901D01*
X0005651Y0017884D01*
X0005650Y0017870D01*
X0005649Y0017864D01*
Y0017860D01*
Y0017858D01*
Y0017857D01*
X0005651Y0017830D01*
X0005657Y0017805D01*
X0005665Y0017784D01*
X0005675Y0017764D01*
X0005685Y0017750D01*
X0005694Y0017739D01*
X0005699Y0017732D01*
X0005702Y0017729D01*
X0005722Y0017712D01*
X0005744Y0017699D01*
X0005766Y0017689D01*
X0005785Y0017684D01*
X0005802Y0017679D01*
X0005816Y0017678D01*
X0005822Y0017677D01*
X0005973D01*
Y0018037D01*
D02*
G37*
G36*
Y0017605D02*
X0005812D01*
X0005797Y0017602D01*
X0005768Y0017595D01*
X0005742Y0017584D01*
X0005719Y0017572D01*
X0005702Y0017561D01*
X0005688Y0017550D01*
X0005680Y0017543D01*
X0005677Y0017541D01*
Y0017540D01*
X0005665Y0017529D01*
X0005656Y0017516D01*
X0005639Y0017490D01*
X0005627Y0017465D01*
X0005620Y0017441D01*
X0005615Y0017420D01*
X0005613Y0017410D01*
Y0017403D01*
X0005612Y0017396D01*
Y0017392D01*
Y0017389D01*
Y0017388D01*
Y0017371D01*
X0005615Y0017355D01*
X0005622Y0017327D01*
X0005633Y0017300D01*
X0005644Y0017278D01*
X0005656Y0017261D01*
X0005667Y0017247D01*
X0005674Y0017238D01*
X0005675Y0017237D01*
X0005677Y0017235D01*
X0005689Y0017224D01*
X0005702Y0017214D01*
X0005727Y0017199D01*
X0005753Y0017187D01*
X0005777Y0017180D01*
X0005798Y0017175D01*
X0005806Y0017173D01*
X0005813D01*
X0005821Y0017172D01*
X0005973D01*
Y0017605D01*
D02*
G37*
G36*
X0006113Y0022837D02*
X0005969D01*
X0005942Y0022835D01*
X0005918Y0022829D01*
X0005896Y0022821D01*
X0005877Y0022811D01*
X0005862Y0022801D01*
X0005852Y0022792D01*
X0005845Y0022787D01*
X0005842Y0022784D01*
X0005824Y0022764D01*
X0005811Y0022742D01*
X0005801Y0022720D01*
X0005795Y0022701D01*
X0005791Y0022684D01*
X0005790Y0022670D01*
X0005788Y0022664D01*
Y0022660D01*
Y0022658D01*
Y0022657D01*
X0005791Y0022630D01*
X0005797Y0022605D01*
X0005805Y0022584D01*
X0005815Y0022564D01*
X0005825Y0022550D01*
X0005834Y0022539D01*
X0005839Y0022532D01*
X0005842Y0022529D01*
X0005862Y0022512D01*
X0005884Y0022499D01*
X0005905Y0022489D01*
X0005925Y0022484D01*
X0005942Y0022479D01*
X0005956Y0022478D01*
X0005962Y0022477D01*
X0006113D01*
Y0022837D01*
D02*
G37*
G36*
Y0022405D02*
X0005952D01*
X0005936Y0022402D01*
X0005908Y0022395D01*
X0005881Y0022384D01*
X0005859Y0022372D01*
X0005842Y0022361D01*
X0005828Y0022350D01*
X0005819Y0022343D01*
X0005817Y0022341D01*
Y0022340D01*
X0005805Y0022329D01*
X0005795Y0022316D01*
X0005779Y0022290D01*
X0005767Y0022265D01*
X0005760Y0022241D01*
X0005755Y0022220D01*
X0005753Y0022210D01*
Y0022203D01*
X0005752Y0022196D01*
Y0022192D01*
Y0022189D01*
Y0022188D01*
Y0022171D01*
X0005755Y0022155D01*
X0005762Y0022127D01*
X0005773Y0022100D01*
X0005784Y0022078D01*
X0005795Y0022061D01*
X0005807Y0022047D01*
X0005814Y0022038D01*
X0005815Y0022037D01*
X0005817Y0022035D01*
X0005829Y0022024D01*
X0005842Y0022014D01*
X0005867Y0021999D01*
X0005893Y0021987D01*
X0005917Y0021980D01*
X0005938Y0021975D01*
X0005946Y0021973D01*
X0005953D01*
X0005960Y0021972D01*
X0006113D01*
Y0022405D01*
D02*
G37*
%LPD*%
M02*
