G04*
G04 #@! TF.GenerationSoftware,Altium Limited,Altium Designer,24.6.1 (21)*
G04*
G04 Layer_Color=65535*
%FSAX43Y43*%
%MOMM*%
G71*
G04*
G04 #@! TF.SameCoordinates,67DF9111-2897-4826-B50C-3AFFA42C07FF*
G04*
G04*
G04 #@! TF.FilePolarity,Positive*
G04*
G01*
G75*
%ADD10C,0.250*%
%ADD11C,0.600*%
%ADD12C,0.150*%
%ADD13C,0.200*%
%ADD14C,0.300*%
%ADD15R,0.500X0.800*%
%ADD16R,0.600X0.800*%
G36*
X0042383Y0010503D02*
X0042393Y0010502D01*
X0042406Y0010500D01*
X0042418Y0010498D01*
X0042434Y0010493D01*
X0042465Y0010484D01*
X0042482Y0010476D01*
X0042499Y0010468D01*
X0042516Y0010458D01*
X0042534Y0010447D01*
X0042551Y0010434D01*
X0042566Y0010419D01*
X0042568Y0010417D01*
X0042571Y0010414D01*
X0042575Y0010410D01*
X0042580Y0010403D01*
X0042586Y0010396D01*
X0042593Y0010386D01*
X0042602Y0010375D01*
X0042610Y0010362D01*
X0042626Y0010333D01*
X0042640Y0010297D01*
X0042644Y0010279D01*
X0042648Y0010258D01*
X0042651Y0010237D01*
X0042652Y0010216D01*
Y0010214D01*
Y0010210D01*
Y0010204D01*
X0042651Y0010196D01*
X0042650Y0010186D01*
X0042648Y0010173D01*
X0042645Y0010161D01*
X0042641Y0010147D01*
X0042631Y0010114D01*
X0042624Y0010097D01*
X0042616Y0010080D01*
X0042606Y0010063D01*
X0042595Y0010045D01*
X0042582Y0010030D01*
X0042566Y0010013D01*
X0042564Y0010010D01*
X0042556Y0010003D01*
X0042544Y0009993D01*
X0042527Y0009980D01*
X0042506Y0009968D01*
X0042482Y0009955D01*
X0042454Y0009942D01*
X0042423Y0009934D01*
X0042648Y0009549D01*
Y0009547D01*
X0042650Y0009545D01*
X0042651Y0009539D01*
X0042652Y0009532D01*
X0042651Y0009524D01*
X0042648Y0009515D01*
X0042642Y0009508D01*
X0042634Y0009500D01*
X0042633D01*
X0042628Y0009498D01*
X0042623Y0009497D01*
X0042616Y0009495D01*
X0042607Y0009497D01*
X0042600Y0009500D01*
X0042592Y0009505D01*
X0042585Y0009514D01*
X0042342Y0009928D01*
X0042220D01*
Y0009531D01*
Y0009529D01*
Y0009525D01*
X0042218Y0009519D01*
X0042215Y0009514D01*
X0042211Y0009507D01*
X0042204Y0009501D01*
X0042196Y0009497D01*
X0042183Y0009495D01*
X0042177D01*
X0042172Y0009497D01*
X0042166Y0009500D01*
X0042159Y0009504D01*
X0042153Y0009511D01*
X0042149Y0009519D01*
X0042148Y0009531D01*
Y0010467D01*
Y0010468D01*
Y0010472D01*
X0042149Y0010479D01*
X0042152Y0010486D01*
X0042156Y0010492D01*
X0042163Y0010499D01*
X0042172Y0010503D01*
X0042183Y0010505D01*
X0042375D01*
X0042383Y0010503D01*
D02*
G37*
G36*
X0032813Y0018102D02*
X0032814D01*
X0032819Y0018100D01*
X0032824Y0018098D01*
X0032830Y0018093D01*
X0032834Y0018088D01*
X0032838Y0018079D01*
X0032840Y0018071D01*
X0032838Y0018058D01*
X0032586Y0017122D01*
Y0017121D01*
X0032585Y0017118D01*
X0032579Y0017109D01*
X0032575Y0017104D01*
X0032568Y0017100D01*
X0032561Y0017097D01*
X0032551Y0017095D01*
X0032547D01*
X0032541Y0017097D01*
X0032535Y0017098D01*
X0032530Y0017102D01*
X0032524Y0017107D01*
X0032520Y0017114D01*
X0032516Y0017122D01*
X0032265Y0018058D01*
Y0018060D01*
X0032263Y0018064D01*
Y0018069D01*
Y0018076D01*
X0032266Y0018085D01*
X0032270Y0018092D01*
X0032279Y0018098D01*
X0032290Y0018102D01*
X0032291D01*
X0032296Y0018103D01*
X0032301D01*
X0032308Y0018102D01*
X0032315Y0018099D01*
X0032322Y0018095D01*
X0032328Y0018088D01*
X0032334Y0018076D01*
X0032551Y0017269D01*
X0032769Y0018076D01*
Y0018078D01*
X0032772Y0018082D01*
X0032775Y0018088D01*
X0032779Y0018093D01*
X0032785Y0018098D01*
X0032792Y0018102D01*
X0032802Y0018103D01*
X0032813Y0018102D01*
D02*
G37*
G36*
X0033900Y0018103D02*
X0033910Y0018102D01*
X0033920Y0018100D01*
X0033944Y0018095D01*
X0033972Y0018086D01*
X0034003Y0018074D01*
X0034018Y0018065D01*
X0034034Y0018055D01*
X0034049Y0018043D01*
X0034063Y0018030D01*
X0034065Y0018029D01*
X0034066Y0018027D01*
X0034070Y0018023D01*
X0034075Y0018016D01*
X0034080Y0018009D01*
X0034086Y0018000D01*
X0034100Y0017979D01*
X0034114Y0017954D01*
X0034125Y0017923D01*
X0034134Y0017889D01*
X0034135Y0017871D01*
X0034137Y0017852D01*
Y0017851D01*
Y0017850D01*
Y0017845D01*
Y0017840D01*
X0034134Y0017826D01*
X0034131Y0017806D01*
X0034127Y0017785D01*
X0034118Y0017761D01*
X0034109Y0017737D01*
X0034094Y0017713D01*
X0033735Y0017167D01*
X0034104D01*
X0034111Y0017166D01*
X0034118Y0017163D01*
X0034124Y0017159D01*
X0034131Y0017152D01*
X0034135Y0017143D01*
X0034137Y0017131D01*
Y0017129D01*
Y0017125D01*
X0034135Y0017119D01*
X0034133Y0017114D01*
X0034128Y0017107D01*
X0034121Y0017101D01*
X0034113Y0017097D01*
X0034100Y0017095D01*
X0033665D01*
X0033656Y0017098D01*
X0033645Y0017104D01*
X0033639Y0017108D01*
X0033635Y0017114D01*
Y0017115D01*
X0033633Y0017116D01*
X0033632Y0017126D01*
Y0017138D01*
X0033633Y0017143D01*
X0033638Y0017150D01*
X0034034Y0017752D01*
X0034035Y0017754D01*
X0034038Y0017761D01*
X0034044Y0017769D01*
X0034049Y0017782D01*
X0034055Y0017796D01*
X0034061Y0017813D01*
X0034063Y0017831D01*
X0034065Y0017852D01*
Y0017854D01*
Y0017855D01*
Y0017859D01*
X0034063Y0017865D01*
X0034062Y0017879D01*
X0034058Y0017896D01*
X0034052Y0017916D01*
X0034042Y0017937D01*
X0034030Y0017959D01*
X0034011Y0017979D01*
X0034008Y0017982D01*
X0034001Y0017988D01*
X0033990Y0017996D01*
X0033976Y0018006D01*
X0033958Y0018016D01*
X0033935Y0018024D01*
X0033910Y0018030D01*
X0033883Y0018033D01*
X0033873D01*
X0033862Y0018031D01*
X0033848Y0018029D01*
X0033832Y0018024D01*
X0033815Y0018017D01*
X0033797Y0018009D01*
X0033779Y0017998D01*
X0033777Y0017996D01*
X0033772Y0017992D01*
X0033763Y0017983D01*
X0033752Y0017974D01*
X0033742Y0017961D01*
X0033731Y0017945D01*
X0033721Y0017928D01*
X0033712Y0017909D01*
Y0017907D01*
X0033710Y0017903D01*
X0033707Y0017899D01*
X0033703Y0017893D01*
X0033697Y0017888D01*
X0033688Y0017885D01*
X0033679Y0017883D01*
X0033667Y0017886D01*
X0033666D01*
X0033662Y0017889D01*
X0033657Y0017892D01*
X0033652Y0017896D01*
X0033648Y0017902D01*
X0033643Y0017909D01*
X0033642Y0017919D01*
X0033645Y0017931D01*
Y0017933D01*
X0033646Y0017934D01*
X0033648Y0017938D01*
X0033650Y0017944D01*
X0033656Y0017958D01*
X0033666Y0017976D01*
X0033679Y0017996D01*
X0033694Y0018017D01*
X0033714Y0018037D01*
X0033736Y0018057D01*
X0033738D01*
X0033739Y0018058D01*
X0033748Y0018064D01*
X0033762Y0018072D01*
X0033779Y0018081D01*
X0033801Y0018089D01*
X0033825Y0018098D01*
X0033853Y0018103D01*
X0033883Y0018105D01*
X0033893D01*
X0033900Y0018103D01*
D02*
G37*
G36*
X0033464D02*
X0033471Y0018100D01*
X0033477Y0018096D01*
X0033484Y0018089D01*
X0033488Y0018081D01*
X0033490Y0018068D01*
Y0018067D01*
Y0018062D01*
X0033488Y0018057D01*
X0033485Y0018051D01*
X0033480Y0018044D01*
X0033474Y0018038D01*
X0033464Y0018034D01*
X0033452Y0018033D01*
X0033273D01*
X0033271Y0017131D01*
Y0017129D01*
Y0017125D01*
X0033270Y0017119D01*
X0033267Y0017114D01*
X0033263Y0017107D01*
X0033256Y0017101D01*
X0033247Y0017097D01*
X0033235Y0017095D01*
X0033229D01*
X0033223Y0017097D01*
X0033218Y0017100D01*
X0033211Y0017104D01*
X0033205Y0017111D01*
X0033201Y0017119D01*
X0033199Y0017131D01*
X0033201Y0018033D01*
X0033013D01*
X0033008Y0018034D01*
X0033002Y0018037D01*
X0032995Y0018041D01*
X0032989Y0018048D01*
X0032985Y0018057D01*
X0032984Y0018068D01*
Y0018069D01*
Y0018074D01*
X0032985Y0018079D01*
X0032988Y0018086D01*
X0032992Y0018093D01*
X0032999Y0018099D01*
X0033008Y0018103D01*
X0033019Y0018105D01*
X0033457D01*
X0033464Y0018103D01*
D02*
G37*
G36*
X0038121Y0025102D02*
X0038122D01*
X0038127Y0025100D01*
X0038132Y0025098D01*
X0038138Y0025093D01*
X0038142Y0025088D01*
X0038146Y0025079D01*
X0038148Y0025071D01*
X0038146Y0025058D01*
X0037894Y0024122D01*
Y0024121D01*
X0037893Y0024118D01*
X0037887Y0024109D01*
X0037883Y0024104D01*
X0037876Y0024100D01*
X0037869Y0024097D01*
X0037859Y0024095D01*
X0037854D01*
X0037849Y0024097D01*
X0037843Y0024098D01*
X0037838Y0024102D01*
X0037832Y0024107D01*
X0037828Y0024114D01*
X0037823Y0024122D01*
X0037573Y0025058D01*
Y0025060D01*
X0037571Y0025064D01*
Y0025069D01*
Y0025076D01*
X0037574Y0025085D01*
X0037578Y0025092D01*
X0037587Y0025098D01*
X0037598Y0025102D01*
X0037599D01*
X0037604Y0025103D01*
X0037609D01*
X0037616Y0025102D01*
X0037623Y0025099D01*
X0037630Y0025095D01*
X0037636Y0025088D01*
X0037642Y0025076D01*
X0037859Y0024269D01*
X0038077Y0025076D01*
Y0025078D01*
X0038080Y0025082D01*
X0038083Y0025088D01*
X0038087Y0025093D01*
X0038093Y0025098D01*
X0038100Y0025102D01*
X0038110Y0025103D01*
X0038121Y0025102D01*
D02*
G37*
G36*
X0039206Y0025100D02*
X0039208D01*
X0039211Y0025099D01*
X0039218Y0025093D01*
X0039226Y0025082D01*
X0039227Y0025076D01*
X0039229Y0025068D01*
Y0024131D01*
Y0024129D01*
Y0024125D01*
X0039227Y0024119D01*
X0039225Y0024114D01*
X0039220Y0024107D01*
X0039213Y0024101D01*
X0039205Y0024097D01*
X0039192Y0024095D01*
X0039187D01*
X0039181Y0024097D01*
X0039175Y0024100D01*
X0039168Y0024104D01*
X0039163Y0024111D01*
X0039158Y0024119D01*
X0039157Y0024131D01*
Y0024981D01*
X0039001Y0024826D01*
X0038999Y0024824D01*
X0038996Y0024823D01*
X0038991Y0024819D01*
X0038985Y0024816D01*
X0038977Y0024814D01*
X0038968D01*
X0038960Y0024819D01*
X0038950Y0024826D01*
X0038948Y0024827D01*
X0038946Y0024830D01*
X0038943Y0024835D01*
X0038940Y0024841D01*
X0038938Y0024850D01*
Y0024858D01*
X0038943Y0024868D01*
X0038950Y0024878D01*
X0039167Y0025093D01*
X0039168Y0025095D01*
X0039170Y0025096D01*
X0039178Y0025100D01*
X0039184Y0025103D01*
X0039198D01*
X0039206Y0025100D01*
D02*
G37*
G36*
X0038772Y0025103D02*
X0038779Y0025100D01*
X0038785Y0025096D01*
X0038792Y0025089D01*
X0038796Y0025081D01*
X0038798Y0025068D01*
Y0025067D01*
Y0025062D01*
X0038796Y0025057D01*
X0038793Y0025051D01*
X0038788Y0025044D01*
X0038782Y0025038D01*
X0038772Y0025034D01*
X0038759Y0025033D01*
X0038580D01*
X0038579Y0024131D01*
Y0024129D01*
Y0024125D01*
X0038578Y0024119D01*
X0038575Y0024114D01*
X0038571Y0024107D01*
X0038564Y0024101D01*
X0038555Y0024097D01*
X0038542Y0024095D01*
X0038537D01*
X0038531Y0024097D01*
X0038525Y0024100D01*
X0038518Y0024104D01*
X0038513Y0024111D01*
X0038509Y0024119D01*
X0038507Y0024131D01*
X0038509Y0025033D01*
X0038321D01*
X0038315Y0025034D01*
X0038310Y0025037D01*
X0038303Y0025041D01*
X0038297Y0025048D01*
X0038293Y0025057D01*
X0038291Y0025068D01*
Y0025069D01*
Y0025074D01*
X0038293Y0025079D01*
X0038296Y0025086D01*
X0038300Y0025093D01*
X0038307Y0025099D01*
X0038315Y0025103D01*
X0038327Y0025105D01*
X0038765D01*
X0038772Y0025103D01*
D02*
G37*
G36*
X0045471Y0024050D02*
X0045473D01*
X0045475Y0024049D01*
X0045482Y0024043D01*
X0045491Y0024032D01*
X0045492Y0024026D01*
X0045494Y0024018D01*
Y0023081D01*
Y0023079D01*
Y0023075D01*
X0045492Y0023069D01*
X0045489Y0023064D01*
X0045485Y0023057D01*
X0045478Y0023051D01*
X0045470Y0023047D01*
X0045457Y0023045D01*
X0045451D01*
X0045446Y0023047D01*
X0045440Y0023050D01*
X0045433Y0023054D01*
X0045427Y0023061D01*
X0045423Y0023069D01*
X0045422Y0023081D01*
Y0023931D01*
X0045265Y0023776D01*
X0045264Y0023774D01*
X0045261Y0023773D01*
X0045255Y0023769D01*
X0045250Y0023766D01*
X0045241Y0023764D01*
X0045233D01*
X0045224Y0023769D01*
X0045215Y0023776D01*
X0045213Y0023777D01*
X0045210Y0023780D01*
X0045208Y0023785D01*
X0045205Y0023791D01*
X0045203Y0023800D01*
Y0023808D01*
X0045208Y0023818D01*
X0045215Y0023828D01*
X0045432Y0024043D01*
X0045433Y0024045D01*
X0045435Y0024046D01*
X0045443Y0024050D01*
X0045449Y0024053D01*
X0045463D01*
X0045471Y0024050D01*
D02*
G37*
G36*
X0044792Y0024053D02*
X0044802Y0024052D01*
X0044814Y0024050D01*
X0044827Y0024048D01*
X0044842Y0024043D01*
X0044873Y0024034D01*
X0044890Y0024026D01*
X0044907Y0024018D01*
X0044924Y0024008D01*
X0044943Y0023997D01*
X0044959Y0023984D01*
X0044975Y0023969D01*
X0044976Y0023967D01*
X0044979Y0023964D01*
X0044983Y0023960D01*
X0044989Y0023953D01*
X0044995Y0023946D01*
X0045002Y0023936D01*
X0045010Y0023925D01*
X0045019Y0023912D01*
X0045034Y0023883D01*
X0045048Y0023847D01*
X0045053Y0023829D01*
X0045057Y0023808D01*
X0045060Y0023787D01*
X0045061Y0023766D01*
Y0023764D01*
Y0023760D01*
Y0023754D01*
X0045060Y0023746D01*
X0045058Y0023736D01*
X0045057Y0023723D01*
X0045054Y0023711D01*
X0045050Y0023697D01*
X0045040Y0023664D01*
X0045033Y0023647D01*
X0045024Y0023630D01*
X0045014Y0023613D01*
X0045003Y0023595D01*
X0044990Y0023580D01*
X0044975Y0023563D01*
X0044972Y0023560D01*
X0044965Y0023553D01*
X0044952Y0023543D01*
X0044935Y0023530D01*
X0044914Y0023518D01*
X0044890Y0023505D01*
X0044862Y0023492D01*
X0044831Y0023484D01*
X0045057Y0023099D01*
Y0023097D01*
X0045058Y0023095D01*
X0045060Y0023089D01*
X0045061Y0023082D01*
X0045060Y0023074D01*
X0045057Y0023065D01*
X0045051Y0023058D01*
X0045043Y0023050D01*
X0045041D01*
X0045037Y0023048D01*
X0045031Y0023047D01*
X0045024Y0023045D01*
X0045016Y0023047D01*
X0045009Y0023050D01*
X0045000Y0023055D01*
X0044993Y0023064D01*
X0044751Y0023478D01*
X0044628D01*
Y0023081D01*
Y0023079D01*
Y0023075D01*
X0044627Y0023069D01*
X0044624Y0023064D01*
X0044620Y0023057D01*
X0044613Y0023051D01*
X0044604Y0023047D01*
X0044592Y0023045D01*
X0044586D01*
X0044580Y0023047D01*
X0044575Y0023050D01*
X0044568Y0023054D01*
X0044562Y0023061D01*
X0044558Y0023069D01*
X0044556Y0023081D01*
Y0024017D01*
Y0024018D01*
Y0024022D01*
X0044558Y0024029D01*
X0044561Y0024036D01*
X0044565Y0024042D01*
X0044572Y0024049D01*
X0044580Y0024053D01*
X0044592Y0024055D01*
X0044783D01*
X0044792Y0024053D01*
D02*
G37*
G36*
X0046796Y0009603D02*
X0046797D01*
X0046802Y0009602D01*
X0046806Y0009599D01*
X0046812Y0009595D01*
X0046817Y0009589D01*
X0046821Y0009581D01*
X0046824Y0009572D01*
X0046823Y0009560D01*
X0046654Y0008884D01*
X0046861Y0008883D01*
X0046859Y0009062D01*
Y0009063D01*
Y0009068D01*
X0046861Y0009075D01*
X0046864Y0009082D01*
X0046868Y0009087D01*
X0046875Y0009094D01*
X0046883Y0009099D01*
X0046896Y0009100D01*
X0046902D01*
X0046907Y0009099D01*
X0046914Y0009096D01*
X0046922Y0009092D01*
X0046927Y0009085D01*
X0046931Y0009076D01*
X0046933Y0009063D01*
Y0008884D01*
X0047047D01*
X0047053Y0008883D01*
X0047060Y0008880D01*
X0047065Y0008874D01*
X0047071Y0008869D01*
X0047075Y0008859D01*
X0047077Y0008846D01*
Y0008845D01*
Y0008841D01*
X0047075Y0008835D01*
X0047072Y0008829D01*
X0047068Y0008822D01*
X0047061Y0008817D01*
X0047053Y0008812D01*
X0047041Y0008811D01*
X0046933D01*
Y0008631D01*
Y0008629D01*
Y0008625D01*
X0046931Y0008619D01*
X0046929Y0008614D01*
X0046924Y0008607D01*
X0046917Y0008601D01*
X0046909Y0008597D01*
X0046898Y0008595D01*
X0046892D01*
X0046886Y0008597D01*
X0046879Y0008600D01*
X0046872Y0008604D01*
X0046867Y0008611D01*
X0046862Y0008619D01*
X0046861Y0008631D01*
Y0008811D01*
X0046607D01*
X0046602Y0008812D01*
X0046593Y0008814D01*
X0046585Y0008817D01*
X0046578Y0008822D01*
X0046572Y0008831D01*
X0046570Y0008842D01*
Y0008849D01*
X0046573Y0008858D01*
X0046752Y0009578D01*
Y0009579D01*
X0046755Y0009584D01*
X0046758Y0009589D01*
X0046762Y0009595D01*
X0046768Y0009599D01*
X0046775Y0009603D01*
X0046785Y0009605D01*
X0046796Y0009603D01*
D02*
G37*
G36*
X0046159D02*
X0046169Y0009602D01*
X0046181Y0009600D01*
X0046194Y0009598D01*
X0046210Y0009593D01*
X0046241Y0009584D01*
X0046258Y0009576D01*
X0046274Y0009568D01*
X0046291Y0009558D01*
X0046310Y0009547D01*
X0046327Y0009534D01*
X0046342Y0009519D01*
X0046344Y0009517D01*
X0046346Y0009514D01*
X0046351Y0009510D01*
X0046356Y0009503D01*
X0046362Y0009496D01*
X0046369Y0009486D01*
X0046377Y0009475D01*
X0046386Y0009462D01*
X0046401Y0009433D01*
X0046415Y0009397D01*
X0046420Y0009379D01*
X0046424Y0009358D01*
X0046427Y0009337D01*
X0046428Y0009316D01*
Y0009314D01*
Y0009310D01*
Y0009304D01*
X0046427Y0009296D01*
X0046425Y0009286D01*
X0046424Y0009273D01*
X0046421Y0009261D01*
X0046417Y0009247D01*
X0046407Y0009214D01*
X0046400Y0009197D01*
X0046391Y0009180D01*
X0046382Y0009163D01*
X0046370Y0009145D01*
X0046358Y0009130D01*
X0046342Y0009113D01*
X0046339Y0009110D01*
X0046332Y0009103D01*
X0046320Y0009093D01*
X0046303Y0009080D01*
X0046282Y0009068D01*
X0046258Y0009055D01*
X0046229Y0009042D01*
X0046198Y0009034D01*
X0046424Y0008649D01*
Y0008647D01*
X0046425Y0008645D01*
X0046427Y0008639D01*
X0046428Y0008632D01*
X0046427Y0008624D01*
X0046424Y0008615D01*
X0046418Y0008608D01*
X0046410Y0008600D01*
X0046408D01*
X0046404Y0008598D01*
X0046398Y0008597D01*
X0046391Y0008595D01*
X0046383Y0008597D01*
X0046376Y0008600D01*
X0046367Y0008605D01*
X0046360Y0008614D01*
X0046118Y0009028D01*
X0045995D01*
Y0008631D01*
Y0008629D01*
Y0008625D01*
X0045994Y0008619D01*
X0045991Y0008614D01*
X0045987Y0008607D01*
X0045980Y0008601D01*
X0045971Y0008597D01*
X0045959Y0008595D01*
X0045953D01*
X0045947Y0008597D01*
X0045942Y0008600D01*
X0045935Y0008604D01*
X0045929Y0008611D01*
X0045925Y0008619D01*
X0045923Y0008631D01*
Y0009567D01*
Y0009568D01*
Y0009572D01*
X0045925Y0009579D01*
X0045928Y0009586D01*
X0045932Y0009592D01*
X0045939Y0009599D01*
X0045947Y0009603D01*
X0045959Y0009605D01*
X0046150D01*
X0046159Y0009603D01*
D02*
G37*
G36*
X0049915Y0009603D02*
X0049922Y0009600D01*
X0049928Y0009596D01*
X0049935Y0009589D01*
X0049939Y0009581D01*
X0049941Y0009569D01*
Y0009568D01*
Y0009564D01*
X0049939Y0009558D01*
X0049936Y0009551D01*
X0049931Y0009544D01*
X0049925Y0009538D01*
X0049915Y0009534D01*
X0049903Y0009533D01*
X0049580D01*
Y0009172D01*
X0049697D01*
X0049704Y0009170D01*
X0049714Y0009169D01*
X0049724Y0009168D01*
X0049747Y0009162D01*
X0049776Y0009154D01*
X0049807Y0009141D01*
X0049822Y0009132D01*
X0049838Y0009123D01*
X0049853Y0009110D01*
X0049867Y0009097D01*
X0049869Y0009096D01*
X0049870Y0009094D01*
X0049874Y0009090D01*
X0049879Y0009083D01*
X0049884Y0009076D01*
X0049890Y0009068D01*
X0049904Y0009046D01*
X0049918Y0009021D01*
X0049929Y0008990D01*
X0049938Y0008956D01*
X0049939Y0008938D01*
X0049941Y0008920D01*
Y0008846D01*
Y0008845D01*
Y0008842D01*
Y0008836D01*
X0049939Y0008829D01*
X0049938Y0008819D01*
X0049936Y0008810D01*
X0049932Y0008786D01*
X0049922Y0008757D01*
X0049910Y0008728D01*
X0049901Y0008712D01*
X0049891Y0008698D01*
X0049880Y0008683D01*
X0049867Y0008669D01*
X0049866Y0008667D01*
X0049864Y0008666D01*
X0049859Y0008662D01*
X0049853Y0008657D01*
X0049846Y0008652D01*
X0049838Y0008646D01*
X0049815Y0008632D01*
X0049790Y0008618D01*
X0049759Y0008607D01*
X0049724Y0008598D01*
X0049705Y0008597D01*
X0049687Y0008595D01*
X0049539D01*
X0049533Y0008597D01*
X0049526Y0008600D01*
X0049519Y0008604D01*
X0049513Y0008611D01*
X0049509Y0008619D01*
X0049508Y0008631D01*
Y0008632D01*
Y0008636D01*
X0049509Y0008642D01*
X0049512Y0008649D01*
X0049516Y0008656D01*
X0049523Y0008662D01*
X0049532Y0008666D01*
X0049544Y0008667D01*
X0049694D01*
X0049700Y0008669D01*
X0049714Y0008670D01*
X0049732Y0008674D01*
X0049752Y0008680D01*
X0049773Y0008690D01*
X0049794Y0008702D01*
X0049815Y0008719D01*
X0049818Y0008722D01*
X0049824Y0008729D01*
X0049832Y0008741D01*
X0049842Y0008755D01*
X0049852Y0008773D01*
X0049860Y0008795D01*
X0049866Y0008819D01*
X0049869Y0008846D01*
Y0008920D01*
Y0008921D01*
Y0008922D01*
Y0008927D01*
X0049867Y0008932D01*
X0049866Y0008946D01*
X0049862Y0008963D01*
X0049856Y0008983D01*
X0049846Y0009004D01*
X0049833Y0009027D01*
X0049815Y0009046D01*
X0049812Y0009049D01*
X0049805Y0009055D01*
X0049794Y0009063D01*
X0049780Y0009073D01*
X0049762Y0009083D01*
X0049739Y0009092D01*
X0049714Y0009097D01*
X0049687Y0009100D01*
X0049539D01*
X0049533Y0009101D01*
X0049526Y0009104D01*
X0049519Y0009108D01*
X0049513Y0009116D01*
X0049509Y0009124D01*
X0049508Y0009137D01*
Y0009568D01*
Y0009569D01*
Y0009574D01*
X0049509Y0009579D01*
X0049512Y0009586D01*
X0049516Y0009593D01*
X0049523Y0009599D01*
X0049532Y0009603D01*
X0049544Y0009605D01*
X0049908D01*
X0049915Y0009603D01*
D02*
G37*
G36*
X0049095D02*
X0049105Y0009602D01*
X0049117Y0009600D01*
X0049130Y0009598D01*
X0049146Y0009593D01*
X0049177Y0009584D01*
X0049193Y0009576D01*
X0049210Y0009568D01*
X0049227Y0009558D01*
X0049246Y0009547D01*
X0049263Y0009534D01*
X0049278Y0009519D01*
X0049279Y0009517D01*
X0049282Y0009514D01*
X0049287Y0009510D01*
X0049292Y0009503D01*
X0049298Y0009496D01*
X0049305Y0009486D01*
X0049313Y0009475D01*
X0049322Y0009462D01*
X0049337Y0009433D01*
X0049351Y0009397D01*
X0049356Y0009379D01*
X0049360Y0009358D01*
X0049363Y0009337D01*
X0049364Y0009316D01*
Y0009314D01*
Y0009310D01*
Y0009304D01*
X0049363Y0009296D01*
X0049361Y0009286D01*
X0049360Y0009273D01*
X0049357Y0009261D01*
X0049353Y0009247D01*
X0049343Y0009214D01*
X0049336Y0009197D01*
X0049327Y0009180D01*
X0049318Y0009163D01*
X0049306Y0009145D01*
X0049294Y0009130D01*
X0049278Y0009113D01*
X0049275Y0009110D01*
X0049268Y0009103D01*
X0049256Y0009093D01*
X0049239Y0009080D01*
X0049217Y0009068D01*
X0049193Y0009055D01*
X0049165Y0009042D01*
X0049134Y0009034D01*
X0049360Y0008649D01*
Y0008647D01*
X0049361Y0008645D01*
X0049363Y0008639D01*
X0049364Y0008632D01*
X0049363Y0008624D01*
X0049360Y0008615D01*
X0049354Y0008608D01*
X0049346Y0008600D01*
X0049344D01*
X0049340Y0008598D01*
X0049334Y0008597D01*
X0049327Y0008595D01*
X0049319Y0008597D01*
X0049312Y0008600D01*
X0049303Y0008605D01*
X0049296Y0008614D01*
X0049054Y0009028D01*
X0048931D01*
Y0008631D01*
Y0008629D01*
Y0008625D01*
X0048930Y0008619D01*
X0048927Y0008614D01*
X0048923Y0008607D01*
X0048916Y0008601D01*
X0048907Y0008597D01*
X0048895Y0008595D01*
X0048889D01*
X0048883Y0008597D01*
X0048878Y0008600D01*
X0048871Y0008604D01*
X0048865Y0008611D01*
X0048861Y0008619D01*
X0048859Y0008631D01*
Y0009567D01*
Y0009568D01*
Y0009572D01*
X0048861Y0009579D01*
X0048864Y0009586D01*
X0048868Y0009592D01*
X0048875Y0009599D01*
X0048883Y0009603D01*
X0048895Y0009605D01*
X0049086D01*
X0049095Y0009603D01*
D02*
G37*
G36*
X0040915Y0010526D02*
X0040925Y0010522D01*
X0040929Y0010516D01*
X0040934Y0010510D01*
Y0010509D01*
X0040935Y0010508D01*
X0040938Y0010499D01*
X0040939Y0010488D01*
Y0010482D01*
X0040936Y0010475D01*
X0040745Y0010094D01*
X0040748D01*
X0040752Y0010093D01*
X0040757D01*
X0040771Y0010089D01*
X0040790Y0010085D01*
X0040811Y0010076D01*
X0040833Y0010065D01*
X0040856Y0010051D01*
X0040877Y0010032D01*
X0040879D01*
X0040880Y0010030D01*
X0040887Y0010021D01*
X0040897Y0010007D01*
X0040910Y0009990D01*
X0040921Y0009968D01*
X0040931Y0009941D01*
X0040938Y0009911D01*
X0040941Y0009896D01*
Y0009879D01*
Y0009735D01*
Y0009734D01*
Y0009731D01*
Y0009727D01*
X0040939Y0009719D01*
Y0009712D01*
X0040938Y0009704D01*
X0040932Y0009683D01*
X0040925Y0009659D01*
X0040914Y0009634D01*
X0040898Y0009608D01*
X0040888Y0009595D01*
X0040877Y0009583D01*
X0040876D01*
X0040874Y0009580D01*
X0040866Y0009573D01*
X0040852Y0009563D01*
X0040833Y0009552D01*
X0040811Y0009539D01*
X0040786Y0009529D01*
X0040756Y0009522D01*
X0040740Y0009521D01*
X0040724Y0009519D01*
X0040537D01*
X0040532Y0009521D01*
X0040526Y0009524D01*
X0040519Y0009528D01*
X0040513Y0009535D01*
X0040509Y0009543D01*
X0040508Y0009555D01*
Y0009556D01*
Y0009560D01*
X0040509Y0009566D01*
X0040512Y0009573D01*
X0040516Y0009580D01*
X0040523Y0009586D01*
X0040532Y0009590D01*
X0040543Y0009591D01*
X0040726D01*
X0040733Y0009593D01*
X0040745Y0009594D01*
X0040759Y0009597D01*
X0040776Y0009601D01*
X0040793Y0009610D01*
X0040810Y0009619D01*
X0040825Y0009634D01*
X0040826Y0009635D01*
X0040832Y0009641D01*
X0040839Y0009649D01*
X0040848Y0009662D01*
X0040855Y0009676D01*
X0040862Y0009693D01*
X0040867Y0009712D01*
X0040869Y0009735D01*
Y0009879D01*
Y0009880D01*
Y0009882D01*
Y0009889D01*
X0040866Y0009900D01*
X0040863Y0009914D01*
X0040857Y0009931D01*
X0040850Y0009948D01*
X0040839Y0009965D01*
X0040825Y0009980D01*
X0040824Y0009982D01*
X0040818Y0009987D01*
X0040810Y0009994D01*
X0040797Y0010003D01*
X0040783Y0010010D01*
X0040764Y0010017D01*
X0040745Y0010023D01*
X0040724Y0010024D01*
X0040684D01*
X0040676Y0010027D01*
X0040664Y0010032D01*
X0040659Y0010037D01*
X0040654Y0010042D01*
Y0010044D01*
X0040653Y0010045D01*
X0040652Y0010054D01*
Y0010065D01*
X0040653Y0010072D01*
X0040657Y0010079D01*
X0040845Y0010457D01*
X0040537D01*
X0040532Y0010458D01*
X0040526Y0010461D01*
X0040519Y0010465D01*
X0040513Y0010472D01*
X0040509Y0010481D01*
X0040508Y0010493D01*
Y0010495D01*
Y0010499D01*
X0040509Y0010505D01*
X0040512Y0010512D01*
X0040516Y0010517D01*
X0040523Y0010523D01*
X0040532Y0010527D01*
X0040543Y0010529D01*
X0040907D01*
X0040915Y0010526D01*
D02*
G37*
G36*
X0040095Y0010527D02*
X0040105Y0010526D01*
X0040117Y0010524D01*
X0040130Y0010522D01*
X0040146Y0010517D01*
X0040177Y0010508D01*
X0040193Y0010500D01*
X0040210Y0010492D01*
X0040227Y0010482D01*
X0040246Y0010471D01*
X0040263Y0010458D01*
X0040278Y0010443D01*
X0040279Y0010441D01*
X0040282Y0010438D01*
X0040287Y0010434D01*
X0040292Y0010427D01*
X0040298Y0010420D01*
X0040305Y0010410D01*
X0040313Y0010399D01*
X0040322Y0010386D01*
X0040337Y0010357D01*
X0040351Y0010321D01*
X0040356Y0010303D01*
X0040360Y0010282D01*
X0040363Y0010261D01*
X0040364Y0010240D01*
Y0010238D01*
Y0010234D01*
Y0010228D01*
X0040363Y0010220D01*
X0040361Y0010210D01*
X0040360Y0010197D01*
X0040357Y0010185D01*
X0040353Y0010171D01*
X0040343Y0010138D01*
X0040336Y0010121D01*
X0040327Y0010104D01*
X0040318Y0010087D01*
X0040306Y0010069D01*
X0040294Y0010054D01*
X0040278Y0010037D01*
X0040275Y0010034D01*
X0040268Y0010027D01*
X0040256Y0010017D01*
X0040239Y0010004D01*
X0040217Y0009992D01*
X0040193Y0009979D01*
X0040165Y0009966D01*
X0040134Y0009958D01*
X0040360Y0009573D01*
Y0009571D01*
X0040361Y0009569D01*
X0040363Y0009563D01*
X0040364Y0009556D01*
X0040363Y0009548D01*
X0040360Y0009539D01*
X0040354Y0009532D01*
X0040346Y0009524D01*
X0040344D01*
X0040340Y0009522D01*
X0040334Y0009521D01*
X0040327Y0009519D01*
X0040319Y0009521D01*
X0040312Y0009524D01*
X0040303Y0009529D01*
X0040296Y0009538D01*
X0040054Y0009952D01*
X0039931D01*
Y0009555D01*
Y0009553D01*
Y0009549D01*
X0039930Y0009543D01*
X0039927Y0009538D01*
X0039923Y0009531D01*
X0039916Y0009525D01*
X0039907Y0009521D01*
X0039895Y0009519D01*
X0039889D01*
X0039883Y0009521D01*
X0039878Y0009524D01*
X0039871Y0009528D01*
X0039865Y0009535D01*
X0039861Y0009543D01*
X0039859Y0009555D01*
Y0010491D01*
Y0010492D01*
Y0010496D01*
X0039861Y0010503D01*
X0039864Y0010510D01*
X0039868Y0010516D01*
X0039875Y0010523D01*
X0039883Y0010527D01*
X0039895Y0010529D01*
X0040086D01*
X0040095Y0010527D01*
D02*
G37*
G36*
X0022240Y0017903D02*
X0022250Y0017902D01*
X0022259Y0017900D01*
X0022283Y0017895D01*
X0022312Y0017886D01*
X0022343Y0017874D01*
X0022358Y0017865D01*
X0022374Y0017855D01*
X0022389Y0017843D01*
X0022403Y0017830D01*
X0022405Y0017829D01*
X0022406Y0017827D01*
X0022410Y0017823D01*
X0022415Y0017816D01*
X0022420Y0017809D01*
X0022426Y0017800D01*
X0022440Y0017779D01*
X0022454Y0017754D01*
X0022465Y0017723D01*
X0022474Y0017689D01*
X0022475Y0017671D01*
X0022477Y0017652D01*
Y0017651D01*
Y0017650D01*
Y0017645D01*
Y0017640D01*
X0022474Y0017626D01*
X0022471Y0017606D01*
X0022467Y0017585D01*
X0022458Y0017561D01*
X0022448Y0017537D01*
X0022434Y0017513D01*
X0022075Y0016967D01*
X0022444D01*
X0022451Y0016966D01*
X0022458Y0016963D01*
X0022464Y0016959D01*
X0022471Y0016952D01*
X0022475Y0016943D01*
X0022477Y0016931D01*
Y0016929D01*
Y0016925D01*
X0022475Y0016919D01*
X0022472Y0016914D01*
X0022468Y0016907D01*
X0022461Y0016901D01*
X0022453Y0016897D01*
X0022440Y0016895D01*
X0022004D01*
X0021996Y0016898D01*
X0021985Y0016904D01*
X0021979Y0016908D01*
X0021975Y0016914D01*
Y0016915D01*
X0021973Y0016916D01*
X0021972Y0016926D01*
Y0016938D01*
X0021973Y0016943D01*
X0021978Y0016950D01*
X0022374Y0017552D01*
X0022375Y0017554D01*
X0022378Y0017561D01*
X0022384Y0017569D01*
X0022389Y0017582D01*
X0022395Y0017596D01*
X0022400Y0017613D01*
X0022403Y0017631D01*
X0022405Y0017652D01*
Y0017654D01*
Y0017655D01*
Y0017659D01*
X0022403Y0017665D01*
X0022402Y0017679D01*
X0022398Y0017696D01*
X0022392Y0017716D01*
X0022382Y0017737D01*
X0022369Y0017759D01*
X0022351Y0017779D01*
X0022348Y0017782D01*
X0022341Y0017788D01*
X0022330Y0017796D01*
X0022316Y0017806D01*
X0022298Y0017816D01*
X0022275Y0017824D01*
X0022250Y0017830D01*
X0022223Y0017833D01*
X0022213D01*
X0022202Y0017831D01*
X0022188Y0017829D01*
X0022172Y0017824D01*
X0022155Y0017817D01*
X0022137Y0017809D01*
X0022118Y0017798D01*
X0022117Y0017796D01*
X0022111Y0017792D01*
X0022103Y0017783D01*
X0022092Y0017774D01*
X0022082Y0017761D01*
X0022071Y0017745D01*
X0022061Y0017728D01*
X0022052Y0017709D01*
Y0017707D01*
X0022049Y0017703D01*
X0022047Y0017699D01*
X0022042Y0017693D01*
X0022037Y0017688D01*
X0022028Y0017685D01*
X0022018Y0017683D01*
X0022007Y0017686D01*
X0022006D01*
X0022001Y0017689D01*
X0021997Y0017692D01*
X0021992Y0017696D01*
X0021987Y0017702D01*
X0021983Y0017709D01*
X0021982Y0017719D01*
X0021985Y0017731D01*
Y0017733D01*
X0021986Y0017734D01*
X0021987Y0017738D01*
X0021990Y0017744D01*
X0021996Y0017758D01*
X0022006Y0017776D01*
X0022018Y0017796D01*
X0022034Y0017817D01*
X0022054Y0017837D01*
X0022076Y0017857D01*
X0022078D01*
X0022079Y0017858D01*
X0022087Y0017864D01*
X0022102Y0017872D01*
X0022118Y0017881D01*
X0022141Y0017889D01*
X0022165Y0017898D01*
X0022193Y0017903D01*
X0022223Y0017905D01*
X0022233D01*
X0022240Y0017903D01*
D02*
G37*
G36*
X0021559D02*
X0021569Y0017902D01*
X0021581Y0017900D01*
X0021594Y0017898D01*
X0021610Y0017893D01*
X0021641Y0017884D01*
X0021658Y0017876D01*
X0021674Y0017868D01*
X0021691Y0017858D01*
X0021710Y0017847D01*
X0021727Y0017834D01*
X0021742Y0017819D01*
X0021744Y0017817D01*
X0021746Y0017814D01*
X0021751Y0017810D01*
X0021756Y0017803D01*
X0021762Y0017796D01*
X0021769Y0017786D01*
X0021777Y0017775D01*
X0021786Y0017762D01*
X0021801Y0017733D01*
X0021815Y0017697D01*
X0021820Y0017679D01*
X0021824Y0017658D01*
X0021827Y0017637D01*
X0021828Y0017616D01*
Y0017614D01*
Y0017610D01*
Y0017604D01*
X0021827Y0017596D01*
X0021825Y0017586D01*
X0021824Y0017573D01*
X0021821Y0017561D01*
X0021817Y0017547D01*
X0021807Y0017514D01*
X0021800Y0017497D01*
X0021791Y0017480D01*
X0021782Y0017463D01*
X0021770Y0017445D01*
X0021758Y0017430D01*
X0021742Y0017413D01*
X0021739Y0017410D01*
X0021732Y0017403D01*
X0021720Y0017393D01*
X0021703Y0017380D01*
X0021681Y0017368D01*
X0021658Y0017355D01*
X0021629Y0017342D01*
X0021598Y0017334D01*
X0021824Y0016949D01*
Y0016947D01*
X0021825Y0016945D01*
X0021827Y0016939D01*
X0021828Y0016932D01*
X0021827Y0016924D01*
X0021824Y0016915D01*
X0021818Y0016908D01*
X0021810Y0016900D01*
X0021808D01*
X0021804Y0016898D01*
X0021799Y0016897D01*
X0021791Y0016895D01*
X0021783Y0016897D01*
X0021776Y0016900D01*
X0021767Y0016905D01*
X0021760Y0016914D01*
X0021518Y0017328D01*
X0021395D01*
Y0016931D01*
Y0016929D01*
Y0016925D01*
X0021394Y0016919D01*
X0021391Y0016914D01*
X0021387Y0016907D01*
X0021380Y0016901D01*
X0021371Y0016897D01*
X0021359Y0016895D01*
X0021353D01*
X0021347Y0016897D01*
X0021342Y0016900D01*
X0021335Y0016904D01*
X0021329Y0016911D01*
X0021325Y0016919D01*
X0021323Y0016931D01*
Y0017867D01*
Y0017868D01*
Y0017872D01*
X0021325Y0017879D01*
X0021328Y0017886D01*
X0021332Y0017892D01*
X0021339Y0017899D01*
X0021347Y0017903D01*
X0021359Y0017905D01*
X0021550D01*
X0021559Y0017903D01*
D02*
G37*
G36*
X0042708Y0016203D02*
X0042713Y0016202D01*
X0042719Y0016198D01*
X0042725Y0016193D01*
X0042730Y0016186D01*
X0042735Y0016176D01*
X0042736Y0016174D01*
X0042737Y0016167D01*
X0042740Y0016154D01*
X0042746Y0016136D01*
X0042751Y0016114D01*
X0042757Y0016090D01*
X0042766Y0016062D01*
X0042774Y0016030D01*
X0042782Y0015996D01*
X0042792Y0015959D01*
X0042802Y0015920D01*
X0042813Y0015880D01*
X0042836Y0015794D01*
X0042860Y0015707D01*
X0042861Y0015704D01*
X0042863Y0015697D01*
X0042866Y0015684D01*
X0042871Y0015668D01*
X0042877Y0015645D01*
X0042884Y0015621D01*
X0042891Y0015593D01*
X0042899Y0015560D01*
X0042909Y0015527D01*
X0042919Y0015490D01*
X0042929Y0015452D01*
X0042940Y0015411D01*
X0042963Y0015328D01*
X0042987Y0015240D01*
Y0015239D01*
X0042988Y0015235D01*
Y0015229D01*
X0042987Y0015222D01*
X0042985Y0015215D01*
X0042980Y0015208D01*
X0042973Y0015201D01*
X0042962Y0015197D01*
X0042950D01*
X0042942Y0015198D01*
X0042935Y0015201D01*
X0042928Y0015205D01*
X0042922Y0015212D01*
X0042918Y0015222D01*
X0042846Y0015484D01*
X0042553D01*
X0042482Y0015222D01*
Y0015221D01*
X0042481Y0015218D01*
X0042478Y0015212D01*
X0042474Y0015208D01*
X0042467Y0015202D01*
X0042460Y0015198D01*
X0042450Y0015197D01*
X0042437D01*
X0042433Y0015200D01*
X0042427Y0015202D01*
X0042422Y0015207D01*
X0042416Y0015212D01*
X0042412Y0015219D01*
Y0015229D01*
X0042413Y0015240D01*
X0042415Y0015243D01*
X0042416Y0015250D01*
X0042419Y0015263D01*
X0042424Y0015280D01*
X0042430Y0015301D01*
X0042436Y0015326D01*
X0042444Y0015355D01*
X0042453Y0015386D01*
X0042461Y0015419D01*
X0042471Y0015456D01*
X0042481Y0015496D01*
X0042492Y0015535D01*
X0042515Y0015620D01*
X0042537Y0015707D01*
X0042539Y0015710D01*
X0042540Y0015718D01*
X0042543Y0015731D01*
X0042548Y0015748D01*
X0042554Y0015769D01*
X0042561Y0015794D01*
X0042568Y0015823D01*
X0042577Y0015854D01*
X0042587Y0015889D01*
X0042596Y0015926D01*
X0042606Y0015964D01*
X0042618Y0016004D01*
X0042640Y0016089D01*
X0042664Y0016176D01*
Y0016178D01*
X0042665Y0016181D01*
X0042671Y0016191D01*
X0042675Y0016196D01*
X0042682Y0016200D01*
X0042689Y0016203D01*
X0042699Y0016205D01*
X0042704D01*
X0042708Y0016203D01*
D02*
G37*
G36*
X0043539D02*
X0043547Y0016200D01*
X0043552Y0016196D01*
X0043559Y0016189D01*
X0043563Y0016181D01*
X0043565Y0016169D01*
Y0016168D01*
Y0016164D01*
X0043563Y0016158D01*
X0043561Y0016151D01*
X0043555Y0016144D01*
X0043549Y0016138D01*
X0043539Y0016134D01*
X0043527Y0016133D01*
X0043204D01*
Y0015772D01*
X0043321D01*
X0043328Y0015770D01*
X0043338Y0015769D01*
X0043348Y0015768D01*
X0043372Y0015762D01*
X0043400Y0015754D01*
X0043431Y0015741D01*
X0043446Y0015732D01*
X0043462Y0015723D01*
X0043477Y0015710D01*
X0043492Y0015697D01*
X0043493Y0015696D01*
X0043494Y0015694D01*
X0043499Y0015690D01*
X0043503Y0015683D01*
X0043508Y0015676D01*
X0043514Y0015668D01*
X0043528Y0015646D01*
X0043542Y0015621D01*
X0043554Y0015590D01*
X0043562Y0015556D01*
X0043563Y0015538D01*
X0043565Y0015520D01*
Y0015446D01*
Y0015445D01*
Y0015442D01*
Y0015436D01*
X0043563Y0015429D01*
X0043562Y0015419D01*
X0043561Y0015410D01*
X0043556Y0015386D01*
X0043547Y0015357D01*
X0043534Y0015328D01*
X0043525Y0015312D01*
X0043516Y0015298D01*
X0043504Y0015283D01*
X0043492Y0015269D01*
X0043490Y0015267D01*
X0043489Y0015266D01*
X0043483Y0015262D01*
X0043477Y0015257D01*
X0043470Y0015252D01*
X0043462Y0015246D01*
X0043439Y0015232D01*
X0043414Y0015218D01*
X0043383Y0015207D01*
X0043348Y0015198D01*
X0043329Y0015197D01*
X0043311Y0015195D01*
X0043163D01*
X0043157Y0015197D01*
X0043150Y0015200D01*
X0043143Y0015204D01*
X0043138Y0015211D01*
X0043133Y0015219D01*
X0043132Y0015231D01*
Y0015232D01*
Y0015236D01*
X0043133Y0015242D01*
X0043136Y0015249D01*
X0043141Y0015256D01*
X0043148Y0015262D01*
X0043156Y0015266D01*
X0043169Y0015267D01*
X0043318D01*
X0043324Y0015269D01*
X0043338Y0015270D01*
X0043356Y0015274D01*
X0043376Y0015280D01*
X0043397Y0015290D01*
X0043418Y0015302D01*
X0043439Y0015319D01*
X0043442Y0015322D01*
X0043448Y0015329D01*
X0043456Y0015341D01*
X0043466Y0015355D01*
X0043476Y0015373D01*
X0043485Y0015396D01*
X0043490Y0015419D01*
X0043493Y0015446D01*
Y0015520D01*
Y0015521D01*
Y0015522D01*
Y0015527D01*
X0043492Y0015532D01*
X0043490Y0015546D01*
X0043486Y0015563D01*
X0043480Y0015583D01*
X0043470Y0015604D01*
X0043458Y0015627D01*
X0043439Y0015646D01*
X0043437Y0015649D01*
X0043430Y0015655D01*
X0043418Y0015663D01*
X0043404Y0015673D01*
X0043386Y0015683D01*
X0043363Y0015692D01*
X0043338Y0015697D01*
X0043311Y0015700D01*
X0043163D01*
X0043157Y0015701D01*
X0043150Y0015704D01*
X0043143Y0015708D01*
X0043138Y0015716D01*
X0043133Y0015724D01*
X0043132Y0015737D01*
Y0016168D01*
Y0016169D01*
Y0016174D01*
X0043133Y0016179D01*
X0043136Y0016186D01*
X0043141Y0016193D01*
X0043148Y0016199D01*
X0043156Y0016203D01*
X0043169Y0016205D01*
X0043532D01*
X0043539Y0016203D01*
D02*
G37*
G36*
X0042031D02*
X0042041Y0016202D01*
X0042051Y0016200D01*
X0042075Y0016195D01*
X0042103Y0016186D01*
X0042134Y0016174D01*
X0042150Y0016165D01*
X0042165Y0016155D01*
X0042181Y0016143D01*
X0042195Y0016130D01*
X0042196Y0016129D01*
X0042197Y0016127D01*
X0042202Y0016123D01*
X0042206Y0016116D01*
X0042212Y0016109D01*
X0042217Y0016100D01*
X0042231Y0016079D01*
X0042245Y0016052D01*
X0042257Y0016023D01*
X0042265Y0015988D01*
X0042267Y0015969D01*
X0042268Y0015951D01*
Y0015446D01*
Y0015445D01*
Y0015442D01*
Y0015436D01*
X0042267Y0015429D01*
X0042265Y0015419D01*
X0042264Y0015410D01*
X0042259Y0015386D01*
X0042250Y0015357D01*
X0042237Y0015328D01*
X0042228Y0015312D01*
X0042219Y0015298D01*
X0042207Y0015283D01*
X0042195Y0015269D01*
X0042193Y0015267D01*
X0042192Y0015266D01*
X0042186Y0015262D01*
X0042181Y0015257D01*
X0042173Y0015252D01*
X0042165Y0015246D01*
X0042142Y0015232D01*
X0042117Y0015218D01*
X0042086Y0015207D01*
X0042051Y0015198D01*
X0042033Y0015197D01*
X0042014Y0015195D01*
X0041865D01*
X0041859Y0015197D01*
X0041853Y0015200D01*
X0041846Y0015204D01*
X0041841Y0015211D01*
X0041837Y0015219D01*
X0041835Y0015231D01*
Y0016167D01*
Y0016168D01*
Y0016172D01*
X0041837Y0016179D01*
X0041839Y0016186D01*
X0041844Y0016192D01*
X0041851Y0016199D01*
X0041859Y0016203D01*
X0041870Y0016205D01*
X0042024D01*
X0042031Y0016203D01*
D02*
G37*
G36*
X0025072Y0011603D02*
X0025077Y0011602D01*
X0025083Y0011598D01*
X0025089Y0011593D01*
X0025094Y0011586D01*
X0025099Y0011576D01*
X0025100Y0011574D01*
X0025101Y0011567D01*
X0025104Y0011554D01*
X0025110Y0011536D01*
X0025116Y0011514D01*
X0025121Y0011491D01*
X0025130Y0011462D01*
X0025138Y0011430D01*
X0025147Y0011396D01*
X0025156Y0011359D01*
X0025166Y0011320D01*
X0025178Y0011280D01*
X0025200Y0011194D01*
X0025224Y0011107D01*
X0025225Y0011104D01*
X0025227Y0011097D01*
X0025230Y0011085D01*
X0025235Y0011068D01*
X0025241Y0011045D01*
X0025248Y0011021D01*
X0025255Y0010993D01*
X0025264Y0010960D01*
X0025273Y0010927D01*
X0025283Y0010890D01*
X0025293Y0010852D01*
X0025304Y0010811D01*
X0025327Y0010728D01*
X0025351Y0010640D01*
Y0010639D01*
X0025352Y0010635D01*
Y0010629D01*
X0025351Y0010622D01*
X0025350Y0010615D01*
X0025344Y0010608D01*
X0025337Y0010601D01*
X0025326Y0010597D01*
X0025314D01*
X0025306Y0010598D01*
X0025299Y0010601D01*
X0025292Y0010605D01*
X0025286Y0010612D01*
X0025282Y0010622D01*
X0025210Y0010884D01*
X0024917D01*
X0024846Y0010622D01*
Y0010621D01*
X0024845Y0010618D01*
X0024842Y0010612D01*
X0024838Y0010608D01*
X0024831Y0010602D01*
X0024824Y0010598D01*
X0024814Y0010597D01*
X0024801D01*
X0024797Y0010600D01*
X0024791Y0010602D01*
X0024786Y0010607D01*
X0024780Y0010612D01*
X0024776Y0010619D01*
Y0010629D01*
X0024777Y0010640D01*
X0024779Y0010643D01*
X0024780Y0010650D01*
X0024783Y0010663D01*
X0024788Y0010680D01*
X0024794Y0010701D01*
X0024800Y0010726D01*
X0024808Y0010755D01*
X0024817Y0010786D01*
X0024825Y0010819D01*
X0024835Y0010856D01*
X0024845Y0010896D01*
X0024856Y0010935D01*
X0024879Y0011020D01*
X0024901Y0011107D01*
X0024903Y0011110D01*
X0024904Y0011118D01*
X0024907Y0011131D01*
X0024913Y0011148D01*
X0024918Y0011169D01*
X0024925Y0011194D01*
X0024932Y0011223D01*
X0024941Y0011254D01*
X0024951Y0011289D01*
X0024960Y0011326D01*
X0024970Y0011364D01*
X0024982Y0011405D01*
X0025004Y0011489D01*
X0025028Y0011576D01*
Y0011578D01*
X0025030Y0011581D01*
X0025035Y0011591D01*
X0025039Y0011596D01*
X0025046Y0011600D01*
X0025053Y0011603D01*
X0025063Y0011605D01*
X0025068D01*
X0025072Y0011603D01*
D02*
G37*
G36*
X0025720D02*
X0025722D01*
X0025726Y0011602D01*
X0025730Y0011599D01*
X0025736Y0011595D01*
X0025741Y0011589D01*
X0025746Y0011581D01*
X0025748Y0011572D01*
X0025747Y0011560D01*
X0025578Y0010884D01*
X0025785Y0010883D01*
X0025784Y0011062D01*
Y0011063D01*
Y0011068D01*
X0025785Y0011075D01*
X0025788Y0011082D01*
X0025792Y0011087D01*
X0025799Y0011094D01*
X0025808Y0011099D01*
X0025820Y0011100D01*
X0025826D01*
X0025832Y0011099D01*
X0025839Y0011096D01*
X0025846Y0011092D01*
X0025851Y0011085D01*
X0025856Y0011076D01*
X0025857Y0011063D01*
Y0010884D01*
X0025971D01*
X0025977Y0010883D01*
X0025984Y0010880D01*
X0025990Y0010874D01*
X0025995Y0010869D01*
X0025999Y0010859D01*
X0026001Y0010846D01*
Y0010845D01*
Y0010841D01*
X0025999Y0010835D01*
X0025997Y0010829D01*
X0025992Y0010822D01*
X0025985Y0010817D01*
X0025977Y0010812D01*
X0025966Y0010811D01*
X0025857D01*
Y0010631D01*
Y0010629D01*
Y0010625D01*
X0025856Y0010619D01*
X0025853Y0010614D01*
X0025849Y0010607D01*
X0025842Y0010601D01*
X0025833Y0010597D01*
X0025822Y0010595D01*
X0025816D01*
X0025810Y0010597D01*
X0025803Y0010600D01*
X0025796Y0010604D01*
X0025791Y0010611D01*
X0025787Y0010619D01*
X0025785Y0010631D01*
Y0010811D01*
X0025531D01*
X0025526Y0010812D01*
X0025517Y0010814D01*
X0025509Y0010817D01*
X0025502Y0010822D01*
X0025496Y0010831D01*
X0025495Y0010842D01*
Y0010849D01*
X0025498Y0010858D01*
X0025677Y0011578D01*
Y0011579D01*
X0025679Y0011584D01*
X0025682Y0011589D01*
X0025686Y0011595D01*
X0025692Y0011599D01*
X0025699Y0011603D01*
X0025709Y0011605D01*
X0025720Y0011603D01*
D02*
G37*
G36*
X0024395D02*
X0024405Y0011602D01*
X0024415Y0011600D01*
X0024439Y0011595D01*
X0024467Y0011586D01*
X0024498Y0011574D01*
X0024514Y0011565D01*
X0024529Y0011555D01*
X0024545Y0011543D01*
X0024559Y0011530D01*
X0024560Y0011529D01*
X0024562Y0011527D01*
X0024566Y0011523D01*
X0024570Y0011516D01*
X0024576Y0011509D01*
X0024581Y0011500D01*
X0024595Y0011479D01*
X0024609Y0011452D01*
X0024621Y0011423D01*
X0024629Y0011388D01*
X0024631Y0011369D01*
X0024632Y0011351D01*
Y0010846D01*
Y0010845D01*
Y0010842D01*
Y0010836D01*
X0024631Y0010829D01*
X0024629Y0010819D01*
X0024628Y0010810D01*
X0024624Y0010786D01*
X0024614Y0010757D01*
X0024601Y0010728D01*
X0024593Y0010712D01*
X0024583Y0010698D01*
X0024571Y0010683D01*
X0024559Y0010669D01*
X0024557Y0010667D01*
X0024556Y0010666D01*
X0024550Y0010662D01*
X0024545Y0010657D01*
X0024538Y0010652D01*
X0024529Y0010646D01*
X0024507Y0010632D01*
X0024481Y0010618D01*
X0024450Y0010607D01*
X0024415Y0010598D01*
X0024397Y0010597D01*
X0024378Y0010595D01*
X0024229D01*
X0024223Y0010597D01*
X0024218Y0010600D01*
X0024210Y0010604D01*
X0024205Y0010611D01*
X0024201Y0010619D01*
X0024199Y0010631D01*
Y0011567D01*
Y0011568D01*
Y0011572D01*
X0024201Y0011579D01*
X0024203Y0011586D01*
X0024208Y0011592D01*
X0024215Y0011599D01*
X0024223Y0011603D01*
X0024234Y0011605D01*
X0024388D01*
X0024395Y0011603D01*
D02*
G37*
G36*
X0020108Y0025503D02*
X0020113Y0025502D01*
X0020119Y0025498D01*
X0020125Y0025493D01*
X0020130Y0025486D01*
X0020135Y0025476D01*
X0020136Y0025474D01*
X0020137Y0025467D01*
X0020140Y0025454D01*
X0020146Y0025436D01*
X0020151Y0025414D01*
X0020157Y0025390D01*
X0020166Y0025362D01*
X0020174Y0025330D01*
X0020182Y0025296D01*
X0020192Y0025259D01*
X0020202Y0025220D01*
X0020213Y0025180D01*
X0020236Y0025094D01*
X0020260Y0025007D01*
X0020261Y0025004D01*
X0020263Y0024997D01*
X0020266Y0024985D01*
X0020271Y0024968D01*
X0020277Y0024945D01*
X0020284Y0024921D01*
X0020291Y0024893D01*
X0020299Y0024860D01*
X0020309Y0024827D01*
X0020319Y0024790D01*
X0020329Y0024752D01*
X0020340Y0024711D01*
X0020363Y0024628D01*
X0020387Y0024540D01*
Y0024539D01*
X0020388Y0024535D01*
Y0024529D01*
X0020387Y0024522D01*
X0020385Y0024515D01*
X0020380Y0024508D01*
X0020373Y0024501D01*
X0020361Y0024497D01*
X0020350D01*
X0020342Y0024498D01*
X0020335Y0024501D01*
X0020328Y0024505D01*
X0020322Y0024512D01*
X0020318Y0024522D01*
X0020246Y0024784D01*
X0019953D01*
X0019882Y0024522D01*
Y0024521D01*
X0019881Y0024518D01*
X0019878Y0024512D01*
X0019874Y0024508D01*
X0019867Y0024502D01*
X0019860Y0024498D01*
X0019850Y0024497D01*
X0019837D01*
X0019833Y0024500D01*
X0019827Y0024502D01*
X0019822Y0024507D01*
X0019816Y0024512D01*
X0019812Y0024519D01*
Y0024529D01*
X0019813Y0024540D01*
X0019815Y0024543D01*
X0019816Y0024550D01*
X0019819Y0024563D01*
X0019824Y0024580D01*
X0019830Y0024601D01*
X0019836Y0024626D01*
X0019844Y0024655D01*
X0019853Y0024686D01*
X0019861Y0024719D01*
X0019871Y0024756D01*
X0019881Y0024796D01*
X0019892Y0024835D01*
X0019915Y0024920D01*
X0019937Y0025007D01*
X0019939Y0025010D01*
X0019940Y0025018D01*
X0019943Y0025031D01*
X0019948Y0025048D01*
X0019954Y0025069D01*
X0019961Y0025094D01*
X0019968Y0025123D01*
X0019977Y0025154D01*
X0019987Y0025189D01*
X0019996Y0025226D01*
X0020006Y0025264D01*
X0020018Y0025305D01*
X0020040Y0025389D01*
X0020064Y0025476D01*
Y0025478D01*
X0020065Y0025481D01*
X0020071Y0025491D01*
X0020075Y0025496D01*
X0020082Y0025500D01*
X0020089Y0025503D01*
X0020099Y0025505D01*
X0020104D01*
X0020108Y0025503D01*
D02*
G37*
G36*
X0020939Y0025502D02*
X0020949Y0025498D01*
X0020954Y0025492D01*
X0020958Y0025486D01*
Y0025485D01*
X0020959Y0025484D01*
X0020962Y0025475D01*
X0020963Y0025464D01*
Y0025458D01*
X0020961Y0025451D01*
X0020769Y0025070D01*
X0020772D01*
X0020776Y0025069D01*
X0020782D01*
X0020796Y0025065D01*
X0020814Y0025061D01*
X0020835Y0025052D01*
X0020858Y0025041D01*
X0020880Y0025027D01*
X0020901Y0025008D01*
X0020903D01*
X0020904Y0025006D01*
X0020911Y0024997D01*
X0020921Y0024983D01*
X0020934Y0024966D01*
X0020945Y0024944D01*
X0020955Y0024917D01*
X0020962Y0024887D01*
X0020965Y0024872D01*
Y0024855D01*
Y0024711D01*
Y0024710D01*
Y0024707D01*
Y0024703D01*
X0020963Y0024696D01*
Y0024688D01*
X0020962Y0024680D01*
X0020956Y0024659D01*
X0020949Y0024635D01*
X0020938Y0024610D01*
X0020923Y0024584D01*
X0020913Y0024571D01*
X0020901Y0024559D01*
X0020900D01*
X0020899Y0024556D01*
X0020890Y0024549D01*
X0020876Y0024539D01*
X0020858Y0024528D01*
X0020835Y0024515D01*
X0020810Y0024505D01*
X0020780Y0024498D01*
X0020765Y0024497D01*
X0020748Y0024495D01*
X0020562D01*
X0020556Y0024497D01*
X0020550Y0024500D01*
X0020543Y0024504D01*
X0020538Y0024511D01*
X0020533Y0024519D01*
X0020532Y0024531D01*
Y0024532D01*
Y0024536D01*
X0020533Y0024542D01*
X0020536Y0024549D01*
X0020541Y0024556D01*
X0020548Y0024562D01*
X0020556Y0024566D01*
X0020567Y0024567D01*
X0020751D01*
X0020758Y0024569D01*
X0020769Y0024570D01*
X0020783Y0024573D01*
X0020800Y0024577D01*
X0020817Y0024586D01*
X0020834Y0024595D01*
X0020849Y0024610D01*
X0020851Y0024611D01*
X0020856Y0024617D01*
X0020863Y0024625D01*
X0020872Y0024638D01*
X0020879Y0024652D01*
X0020886Y0024669D01*
X0020892Y0024688D01*
X0020893Y0024711D01*
Y0024855D01*
Y0024856D01*
Y0024858D01*
Y0024865D01*
X0020890Y0024876D01*
X0020887Y0024890D01*
X0020882Y0024907D01*
X0020875Y0024924D01*
X0020863Y0024941D01*
X0020849Y0024956D01*
X0020848Y0024958D01*
X0020842Y0024963D01*
X0020834Y0024970D01*
X0020821Y0024979D01*
X0020807Y0024986D01*
X0020789Y0024993D01*
X0020769Y0024999D01*
X0020748Y0025000D01*
X0020708D01*
X0020700Y0025003D01*
X0020689Y0025008D01*
X0020683Y0025013D01*
X0020679Y0025018D01*
Y0025020D01*
X0020677Y0025021D01*
X0020676Y0025030D01*
Y0025041D01*
X0020677Y0025048D01*
X0020682Y0025055D01*
X0020869Y0025433D01*
X0020562D01*
X0020556Y0025434D01*
X0020550Y0025437D01*
X0020543Y0025441D01*
X0020538Y0025448D01*
X0020533Y0025457D01*
X0020532Y0025469D01*
Y0025471D01*
Y0025475D01*
X0020533Y0025481D01*
X0020536Y0025488D01*
X0020541Y0025493D01*
X0020548Y0025499D01*
X0020556Y0025503D01*
X0020567Y0025505D01*
X0020931D01*
X0020939Y0025502D01*
D02*
G37*
G36*
X0019431Y0025503D02*
X0019441Y0025502D01*
X0019451Y0025500D01*
X0019475Y0025495D01*
X0019503Y0025486D01*
X0019534Y0025474D01*
X0019550Y0025465D01*
X0019565Y0025455D01*
X0019581Y0025443D01*
X0019595Y0025430D01*
X0019596Y0025429D01*
X0019597Y0025427D01*
X0019602Y0025423D01*
X0019606Y0025416D01*
X0019612Y0025409D01*
X0019617Y0025400D01*
X0019631Y0025379D01*
X0019645Y0025352D01*
X0019657Y0025323D01*
X0019665Y0025288D01*
X0019667Y0025269D01*
X0019668Y0025251D01*
Y0024746D01*
Y0024745D01*
Y0024742D01*
Y0024736D01*
X0019667Y0024729D01*
X0019665Y0024719D01*
X0019664Y0024710D01*
X0019659Y0024686D01*
X0019650Y0024657D01*
X0019637Y0024628D01*
X0019628Y0024612D01*
X0019619Y0024598D01*
X0019607Y0024583D01*
X0019595Y0024569D01*
X0019593Y0024567D01*
X0019592Y0024566D01*
X0019586Y0024562D01*
X0019581Y0024557D01*
X0019573Y0024552D01*
X0019565Y0024546D01*
X0019542Y0024532D01*
X0019517Y0024518D01*
X0019486Y0024507D01*
X0019451Y0024498D01*
X0019433Y0024497D01*
X0019414Y0024495D01*
X0019265D01*
X0019259Y0024497D01*
X0019253Y0024500D01*
X0019246Y0024504D01*
X0019241Y0024511D01*
X0019237Y0024519D01*
X0019235Y0024531D01*
Y0025467D01*
Y0025468D01*
Y0025472D01*
X0019237Y0025479D01*
X0019239Y0025486D01*
X0019244Y0025492D01*
X0019251Y0025499D01*
X0019259Y0025503D01*
X0019270Y0025505D01*
X0019424D01*
X0019431Y0025503D01*
D02*
G37*
G36*
X0038472Y0008503D02*
X0038477Y0008502D01*
X0038483Y0008498D01*
X0038489Y0008493D01*
X0038494Y0008486D01*
X0038499Y0008476D01*
X0038500Y0008474D01*
X0038501Y0008467D01*
X0038504Y0008454D01*
X0038510Y0008436D01*
X0038516Y0008414D01*
X0038521Y0008390D01*
X0038530Y0008362D01*
X0038538Y0008330D01*
X0038547Y0008296D01*
X0038556Y0008259D01*
X0038566Y0008220D01*
X0038578Y0008180D01*
X0038600Y0008094D01*
X0038624Y0008007D01*
X0038625Y0008004D01*
X0038627Y0007997D01*
X0038630Y0007984D01*
X0038635Y0007968D01*
X0038641Y0007945D01*
X0038648Y0007921D01*
X0038655Y0007893D01*
X0038664Y0007860D01*
X0038673Y0007827D01*
X0038683Y0007790D01*
X0038693Y0007752D01*
X0038704Y0007711D01*
X0038727Y0007628D01*
X0038751Y0007540D01*
Y0007539D01*
X0038752Y0007535D01*
Y0007529D01*
X0038751Y0007522D01*
X0038750Y0007515D01*
X0038744Y0007508D01*
X0038737Y0007501D01*
X0038726Y0007497D01*
X0038714D01*
X0038706Y0007498D01*
X0038699Y0007501D01*
X0038692Y0007505D01*
X0038686Y0007512D01*
X0038682Y0007522D01*
X0038610Y0007784D01*
X0038317D01*
X0038246Y0007522D01*
Y0007521D01*
X0038245Y0007518D01*
X0038242Y0007512D01*
X0038238Y0007508D01*
X0038231Y0007502D01*
X0038224Y0007498D01*
X0038214Y0007497D01*
X0038201D01*
X0038197Y0007500D01*
X0038191Y0007502D01*
X0038186Y0007507D01*
X0038180Y0007512D01*
X0038176Y0007519D01*
Y0007529D01*
X0038177Y0007540D01*
X0038179Y0007543D01*
X0038180Y0007550D01*
X0038183Y0007563D01*
X0038188Y0007580D01*
X0038194Y0007601D01*
X0038200Y0007626D01*
X0038208Y0007655D01*
X0038217Y0007686D01*
X0038225Y0007719D01*
X0038235Y0007756D01*
X0038245Y0007796D01*
X0038256Y0007835D01*
X0038279Y0007920D01*
X0038301Y0008007D01*
X0038303Y0008010D01*
X0038304Y0008018D01*
X0038307Y0008031D01*
X0038313Y0008048D01*
X0038318Y0008069D01*
X0038325Y0008094D01*
X0038332Y0008123D01*
X0038341Y0008154D01*
X0038351Y0008189D01*
X0038360Y0008226D01*
X0038370Y0008264D01*
X0038382Y0008304D01*
X0038404Y0008389D01*
X0038428Y0008476D01*
Y0008478D01*
X0038430Y0008481D01*
X0038435Y0008491D01*
X0038439Y0008496D01*
X0038446Y0008500D01*
X0038453Y0008503D01*
X0038463Y0008505D01*
X0038468D01*
X0038472Y0008503D01*
D02*
G37*
G36*
X0039164D02*
X0039174Y0008502D01*
X0039184Y0008500D01*
X0039208Y0008495D01*
X0039236Y0008486D01*
X0039267Y0008474D01*
X0039282Y0008465D01*
X0039298Y0008455D01*
X0039313Y0008443D01*
X0039327Y0008430D01*
X0039329Y0008429D01*
X0039330Y0008427D01*
X0039335Y0008423D01*
X0039339Y0008416D01*
X0039344Y0008409D01*
X0039350Y0008400D01*
X0039364Y0008379D01*
X0039378Y0008354D01*
X0039390Y0008323D01*
X0039398Y0008289D01*
X0039399Y0008271D01*
X0039401Y0008252D01*
Y0008251D01*
Y0008250D01*
Y0008245D01*
Y0008240D01*
X0039398Y0008226D01*
X0039395Y0008206D01*
X0039391Y0008185D01*
X0039382Y0008161D01*
X0039373Y0008137D01*
X0039359Y0008113D01*
X0038999Y0007567D01*
X0039368D01*
X0039375Y0007566D01*
X0039382Y0007563D01*
X0039388Y0007559D01*
X0039395Y0007552D01*
X0039399Y0007543D01*
X0039401Y0007531D01*
Y0007529D01*
Y0007525D01*
X0039399Y0007519D01*
X0039397Y0007514D01*
X0039392Y0007507D01*
X0039385Y0007501D01*
X0039377Y0007497D01*
X0039364Y0007495D01*
X0038929D01*
X0038920Y0007498D01*
X0038909Y0007504D01*
X0038903Y0007508D01*
X0038899Y0007514D01*
Y0007515D01*
X0038898Y0007516D01*
X0038896Y0007526D01*
Y0007538D01*
X0038898Y0007543D01*
X0038902Y0007550D01*
X0039298Y0008152D01*
X0039299Y0008154D01*
X0039302Y0008161D01*
X0039308Y0008169D01*
X0039313Y0008182D01*
X0039319Y0008196D01*
X0039325Y0008213D01*
X0039327Y0008231D01*
X0039329Y0008252D01*
Y0008254D01*
Y0008255D01*
Y0008259D01*
X0039327Y0008265D01*
X0039326Y0008279D01*
X0039322Y0008296D01*
X0039316Y0008316D01*
X0039306Y0008337D01*
X0039294Y0008359D01*
X0039275Y0008379D01*
X0039273Y0008382D01*
X0039265Y0008388D01*
X0039254Y0008396D01*
X0039240Y0008406D01*
X0039222Y0008416D01*
X0039199Y0008424D01*
X0039174Y0008430D01*
X0039147Y0008433D01*
X0039137D01*
X0039126Y0008431D01*
X0039112Y0008429D01*
X0039096Y0008424D01*
X0039079Y0008417D01*
X0039061Y0008409D01*
X0039043Y0008398D01*
X0039041Y0008396D01*
X0039036Y0008392D01*
X0039027Y0008383D01*
X0039016Y0008374D01*
X0039006Y0008361D01*
X0038995Y0008345D01*
X0038985Y0008328D01*
X0038976Y0008309D01*
Y0008307D01*
X0038974Y0008303D01*
X0038971Y0008299D01*
X0038967Y0008293D01*
X0038961Y0008288D01*
X0038953Y0008285D01*
X0038943Y0008283D01*
X0038931Y0008286D01*
X0038930D01*
X0038926Y0008289D01*
X0038922Y0008292D01*
X0038916Y0008296D01*
X0038912Y0008302D01*
X0038907Y0008309D01*
X0038906Y0008319D01*
X0038909Y0008331D01*
Y0008333D01*
X0038910Y0008334D01*
X0038912Y0008338D01*
X0038914Y0008344D01*
X0038920Y0008358D01*
X0038930Y0008376D01*
X0038943Y0008396D01*
X0038958Y0008417D01*
X0038978Y0008437D01*
X0039000Y0008457D01*
X0039002D01*
X0039003Y0008458D01*
X0039012Y0008464D01*
X0039026Y0008472D01*
X0039043Y0008481D01*
X0039065Y0008489D01*
X0039089Y0008498D01*
X0039117Y0008503D01*
X0039147Y0008505D01*
X0039157D01*
X0039164Y0008503D01*
D02*
G37*
G36*
X0037795D02*
X0037805Y0008502D01*
X0037815Y0008500D01*
X0037839Y0008495D01*
X0037867Y0008486D01*
X0037898Y0008474D01*
X0037914Y0008465D01*
X0037929Y0008455D01*
X0037945Y0008443D01*
X0037959Y0008430D01*
X0037960Y0008429D01*
X0037961Y0008427D01*
X0037966Y0008423D01*
X0037970Y0008416D01*
X0037976Y0008409D01*
X0037981Y0008400D01*
X0037995Y0008379D01*
X0038009Y0008352D01*
X0038021Y0008323D01*
X0038029Y0008288D01*
X0038031Y0008269D01*
X0038032Y0008251D01*
Y0007746D01*
Y0007745D01*
Y0007742D01*
Y0007736D01*
X0038031Y0007729D01*
X0038029Y0007719D01*
X0038028Y0007710D01*
X0038024Y0007686D01*
X0038014Y0007657D01*
X0038001Y0007628D01*
X0037993Y0007612D01*
X0037983Y0007598D01*
X0037971Y0007583D01*
X0037959Y0007569D01*
X0037957Y0007567D01*
X0037956Y0007566D01*
X0037950Y0007562D01*
X0037945Y0007557D01*
X0037938Y0007552D01*
X0037929Y0007546D01*
X0037907Y0007532D01*
X0037881Y0007518D01*
X0037850Y0007507D01*
X0037815Y0007498D01*
X0037797Y0007497D01*
X0037778Y0007495D01*
X0037629D01*
X0037623Y0007497D01*
X0037618Y0007500D01*
X0037610Y0007504D01*
X0037605Y0007511D01*
X0037601Y0007519D01*
X0037599Y0007531D01*
Y0008467D01*
Y0008468D01*
Y0008472D01*
X0037601Y0008479D01*
X0037603Y0008486D01*
X0037608Y0008492D01*
X0037615Y0008499D01*
X0037623Y0008503D01*
X0037634Y0008505D01*
X0037788D01*
X0037795Y0008503D01*
D02*
G37*
G36*
X0022380Y0009603D02*
X0022385Y0009602D01*
X0022391Y0009598D01*
X0022397Y0009593D01*
X0022402Y0009586D01*
X0022406Y0009576D01*
X0022408Y0009574D01*
X0022409Y0009567D01*
X0022412Y0009554D01*
X0022418Y0009536D01*
X0022423Y0009514D01*
X0022429Y0009490D01*
X0022437Y0009462D01*
X0022446Y0009430D01*
X0022454Y0009396D01*
X0022464Y0009359D01*
X0022474Y0009320D01*
X0022485Y0009280D01*
X0022508Y0009194D01*
X0022532Y0009107D01*
X0022533Y0009104D01*
X0022535Y0009097D01*
X0022538Y0009084D01*
X0022543Y0009068D01*
X0022549Y0009045D01*
X0022556Y0009021D01*
X0022563Y0008993D01*
X0022571Y0008960D01*
X0022581Y0008927D01*
X0022591Y0008890D01*
X0022601Y0008852D01*
X0022612Y0008811D01*
X0022635Y0008728D01*
X0022659Y0008640D01*
Y0008639D01*
X0022660Y0008635D01*
Y0008629D01*
X0022659Y0008622D01*
X0022657Y0008615D01*
X0022652Y0008608D01*
X0022645Y0008601D01*
X0022633Y0008597D01*
X0022622D01*
X0022614Y0008598D01*
X0022607Y0008601D01*
X0022600Y0008605D01*
X0022594Y0008612D01*
X0022590Y0008622D01*
X0022518Y0008884D01*
X0022225D01*
X0022154Y0008622D01*
Y0008621D01*
X0022153Y0008618D01*
X0022150Y0008612D01*
X0022146Y0008608D01*
X0022139Y0008602D01*
X0022132Y0008598D01*
X0022122Y0008597D01*
X0022109D01*
X0022105Y0008600D01*
X0022099Y0008602D01*
X0022093Y0008607D01*
X0022088Y0008612D01*
X0022084Y0008619D01*
Y0008629D01*
X0022085Y0008640D01*
X0022086Y0008643D01*
X0022088Y0008650D01*
X0022091Y0008663D01*
X0022096Y0008680D01*
X0022102Y0008701D01*
X0022108Y0008726D01*
X0022116Y0008755D01*
X0022124Y0008786D01*
X0022133Y0008819D01*
X0022143Y0008856D01*
X0022153Y0008896D01*
X0022164Y0008935D01*
X0022187Y0009020D01*
X0022209Y0009107D01*
X0022210Y0009110D01*
X0022212Y0009118D01*
X0022215Y0009131D01*
X0022220Y0009148D01*
X0022226Y0009169D01*
X0022233Y0009194D01*
X0022240Y0009223D01*
X0022249Y0009254D01*
X0022258Y0009289D01*
X0022268Y0009326D01*
X0022278Y0009364D01*
X0022289Y0009404D01*
X0022312Y0009489D01*
X0022336Y0009576D01*
Y0009578D01*
X0022337Y0009581D01*
X0022343Y0009591D01*
X0022347Y0009596D01*
X0022354Y0009600D01*
X0022361Y0009603D01*
X0022371Y0009605D01*
X0022375D01*
X0022380Y0009603D01*
D02*
G37*
G36*
X0023070Y0009600D02*
X0023072D01*
X0023075Y0009599D01*
X0023082Y0009593D01*
X0023090Y0009582D01*
X0023092Y0009576D01*
X0023093Y0009568D01*
Y0008631D01*
Y0008629D01*
Y0008625D01*
X0023092Y0008619D01*
X0023089Y0008614D01*
X0023084Y0008607D01*
X0023077Y0008601D01*
X0023069Y0008597D01*
X0023056Y0008595D01*
X0023051D01*
X0023045Y0008597D01*
X0023039Y0008600D01*
X0023032Y0008604D01*
X0023027Y0008611D01*
X0023022Y0008619D01*
X0023021Y0008631D01*
Y0009481D01*
X0022865Y0009326D01*
X0022863Y0009324D01*
X0022860Y0009323D01*
X0022855Y0009318D01*
X0022849Y0009316D01*
X0022841Y0009314D01*
X0022832D01*
X0022824Y0009318D01*
X0022814Y0009326D01*
X0022812Y0009327D01*
X0022810Y0009330D01*
X0022807Y0009335D01*
X0022804Y0009341D01*
X0022803Y0009350D01*
Y0009358D01*
X0022807Y0009368D01*
X0022814Y0009378D01*
X0023031Y0009593D01*
X0023032Y0009595D01*
X0023034Y0009596D01*
X0023042Y0009600D01*
X0023048Y0009603D01*
X0023062D01*
X0023070Y0009600D01*
D02*
G37*
G36*
X0021703Y0009603D02*
X0021713Y0009602D01*
X0021723Y0009600D01*
X0021747Y0009595D01*
X0021775Y0009586D01*
X0021806Y0009574D01*
X0021821Y0009565D01*
X0021837Y0009555D01*
X0021852Y0009543D01*
X0021867Y0009530D01*
X0021868Y0009529D01*
X0021869Y0009527D01*
X0021874Y0009523D01*
X0021878Y0009516D01*
X0021883Y0009509D01*
X0021889Y0009500D01*
X0021903Y0009479D01*
X0021917Y0009452D01*
X0021929Y0009423D01*
X0021937Y0009388D01*
X0021938Y0009369D01*
X0021940Y0009351D01*
Y0008846D01*
Y0008845D01*
Y0008842D01*
Y0008836D01*
X0021938Y0008829D01*
X0021937Y0008819D01*
X0021936Y0008810D01*
X0021931Y0008786D01*
X0021921Y0008757D01*
X0021909Y0008728D01*
X0021900Y0008712D01*
X0021890Y0008698D01*
X0021879Y0008683D01*
X0021867Y0008669D01*
X0021865Y0008667D01*
X0021864Y0008666D01*
X0021858Y0008662D01*
X0021852Y0008657D01*
X0021845Y0008652D01*
X0021837Y0008646D01*
X0021814Y0008632D01*
X0021789Y0008618D01*
X0021758Y0008607D01*
X0021723Y0008598D01*
X0021704Y0008597D01*
X0021686Y0008595D01*
X0021537D01*
X0021531Y0008597D01*
X0021525Y0008600D01*
X0021518Y0008604D01*
X0021513Y0008611D01*
X0021508Y0008619D01*
X0021507Y0008631D01*
Y0009567D01*
Y0009568D01*
Y0009572D01*
X0021508Y0009579D01*
X0021511Y0009586D01*
X0021515Y0009592D01*
X0021523Y0009599D01*
X0021531Y0009603D01*
X0021542Y0009605D01*
X0021696D01*
X0021703Y0009603D01*
D02*
G37*
G36*
X0055320Y0014303D02*
X0055330Y0014302D01*
X0055340Y0014300D01*
X0055364Y0014295D01*
X0055392Y0014286D01*
X0055423Y0014274D01*
X0055439Y0014265D01*
X0055454Y0014255D01*
X0055470Y0014243D01*
X0055484Y0014230D01*
X0055485Y0014229D01*
X0055487Y0014227D01*
X0055491Y0014223D01*
X0055495Y0014216D01*
X0055501Y0014209D01*
X0055506Y0014200D01*
X0055520Y0014179D01*
X0055534Y0014152D01*
X0055546Y0014123D01*
X0055554Y0014088D01*
X0055556Y0014069D01*
X0055557Y0014051D01*
Y0013763D01*
Y0013761D01*
Y0013753D01*
X0055556Y0013741D01*
X0055554Y0013724D01*
X0055550Y0013704D01*
X0055546Y0013683D01*
X0055539Y0013658D01*
X0055530Y0013632D01*
Y0013631D01*
X0055529Y0013629D01*
X0055526Y0013621D01*
X0055519Y0013607D01*
X0055512Y0013590D01*
X0055501Y0013570D01*
X0055489Y0013548D01*
X0055475Y0013524D01*
X0055460Y0013500D01*
X0055458Y0013498D01*
X0055456Y0013494D01*
X0055450Y0013486D01*
X0055443Y0013477D01*
X0055434Y0013465D01*
X0055423Y0013452D01*
X0055412Y0013438D01*
X0055398Y0013421D01*
X0055367Y0013388D01*
X0055330Y0013356D01*
X0055291Y0013325D01*
X0055269Y0013311D01*
X0055248Y0013300D01*
X0055247D01*
X0055243Y0013298D01*
X0055237Y0013297D01*
X0055230D01*
X0055222Y0013298D01*
X0055214Y0013301D01*
X0055206Y0013307D01*
X0055200Y0013315D01*
Y0013316D01*
X0055198Y0013321D01*
X0055196Y0013326D01*
Y0013333D01*
Y0013340D01*
X0055199Y0013349D01*
X0055206Y0013356D01*
X0055216Y0013363D01*
X0055217D01*
X0055220Y0013366D01*
X0055226Y0013369D01*
X0055233Y0013373D01*
X0055241Y0013379D01*
X0055251Y0013386D01*
X0055262Y0013394D01*
X0055275Y0013404D01*
X0055289Y0013415D01*
X0055303Y0013428D01*
X0055319Y0013442D01*
X0055334Y0013459D01*
X0055351Y0013476D01*
X0055368Y0013496D01*
X0055384Y0013517D01*
X0055401Y0013539D01*
X0055402Y0013541D01*
X0055403Y0013543D01*
X0055406Y0013549D01*
X0055410Y0013556D01*
X0055416Y0013565D01*
X0055422Y0013576D01*
X0055436Y0013600D01*
X0055448Y0013629D01*
X0055463Y0013660D01*
X0055474Y0013694D01*
X0055482Y0013728D01*
X0055293D01*
X0055286Y0013730D01*
X0055276Y0013731D01*
X0055267Y0013732D01*
X0055243Y0013738D01*
X0055214Y0013746D01*
X0055185Y0013759D01*
X0055169Y0013768D01*
X0055155Y0013777D01*
X0055140Y0013789D01*
X0055126Y0013801D01*
X0055124Y0013803D01*
X0055123Y0013804D01*
X0055119Y0013808D01*
X0055114Y0013814D01*
X0055109Y0013821D01*
X0055103Y0013830D01*
X0055089Y0013851D01*
X0055075Y0013878D01*
X0055064Y0013907D01*
X0055055Y0013941D01*
X0055054Y0013959D01*
X0055052Y0013979D01*
Y0014051D01*
Y0014052D01*
Y0014055D01*
Y0014061D01*
X0055054Y0014068D01*
X0055055Y0014078D01*
X0055057Y0014088D01*
X0055062Y0014112D01*
X0055071Y0014140D01*
X0055083Y0014169D01*
X0055092Y0014185D01*
X0055102Y0014200D01*
X0055113Y0014216D01*
X0055126Y0014230D01*
X0055127Y0014231D01*
X0055128Y0014233D01*
X0055133Y0014237D01*
X0055138Y0014241D01*
X0055147Y0014247D01*
X0055155Y0014254D01*
X0055176Y0014268D01*
X0055202Y0014281D01*
X0055233Y0014293D01*
X0055267Y0014302D01*
X0055285Y0014303D01*
X0055303Y0014305D01*
X0055313D01*
X0055320Y0014303D01*
D02*
G37*
G36*
X0054886Y0014300D02*
X0054887D01*
X0054890Y0014299D01*
X0054897Y0014293D01*
X0054906Y0014282D01*
X0054907Y0014276D01*
X0054909Y0014268D01*
Y0013331D01*
Y0013329D01*
Y0013325D01*
X0054907Y0013319D01*
X0054904Y0013314D01*
X0054900Y0013307D01*
X0054893Y0013301D01*
X0054885Y0013297D01*
X0054872Y0013295D01*
X0054866D01*
X0054861Y0013297D01*
X0054855Y0013300D01*
X0054848Y0013304D01*
X0054842Y0013311D01*
X0054838Y0013319D01*
X0054837Y0013331D01*
Y0014181D01*
X0054680Y0014026D01*
X0054679Y0014024D01*
X0054676Y0014023D01*
X0054670Y0014019D01*
X0054665Y0014016D01*
X0054656Y0014014D01*
X0054648D01*
X0054639Y0014019D01*
X0054629Y0014026D01*
X0054628Y0014027D01*
X0054625Y0014030D01*
X0054622Y0014035D01*
X0054620Y0014041D01*
X0054618Y0014050D01*
Y0014058D01*
X0054622Y0014068D01*
X0054629Y0014078D01*
X0054847Y0014293D01*
X0054848Y0014295D01*
X0054849Y0014296D01*
X0054858Y0014300D01*
X0054863Y0014303D01*
X0054878D01*
X0054886Y0014300D01*
D02*
G37*
G36*
X0054449Y0014303D02*
X0054456Y0014300D01*
X0054463Y0014296D01*
X0054469Y0014289D01*
X0054473Y0014281D01*
X0054474Y0014268D01*
Y0014267D01*
Y0014262D01*
X0054473Y0014257D01*
X0054470Y0014251D01*
X0054466Y0014244D01*
X0054459Y0014238D01*
X0054450Y0014234D01*
X0054438Y0014233D01*
X0054287D01*
X0054281Y0014231D01*
X0054267Y0014230D01*
X0054250Y0014226D01*
X0054230Y0014220D01*
X0054209Y0014210D01*
X0054188Y0014198D01*
X0054167Y0014179D01*
X0054164Y0014176D01*
X0054159Y0014169D01*
X0054150Y0014158D01*
X0054142Y0014144D01*
X0054132Y0014126D01*
X0054123Y0014103D01*
X0054118Y0014078D01*
X0054115Y0014051D01*
Y0013546D01*
Y0013545D01*
Y0013543D01*
Y0013539D01*
X0054116Y0013534D01*
X0054118Y0013519D01*
X0054122Y0013503D01*
X0054128Y0013483D01*
X0054137Y0013462D01*
X0054150Y0013441D01*
X0054167Y0013419D01*
X0054170Y0013417D01*
X0054177Y0013411D01*
X0054188Y0013402D01*
X0054202Y0013394D01*
X0054221Y0013384D01*
X0054243Y0013376D01*
X0054267Y0013370D01*
X0054294Y0013367D01*
X0054443D01*
X0054449Y0013366D01*
X0054456Y0013363D01*
X0054463Y0013359D01*
X0054469Y0013352D01*
X0054473Y0013343D01*
X0054474Y0013331D01*
Y0013329D01*
Y0013325D01*
X0054473Y0013319D01*
X0054470Y0013314D01*
X0054466Y0013307D01*
X0054459Y0013301D01*
X0054450Y0013297D01*
X0054438Y0013295D01*
X0054284D01*
X0054277Y0013297D01*
X0054267Y0013298D01*
X0054257Y0013300D01*
X0054233Y0013305D01*
X0054205Y0013314D01*
X0054175Y0013326D01*
X0054160Y0013335D01*
X0054146Y0013345D01*
X0054130Y0013356D01*
X0054116Y0013369D01*
X0054115Y0013370D01*
X0054113Y0013371D01*
X0054109Y0013376D01*
X0054105Y0013381D01*
X0054099Y0013390D01*
X0054094Y0013398D01*
X0054080Y0013419D01*
X0054066Y0013445D01*
X0054054Y0013476D01*
X0054046Y0013510D01*
X0054044Y0013528D01*
X0054043Y0013546D01*
Y0014051D01*
Y0014052D01*
Y0014055D01*
Y0014061D01*
X0054044Y0014068D01*
X0054046Y0014078D01*
X0054047Y0014088D01*
X0054053Y0014112D01*
X0054061Y0014140D01*
X0054074Y0014169D01*
X0054082Y0014185D01*
X0054092Y0014200D01*
X0054104Y0014216D01*
X0054116Y0014230D01*
X0054118Y0014231D01*
X0054119Y0014233D01*
X0054123Y0014237D01*
X0054129Y0014241D01*
X0054137Y0014247D01*
X0054146Y0014254D01*
X0054167Y0014268D01*
X0054192Y0014281D01*
X0054223Y0014293D01*
X0054257Y0014302D01*
X0054276Y0014303D01*
X0054294Y0014305D01*
X0054443D01*
X0054449Y0014303D01*
D02*
G37*
G36*
X0053202Y0015603D02*
X0053212Y0015602D01*
X0053222Y0015600D01*
X0053246Y0015595D01*
X0053274Y0015586D01*
X0053303Y0015574D01*
X0053319Y0015565D01*
X0053334Y0015555D01*
X0053350Y0015543D01*
X0053364Y0015530D01*
X0053365Y0015529D01*
X0053367Y0015527D01*
X0053371Y0015523D01*
X0053375Y0015516D01*
X0053381Y0015509D01*
X0053388Y0015500D01*
X0053402Y0015479D01*
X0053415Y0015454D01*
X0053427Y0015423D01*
X0053436Y0015389D01*
X0053437Y0015371D01*
X0053439Y0015352D01*
Y0015351D01*
Y0015348D01*
Y0015342D01*
X0053437Y0015335D01*
X0053436Y0015326D01*
X0053434Y0015316D01*
X0053429Y0015290D01*
X0053420Y0015264D01*
X0053408Y0015233D01*
X0053399Y0015217D01*
X0053389Y0015203D01*
X0053377Y0015187D01*
X0053364Y0015173D01*
X0053363Y0015172D01*
X0053360Y0015170D01*
X0053356Y0015166D01*
X0053351Y0015162D01*
X0053337Y0015151D01*
X0053320Y0015138D01*
X0053322Y0015137D01*
X0053326Y0015134D01*
X0053333Y0015130D01*
X0053343Y0015124D01*
X0053353Y0015117D01*
X0053365Y0015108D01*
X0053389Y0015086D01*
X0053391Y0015085D01*
X0053394Y0015082D01*
X0053398Y0015077D01*
X0053403Y0015070D01*
X0053409Y0015063D01*
X0053416Y0015053D01*
X0053425Y0015042D01*
X0053433Y0015030D01*
X0053449Y0015000D01*
X0053463Y0014965D01*
X0053467Y0014946D01*
X0053471Y0014925D01*
X0053474Y0014904D01*
X0053475Y0014883D01*
Y0014882D01*
Y0014877D01*
Y0014872D01*
X0053474Y0014863D01*
X0053473Y0014853D01*
X0053471Y0014841D01*
X0053468Y0014828D01*
X0053464Y0014814D01*
X0053454Y0014781D01*
X0053447Y0014764D01*
X0053439Y0014748D01*
X0053429Y0014731D01*
X0053418Y0014712D01*
X0053405Y0014697D01*
X0053389Y0014680D01*
X0053388Y0014679D01*
X0053385Y0014676D01*
X0053381Y0014671D01*
X0053374Y0014667D01*
X0053367Y0014660D01*
X0053357Y0014653D01*
X0053346Y0014646D01*
X0053332Y0014638D01*
X0053302Y0014622D01*
X0053268Y0014608D01*
X0053248Y0014604D01*
X0053229Y0014600D01*
X0053208Y0014597D01*
X0053185Y0014595D01*
X0053174D01*
X0053165Y0014597D01*
X0053155Y0014598D01*
X0053143Y0014600D01*
X0053130Y0014602D01*
X0053116Y0014607D01*
X0053083Y0014616D01*
X0053067Y0014624D01*
X0053050Y0014631D01*
X0053033Y0014640D01*
X0053014Y0014652D01*
X0052999Y0014664D01*
X0052982Y0014680D01*
X0052981Y0014681D01*
X0052978Y0014684D01*
X0052973Y0014688D01*
X0052969Y0014695D01*
X0052962Y0014704D01*
X0052955Y0014712D01*
X0052948Y0014724D01*
X0052940Y0014738D01*
X0052924Y0014767D01*
X0052910Y0014801D01*
X0052906Y0014821D01*
X0052902Y0014841D01*
X0052899Y0014862D01*
X0052897Y0014883D01*
Y0014884D01*
Y0014889D01*
Y0014894D01*
X0052899Y0014903D01*
X0052900Y0014913D01*
X0052902Y0014925D01*
X0052904Y0014938D01*
X0052909Y0014953D01*
X0052919Y0014984D01*
X0052926Y0015001D01*
X0052933Y0015018D01*
X0052942Y0015035D01*
X0052954Y0015053D01*
X0052966Y0015070D01*
X0052982Y0015086D01*
X0052983Y0015087D01*
X0052988Y0015092D01*
X0052995Y0015097D01*
X0053003Y0015104D01*
X0053013Y0015113D01*
X0053024Y0015121D01*
X0053051Y0015138D01*
X0053050Y0015139D01*
X0053047Y0015141D01*
X0053043Y0015145D01*
X0053037Y0015149D01*
X0053023Y0015161D01*
X0053007Y0015173D01*
X0053006Y0015175D01*
X0053005Y0015176D01*
X0053000Y0015180D01*
X0052996Y0015186D01*
X0052990Y0015194D01*
X0052985Y0015203D01*
X0052971Y0015224D01*
X0052957Y0015249D01*
X0052945Y0015280D01*
X0052937Y0015314D01*
X0052935Y0015333D01*
X0052934Y0015352D01*
Y0015354D01*
Y0015357D01*
Y0015362D01*
X0052935Y0015369D01*
X0052937Y0015378D01*
X0052938Y0015389D01*
X0052944Y0015413D01*
X0052952Y0015440D01*
X0052965Y0015471D01*
X0052973Y0015485D01*
X0052983Y0015500D01*
X0052995Y0015516D01*
X0053007Y0015530D01*
X0053009Y0015531D01*
X0053010Y0015533D01*
X0053014Y0015537D01*
X0053020Y0015541D01*
X0053028Y0015547D01*
X0053037Y0015554D01*
X0053058Y0015568D01*
X0053083Y0015581D01*
X0053114Y0015593D01*
X0053148Y0015602D01*
X0053167Y0015603D01*
X0053185Y0015605D01*
X0053195D01*
X0053202Y0015603D01*
D02*
G37*
G36*
X0052768Y0015600D02*
X0052769D01*
X0052772Y0015599D01*
X0052779Y0015593D01*
X0052787Y0015582D01*
X0052789Y0015576D01*
X0052790Y0015568D01*
Y0014631D01*
Y0014629D01*
Y0014625D01*
X0052789Y0014619D01*
X0052786Y0014614D01*
X0052782Y0014607D01*
X0052775Y0014601D01*
X0052766Y0014597D01*
X0052754Y0014595D01*
X0052748D01*
X0052742Y0014597D01*
X0052737Y0014600D01*
X0052730Y0014604D01*
X0052724Y0014611D01*
X0052720Y0014619D01*
X0052718Y0014631D01*
Y0015481D01*
X0052562Y0015326D01*
X0052560Y0015324D01*
X0052558Y0015323D01*
X0052552Y0015319D01*
X0052546Y0015316D01*
X0052538Y0015314D01*
X0052529D01*
X0052521Y0015319D01*
X0052511Y0015326D01*
X0052510Y0015327D01*
X0052507Y0015330D01*
X0052504Y0015335D01*
X0052501Y0015341D01*
X0052500Y0015350D01*
Y0015358D01*
X0052504Y0015368D01*
X0052511Y0015378D01*
X0052728Y0015593D01*
X0052730Y0015595D01*
X0052731Y0015596D01*
X0052739Y0015600D01*
X0052745Y0015603D01*
X0052759D01*
X0052768Y0015600D01*
D02*
G37*
G36*
X0052331Y0015603D02*
X0052338Y0015600D01*
X0052345Y0015596D01*
X0052350Y0015589D01*
X0052355Y0015581D01*
X0052356Y0015568D01*
Y0015567D01*
Y0015562D01*
X0052355Y0015557D01*
X0052352Y0015551D01*
X0052348Y0015544D01*
X0052341Y0015538D01*
X0052332Y0015534D01*
X0052319Y0015533D01*
X0052169D01*
X0052163Y0015531D01*
X0052149Y0015530D01*
X0052132Y0015526D01*
X0052112Y0015520D01*
X0052091Y0015510D01*
X0052070Y0015498D01*
X0052049Y0015479D01*
X0052046Y0015476D01*
X0052040Y0015469D01*
X0052032Y0015458D01*
X0052023Y0015444D01*
X0052013Y0015426D01*
X0052005Y0015403D01*
X0051999Y0015378D01*
X0051997Y0015351D01*
Y0014846D01*
Y0014845D01*
Y0014843D01*
Y0014839D01*
X0051998Y0014834D01*
X0051999Y0014819D01*
X0052004Y0014803D01*
X0052009Y0014783D01*
X0052019Y0014762D01*
X0052032Y0014741D01*
X0052049Y0014719D01*
X0052052Y0014717D01*
X0052059Y0014711D01*
X0052070Y0014702D01*
X0052084Y0014694D01*
X0052102Y0014684D01*
X0052125Y0014676D01*
X0052149Y0014670D01*
X0052176Y0014667D01*
X0052325D01*
X0052331Y0014666D01*
X0052338Y0014663D01*
X0052345Y0014659D01*
X0052350Y0014652D01*
X0052355Y0014643D01*
X0052356Y0014631D01*
Y0014629D01*
Y0014625D01*
X0052355Y0014619D01*
X0052352Y0014614D01*
X0052348Y0014607D01*
X0052341Y0014601D01*
X0052332Y0014597D01*
X0052319Y0014595D01*
X0052166D01*
X0052159Y0014597D01*
X0052149Y0014598D01*
X0052139Y0014600D01*
X0052115Y0014605D01*
X0052087Y0014614D01*
X0052057Y0014626D01*
X0052042Y0014635D01*
X0052028Y0014645D01*
X0052012Y0014656D01*
X0051998Y0014669D01*
X0051997Y0014670D01*
X0051995Y0014671D01*
X0051991Y0014676D01*
X0051987Y0014681D01*
X0051981Y0014690D01*
X0051975Y0014698D01*
X0051961Y0014719D01*
X0051947Y0014745D01*
X0051936Y0014776D01*
X0051927Y0014810D01*
X0051926Y0014828D01*
X0051925Y0014846D01*
Y0015351D01*
Y0015352D01*
Y0015355D01*
Y0015361D01*
X0051926Y0015368D01*
X0051927Y0015378D01*
X0051929Y0015388D01*
X0051935Y0015412D01*
X0051943Y0015440D01*
X0051956Y0015469D01*
X0051964Y0015485D01*
X0051974Y0015500D01*
X0051985Y0015516D01*
X0051998Y0015530D01*
X0051999Y0015531D01*
X0052001Y0015533D01*
X0052005Y0015537D01*
X0052011Y0015541D01*
X0052019Y0015547D01*
X0052028Y0015554D01*
X0052049Y0015568D01*
X0052074Y0015581D01*
X0052105Y0015593D01*
X0052139Y0015602D01*
X0052157Y0015603D01*
X0052176Y0015605D01*
X0052325D01*
X0052331Y0015603D01*
D02*
G37*
G36*
X0051534Y0015602D02*
X0051542Y0015599D01*
X0051550Y0015593D01*
X0051554Y0015585D01*
X0051557Y0015574D01*
X0051556Y0015567D01*
X0051554Y0015558D01*
X0051339Y0014624D01*
Y0014622D01*
X0051337Y0014619D01*
X0051334Y0014614D01*
X0051330Y0014609D01*
X0051326Y0014604D01*
X0051317Y0014600D01*
X0051307Y0014597D01*
X0051295D01*
X0051291Y0014598D01*
X0051285Y0014601D01*
X0051279Y0014605D01*
X0051274Y0014611D01*
X0051269Y0014618D01*
X0051268Y0014628D01*
X0051269Y0014639D01*
X0051475Y0015533D01*
X0051124D01*
Y0015461D01*
Y0015459D01*
Y0015455D01*
X0051123Y0015450D01*
X0051120Y0015444D01*
X0051116Y0015437D01*
X0051109Y0015431D01*
X0051100Y0015427D01*
X0051088Y0015426D01*
X0051082D01*
X0051076Y0015427D01*
X0051071Y0015430D01*
X0051064Y0015434D01*
X0051058Y0015441D01*
X0051054Y0015450D01*
X0051052Y0015461D01*
Y0015569D01*
Y0015571D01*
Y0015575D01*
X0051054Y0015581D01*
X0051057Y0015588D01*
X0051061Y0015593D01*
X0051068Y0015599D01*
X0051076Y0015603D01*
X0051088Y0015605D01*
X0051526D01*
X0051534Y0015602D01*
D02*
G37*
G36*
X0050886Y0015600D02*
X0050887D01*
X0050890Y0015599D01*
X0050897Y0015593D01*
X0050906Y0015582D01*
X0050907Y0015576D01*
X0050909Y0015568D01*
Y0014631D01*
Y0014629D01*
Y0014625D01*
X0050907Y0014619D01*
X0050904Y0014614D01*
X0050900Y0014607D01*
X0050893Y0014601D01*
X0050885Y0014597D01*
X0050872Y0014595D01*
X0050866D01*
X0050861Y0014597D01*
X0050855Y0014600D01*
X0050848Y0014604D01*
X0050842Y0014611D01*
X0050838Y0014619D01*
X0050837Y0014631D01*
Y0015481D01*
X0050680Y0015326D01*
X0050679Y0015324D01*
X0050676Y0015323D01*
X0050670Y0015319D01*
X0050665Y0015316D01*
X0050656Y0015314D01*
X0050648D01*
X0050639Y0015319D01*
X0050629Y0015326D01*
X0050628Y0015327D01*
X0050625Y0015330D01*
X0050622Y0015335D01*
X0050620Y0015341D01*
X0050618Y0015350D01*
Y0015358D01*
X0050622Y0015368D01*
X0050629Y0015378D01*
X0050847Y0015593D01*
X0050848Y0015595D01*
X0050849Y0015596D01*
X0050858Y0015600D01*
X0050863Y0015603D01*
X0050878D01*
X0050886Y0015600D01*
D02*
G37*
G36*
X0050449Y0015603D02*
X0050456Y0015600D01*
X0050463Y0015596D01*
X0050469Y0015589D01*
X0050473Y0015581D01*
X0050474Y0015568D01*
Y0015567D01*
Y0015562D01*
X0050473Y0015557D01*
X0050470Y0015551D01*
X0050466Y0015544D01*
X0050459Y0015538D01*
X0050450Y0015534D01*
X0050438Y0015533D01*
X0050287D01*
X0050281Y0015531D01*
X0050267Y0015530D01*
X0050250Y0015526D01*
X0050230Y0015520D01*
X0050209Y0015510D01*
X0050188Y0015498D01*
X0050167Y0015479D01*
X0050164Y0015476D01*
X0050159Y0015469D01*
X0050150Y0015458D01*
X0050142Y0015444D01*
X0050132Y0015426D01*
X0050123Y0015403D01*
X0050118Y0015378D01*
X0050115Y0015351D01*
Y0014846D01*
Y0014845D01*
Y0014843D01*
Y0014839D01*
X0050116Y0014834D01*
X0050118Y0014819D01*
X0050122Y0014803D01*
X0050128Y0014783D01*
X0050137Y0014762D01*
X0050150Y0014741D01*
X0050167Y0014719D01*
X0050170Y0014717D01*
X0050177Y0014711D01*
X0050188Y0014702D01*
X0050202Y0014694D01*
X0050221Y0014684D01*
X0050243Y0014676D01*
X0050267Y0014670D01*
X0050294Y0014667D01*
X0050443D01*
X0050449Y0014666D01*
X0050456Y0014663D01*
X0050463Y0014659D01*
X0050469Y0014652D01*
X0050473Y0014643D01*
X0050474Y0014631D01*
Y0014629D01*
Y0014625D01*
X0050473Y0014619D01*
X0050470Y0014614D01*
X0050466Y0014607D01*
X0050459Y0014601D01*
X0050450Y0014597D01*
X0050438Y0014595D01*
X0050284D01*
X0050277Y0014597D01*
X0050267Y0014598D01*
X0050257Y0014600D01*
X0050233Y0014605D01*
X0050205Y0014614D01*
X0050176Y0014626D01*
X0050160Y0014635D01*
X0050146Y0014645D01*
X0050130Y0014656D01*
X0050116Y0014669D01*
X0050115Y0014670D01*
X0050113Y0014671D01*
X0050109Y0014676D01*
X0050105Y0014681D01*
X0050099Y0014690D01*
X0050094Y0014698D01*
X0050080Y0014719D01*
X0050066Y0014745D01*
X0050054Y0014776D01*
X0050046Y0014810D01*
X0050044Y0014828D01*
X0050043Y0014846D01*
Y0015351D01*
Y0015352D01*
Y0015355D01*
Y0015361D01*
X0050044Y0015368D01*
X0050046Y0015378D01*
X0050047Y0015388D01*
X0050053Y0015412D01*
X0050061Y0015440D01*
X0050074Y0015469D01*
X0050082Y0015485D01*
X0050092Y0015500D01*
X0050104Y0015516D01*
X0050116Y0015530D01*
X0050118Y0015531D01*
X0050119Y0015533D01*
X0050123Y0015537D01*
X0050129Y0015541D01*
X0050137Y0015547D01*
X0050146Y0015554D01*
X0050167Y0015568D01*
X0050192Y0015581D01*
X0050223Y0015593D01*
X0050257Y0015602D01*
X0050276Y0015603D01*
X0050294Y0015605D01*
X0050443D01*
X0050449Y0015603D01*
D02*
G37*
G36*
X0022093Y0015999D02*
X0022101Y0015993D01*
X0022108Y0015984D01*
Y0015982D01*
X0022109Y0015978D01*
X0022110Y0015972D01*
Y0015965D01*
Y0015957D01*
X0022108Y0015950D01*
X0022102Y0015941D01*
X0022092Y0015936D01*
X0022091D01*
X0022088Y0015933D01*
X0022082Y0015930D01*
X0022075Y0015926D01*
X0022067Y0015920D01*
X0022057Y0015913D01*
X0022044Y0015905D01*
X0022031Y0015895D01*
X0022019Y0015883D01*
X0022003Y0015871D01*
X0021988Y0015855D01*
X0021972Y0015840D01*
X0021957Y0015823D01*
X0021940Y0015803D01*
X0021924Y0015782D01*
X0021907Y0015759D01*
Y0015758D01*
X0021905Y0015755D01*
X0021902Y0015750D01*
X0021898Y0015742D01*
X0021892Y0015733D01*
X0021886Y0015723D01*
X0021872Y0015697D01*
X0021858Y0015668D01*
X0021845Y0015637D01*
X0021834Y0015604D01*
X0021827Y0015572D01*
X0022013D01*
X0022020Y0015570D01*
X0022030Y0015569D01*
X0022040Y0015568D01*
X0022064Y0015562D01*
X0022092Y0015554D01*
X0022123Y0015541D01*
X0022139Y0015532D01*
X0022154Y0015523D01*
X0022170Y0015510D01*
X0022184Y0015497D01*
X0022185Y0015496D01*
X0022187Y0015494D01*
X0022191Y0015490D01*
X0022195Y0015483D01*
X0022201Y0015476D01*
X0022206Y0015468D01*
X0022220Y0015446D01*
X0022234Y0015421D01*
X0022246Y0015390D01*
X0022254Y0015356D01*
X0022256Y0015338D01*
X0022257Y0015320D01*
Y0015246D01*
Y0015245D01*
Y0015242D01*
Y0015236D01*
X0022256Y0015229D01*
X0022254Y0015219D01*
X0022253Y0015210D01*
X0022249Y0015186D01*
X0022239Y0015157D01*
X0022226Y0015128D01*
X0022218Y0015112D01*
X0022208Y0015098D01*
X0022196Y0015083D01*
X0022184Y0015069D01*
X0022182Y0015067D01*
X0022181Y0015066D01*
X0022175Y0015062D01*
X0022170Y0015057D01*
X0022163Y0015052D01*
X0022154Y0015046D01*
X0022132Y0015032D01*
X0022106Y0015018D01*
X0022075Y0015007D01*
X0022040Y0014998D01*
X0022022Y0014997D01*
X0022003Y0014995D01*
X0021993D01*
X0021986Y0014997D01*
X0021976Y0014998D01*
X0021967Y0015000D01*
X0021943Y0015005D01*
X0021914Y0015014D01*
X0021885Y0015026D01*
X0021869Y0015035D01*
X0021855Y0015045D01*
X0021840Y0015056D01*
X0021826Y0015069D01*
X0021824Y0015070D01*
X0021823Y0015071D01*
X0021819Y0015076D01*
X0021814Y0015081D01*
X0021809Y0015090D01*
X0021803Y0015098D01*
X0021789Y0015119D01*
X0021775Y0015145D01*
X0021764Y0015176D01*
X0021755Y0015210D01*
X0021754Y0015228D01*
X0021752Y0015246D01*
Y0015535D01*
Y0015537D01*
Y0015538D01*
Y0015547D01*
X0021754Y0015558D01*
X0021755Y0015575D01*
X0021758Y0015593D01*
X0021764Y0015616D01*
X0021769Y0015640D01*
X0021778Y0015665D01*
Y0015666D01*
X0021779Y0015668D01*
X0021782Y0015676D01*
X0021789Y0015690D01*
X0021796Y0015707D01*
X0021807Y0015728D01*
X0021819Y0015751D01*
X0021833Y0015775D01*
X0021848Y0015799D01*
Y0015800D01*
X0021850Y0015802D01*
X0021855Y0015810D01*
X0021865Y0015821D01*
X0021876Y0015837D01*
X0021890Y0015855D01*
X0021907Y0015875D01*
X0021926Y0015896D01*
X0021945Y0015916D01*
X0021948Y0015919D01*
X0021955Y0015924D01*
X0021967Y0015934D01*
X0021981Y0015947D01*
X0021998Y0015960D01*
X0022017Y0015974D01*
X0022037Y0015986D01*
X0022060Y0015999D01*
X0022061D01*
X0022065Y0016000D01*
X0022071Y0016002D01*
X0022085D01*
X0022093Y0015999D01*
D02*
G37*
G36*
X0021586Y0016000D02*
X0021587D01*
X0021590Y0015999D01*
X0021597Y0015993D01*
X0021606Y0015982D01*
X0021607Y0015976D01*
X0021609Y0015968D01*
Y0015031D01*
Y0015029D01*
Y0015025D01*
X0021607Y0015019D01*
X0021604Y0015014D01*
X0021600Y0015007D01*
X0021593Y0015001D01*
X0021585Y0014997D01*
X0021572Y0014995D01*
X0021566D01*
X0021561Y0014997D01*
X0021555Y0015000D01*
X0021548Y0015004D01*
X0021542Y0015011D01*
X0021538Y0015019D01*
X0021537Y0015031D01*
Y0015881D01*
X0021380Y0015726D01*
X0021379Y0015724D01*
X0021376Y0015723D01*
X0021370Y0015719D01*
X0021365Y0015716D01*
X0021356Y0015714D01*
X0021348D01*
X0021339Y0015719D01*
X0021329Y0015726D01*
X0021328Y0015727D01*
X0021325Y0015730D01*
X0021322Y0015735D01*
X0021320Y0015741D01*
X0021318Y0015750D01*
Y0015758D01*
X0021322Y0015768D01*
X0021329Y0015778D01*
X0021547Y0015993D01*
X0021548Y0015995D01*
X0021549Y0015996D01*
X0021558Y0016000D01*
X0021563Y0016003D01*
X0021578D01*
X0021586Y0016000D01*
D02*
G37*
G36*
X0021149Y0016003D02*
X0021156Y0016000D01*
X0021163Y0015996D01*
X0021169Y0015989D01*
X0021173Y0015981D01*
X0021174Y0015968D01*
Y0015967D01*
Y0015962D01*
X0021173Y0015957D01*
X0021170Y0015951D01*
X0021166Y0015944D01*
X0021159Y0015938D01*
X0021150Y0015934D01*
X0021138Y0015933D01*
X0020987D01*
X0020981Y0015931D01*
X0020967Y0015930D01*
X0020950Y0015926D01*
X0020930Y0015920D01*
X0020909Y0015910D01*
X0020888Y0015898D01*
X0020867Y0015879D01*
X0020864Y0015876D01*
X0020859Y0015869D01*
X0020850Y0015858D01*
X0020842Y0015844D01*
X0020832Y0015826D01*
X0020823Y0015803D01*
X0020818Y0015778D01*
X0020815Y0015751D01*
Y0015246D01*
Y0015245D01*
Y0015243D01*
Y0015239D01*
X0020816Y0015234D01*
X0020818Y0015219D01*
X0020822Y0015203D01*
X0020828Y0015183D01*
X0020837Y0015162D01*
X0020850Y0015141D01*
X0020867Y0015119D01*
X0020870Y0015117D01*
X0020877Y0015111D01*
X0020888Y0015102D01*
X0020902Y0015094D01*
X0020921Y0015084D01*
X0020943Y0015076D01*
X0020967Y0015070D01*
X0020994Y0015067D01*
X0021143D01*
X0021149Y0015066D01*
X0021156Y0015063D01*
X0021163Y0015059D01*
X0021169Y0015052D01*
X0021173Y0015043D01*
X0021174Y0015031D01*
Y0015029D01*
Y0015025D01*
X0021173Y0015019D01*
X0021170Y0015014D01*
X0021166Y0015007D01*
X0021159Y0015001D01*
X0021150Y0014997D01*
X0021138Y0014995D01*
X0020984D01*
X0020977Y0014997D01*
X0020967Y0014998D01*
X0020957Y0015000D01*
X0020933Y0015005D01*
X0020905Y0015014D01*
X0020876Y0015026D01*
X0020860Y0015035D01*
X0020846Y0015045D01*
X0020830Y0015056D01*
X0020816Y0015069D01*
X0020815Y0015070D01*
X0020813Y0015071D01*
X0020809Y0015076D01*
X0020805Y0015081D01*
X0020799Y0015090D01*
X0020794Y0015098D01*
X0020780Y0015119D01*
X0020766Y0015145D01*
X0020754Y0015176D01*
X0020746Y0015210D01*
X0020744Y0015228D01*
X0020743Y0015246D01*
Y0015751D01*
Y0015752D01*
Y0015755D01*
Y0015761D01*
X0020744Y0015768D01*
X0020746Y0015778D01*
X0020747Y0015788D01*
X0020753Y0015812D01*
X0020761Y0015840D01*
X0020774Y0015869D01*
X0020782Y0015885D01*
X0020792Y0015900D01*
X0020804Y0015916D01*
X0020816Y0015930D01*
X0020818Y0015931D01*
X0020819Y0015933D01*
X0020823Y0015937D01*
X0020829Y0015941D01*
X0020837Y0015947D01*
X0020846Y0015954D01*
X0020867Y0015968D01*
X0020892Y0015981D01*
X0020923Y0015993D01*
X0020957Y0016002D01*
X0020976Y0016003D01*
X0020994Y0016005D01*
X0021143D01*
X0021149Y0016003D01*
D02*
G37*
G36*
X0020296D02*
X0020303Y0016000D01*
X0020308Y0015996D01*
X0020315Y0015989D01*
X0020320Y0015981D01*
X0020321Y0015969D01*
Y0015968D01*
Y0015964D01*
X0020320Y0015958D01*
X0020317Y0015951D01*
X0020311Y0015944D01*
X0020306Y0015938D01*
X0020296Y0015934D01*
X0020283Y0015933D01*
X0019960D01*
Y0015572D01*
X0020077D01*
X0020084Y0015570D01*
X0020094Y0015569D01*
X0020104Y0015568D01*
X0020128Y0015562D01*
X0020156Y0015554D01*
X0020187Y0015541D01*
X0020203Y0015532D01*
X0020218Y0015523D01*
X0020234Y0015510D01*
X0020248Y0015497D01*
X0020249Y0015496D01*
X0020251Y0015494D01*
X0020255Y0015490D01*
X0020259Y0015483D01*
X0020265Y0015476D01*
X0020270Y0015468D01*
X0020284Y0015446D01*
X0020299Y0015421D01*
X0020310Y0015390D01*
X0020318Y0015356D01*
X0020320Y0015338D01*
X0020321Y0015320D01*
Y0015246D01*
Y0015245D01*
Y0015242D01*
Y0015236D01*
X0020320Y0015229D01*
X0020318Y0015219D01*
X0020317Y0015210D01*
X0020313Y0015186D01*
X0020303Y0015157D01*
X0020290Y0015128D01*
X0020282Y0015112D01*
X0020272Y0015098D01*
X0020260Y0015083D01*
X0020248Y0015069D01*
X0020246Y0015067D01*
X0020245Y0015066D01*
X0020239Y0015062D01*
X0020234Y0015057D01*
X0020227Y0015052D01*
X0020218Y0015046D01*
X0020196Y0015032D01*
X0020170Y0015018D01*
X0020139Y0015007D01*
X0020104Y0014998D01*
X0020086Y0014997D01*
X0020067Y0014995D01*
X0019919D01*
X0019914Y0014997D01*
X0019907Y0015000D01*
X0019900Y0015004D01*
X0019894Y0015011D01*
X0019890Y0015019D01*
X0019888Y0015031D01*
Y0015032D01*
Y0015036D01*
X0019890Y0015042D01*
X0019893Y0015049D01*
X0019897Y0015056D01*
X0019904Y0015062D01*
X0019912Y0015066D01*
X0019925Y0015067D01*
X0020074D01*
X0020080Y0015069D01*
X0020094Y0015070D01*
X0020112Y0015074D01*
X0020132Y0015080D01*
X0020153Y0015090D01*
X0020174Y0015102D01*
X0020196Y0015119D01*
X0020198Y0015122D01*
X0020204Y0015129D01*
X0020213Y0015141D01*
X0020222Y0015155D01*
X0020232Y0015173D01*
X0020241Y0015196D01*
X0020246Y0015219D01*
X0020249Y0015246D01*
Y0015320D01*
Y0015321D01*
Y0015322D01*
Y0015327D01*
X0020248Y0015332D01*
X0020246Y0015346D01*
X0020242Y0015363D01*
X0020236Y0015383D01*
X0020227Y0015404D01*
X0020214Y0015427D01*
X0020196Y0015446D01*
X0020193Y0015449D01*
X0020186Y0015455D01*
X0020174Y0015463D01*
X0020160Y0015473D01*
X0020142Y0015483D01*
X0020119Y0015492D01*
X0020094Y0015497D01*
X0020067Y0015500D01*
X0019919D01*
X0019914Y0015501D01*
X0019907Y0015504D01*
X0019900Y0015508D01*
X0019894Y0015516D01*
X0019890Y0015524D01*
X0019888Y0015537D01*
Y0015968D01*
Y0015969D01*
Y0015974D01*
X0019890Y0015979D01*
X0019893Y0015986D01*
X0019897Y0015993D01*
X0019904Y0015999D01*
X0019912Y0016003D01*
X0019925Y0016005D01*
X0020289D01*
X0020296Y0016003D01*
D02*
G37*
G36*
X0019722Y0016000D02*
X0019723D01*
X0019726Y0015999D01*
X0019733Y0015993D01*
X0019742Y0015982D01*
X0019743Y0015976D01*
X0019744Y0015968D01*
Y0015031D01*
Y0015029D01*
Y0015025D01*
X0019743Y0015019D01*
X0019740Y0015014D01*
X0019736Y0015007D01*
X0019729Y0015001D01*
X0019721Y0014997D01*
X0019708Y0014995D01*
X0019702D01*
X0019697Y0014997D01*
X0019691Y0015000D01*
X0019684Y0015004D01*
X0019678Y0015011D01*
X0019674Y0015019D01*
X0019673Y0015031D01*
Y0015881D01*
X0019516Y0015726D01*
X0019515Y0015724D01*
X0019512Y0015723D01*
X0019506Y0015719D01*
X0019501Y0015716D01*
X0019492Y0015714D01*
X0019484D01*
X0019475Y0015719D01*
X0019465Y0015726D01*
X0019464Y0015727D01*
X0019461Y0015730D01*
X0019458Y0015735D01*
X0019456Y0015741D01*
X0019454Y0015750D01*
Y0015758D01*
X0019458Y0015768D01*
X0019465Y0015778D01*
X0019682Y0015993D01*
X0019684Y0015995D01*
X0019685Y0015996D01*
X0019694Y0016000D01*
X0019699Y0016003D01*
X0019713D01*
X0019722Y0016000D01*
D02*
G37*
G36*
X0019285Y0016003D02*
X0019292Y0016000D01*
X0019299Y0015996D01*
X0019305Y0015989D01*
X0019309Y0015981D01*
X0019310Y0015968D01*
Y0015967D01*
Y0015962D01*
X0019309Y0015957D01*
X0019306Y0015951D01*
X0019302Y0015944D01*
X0019295Y0015938D01*
X0019286Y0015934D01*
X0019274Y0015933D01*
X0019123D01*
X0019117Y0015931D01*
X0019103Y0015930D01*
X0019086Y0015926D01*
X0019066Y0015920D01*
X0019045Y0015910D01*
X0019024Y0015898D01*
X0019003Y0015879D01*
X0019000Y0015876D01*
X0018995Y0015869D01*
X0018986Y0015858D01*
X0018978Y0015844D01*
X0018968Y0015826D01*
X0018959Y0015803D01*
X0018954Y0015778D01*
X0018951Y0015751D01*
Y0015246D01*
Y0015245D01*
Y0015243D01*
Y0015239D01*
X0018952Y0015234D01*
X0018954Y0015219D01*
X0018958Y0015203D01*
X0018964Y0015183D01*
X0018973Y0015162D01*
X0018986Y0015141D01*
X0019003Y0015119D01*
X0019006Y0015117D01*
X0019013Y0015111D01*
X0019024Y0015102D01*
X0019038Y0015094D01*
X0019057Y0015084D01*
X0019079Y0015076D01*
X0019103Y0015070D01*
X0019130Y0015067D01*
X0019279D01*
X0019285Y0015066D01*
X0019292Y0015063D01*
X0019299Y0015059D01*
X0019305Y0015052D01*
X0019309Y0015043D01*
X0019310Y0015031D01*
Y0015029D01*
Y0015025D01*
X0019309Y0015019D01*
X0019306Y0015014D01*
X0019302Y0015007D01*
X0019295Y0015001D01*
X0019286Y0014997D01*
X0019274Y0014995D01*
X0019120D01*
X0019113Y0014997D01*
X0019103Y0014998D01*
X0019093Y0015000D01*
X0019069Y0015005D01*
X0019041Y0015014D01*
X0019011Y0015026D01*
X0018996Y0015035D01*
X0018982Y0015045D01*
X0018966Y0015056D01*
X0018952Y0015069D01*
X0018951Y0015070D01*
X0018949Y0015071D01*
X0018945Y0015076D01*
X0018941Y0015081D01*
X0018935Y0015090D01*
X0018930Y0015098D01*
X0018916Y0015119D01*
X0018902Y0015145D01*
X0018890Y0015176D01*
X0018882Y0015210D01*
X0018880Y0015228D01*
X0018879Y0015246D01*
Y0015751D01*
Y0015752D01*
Y0015755D01*
Y0015761D01*
X0018880Y0015768D01*
X0018882Y0015778D01*
X0018883Y0015788D01*
X0018889Y0015812D01*
X0018897Y0015840D01*
X0018910Y0015869D01*
X0018918Y0015885D01*
X0018928Y0015900D01*
X0018940Y0015916D01*
X0018952Y0015930D01*
X0018954Y0015931D01*
X0018955Y0015933D01*
X0018959Y0015937D01*
X0018965Y0015941D01*
X0018973Y0015947D01*
X0018982Y0015954D01*
X0019003Y0015968D01*
X0019028Y0015981D01*
X0019059Y0015993D01*
X0019093Y0016002D01*
X0019112Y0016003D01*
X0019130Y0016005D01*
X0019279D01*
X0019285Y0016003D01*
D02*
G37*
G36*
X0017876Y0017303D02*
X0017878D01*
X0017882Y0017302D01*
X0017886Y0017299D01*
X0017892Y0017295D01*
X0017898Y0017289D01*
X0017902Y0017281D01*
X0017905Y0017272D01*
X0017903Y0017260D01*
X0017734Y0016584D01*
X0017941Y0016583D01*
X0017940Y0016762D01*
Y0016763D01*
Y0016768D01*
X0017941Y0016775D01*
X0017944Y0016782D01*
X0017948Y0016787D01*
X0017955Y0016794D01*
X0017964Y0016799D01*
X0017977Y0016800D01*
X0017982D01*
X0017988Y0016799D01*
X0017995Y0016796D01*
X0018002Y0016792D01*
X0018008Y0016784D01*
X0018012Y0016776D01*
X0018013Y0016763D01*
Y0016584D01*
X0018127D01*
X0018133Y0016583D01*
X0018140Y0016580D01*
X0018146Y0016574D01*
X0018151Y0016569D01*
X0018156Y0016559D01*
X0018157Y0016546D01*
Y0016545D01*
Y0016541D01*
X0018156Y0016535D01*
X0018153Y0016529D01*
X0018149Y0016522D01*
X0018142Y0016517D01*
X0018133Y0016512D01*
X0018122Y0016511D01*
X0018013D01*
Y0016331D01*
Y0016329D01*
Y0016325D01*
X0018012Y0016319D01*
X0018009Y0016314D01*
X0018005Y0016307D01*
X0017998Y0016301D01*
X0017989Y0016297D01*
X0017978Y0016295D01*
X0017972D01*
X0017967Y0016297D01*
X0017960Y0016300D01*
X0017953Y0016304D01*
X0017947Y0016311D01*
X0017943Y0016319D01*
X0017941Y0016331D01*
Y0016511D01*
X0017688D01*
X0017682Y0016512D01*
X0017673Y0016514D01*
X0017665Y0016517D01*
X0017658Y0016522D01*
X0017652Y0016531D01*
X0017651Y0016542D01*
Y0016549D01*
X0017654Y0016558D01*
X0017833Y0017278D01*
Y0017279D01*
X0017836Y0017284D01*
X0017838Y0017289D01*
X0017843Y0017295D01*
X0017848Y0017299D01*
X0017855Y0017303D01*
X0017865Y0017305D01*
X0017876Y0017303D01*
D02*
G37*
G36*
X0017486Y0017300D02*
X0017487D01*
X0017490Y0017299D01*
X0017497Y0017293D01*
X0017506Y0017282D01*
X0017507Y0017276D01*
X0017509Y0017268D01*
Y0016331D01*
Y0016329D01*
Y0016325D01*
X0017507Y0016319D01*
X0017504Y0016314D01*
X0017500Y0016307D01*
X0017493Y0016301D01*
X0017485Y0016297D01*
X0017472Y0016295D01*
X0017466D01*
X0017461Y0016297D01*
X0017455Y0016300D01*
X0017448Y0016304D01*
X0017442Y0016311D01*
X0017438Y0016319D01*
X0017437Y0016331D01*
Y0017181D01*
X0017280Y0017026D01*
X0017279Y0017024D01*
X0017276Y0017023D01*
X0017270Y0017018D01*
X0017265Y0017016D01*
X0017256Y0017014D01*
X0017248D01*
X0017239Y0017018D01*
X0017229Y0017026D01*
X0017228Y0017027D01*
X0017225Y0017030D01*
X0017222Y0017035D01*
X0017220Y0017041D01*
X0017218Y0017050D01*
Y0017058D01*
X0017222Y0017068D01*
X0017229Y0017078D01*
X0017447Y0017293D01*
X0017448Y0017295D01*
X0017449Y0017296D01*
X0017458Y0017300D01*
X0017463Y0017303D01*
X0017478D01*
X0017486Y0017300D01*
D02*
G37*
G36*
X0017049Y0017303D02*
X0017056Y0017300D01*
X0017063Y0017296D01*
X0017069Y0017289D01*
X0017073Y0017281D01*
X0017074Y0017268D01*
Y0017267D01*
Y0017262D01*
X0017073Y0017257D01*
X0017070Y0017251D01*
X0017066Y0017244D01*
X0017059Y0017238D01*
X0017050Y0017234D01*
X0017038Y0017233D01*
X0016887D01*
X0016881Y0017231D01*
X0016867Y0017230D01*
X0016850Y0017226D01*
X0016830Y0017220D01*
X0016809Y0017210D01*
X0016788Y0017198D01*
X0016767Y0017179D01*
X0016764Y0017176D01*
X0016759Y0017169D01*
X0016750Y0017158D01*
X0016742Y0017144D01*
X0016732Y0017126D01*
X0016723Y0017103D01*
X0016718Y0017078D01*
X0016715Y0017051D01*
Y0016546D01*
Y0016545D01*
Y0016543D01*
Y0016539D01*
X0016716Y0016534D01*
X0016718Y0016519D01*
X0016722Y0016503D01*
X0016728Y0016483D01*
X0016737Y0016462D01*
X0016750Y0016441D01*
X0016767Y0016419D01*
X0016770Y0016417D01*
X0016777Y0016411D01*
X0016788Y0016402D01*
X0016802Y0016394D01*
X0016821Y0016384D01*
X0016843Y0016376D01*
X0016867Y0016370D01*
X0016894Y0016367D01*
X0017043D01*
X0017049Y0016366D01*
X0017056Y0016363D01*
X0017063Y0016359D01*
X0017069Y0016352D01*
X0017073Y0016343D01*
X0017074Y0016331D01*
Y0016329D01*
Y0016325D01*
X0017073Y0016319D01*
X0017070Y0016314D01*
X0017066Y0016307D01*
X0017059Y0016301D01*
X0017050Y0016297D01*
X0017038Y0016295D01*
X0016884D01*
X0016877Y0016297D01*
X0016867Y0016298D01*
X0016857Y0016300D01*
X0016833Y0016305D01*
X0016805Y0016314D01*
X0016775Y0016326D01*
X0016760Y0016335D01*
X0016746Y0016345D01*
X0016730Y0016356D01*
X0016716Y0016369D01*
X0016715Y0016370D01*
X0016713Y0016371D01*
X0016709Y0016376D01*
X0016705Y0016381D01*
X0016699Y0016390D01*
X0016694Y0016398D01*
X0016680Y0016419D01*
X0016666Y0016445D01*
X0016654Y0016476D01*
X0016646Y0016510D01*
X0016644Y0016528D01*
X0016643Y0016546D01*
Y0017051D01*
Y0017052D01*
Y0017055D01*
Y0017061D01*
X0016644Y0017068D01*
X0016646Y0017078D01*
X0016647Y0017088D01*
X0016653Y0017112D01*
X0016661Y0017140D01*
X0016674Y0017169D01*
X0016682Y0017185D01*
X0016692Y0017200D01*
X0016704Y0017216D01*
X0016716Y0017230D01*
X0016718Y0017231D01*
X0016719Y0017233D01*
X0016723Y0017237D01*
X0016729Y0017241D01*
X0016737Y0017247D01*
X0016746Y0017254D01*
X0016767Y0017268D01*
X0016792Y0017281D01*
X0016823Y0017293D01*
X0016857Y0017302D01*
X0016876Y0017303D01*
X0016894Y0017305D01*
X0017043D01*
X0017049Y0017303D01*
D02*
G37*
G36*
X0027896Y0017902D02*
X0027906Y0017898D01*
X0027910Y0017892D01*
X0027914Y0017886D01*
Y0017885D01*
X0027915Y0017884D01*
X0027918Y0017875D01*
X0027920Y0017864D01*
Y0017858D01*
X0027917Y0017851D01*
X0027725Y0017470D01*
X0027728D01*
X0027732Y0017469D01*
X0027738D01*
X0027752Y0017465D01*
X0027770Y0017461D01*
X0027791Y0017452D01*
X0027814Y0017441D01*
X0027836Y0017427D01*
X0027858Y0017408D01*
X0027859D01*
X0027860Y0017406D01*
X0027867Y0017397D01*
X0027877Y0017383D01*
X0027890Y0017366D01*
X0027901Y0017344D01*
X0027911Y0017317D01*
X0027918Y0017287D01*
X0027921Y0017272D01*
Y0017255D01*
Y0017111D01*
Y0017110D01*
Y0017107D01*
Y0017103D01*
X0027920Y0017096D01*
Y0017088D01*
X0027918Y0017080D01*
X0027913Y0017059D01*
X0027906Y0017035D01*
X0027894Y0017010D01*
X0027879Y0016984D01*
X0027869Y0016971D01*
X0027858Y0016959D01*
X0027856D01*
X0027855Y0016956D01*
X0027846Y0016949D01*
X0027832Y0016939D01*
X0027814Y0016928D01*
X0027791Y0016915D01*
X0027766Y0016905D01*
X0027736Y0016898D01*
X0027721Y0016897D01*
X0027704Y0016895D01*
X0027518D01*
X0027512Y0016897D01*
X0027507Y0016900D01*
X0027500Y0016904D01*
X0027494Y0016911D01*
X0027490Y0016919D01*
X0027488Y0016931D01*
Y0016932D01*
Y0016936D01*
X0027490Y0016942D01*
X0027493Y0016949D01*
X0027497Y0016956D01*
X0027504Y0016962D01*
X0027512Y0016966D01*
X0027524Y0016967D01*
X0027707D01*
X0027714Y0016969D01*
X0027725Y0016970D01*
X0027739Y0016973D01*
X0027756Y0016977D01*
X0027773Y0016986D01*
X0027790Y0016995D01*
X0027805Y0017010D01*
X0027807Y0017011D01*
X0027813Y0017017D01*
X0027820Y0017025D01*
X0027828Y0017038D01*
X0027835Y0017052D01*
X0027842Y0017069D01*
X0027848Y0017088D01*
X0027849Y0017111D01*
Y0017255D01*
Y0017256D01*
Y0017258D01*
Y0017265D01*
X0027846Y0017276D01*
X0027844Y0017290D01*
X0027838Y0017307D01*
X0027831Y0017324D01*
X0027820Y0017341D01*
X0027805Y0017356D01*
X0027804Y0017358D01*
X0027798Y0017363D01*
X0027790Y0017370D01*
X0027777Y0017379D01*
X0027763Y0017386D01*
X0027745Y0017393D01*
X0027725Y0017399D01*
X0027704Y0017400D01*
X0027664D01*
X0027656Y0017403D01*
X0027645Y0017408D01*
X0027639Y0017413D01*
X0027635Y0017418D01*
Y0017420D01*
X0027633Y0017421D01*
X0027632Y0017430D01*
Y0017441D01*
X0027633Y0017448D01*
X0027638Y0017455D01*
X0027825Y0017833D01*
X0027518D01*
X0027512Y0017834D01*
X0027507Y0017837D01*
X0027500Y0017841D01*
X0027494Y0017848D01*
X0027490Y0017857D01*
X0027488Y0017869D01*
Y0017871D01*
Y0017875D01*
X0027490Y0017881D01*
X0027493Y0017888D01*
X0027497Y0017893D01*
X0027504Y0017899D01*
X0027512Y0017903D01*
X0027524Y0017905D01*
X0027887D01*
X0027896Y0017902D01*
D02*
G37*
G36*
X0027322Y0017900D02*
X0027323D01*
X0027326Y0017899D01*
X0027333Y0017893D01*
X0027342Y0017882D01*
X0027343Y0017876D01*
X0027344Y0017868D01*
Y0016931D01*
Y0016929D01*
Y0016925D01*
X0027343Y0016919D01*
X0027340Y0016914D01*
X0027336Y0016907D01*
X0027329Y0016901D01*
X0027321Y0016897D01*
X0027308Y0016895D01*
X0027302D01*
X0027297Y0016897D01*
X0027291Y0016900D01*
X0027284Y0016904D01*
X0027278Y0016911D01*
X0027274Y0016919D01*
X0027273Y0016931D01*
Y0017781D01*
X0027116Y0017626D01*
X0027115Y0017624D01*
X0027112Y0017623D01*
X0027106Y0017618D01*
X0027101Y0017616D01*
X0027092Y0017614D01*
X0027084D01*
X0027075Y0017618D01*
X0027065Y0017626D01*
X0027064Y0017627D01*
X0027061Y0017630D01*
X0027058Y0017635D01*
X0027056Y0017641D01*
X0027054Y0017650D01*
Y0017658D01*
X0027058Y0017668D01*
X0027065Y0017678D01*
X0027282Y0017893D01*
X0027284Y0017895D01*
X0027285Y0017896D01*
X0027294Y0017900D01*
X0027299Y0017903D01*
X0027313D01*
X0027322Y0017900D01*
D02*
G37*
G36*
X0026885Y0017903D02*
X0026892Y0017900D01*
X0026899Y0017896D01*
X0026905Y0017889D01*
X0026909Y0017881D01*
X0026910Y0017868D01*
Y0017867D01*
Y0017862D01*
X0026909Y0017857D01*
X0026906Y0017851D01*
X0026902Y0017844D01*
X0026895Y0017838D01*
X0026886Y0017834D01*
X0026874Y0017833D01*
X0026723D01*
X0026717Y0017831D01*
X0026703Y0017830D01*
X0026686Y0017826D01*
X0026666Y0017820D01*
X0026645Y0017810D01*
X0026624Y0017798D01*
X0026603Y0017779D01*
X0026600Y0017776D01*
X0026595Y0017769D01*
X0026586Y0017758D01*
X0026578Y0017744D01*
X0026568Y0017726D01*
X0026559Y0017703D01*
X0026554Y0017678D01*
X0026551Y0017651D01*
Y0017146D01*
Y0017145D01*
Y0017143D01*
Y0017139D01*
X0026552Y0017134D01*
X0026554Y0017119D01*
X0026558Y0017103D01*
X0026564Y0017083D01*
X0026573Y0017062D01*
X0026586Y0017041D01*
X0026603Y0017019D01*
X0026606Y0017017D01*
X0026613Y0017011D01*
X0026624Y0017002D01*
X0026638Y0016994D01*
X0026657Y0016984D01*
X0026679Y0016976D01*
X0026703Y0016970D01*
X0026730Y0016967D01*
X0026879D01*
X0026885Y0016966D01*
X0026892Y0016963D01*
X0026899Y0016959D01*
X0026905Y0016952D01*
X0026909Y0016943D01*
X0026910Y0016931D01*
Y0016929D01*
Y0016925D01*
X0026909Y0016919D01*
X0026906Y0016914D01*
X0026902Y0016907D01*
X0026895Y0016901D01*
X0026886Y0016897D01*
X0026874Y0016895D01*
X0026720D01*
X0026713Y0016897D01*
X0026703Y0016898D01*
X0026693Y0016900D01*
X0026669Y0016905D01*
X0026641Y0016914D01*
X0026611Y0016926D01*
X0026596Y0016935D01*
X0026582Y0016945D01*
X0026566Y0016956D01*
X0026552Y0016969D01*
X0026551Y0016970D01*
X0026549Y0016971D01*
X0026545Y0016976D01*
X0026541Y0016981D01*
X0026535Y0016990D01*
X0026530Y0016998D01*
X0026516Y0017019D01*
X0026501Y0017045D01*
X0026490Y0017076D01*
X0026482Y0017110D01*
X0026480Y0017128D01*
X0026479Y0017146D01*
Y0017651D01*
Y0017652D01*
Y0017655D01*
Y0017661D01*
X0026480Y0017668D01*
X0026482Y0017678D01*
X0026483Y0017688D01*
X0026489Y0017712D01*
X0026497Y0017740D01*
X0026510Y0017769D01*
X0026518Y0017785D01*
X0026528Y0017800D01*
X0026540Y0017816D01*
X0026552Y0017830D01*
X0026554Y0017831D01*
X0026555Y0017833D01*
X0026559Y0017837D01*
X0026565Y0017841D01*
X0026573Y0017847D01*
X0026582Y0017854D01*
X0026603Y0017868D01*
X0026628Y0017881D01*
X0026659Y0017893D01*
X0026693Y0017902D01*
X0026712Y0017903D01*
X0026730Y0017905D01*
X0026879D01*
X0026885Y0017903D01*
D02*
G37*
G36*
X0016079Y0021779D02*
X0016089Y0021778D01*
X0016099Y0021777D01*
X0016123Y0021771D01*
X0016151Y0021762D01*
X0016182Y0021750D01*
X0016198Y0021741D01*
X0016213Y0021731D01*
X0016229Y0021719D01*
X0016243Y0021706D01*
X0016244Y0021705D01*
X0016246Y0021703D01*
X0016250Y0021699D01*
X0016254Y0021692D01*
X0016260Y0021685D01*
X0016265Y0021676D01*
X0016279Y0021655D01*
X0016293Y0021630D01*
X0016305Y0021599D01*
X0016313Y0021565D01*
X0016315Y0021547D01*
X0016316Y0021528D01*
Y0021527D01*
Y0021526D01*
Y0021521D01*
Y0021516D01*
X0016313Y0021502D01*
X0016310Y0021482D01*
X0016306Y0021461D01*
X0016298Y0021437D01*
X0016288Y0021413D01*
X0016274Y0021389D01*
X0015914Y0020843D01*
X0016284D01*
X0016291Y0020842D01*
X0016298Y0020839D01*
X0016303Y0020835D01*
X0016310Y0020828D01*
X0016315Y0020819D01*
X0016316Y0020807D01*
Y0020805D01*
Y0020801D01*
X0016315Y0020795D01*
X0016312Y0020790D01*
X0016308Y0020783D01*
X0016301Y0020777D01*
X0016292Y0020773D01*
X0016279Y0020771D01*
X0015844D01*
X0015835Y0020774D01*
X0015824Y0020780D01*
X0015818Y0020784D01*
X0015814Y0020790D01*
Y0020791D01*
X0015813Y0020793D01*
X0015811Y0020802D01*
Y0020814D01*
X0015813Y0020819D01*
X0015817Y0020826D01*
X0016213Y0021428D01*
X0016215Y0021430D01*
X0016217Y0021437D01*
X0016223Y0021445D01*
X0016229Y0021458D01*
X0016234Y0021472D01*
X0016240Y0021489D01*
X0016243Y0021507D01*
X0016244Y0021528D01*
Y0021530D01*
Y0021531D01*
Y0021535D01*
X0016243Y0021541D01*
X0016241Y0021555D01*
X0016237Y0021572D01*
X0016231Y0021592D01*
X0016222Y0021613D01*
X0016209Y0021636D01*
X0016191Y0021655D01*
X0016188Y0021658D01*
X0016181Y0021664D01*
X0016169Y0021672D01*
X0016155Y0021682D01*
X0016137Y0021692D01*
X0016114Y0021700D01*
X0016089Y0021706D01*
X0016062Y0021709D01*
X0016052D01*
X0016041Y0021707D01*
X0016027Y0021705D01*
X0016012Y0021700D01*
X0015995Y0021693D01*
X0015976Y0021685D01*
X0015958Y0021674D01*
X0015957Y0021672D01*
X0015951Y0021668D01*
X0015942Y0021660D01*
X0015931Y0021650D01*
X0015921Y0021637D01*
X0015910Y0021621D01*
X0015900Y0021605D01*
X0015892Y0021585D01*
Y0021583D01*
X0015889Y0021579D01*
X0015886Y0021575D01*
X0015882Y0021569D01*
X0015876Y0021564D01*
X0015868Y0021561D01*
X0015858Y0021559D01*
X0015847Y0021562D01*
X0015845D01*
X0015841Y0021565D01*
X0015837Y0021568D01*
X0015831Y0021572D01*
X0015827Y0021578D01*
X0015823Y0021585D01*
X0015821Y0021595D01*
X0015824Y0021607D01*
Y0021609D01*
X0015825Y0021610D01*
X0015827Y0021614D01*
X0015830Y0021620D01*
X0015835Y0021634D01*
X0015845Y0021652D01*
X0015858Y0021672D01*
X0015873Y0021693D01*
X0015893Y0021713D01*
X0015916Y0021733D01*
X0015917D01*
X0015918Y0021734D01*
X0015927Y0021740D01*
X0015941Y0021748D01*
X0015958Y0021757D01*
X0015981Y0021765D01*
X0016004Y0021774D01*
X0016033Y0021779D01*
X0016062Y0021781D01*
X0016072D01*
X0016079Y0021779D01*
D02*
G37*
G36*
X0015645Y0021777D02*
X0015646D01*
X0015649Y0021775D01*
X0015656Y0021769D01*
X0015665Y0021758D01*
X0015666Y0021753D01*
X0015668Y0021744D01*
Y0020807D01*
Y0020805D01*
Y0020801D01*
X0015666Y0020795D01*
X0015663Y0020790D01*
X0015659Y0020783D01*
X0015652Y0020777D01*
X0015644Y0020773D01*
X0015631Y0020771D01*
X0015625D01*
X0015620Y0020773D01*
X0015614Y0020776D01*
X0015607Y0020780D01*
X0015601Y0020787D01*
X0015597Y0020795D01*
X0015596Y0020807D01*
Y0021657D01*
X0015439Y0021502D01*
X0015438Y0021500D01*
X0015435Y0021499D01*
X0015429Y0021495D01*
X0015424Y0021492D01*
X0015415Y0021490D01*
X0015407D01*
X0015398Y0021495D01*
X0015388Y0021502D01*
X0015387Y0021503D01*
X0015384Y0021506D01*
X0015381Y0021511D01*
X0015379Y0021517D01*
X0015377Y0021526D01*
Y0021534D01*
X0015381Y0021544D01*
X0015388Y0021554D01*
X0015606Y0021769D01*
X0015607Y0021771D01*
X0015608Y0021772D01*
X0015617Y0021777D01*
X0015622Y0021779D01*
X0015637D01*
X0015645Y0021777D01*
D02*
G37*
G36*
X0015208Y0021779D02*
X0015215Y0021777D01*
X0015222Y0021772D01*
X0015228Y0021765D01*
X0015232Y0021757D01*
X0015233Y0021744D01*
Y0021743D01*
Y0021738D01*
X0015232Y0021733D01*
X0015229Y0021727D01*
X0015225Y0021720D01*
X0015218Y0021715D01*
X0015209Y0021710D01*
X0015197Y0021709D01*
X0015046D01*
X0015040Y0021707D01*
X0015026Y0021706D01*
X0015009Y0021702D01*
X0014989Y0021696D01*
X0014968Y0021686D01*
X0014947Y0021674D01*
X0014926Y0021655D01*
X0014923Y0021652D01*
X0014918Y0021645D01*
X0014909Y0021634D01*
X0014901Y0021620D01*
X0014891Y0021602D01*
X0014882Y0021579D01*
X0014877Y0021554D01*
X0014874Y0021527D01*
Y0021022D01*
Y0021021D01*
Y0021020D01*
Y0021015D01*
X0014875Y0021010D01*
X0014877Y0020996D01*
X0014881Y0020979D01*
X0014887Y0020959D01*
X0014896Y0020938D01*
X0014909Y0020917D01*
X0014926Y0020895D01*
X0014929Y0020893D01*
X0014936Y0020887D01*
X0014947Y0020879D01*
X0014961Y0020870D01*
X0014980Y0020860D01*
X0015002Y0020852D01*
X0015026Y0020846D01*
X0015053Y0020843D01*
X0015202D01*
X0015208Y0020842D01*
X0015215Y0020839D01*
X0015222Y0020835D01*
X0015228Y0020828D01*
X0015232Y0020819D01*
X0015233Y0020807D01*
Y0020805D01*
Y0020801D01*
X0015232Y0020795D01*
X0015229Y0020790D01*
X0015225Y0020783D01*
X0015218Y0020777D01*
X0015209Y0020773D01*
X0015197Y0020771D01*
X0015043D01*
X0015036Y0020773D01*
X0015026Y0020774D01*
X0015016Y0020776D01*
X0014992Y0020781D01*
X0014964Y0020790D01*
X0014935Y0020802D01*
X0014919Y0020811D01*
X0014905Y0020821D01*
X0014889Y0020832D01*
X0014875Y0020845D01*
X0014874Y0020846D01*
X0014872Y0020848D01*
X0014868Y0020852D01*
X0014864Y0020857D01*
X0014858Y0020866D01*
X0014853Y0020874D01*
X0014839Y0020895D01*
X0014825Y0020921D01*
X0014813Y0020952D01*
X0014805Y0020986D01*
X0014803Y0021004D01*
X0014802Y0021022D01*
Y0021527D01*
Y0021528D01*
Y0021531D01*
Y0021537D01*
X0014803Y0021544D01*
X0014805Y0021554D01*
X0014806Y0021564D01*
X0014812Y0021588D01*
X0014820Y0021616D01*
X0014833Y0021645D01*
X0014841Y0021661D01*
X0014851Y0021676D01*
X0014863Y0021692D01*
X0014875Y0021706D01*
X0014877Y0021707D01*
X0014878Y0021709D01*
X0014882Y0021713D01*
X0014888Y0021717D01*
X0014896Y0021723D01*
X0014905Y0021730D01*
X0014926Y0021744D01*
X0014951Y0021757D01*
X0014982Y0021769D01*
X0015016Y0021778D01*
X0015035Y0021779D01*
X0015053Y0021781D01*
X0015202D01*
X0015208Y0021779D01*
D02*
G37*
G36*
X0014171Y0021777D02*
X0014173D01*
X0014175Y0021775D01*
X0014182Y0021769D01*
X0014191Y0021758D01*
X0014192Y0021753D01*
X0014194Y0021744D01*
Y0020807D01*
Y0020805D01*
Y0020801D01*
X0014192Y0020795D01*
X0014190Y0020790D01*
X0014185Y0020783D01*
X0014178Y0020777D01*
X0014170Y0020773D01*
X0014157Y0020771D01*
X0014151D01*
X0014146Y0020773D01*
X0014140Y0020776D01*
X0014133Y0020780D01*
X0014127Y0020787D01*
X0014123Y0020795D01*
X0014122Y0020807D01*
Y0021657D01*
X0013965Y0021502D01*
X0013964Y0021500D01*
X0013961Y0021499D01*
X0013955Y0021495D01*
X0013950Y0021492D01*
X0013941Y0021490D01*
X0013933D01*
X0013924Y0021495D01*
X0013915Y0021502D01*
X0013913Y0021503D01*
X0013910Y0021506D01*
X0013908Y0021511D01*
X0013905Y0021517D01*
X0013903Y0021526D01*
Y0021534D01*
X0013908Y0021544D01*
X0013915Y0021554D01*
X0014132Y0021769D01*
X0014133Y0021771D01*
X0014135Y0021772D01*
X0014143Y0021777D01*
X0014149Y0021779D01*
X0014163D01*
X0014171Y0021777D01*
D02*
G37*
G36*
X0013738D02*
X0013740D01*
X0013743Y0021775D01*
X0013750Y0021769D01*
X0013758Y0021758D01*
X0013760Y0021753D01*
X0013761Y0021744D01*
Y0020807D01*
Y0020805D01*
Y0020801D01*
X0013760Y0020795D01*
X0013757Y0020790D01*
X0013752Y0020783D01*
X0013745Y0020777D01*
X0013737Y0020773D01*
X0013724Y0020771D01*
X0013719D01*
X0013713Y0020773D01*
X0013707Y0020776D01*
X0013700Y0020780D01*
X0013695Y0020787D01*
X0013690Y0020795D01*
X0013689Y0020807D01*
Y0021657D01*
X0013533Y0021502D01*
X0013531Y0021500D01*
X0013528Y0021499D01*
X0013523Y0021495D01*
X0013517Y0021492D01*
X0013509Y0021490D01*
X0013500D01*
X0013492Y0021495D01*
X0013482Y0021502D01*
X0013480Y0021503D01*
X0013478Y0021506D01*
X0013475Y0021511D01*
X0013472Y0021517D01*
X0013471Y0021526D01*
Y0021534D01*
X0013475Y0021544D01*
X0013482Y0021554D01*
X0013699Y0021769D01*
X0013700Y0021771D01*
X0013702Y0021772D01*
X0013710Y0021777D01*
X0013716Y0021779D01*
X0013730D01*
X0013738Y0021777D01*
D02*
G37*
G36*
X0013301Y0021779D02*
X0013308Y0021777D01*
X0013315Y0021772D01*
X0013321Y0021765D01*
X0013325Y0021757D01*
X0013327Y0021744D01*
Y0021743D01*
Y0021738D01*
X0013325Y0021733D01*
X0013323Y0021727D01*
X0013318Y0021720D01*
X0013311Y0021715D01*
X0013303Y0021710D01*
X0013290Y0021709D01*
X0013139D01*
X0013134Y0021707D01*
X0013120Y0021706D01*
X0013103Y0021702D01*
X0013083Y0021696D01*
X0013062Y0021686D01*
X0013041Y0021674D01*
X0013019Y0021655D01*
X0013017Y0021652D01*
X0013011Y0021645D01*
X0013003Y0021634D01*
X0012994Y0021620D01*
X0012984Y0021602D01*
X0012976Y0021579D01*
X0012970Y0021554D01*
X0012967Y0021527D01*
Y0021022D01*
Y0021021D01*
Y0021020D01*
Y0021015D01*
X0012969Y0021010D01*
X0012970Y0020996D01*
X0012974Y0020979D01*
X0012980Y0020959D01*
X0012990Y0020938D01*
X0013003Y0020917D01*
X0013019Y0020895D01*
X0013022Y0020893D01*
X0013029Y0020887D01*
X0013041Y0020879D01*
X0013055Y0020870D01*
X0013073Y0020860D01*
X0013096Y0020852D01*
X0013120Y0020846D01*
X0013146Y0020843D01*
X0013296D01*
X0013301Y0020842D01*
X0013308Y0020839D01*
X0013315Y0020835D01*
X0013321Y0020828D01*
X0013325Y0020819D01*
X0013327Y0020807D01*
Y0020805D01*
Y0020801D01*
X0013325Y0020795D01*
X0013323Y0020790D01*
X0013318Y0020783D01*
X0013311Y0020777D01*
X0013303Y0020773D01*
X0013290Y0020771D01*
X0013136D01*
X0013129Y0020773D01*
X0013120Y0020774D01*
X0013110Y0020776D01*
X0013086Y0020781D01*
X0013058Y0020790D01*
X0013028Y0020802D01*
X0013012Y0020811D01*
X0012998Y0020821D01*
X0012983Y0020832D01*
X0012969Y0020845D01*
X0012967Y0020846D01*
X0012966Y0020848D01*
X0012962Y0020852D01*
X0012957Y0020857D01*
X0012952Y0020866D01*
X0012946Y0020874D01*
X0012932Y0020895D01*
X0012918Y0020921D01*
X0012907Y0020952D01*
X0012898Y0020986D01*
X0012897Y0021004D01*
X0012895Y0021022D01*
Y0021527D01*
Y0021528D01*
Y0021531D01*
Y0021537D01*
X0012897Y0021544D01*
X0012898Y0021554D01*
X0012900Y0021564D01*
X0012905Y0021588D01*
X0012914Y0021616D01*
X0012926Y0021645D01*
X0012935Y0021661D01*
X0012945Y0021676D01*
X0012956Y0021692D01*
X0012969Y0021706D01*
X0012970Y0021707D01*
X0012972Y0021709D01*
X0012976Y0021713D01*
X0012981Y0021717D01*
X0012990Y0021723D01*
X0012998Y0021730D01*
X0013019Y0021744D01*
X0013045Y0021757D01*
X0013076Y0021769D01*
X0013110Y0021778D01*
X0013128Y0021779D01*
X0013146Y0021781D01*
X0013296D01*
X0013301Y0021779D01*
D02*
G37*
G36*
X0011920Y0021803D02*
X0011930Y0021802D01*
X0011940Y0021800D01*
X0011964Y0021795D01*
X0011992Y0021786D01*
X0012023Y0021774D01*
X0012039Y0021765D01*
X0012054Y0021755D01*
X0012070Y0021743D01*
X0012084Y0021730D01*
X0012085Y0021729D01*
X0012087Y0021727D01*
X0012091Y0021723D01*
X0012095Y0021716D01*
X0012101Y0021709D01*
X0012106Y0021700D01*
X0012120Y0021679D01*
X0012134Y0021654D01*
X0012146Y0021623D01*
X0012154Y0021589D01*
X0012156Y0021571D01*
X0012157Y0021552D01*
Y0021046D01*
Y0021045D01*
Y0021042D01*
Y0021036D01*
X0012156Y0021029D01*
X0012154Y0021019D01*
X0012153Y0021010D01*
X0012149Y0020986D01*
X0012139Y0020957D01*
X0012126Y0020928D01*
X0012118Y0020912D01*
X0012108Y0020898D01*
X0012096Y0020883D01*
X0012084Y0020869D01*
X0012082Y0020867D01*
X0012081Y0020866D01*
X0012075Y0020862D01*
X0012070Y0020857D01*
X0012063Y0020852D01*
X0012054Y0020846D01*
X0012032Y0020832D01*
X0012006Y0020818D01*
X0011975Y0020807D01*
X0011940Y0020798D01*
X0011922Y0020797D01*
X0011903Y0020795D01*
X0011893D01*
X0011886Y0020797D01*
X0011876Y0020798D01*
X0011867Y0020800D01*
X0011843Y0020805D01*
X0011814Y0020814D01*
X0011785Y0020826D01*
X0011769Y0020835D01*
X0011755Y0020845D01*
X0011740Y0020856D01*
X0011726Y0020869D01*
X0011724Y0020870D01*
X0011723Y0020871D01*
X0011719Y0020876D01*
X0011714Y0020881D01*
X0011709Y0020890D01*
X0011703Y0020898D01*
X0011689Y0020919D01*
X0011675Y0020945D01*
X0011664Y0020976D01*
X0011655Y0021010D01*
X0011654Y0021028D01*
X0011652Y0021046D01*
Y0021552D01*
Y0021554D01*
Y0021557D01*
Y0021562D01*
X0011654Y0021569D01*
X0011655Y0021578D01*
X0011657Y0021589D01*
X0011662Y0021613D01*
X0011671Y0021640D01*
X0011683Y0021671D01*
X0011692Y0021685D01*
X0011702Y0021700D01*
X0011713Y0021716D01*
X0011726Y0021730D01*
X0011727Y0021731D01*
X0011728Y0021733D01*
X0011733Y0021737D01*
X0011738Y0021741D01*
X0011747Y0021747D01*
X0011755Y0021754D01*
X0011776Y0021768D01*
X0011802Y0021781D01*
X0011833Y0021793D01*
X0011867Y0021802D01*
X0011885Y0021803D01*
X0011903Y0021805D01*
X0011913D01*
X0011920Y0021803D01*
D02*
G37*
G36*
X0011486Y0021800D02*
X0011487D01*
X0011490Y0021799D01*
X0011497Y0021793D01*
X0011506Y0021782D01*
X0011507Y0021776D01*
X0011509Y0021768D01*
Y0020831D01*
Y0020829D01*
Y0020825D01*
X0011507Y0020819D01*
X0011504Y0020814D01*
X0011500Y0020807D01*
X0011493Y0020801D01*
X0011485Y0020797D01*
X0011472Y0020795D01*
X0011466D01*
X0011461Y0020797D01*
X0011455Y0020800D01*
X0011448Y0020804D01*
X0011442Y0020811D01*
X0011438Y0020819D01*
X0011437Y0020831D01*
Y0021681D01*
X0011280Y0021526D01*
X0011279Y0021524D01*
X0011276Y0021523D01*
X0011270Y0021519D01*
X0011265Y0021516D01*
X0011256Y0021514D01*
X0011248D01*
X0011239Y0021519D01*
X0011229Y0021526D01*
X0011228Y0021527D01*
X0011225Y0021530D01*
X0011222Y0021535D01*
X0011220Y0021541D01*
X0011218Y0021550D01*
Y0021558D01*
X0011222Y0021568D01*
X0011229Y0021578D01*
X0011447Y0021793D01*
X0011448Y0021795D01*
X0011449Y0021796D01*
X0011458Y0021800D01*
X0011463Y0021803D01*
X0011478D01*
X0011486Y0021800D01*
D02*
G37*
G36*
X0011049Y0021803D02*
X0011056Y0021800D01*
X0011063Y0021796D01*
X0011069Y0021789D01*
X0011073Y0021781D01*
X0011074Y0021768D01*
Y0021767D01*
Y0021762D01*
X0011073Y0021757D01*
X0011070Y0021751D01*
X0011066Y0021744D01*
X0011059Y0021738D01*
X0011050Y0021734D01*
X0011038Y0021733D01*
X0010887D01*
X0010881Y0021731D01*
X0010867Y0021730D01*
X0010850Y0021726D01*
X0010830Y0021720D01*
X0010809Y0021710D01*
X0010788Y0021698D01*
X0010767Y0021679D01*
X0010764Y0021676D01*
X0010759Y0021669D01*
X0010750Y0021658D01*
X0010742Y0021644D01*
X0010732Y0021626D01*
X0010723Y0021603D01*
X0010718Y0021578D01*
X0010715Y0021551D01*
Y0021046D01*
Y0021045D01*
Y0021043D01*
Y0021039D01*
X0010716Y0021034D01*
X0010718Y0021019D01*
X0010722Y0021003D01*
X0010728Y0020983D01*
X0010737Y0020962D01*
X0010750Y0020941D01*
X0010767Y0020919D01*
X0010770Y0020917D01*
X0010777Y0020911D01*
X0010788Y0020902D01*
X0010802Y0020894D01*
X0010821Y0020884D01*
X0010843Y0020876D01*
X0010867Y0020870D01*
X0010894Y0020867D01*
X0011043D01*
X0011049Y0020866D01*
X0011056Y0020863D01*
X0011063Y0020859D01*
X0011069Y0020852D01*
X0011073Y0020843D01*
X0011074Y0020831D01*
Y0020829D01*
Y0020825D01*
X0011073Y0020819D01*
X0011070Y0020814D01*
X0011066Y0020807D01*
X0011059Y0020801D01*
X0011050Y0020797D01*
X0011038Y0020795D01*
X0010884D01*
X0010877Y0020797D01*
X0010867Y0020798D01*
X0010857Y0020800D01*
X0010833Y0020805D01*
X0010805Y0020814D01*
X0010776Y0020826D01*
X0010760Y0020835D01*
X0010746Y0020845D01*
X0010730Y0020856D01*
X0010716Y0020869D01*
X0010715Y0020870D01*
X0010713Y0020871D01*
X0010709Y0020876D01*
X0010705Y0020881D01*
X0010699Y0020890D01*
X0010694Y0020898D01*
X0010680Y0020919D01*
X0010666Y0020945D01*
X0010654Y0020976D01*
X0010646Y0021010D01*
X0010644Y0021028D01*
X0010643Y0021046D01*
Y0021551D01*
Y0021552D01*
Y0021555D01*
Y0021561D01*
X0010644Y0021568D01*
X0010646Y0021578D01*
X0010647Y0021588D01*
X0010653Y0021612D01*
X0010661Y0021640D01*
X0010674Y0021669D01*
X0010682Y0021685D01*
X0010692Y0021700D01*
X0010704Y0021716D01*
X0010716Y0021730D01*
X0010718Y0021731D01*
X0010719Y0021733D01*
X0010723Y0021737D01*
X0010729Y0021741D01*
X0010737Y0021747D01*
X0010746Y0021754D01*
X0010767Y0021768D01*
X0010792Y0021781D01*
X0010823Y0021793D01*
X0010857Y0021802D01*
X0010876Y0021803D01*
X0010894Y0021805D01*
X0011043D01*
X0011049Y0021803D01*
D02*
G37*
G36*
X0030404Y0022603D02*
X0030414Y0022602D01*
X0030424Y0022600D01*
X0030447Y0022595D01*
X0030476Y0022586D01*
X0030507Y0022574D01*
X0030522Y0022565D01*
X0030538Y0022555D01*
X0030553Y0022543D01*
X0030567Y0022530D01*
X0030569Y0022529D01*
X0030570Y0022527D01*
X0030574Y0022523D01*
X0030579Y0022516D01*
X0030584Y0022509D01*
X0030590Y0022500D01*
X0030604Y0022479D01*
X0030618Y0022452D01*
X0030629Y0022423D01*
X0030638Y0022388D01*
X0030639Y0022369D01*
X0030641Y0022351D01*
Y0022063D01*
Y0022061D01*
Y0022053D01*
X0030639Y0022041D01*
X0030638Y0022024D01*
X0030634Y0022004D01*
X0030629Y0021983D01*
X0030622Y0021958D01*
X0030614Y0021932D01*
Y0021931D01*
X0030612Y0021929D01*
X0030610Y0021921D01*
X0030603Y0021907D01*
X0030596Y0021890D01*
X0030584Y0021870D01*
X0030573Y0021848D01*
X0030559Y0021824D01*
X0030543Y0021800D01*
X0030542Y0021798D01*
X0030539Y0021794D01*
X0030533Y0021786D01*
X0030526Y0021777D01*
X0030518Y0021764D01*
X0030507Y0021752D01*
X0030495Y0021738D01*
X0030481Y0021721D01*
X0030450Y0021688D01*
X0030414Y0021656D01*
X0030374Y0021625D01*
X0030353Y0021611D01*
X0030332Y0021600D01*
X0030330D01*
X0030326Y0021598D01*
X0030321Y0021597D01*
X0030314D01*
X0030305Y0021598D01*
X0030298Y0021601D01*
X0030290Y0021607D01*
X0030284Y0021615D01*
Y0021616D01*
X0030281Y0021621D01*
X0030280Y0021626D01*
Y0021633D01*
Y0021640D01*
X0030283Y0021649D01*
X0030290Y0021656D01*
X0030299Y0021663D01*
X0030301D01*
X0030304Y0021666D01*
X0030309Y0021669D01*
X0030316Y0021673D01*
X0030325Y0021678D01*
X0030335Y0021686D01*
X0030346Y0021694D01*
X0030359Y0021704D01*
X0030373Y0021715D01*
X0030387Y0021728D01*
X0030402Y0021742D01*
X0030418Y0021759D01*
X0030435Y0021776D01*
X0030452Y0021796D01*
X0030467Y0021817D01*
X0030484Y0021839D01*
X0030486Y0021841D01*
X0030487Y0021843D01*
X0030490Y0021849D01*
X0030494Y0021856D01*
X0030500Y0021865D01*
X0030505Y0021876D01*
X0030519Y0021900D01*
X0030532Y0021929D01*
X0030546Y0021960D01*
X0030557Y0021994D01*
X0030566Y0022028D01*
X0030377D01*
X0030370Y0022030D01*
X0030360Y0022031D01*
X0030350Y0022032D01*
X0030326Y0022038D01*
X0030298Y0022046D01*
X0030268Y0022059D01*
X0030253Y0022068D01*
X0030239Y0022077D01*
X0030223Y0022089D01*
X0030209Y0022101D01*
X0030208Y0022103D01*
X0030206Y0022104D01*
X0030202Y0022108D01*
X0030198Y0022114D01*
X0030192Y0022121D01*
X0030187Y0022130D01*
X0030173Y0022151D01*
X0030159Y0022178D01*
X0030147Y0022207D01*
X0030139Y0022241D01*
X0030137Y0022259D01*
X0030136Y0022279D01*
Y0022351D01*
Y0022352D01*
Y0022355D01*
Y0022361D01*
X0030137Y0022368D01*
X0030139Y0022378D01*
X0030140Y0022388D01*
X0030146Y0022412D01*
X0030154Y0022440D01*
X0030167Y0022469D01*
X0030175Y0022485D01*
X0030185Y0022500D01*
X0030197Y0022516D01*
X0030209Y0022530D01*
X0030211Y0022531D01*
X0030212Y0022533D01*
X0030216Y0022537D01*
X0030222Y0022541D01*
X0030230Y0022547D01*
X0030239Y0022554D01*
X0030260Y0022568D01*
X0030285Y0022581D01*
X0030316Y0022593D01*
X0030350Y0022602D01*
X0030369Y0022603D01*
X0030387Y0022605D01*
X0030397D01*
X0030404Y0022603D01*
D02*
G37*
G36*
X0029965D02*
X0029972Y0022600D01*
X0029979Y0022596D01*
X0029985Y0022589D01*
X0029989Y0022581D01*
X0029991Y0022568D01*
Y0022567D01*
Y0022562D01*
X0029989Y0022557D01*
X0029987Y0022551D01*
X0029982Y0022544D01*
X0029975Y0022538D01*
X0029967Y0022534D01*
X0029954Y0022533D01*
X0029803D01*
X0029798Y0022531D01*
X0029784Y0022530D01*
X0029767Y0022526D01*
X0029747Y0022520D01*
X0029726Y0022510D01*
X0029705Y0022498D01*
X0029683Y0022479D01*
X0029681Y0022476D01*
X0029675Y0022469D01*
X0029667Y0022458D01*
X0029658Y0022444D01*
X0029648Y0022426D01*
X0029640Y0022403D01*
X0029634Y0022378D01*
X0029631Y0022351D01*
Y0021846D01*
Y0021845D01*
Y0021843D01*
Y0021839D01*
X0029633Y0021834D01*
X0029634Y0021819D01*
X0029638Y0021803D01*
X0029644Y0021783D01*
X0029654Y0021762D01*
X0029667Y0021741D01*
X0029683Y0021719D01*
X0029686Y0021717D01*
X0029693Y0021711D01*
X0029705Y0021702D01*
X0029719Y0021694D01*
X0029737Y0021684D01*
X0029760Y0021676D01*
X0029784Y0021670D01*
X0029810Y0021667D01*
X0029960D01*
X0029965Y0021666D01*
X0029972Y0021663D01*
X0029979Y0021659D01*
X0029985Y0021652D01*
X0029989Y0021643D01*
X0029991Y0021631D01*
Y0021629D01*
Y0021625D01*
X0029989Y0021619D01*
X0029987Y0021614D01*
X0029982Y0021607D01*
X0029975Y0021601D01*
X0029967Y0021597D01*
X0029954Y0021595D01*
X0029800D01*
X0029793Y0021597D01*
X0029784Y0021598D01*
X0029774Y0021600D01*
X0029750Y0021605D01*
X0029722Y0021614D01*
X0029692Y0021626D01*
X0029676Y0021635D01*
X0029662Y0021645D01*
X0029647Y0021656D01*
X0029633Y0021669D01*
X0029631Y0021670D01*
X0029630Y0021671D01*
X0029626Y0021676D01*
X0029621Y0021681D01*
X0029616Y0021690D01*
X0029610Y0021698D01*
X0029596Y0021719D01*
X0029582Y0021745D01*
X0029571Y0021776D01*
X0029562Y0021810D01*
X0029561Y0021828D01*
X0029559Y0021846D01*
Y0022351D01*
Y0022352D01*
Y0022355D01*
Y0022361D01*
X0029561Y0022368D01*
X0029562Y0022378D01*
X0029564Y0022388D01*
X0029569Y0022412D01*
X0029578Y0022440D01*
X0029590Y0022469D01*
X0029599Y0022485D01*
X0029609Y0022500D01*
X0029620Y0022516D01*
X0029633Y0022530D01*
X0029634Y0022531D01*
X0029636Y0022533D01*
X0029640Y0022537D01*
X0029645Y0022541D01*
X0029654Y0022547D01*
X0029662Y0022554D01*
X0029683Y0022568D01*
X0029709Y0022581D01*
X0029740Y0022593D01*
X0029774Y0022602D01*
X0029792Y0022603D01*
X0029810Y0022605D01*
X0029960D01*
X0029965Y0022603D01*
D02*
G37*
G36*
X0027885D02*
X0027895Y0022602D01*
X0027905Y0022600D01*
X0027929Y0022595D01*
X0027957Y0022586D01*
X0027987Y0022574D01*
X0028002Y0022565D01*
X0028018Y0022555D01*
X0028033Y0022543D01*
X0028048Y0022530D01*
X0028049Y0022529D01*
X0028050Y0022527D01*
X0028055Y0022523D01*
X0028059Y0022516D01*
X0028065Y0022509D01*
X0028072Y0022500D01*
X0028086Y0022479D01*
X0028098Y0022454D01*
X0028111Y0022423D01*
X0028119Y0022389D01*
X0028121Y0022371D01*
X0028122Y0022352D01*
Y0022351D01*
Y0022348D01*
Y0022342D01*
X0028121Y0022335D01*
X0028119Y0022326D01*
X0028118Y0022316D01*
X0028112Y0022290D01*
X0028104Y0022264D01*
X0028091Y0022233D01*
X0028083Y0022217D01*
X0028073Y0022203D01*
X0028060Y0022187D01*
X0028048Y0022173D01*
X0028046Y0022172D01*
X0028043Y0022170D01*
X0028039Y0022166D01*
X0028035Y0022162D01*
X0028021Y0022151D01*
X0028004Y0022138D01*
X0028005Y0022137D01*
X0028010Y0022134D01*
X0028017Y0022130D01*
X0028026Y0022124D01*
X0028036Y0022117D01*
X0028049Y0022108D01*
X0028073Y0022086D01*
X0028074Y0022084D01*
X0028077Y0022082D01*
X0028081Y0022077D01*
X0028087Y0022070D01*
X0028093Y0022063D01*
X0028100Y0022053D01*
X0028108Y0022042D01*
X0028117Y0022030D01*
X0028132Y0022000D01*
X0028146Y0021965D01*
X0028150Y0021946D01*
X0028155Y0021925D01*
X0028158Y0021904D01*
X0028159Y0021883D01*
Y0021882D01*
Y0021877D01*
Y0021872D01*
X0028158Y0021863D01*
X0028156Y0021853D01*
X0028155Y0021841D01*
X0028152Y0021828D01*
X0028148Y0021814D01*
X0028138Y0021781D01*
X0028131Y0021764D01*
X0028122Y0021748D01*
X0028112Y0021731D01*
X0028101Y0021712D01*
X0028088Y0021697D01*
X0028073Y0021680D01*
X0028072Y0021678D01*
X0028069Y0021676D01*
X0028065Y0021671D01*
X0028057Y0021667D01*
X0028050Y0021660D01*
X0028041Y0021653D01*
X0028029Y0021646D01*
X0028015Y0021638D01*
X0027986Y0021622D01*
X0027952Y0021608D01*
X0027932Y0021604D01*
X0027912Y0021600D01*
X0027891Y0021597D01*
X0027869Y0021595D01*
X0027857D01*
X0027849Y0021597D01*
X0027839Y0021598D01*
X0027826Y0021600D01*
X0027814Y0021602D01*
X0027799Y0021607D01*
X0027767Y0021616D01*
X0027750Y0021624D01*
X0027733Y0021631D01*
X0027716Y0021640D01*
X0027698Y0021652D01*
X0027682Y0021664D01*
X0027666Y0021680D01*
X0027664Y0021681D01*
X0027661Y0021684D01*
X0027657Y0021688D01*
X0027653Y0021695D01*
X0027646Y0021704D01*
X0027639Y0021712D01*
X0027632Y0021724D01*
X0027623Y0021738D01*
X0027608Y0021767D01*
X0027594Y0021801D01*
X0027589Y0021821D01*
X0027585Y0021841D01*
X0027582Y0021862D01*
X0027581Y0021883D01*
Y0021884D01*
Y0021889D01*
Y0021894D01*
X0027582Y0021903D01*
X0027584Y0021913D01*
X0027585Y0021925D01*
X0027588Y0021938D01*
X0027592Y0021953D01*
X0027602Y0021984D01*
X0027609Y0022001D01*
X0027616Y0022018D01*
X0027626Y0022035D01*
X0027637Y0022053D01*
X0027650Y0022070D01*
X0027666Y0022086D01*
X0027667Y0022087D01*
X0027671Y0022092D01*
X0027678Y0022097D01*
X0027687Y0022104D01*
X0027697Y0022113D01*
X0027708Y0022121D01*
X0027735Y0022138D01*
X0027733Y0022139D01*
X0027730Y0022141D01*
X0027726Y0022145D01*
X0027721Y0022149D01*
X0027706Y0022161D01*
X0027691Y0022173D01*
X0027690Y0022175D01*
X0027688Y0022176D01*
X0027684Y0022180D01*
X0027680Y0022186D01*
X0027674Y0022194D01*
X0027668Y0022203D01*
X0027654Y0022224D01*
X0027640Y0022249D01*
X0027629Y0022280D01*
X0027620Y0022314D01*
X0027619Y0022333D01*
X0027618Y0022352D01*
Y0022354D01*
Y0022357D01*
Y0022362D01*
X0027619Y0022369D01*
X0027620Y0022378D01*
X0027622Y0022389D01*
X0027627Y0022413D01*
X0027636Y0022440D01*
X0027649Y0022471D01*
X0027657Y0022485D01*
X0027667Y0022500D01*
X0027678Y0022516D01*
X0027691Y0022530D01*
X0027692Y0022531D01*
X0027694Y0022533D01*
X0027698Y0022537D01*
X0027704Y0022541D01*
X0027712Y0022547D01*
X0027721Y0022554D01*
X0027742Y0022568D01*
X0027767Y0022581D01*
X0027798Y0022593D01*
X0027832Y0022602D01*
X0027850Y0022603D01*
X0027869Y0022605D01*
X0027878D01*
X0027885Y0022603D01*
D02*
G37*
G36*
X0027447D02*
X0027454Y0022600D01*
X0027461Y0022596D01*
X0027467Y0022589D01*
X0027471Y0022581D01*
X0027472Y0022568D01*
Y0022567D01*
Y0022562D01*
X0027471Y0022557D01*
X0027468Y0022551D01*
X0027464Y0022544D01*
X0027457Y0022538D01*
X0027448Y0022534D01*
X0027436Y0022533D01*
X0027285D01*
X0027279Y0022531D01*
X0027265Y0022530D01*
X0027248Y0022526D01*
X0027229Y0022520D01*
X0027207Y0022510D01*
X0027186Y0022498D01*
X0027165Y0022479D01*
X0027162Y0022476D01*
X0027157Y0022469D01*
X0027148Y0022458D01*
X0027140Y0022444D01*
X0027130Y0022426D01*
X0027121Y0022403D01*
X0027116Y0022378D01*
X0027113Y0022351D01*
Y0021846D01*
Y0021845D01*
Y0021843D01*
Y0021839D01*
X0027114Y0021834D01*
X0027116Y0021819D01*
X0027120Y0021803D01*
X0027126Y0021783D01*
X0027136Y0021762D01*
X0027148Y0021741D01*
X0027165Y0021719D01*
X0027168Y0021717D01*
X0027175Y0021711D01*
X0027186Y0021702D01*
X0027200Y0021694D01*
X0027219Y0021684D01*
X0027241Y0021676D01*
X0027265Y0021670D01*
X0027292Y0021667D01*
X0027441D01*
X0027447Y0021666D01*
X0027454Y0021663D01*
X0027461Y0021659D01*
X0027467Y0021652D01*
X0027471Y0021643D01*
X0027472Y0021631D01*
Y0021629D01*
Y0021625D01*
X0027471Y0021619D01*
X0027468Y0021614D01*
X0027464Y0021607D01*
X0027457Y0021601D01*
X0027448Y0021597D01*
X0027436Y0021595D01*
X0027282D01*
X0027275Y0021597D01*
X0027265Y0021598D01*
X0027255Y0021600D01*
X0027231Y0021605D01*
X0027203Y0021614D01*
X0027174Y0021626D01*
X0027158Y0021635D01*
X0027144Y0021645D01*
X0027128Y0021656D01*
X0027114Y0021669D01*
X0027113Y0021670D01*
X0027112Y0021671D01*
X0027107Y0021676D01*
X0027103Y0021681D01*
X0027097Y0021690D01*
X0027092Y0021698D01*
X0027078Y0021719D01*
X0027064Y0021745D01*
X0027052Y0021776D01*
X0027044Y0021810D01*
X0027042Y0021828D01*
X0027041Y0021846D01*
Y0022351D01*
Y0022352D01*
Y0022355D01*
Y0022361D01*
X0027042Y0022368D01*
X0027044Y0022378D01*
X0027045Y0022388D01*
X0027051Y0022412D01*
X0027059Y0022440D01*
X0027072Y0022469D01*
X0027081Y0022485D01*
X0027090Y0022500D01*
X0027102Y0022516D01*
X0027114Y0022530D01*
X0027116Y0022531D01*
X0027117Y0022533D01*
X0027121Y0022537D01*
X0027127Y0022541D01*
X0027136Y0022547D01*
X0027144Y0022554D01*
X0027165Y0022568D01*
X0027190Y0022581D01*
X0027222Y0022593D01*
X0027255Y0022602D01*
X0027274Y0022603D01*
X0027292Y0022605D01*
X0027441D01*
X0027447Y0022603D01*
D02*
G37*
G36*
X0026218Y0022602D02*
X0026225Y0022599D01*
X0026234Y0022593D01*
X0026238Y0022585D01*
X0026241Y0022574D01*
X0026239Y0022567D01*
X0026238Y0022558D01*
X0026022Y0021624D01*
Y0021622D01*
X0026021Y0021619D01*
X0026018Y0021614D01*
X0026014Y0021609D01*
X0026009Y0021604D01*
X0026001Y0021600D01*
X0025991Y0021597D01*
X0025978D01*
X0025974Y0021598D01*
X0025969Y0021601D01*
X0025963Y0021605D01*
X0025957Y0021611D01*
X0025953Y0021618D01*
X0025952Y0021628D01*
X0025953Y0021639D01*
X0026159Y0022533D01*
X0025808D01*
Y0022461D01*
Y0022459D01*
Y0022455D01*
X0025806Y0022450D01*
X0025804Y0022444D01*
X0025799Y0022437D01*
X0025792Y0022431D01*
X0025784Y0022427D01*
X0025771Y0022426D01*
X0025766D01*
X0025760Y0022427D01*
X0025754Y0022430D01*
X0025747Y0022434D01*
X0025742Y0022441D01*
X0025737Y0022450D01*
X0025736Y0022461D01*
Y0022569D01*
Y0022571D01*
Y0022575D01*
X0025737Y0022581D01*
X0025740Y0022588D01*
X0025744Y0022593D01*
X0025751Y0022599D01*
X0025760Y0022603D01*
X0025771Y0022605D01*
X0026210D01*
X0026218Y0022602D01*
D02*
G37*
G36*
X0025565Y0022603D02*
X0025572Y0022600D01*
X0025579Y0022596D01*
X0025585Y0022589D01*
X0025589Y0022581D01*
X0025591Y0022568D01*
Y0022567D01*
Y0022562D01*
X0025589Y0022557D01*
X0025587Y0022551D01*
X0025582Y0022544D01*
X0025575Y0022538D01*
X0025567Y0022534D01*
X0025554Y0022533D01*
X0025403D01*
X0025398Y0022531D01*
X0025384Y0022530D01*
X0025367Y0022526D01*
X0025347Y0022520D01*
X0025326Y0022510D01*
X0025305Y0022498D01*
X0025283Y0022479D01*
X0025281Y0022476D01*
X0025275Y0022469D01*
X0025267Y0022458D01*
X0025258Y0022444D01*
X0025248Y0022426D01*
X0025240Y0022403D01*
X0025234Y0022378D01*
X0025231Y0022351D01*
Y0021846D01*
Y0021845D01*
Y0021843D01*
Y0021839D01*
X0025233Y0021834D01*
X0025234Y0021819D01*
X0025238Y0021803D01*
X0025244Y0021783D01*
X0025254Y0021762D01*
X0025267Y0021741D01*
X0025283Y0021719D01*
X0025286Y0021717D01*
X0025293Y0021711D01*
X0025305Y0021702D01*
X0025319Y0021694D01*
X0025337Y0021684D01*
X0025360Y0021676D01*
X0025384Y0021670D01*
X0025410Y0021667D01*
X0025560D01*
X0025565Y0021666D01*
X0025572Y0021663D01*
X0025579Y0021659D01*
X0025585Y0021652D01*
X0025589Y0021643D01*
X0025591Y0021631D01*
Y0021629D01*
Y0021625D01*
X0025589Y0021619D01*
X0025587Y0021614D01*
X0025582Y0021607D01*
X0025575Y0021601D01*
X0025567Y0021597D01*
X0025554Y0021595D01*
X0025400D01*
X0025393Y0021597D01*
X0025384Y0021598D01*
X0025374Y0021600D01*
X0025350Y0021605D01*
X0025322Y0021614D01*
X0025292Y0021626D01*
X0025276Y0021635D01*
X0025262Y0021645D01*
X0025247Y0021656D01*
X0025233Y0021669D01*
X0025231Y0021670D01*
X0025230Y0021671D01*
X0025226Y0021676D01*
X0025221Y0021681D01*
X0025216Y0021690D01*
X0025210Y0021698D01*
X0025196Y0021719D01*
X0025182Y0021745D01*
X0025171Y0021776D01*
X0025162Y0021810D01*
X0025161Y0021828D01*
X0025159Y0021846D01*
Y0022351D01*
Y0022352D01*
Y0022355D01*
Y0022361D01*
X0025161Y0022368D01*
X0025162Y0022378D01*
X0025164Y0022388D01*
X0025169Y0022412D01*
X0025178Y0022440D01*
X0025190Y0022469D01*
X0025199Y0022485D01*
X0025209Y0022500D01*
X0025220Y0022516D01*
X0025233Y0022530D01*
X0025234Y0022531D01*
X0025236Y0022533D01*
X0025240Y0022537D01*
X0025245Y0022541D01*
X0025254Y0022547D01*
X0025262Y0022554D01*
X0025283Y0022568D01*
X0025309Y0022581D01*
X0025340Y0022593D01*
X0025374Y0022602D01*
X0025392Y0022603D01*
X0025410Y0022605D01*
X0025560D01*
X0025565Y0022603D01*
D02*
G37*
G36*
X0053177Y0004599D02*
X0053184Y0004593D01*
X0053191Y0004584D01*
Y0004582D01*
X0053193Y0004578D01*
X0053194Y0004572D01*
Y0004565D01*
Y0004557D01*
X0053191Y0004550D01*
X0053186Y0004541D01*
X0053176Y0004536D01*
X0053174D01*
X0053171Y0004533D01*
X0053166Y0004530D01*
X0053159Y0004526D01*
X0053150Y0004520D01*
X0053140Y0004513D01*
X0053128Y0004505D01*
X0053115Y0004495D01*
X0053102Y0004483D01*
X0053087Y0004471D01*
X0053071Y0004455D01*
X0053056Y0004440D01*
X0053040Y0004423D01*
X0053023Y0004403D01*
X0053008Y0004382D01*
X0052991Y0004359D01*
Y0004358D01*
X0052988Y0004355D01*
X0052985Y0004350D01*
X0052981Y0004342D01*
X0052976Y0004333D01*
X0052970Y0004323D01*
X0052956Y0004297D01*
X0052942Y0004268D01*
X0052929Y0004237D01*
X0052918Y0004204D01*
X0052911Y0004172D01*
X0053097D01*
X0053104Y0004170D01*
X0053114Y0004169D01*
X0053124Y0004168D01*
X0053147Y0004162D01*
X0053176Y0004154D01*
X0053207Y0004141D01*
X0053222Y0004132D01*
X0053238Y0004123D01*
X0053253Y0004110D01*
X0053267Y0004097D01*
X0053269Y0004096D01*
X0053270Y0004094D01*
X0053274Y0004090D01*
X0053279Y0004083D01*
X0053284Y0004076D01*
X0053290Y0004068D01*
X0053304Y0004046D01*
X0053318Y0004021D01*
X0053329Y0003990D01*
X0053338Y0003956D01*
X0053339Y0003938D01*
X0053341Y0003920D01*
Y0003846D01*
Y0003845D01*
Y0003842D01*
Y0003836D01*
X0053339Y0003829D01*
X0053338Y0003819D01*
X0053336Y0003810D01*
X0053332Y0003786D01*
X0053322Y0003757D01*
X0053310Y0003728D01*
X0053301Y0003712D01*
X0053291Y0003698D01*
X0053280Y0003683D01*
X0053267Y0003669D01*
X0053266Y0003667D01*
X0053264Y0003666D01*
X0053259Y0003662D01*
X0053253Y0003657D01*
X0053246Y0003652D01*
X0053238Y0003646D01*
X0053215Y0003632D01*
X0053190Y0003618D01*
X0053159Y0003607D01*
X0053124Y0003598D01*
X0053105Y0003597D01*
X0053087Y0003595D01*
X0053077D01*
X0053070Y0003597D01*
X0053060Y0003598D01*
X0053050Y0003600D01*
X0053026Y0003605D01*
X0052998Y0003614D01*
X0052968Y0003626D01*
X0052953Y0003635D01*
X0052939Y0003645D01*
X0052923Y0003656D01*
X0052909Y0003669D01*
X0052908Y0003670D01*
X0052906Y0003671D01*
X0052902Y0003676D01*
X0052898Y0003681D01*
X0052892Y0003690D01*
X0052887Y0003698D01*
X0052873Y0003719D01*
X0052859Y0003745D01*
X0052847Y0003776D01*
X0052839Y0003810D01*
X0052837Y0003828D01*
X0052836Y0003846D01*
Y0004135D01*
Y0004137D01*
Y0004138D01*
Y0004147D01*
X0052837Y0004158D01*
X0052839Y0004175D01*
X0052842Y0004193D01*
X0052847Y0004216D01*
X0052853Y0004240D01*
X0052861Y0004265D01*
Y0004266D01*
X0052863Y0004268D01*
X0052866Y0004276D01*
X0052873Y0004290D01*
X0052880Y0004307D01*
X0052891Y0004328D01*
X0052902Y0004351D01*
X0052916Y0004375D01*
X0052932Y0004399D01*
Y0004400D01*
X0052933Y0004402D01*
X0052939Y0004410D01*
X0052949Y0004421D01*
X0052960Y0004437D01*
X0052974Y0004455D01*
X0052991Y0004475D01*
X0053009Y0004496D01*
X0053029Y0004516D01*
X0053032Y0004519D01*
X0053039Y0004524D01*
X0053050Y0004534D01*
X0053064Y0004547D01*
X0053081Y0004560D01*
X0053101Y0004574D01*
X0053121Y0004586D01*
X0053143Y0004599D01*
X0053145D01*
X0053149Y0004600D01*
X0053155Y0004602D01*
X0053169D01*
X0053177Y0004599D01*
D02*
G37*
G36*
X0052665Y0004603D02*
X0052672Y0004600D01*
X0052679Y0004596D01*
X0052685Y0004589D01*
X0052689Y0004581D01*
X0052691Y0004568D01*
Y0004567D01*
Y0004562D01*
X0052689Y0004557D01*
X0052687Y0004551D01*
X0052682Y0004544D01*
X0052675Y0004538D01*
X0052667Y0004534D01*
X0052654Y0004533D01*
X0052503D01*
X0052498Y0004531D01*
X0052484Y0004530D01*
X0052467Y0004526D01*
X0052447Y0004520D01*
X0052426Y0004510D01*
X0052405Y0004498D01*
X0052383Y0004479D01*
X0052381Y0004476D01*
X0052375Y0004469D01*
X0052367Y0004458D01*
X0052358Y0004444D01*
X0052348Y0004426D01*
X0052340Y0004403D01*
X0052334Y0004378D01*
X0052331Y0004351D01*
Y0003846D01*
Y0003845D01*
Y0003843D01*
Y0003839D01*
X0052333Y0003834D01*
X0052334Y0003819D01*
X0052338Y0003803D01*
X0052344Y0003783D01*
X0052354Y0003762D01*
X0052367Y0003741D01*
X0052383Y0003719D01*
X0052386Y0003717D01*
X0052393Y0003711D01*
X0052405Y0003702D01*
X0052419Y0003694D01*
X0052437Y0003684D01*
X0052460Y0003676D01*
X0052484Y0003670D01*
X0052510Y0003667D01*
X0052660D01*
X0052665Y0003666D01*
X0052672Y0003663D01*
X0052679Y0003659D01*
X0052685Y0003652D01*
X0052689Y0003643D01*
X0052691Y0003631D01*
Y0003629D01*
Y0003625D01*
X0052689Y0003619D01*
X0052687Y0003614D01*
X0052682Y0003607D01*
X0052675Y0003601D01*
X0052667Y0003597D01*
X0052654Y0003595D01*
X0052500D01*
X0052493Y0003597D01*
X0052484Y0003598D01*
X0052474Y0003600D01*
X0052450Y0003605D01*
X0052422Y0003614D01*
X0052392Y0003626D01*
X0052376Y0003635D01*
X0052362Y0003645D01*
X0052347Y0003656D01*
X0052333Y0003669D01*
X0052331Y0003670D01*
X0052330Y0003671D01*
X0052326Y0003676D01*
X0052321Y0003681D01*
X0052316Y0003690D01*
X0052310Y0003698D01*
X0052296Y0003719D01*
X0052282Y0003745D01*
X0052271Y0003776D01*
X0052262Y0003810D01*
X0052261Y0003828D01*
X0052259Y0003846D01*
Y0004351D01*
Y0004352D01*
Y0004355D01*
Y0004361D01*
X0052261Y0004368D01*
X0052262Y0004378D01*
X0052264Y0004388D01*
X0052269Y0004412D01*
X0052278Y0004440D01*
X0052290Y0004469D01*
X0052299Y0004485D01*
X0052309Y0004500D01*
X0052320Y0004516D01*
X0052333Y0004530D01*
X0052334Y0004531D01*
X0052336Y0004533D01*
X0052340Y0004537D01*
X0052345Y0004541D01*
X0052354Y0004547D01*
X0052362Y0004554D01*
X0052383Y0004568D01*
X0052409Y0004581D01*
X0052440Y0004593D01*
X0052474Y0004602D01*
X0052492Y0004603D01*
X0052510Y0004605D01*
X0052660D01*
X0052665Y0004603D01*
D02*
G37*
G36*
X0051579Y0008103D02*
X0051586Y0008100D01*
X0051592Y0008096D01*
X0051599Y0008089D01*
X0051603Y0008081D01*
X0051605Y0008069D01*
Y0008068D01*
Y0008064D01*
X0051603Y0008058D01*
X0051600Y0008051D01*
X0051595Y0008044D01*
X0051589Y0008038D01*
X0051579Y0008034D01*
X0051567Y0008033D01*
X0051244D01*
Y0007672D01*
X0051361D01*
X0051368Y0007670D01*
X0051378Y0007669D01*
X0051388Y0007668D01*
X0051412Y0007662D01*
X0051440Y0007654D01*
X0051471Y0007641D01*
X0051486Y0007632D01*
X0051502Y0007623D01*
X0051517Y0007610D01*
X0051531Y0007597D01*
X0051533Y0007596D01*
X0051534Y0007594D01*
X0051538Y0007590D01*
X0051543Y0007583D01*
X0051548Y0007576D01*
X0051554Y0007568D01*
X0051568Y0007546D01*
X0051582Y0007521D01*
X0051593Y0007490D01*
X0051602Y0007456D01*
X0051603Y0007438D01*
X0051605Y0007420D01*
Y0007346D01*
Y0007345D01*
Y0007342D01*
Y0007336D01*
X0051603Y0007329D01*
X0051602Y0007319D01*
X0051600Y0007310D01*
X0051596Y0007286D01*
X0051586Y0007257D01*
X0051574Y0007228D01*
X0051565Y0007212D01*
X0051555Y0007198D01*
X0051544Y0007183D01*
X0051531Y0007169D01*
X0051530Y0007167D01*
X0051529Y0007166D01*
X0051523Y0007162D01*
X0051517Y0007157D01*
X0051510Y0007152D01*
X0051502Y0007146D01*
X0051479Y0007132D01*
X0051454Y0007118D01*
X0051423Y0007107D01*
X0051388Y0007098D01*
X0051369Y0007097D01*
X0051351Y0007095D01*
X0051203D01*
X0051197Y0007097D01*
X0051190Y0007100D01*
X0051183Y0007104D01*
X0051178Y0007111D01*
X0051173Y0007119D01*
X0051172Y0007131D01*
Y0007132D01*
Y0007136D01*
X0051173Y0007142D01*
X0051176Y0007149D01*
X0051180Y0007156D01*
X0051187Y0007162D01*
X0051196Y0007166D01*
X0051209Y0007167D01*
X0051358D01*
X0051364Y0007169D01*
X0051378Y0007170D01*
X0051396Y0007174D01*
X0051416Y0007180D01*
X0051437Y0007190D01*
X0051458Y0007202D01*
X0051479Y0007219D01*
X0051482Y0007222D01*
X0051488Y0007229D01*
X0051496Y0007241D01*
X0051506Y0007255D01*
X0051516Y0007273D01*
X0051524Y0007295D01*
X0051530Y0007319D01*
X0051533Y0007346D01*
Y0007420D01*
Y0007421D01*
Y0007422D01*
Y0007427D01*
X0051531Y0007432D01*
X0051530Y0007446D01*
X0051526Y0007463D01*
X0051520Y0007483D01*
X0051510Y0007504D01*
X0051498Y0007527D01*
X0051479Y0007546D01*
X0051476Y0007549D01*
X0051469Y0007555D01*
X0051458Y0007563D01*
X0051444Y0007573D01*
X0051426Y0007583D01*
X0051403Y0007592D01*
X0051378Y0007597D01*
X0051351Y0007600D01*
X0051203D01*
X0051197Y0007601D01*
X0051190Y0007604D01*
X0051183Y0007608D01*
X0051178Y0007615D01*
X0051173Y0007624D01*
X0051172Y0007637D01*
Y0008068D01*
Y0008069D01*
Y0008074D01*
X0051173Y0008079D01*
X0051176Y0008086D01*
X0051180Y0008093D01*
X0051187Y0008099D01*
X0051196Y0008103D01*
X0051209Y0008105D01*
X0051572D01*
X0051579Y0008103D01*
D02*
G37*
G36*
X0051001D02*
X0051008Y0008100D01*
X0051015Y0008096D01*
X0051021Y0008089D01*
X0051025Y0008081D01*
X0051027Y0008068D01*
Y0008067D01*
Y0008062D01*
X0051025Y0008057D01*
X0051022Y0008051D01*
X0051018Y0008044D01*
X0051011Y0008038D01*
X0051003Y0008034D01*
X0050990Y0008033D01*
X0050839D01*
X0050834Y0008031D01*
X0050819Y0008030D01*
X0050803Y0008026D01*
X0050783Y0008020D01*
X0050762Y0008010D01*
X0050741Y0007998D01*
X0050719Y0007979D01*
X0050717Y0007976D01*
X0050711Y0007969D01*
X0050702Y0007958D01*
X0050694Y0007944D01*
X0050684Y0007926D01*
X0050676Y0007903D01*
X0050670Y0007878D01*
X0050667Y0007851D01*
Y0007346D01*
Y0007345D01*
Y0007343D01*
Y0007339D01*
X0050669Y0007334D01*
X0050670Y0007319D01*
X0050674Y0007303D01*
X0050680Y0007283D01*
X0050690Y0007262D01*
X0050702Y0007241D01*
X0050719Y0007219D01*
X0050722Y0007217D01*
X0050729Y0007211D01*
X0050741Y0007202D01*
X0050755Y0007194D01*
X0050773Y0007184D01*
X0050796Y0007176D01*
X0050819Y0007170D01*
X0050846Y0007167D01*
X0050996D01*
X0051001Y0007166D01*
X0051008Y0007163D01*
X0051015Y0007159D01*
X0051021Y0007152D01*
X0051025Y0007143D01*
X0051027Y0007131D01*
Y0007129D01*
Y0007125D01*
X0051025Y0007119D01*
X0051022Y0007114D01*
X0051018Y0007107D01*
X0051011Y0007101D01*
X0051003Y0007097D01*
X0050990Y0007095D01*
X0050836D01*
X0050829Y0007097D01*
X0050819Y0007098D01*
X0050810Y0007100D01*
X0050786Y0007105D01*
X0050757Y0007114D01*
X0050728Y0007126D01*
X0050712Y0007135D01*
X0050698Y0007145D01*
X0050683Y0007156D01*
X0050669Y0007169D01*
X0050667Y0007170D01*
X0050666Y0007171D01*
X0050662Y0007176D01*
X0050657Y0007181D01*
X0050652Y0007190D01*
X0050646Y0007198D01*
X0050632Y0007219D01*
X0050618Y0007245D01*
X0050607Y0007276D01*
X0050598Y0007310D01*
X0050597Y0007328D01*
X0050595Y0007346D01*
Y0007851D01*
Y0007852D01*
Y0007855D01*
Y0007861D01*
X0050597Y0007868D01*
X0050598Y0007878D01*
X0050600Y0007888D01*
X0050605Y0007912D01*
X0050614Y0007940D01*
X0050626Y0007969D01*
X0050635Y0007985D01*
X0050645Y0008000D01*
X0050656Y0008016D01*
X0050669Y0008030D01*
X0050670Y0008031D01*
X0050671Y0008033D01*
X0050676Y0008037D01*
X0050681Y0008041D01*
X0050690Y0008047D01*
X0050698Y0008054D01*
X0050719Y0008068D01*
X0050745Y0008081D01*
X0050776Y0008093D01*
X0050810Y0008102D01*
X0050828Y0008103D01*
X0050846Y0008105D01*
X0050996D01*
X0051001Y0008103D01*
D02*
G37*
G36*
X0054160Y0001903D02*
X0054161D01*
X0054166Y0001902D01*
X0054170Y0001899D01*
X0054176Y0001895D01*
X0054181Y0001889D01*
X0054185Y0001881D01*
X0054188Y0001872D01*
X0054187Y0001860D01*
X0054018Y0001184D01*
X0054225Y0001183D01*
X0054224Y0001362D01*
Y0001363D01*
Y0001368D01*
X0054225Y0001375D01*
X0054228Y0001382D01*
X0054232Y0001387D01*
X0054239Y0001394D01*
X0054247Y0001399D01*
X0054260Y0001400D01*
X0054266D01*
X0054271Y0001399D01*
X0054278Y0001396D01*
X0054286Y0001392D01*
X0054291Y0001384D01*
X0054295Y0001376D01*
X0054297Y0001363D01*
Y0001184D01*
X0054411D01*
X0054417Y0001183D01*
X0054424Y0001180D01*
X0054429Y0001174D01*
X0054435Y0001169D01*
X0054439Y0001159D01*
X0054441Y0001146D01*
Y0001145D01*
Y0001141D01*
X0054439Y0001135D01*
X0054436Y0001129D01*
X0054432Y0001122D01*
X0054425Y0001117D01*
X0054417Y0001112D01*
X0054405Y0001111D01*
X0054297D01*
Y0000931D01*
Y0000929D01*
Y0000925D01*
X0054295Y0000919D01*
X0054293Y0000914D01*
X0054288Y0000907D01*
X0054281Y0000901D01*
X0054273Y0000897D01*
X0054262Y0000895D01*
X0054256D01*
X0054250Y0000897D01*
X0054243Y0000900D01*
X0054236Y0000904D01*
X0054231Y0000911D01*
X0054226Y0000919D01*
X0054225Y0000931D01*
Y0001111D01*
X0053971D01*
X0053966Y0001112D01*
X0053957Y0001114D01*
X0053949Y0001117D01*
X0053942Y0001122D01*
X0053936Y0001131D01*
X0053935Y0001142D01*
Y0001149D01*
X0053937Y0001158D01*
X0054116Y0001878D01*
Y0001879D01*
X0054119Y0001884D01*
X0054122Y0001889D01*
X0054126Y0001895D01*
X0054132Y0001899D01*
X0054139Y0001903D01*
X0054149Y0001905D01*
X0054160Y0001903D01*
D02*
G37*
G36*
X0053765D02*
X0053772Y0001900D01*
X0053779Y0001896D01*
X0053785Y0001889D01*
X0053789Y0001881D01*
X0053791Y0001868D01*
Y0001867D01*
Y0001862D01*
X0053789Y0001857D01*
X0053787Y0001851D01*
X0053782Y0001844D01*
X0053775Y0001838D01*
X0053767Y0001834D01*
X0053754Y0001833D01*
X0053603D01*
X0053598Y0001831D01*
X0053584Y0001830D01*
X0053567Y0001826D01*
X0053547Y0001820D01*
X0053526Y0001810D01*
X0053505Y0001798D01*
X0053483Y0001779D01*
X0053481Y0001776D01*
X0053475Y0001769D01*
X0053467Y0001758D01*
X0053458Y0001744D01*
X0053448Y0001726D01*
X0053440Y0001703D01*
X0053434Y0001678D01*
X0053431Y0001651D01*
Y0001146D01*
Y0001145D01*
Y0001143D01*
Y0001139D01*
X0053433Y0001134D01*
X0053434Y0001119D01*
X0053438Y0001103D01*
X0053444Y0001083D01*
X0053454Y0001062D01*
X0053467Y0001041D01*
X0053483Y0001019D01*
X0053486Y0001017D01*
X0053493Y0001011D01*
X0053505Y0001002D01*
X0053519Y0000994D01*
X0053537Y0000984D01*
X0053560Y0000976D01*
X0053584Y0000970D01*
X0053610Y0000967D01*
X0053760D01*
X0053765Y0000966D01*
X0053772Y0000963D01*
X0053779Y0000959D01*
X0053785Y0000952D01*
X0053789Y0000943D01*
X0053791Y0000931D01*
Y0000929D01*
Y0000925D01*
X0053789Y0000919D01*
X0053787Y0000914D01*
X0053782Y0000907D01*
X0053775Y0000901D01*
X0053767Y0000897D01*
X0053754Y0000895D01*
X0053600D01*
X0053593Y0000897D01*
X0053584Y0000898D01*
X0053574Y0000900D01*
X0053550Y0000905D01*
X0053521Y0000914D01*
X0053492Y0000926D01*
X0053476Y0000935D01*
X0053462Y0000945D01*
X0053447Y0000956D01*
X0053433Y0000969D01*
X0053431Y0000970D01*
X0053430Y0000971D01*
X0053426Y0000976D01*
X0053421Y0000981D01*
X0053416Y0000990D01*
X0053410Y0000998D01*
X0053396Y0001019D01*
X0053382Y0001045D01*
X0053371Y0001076D01*
X0053362Y0001110D01*
X0053361Y0001128D01*
X0053359Y0001146D01*
Y0001651D01*
Y0001652D01*
Y0001655D01*
Y0001661D01*
X0053361Y0001668D01*
X0053362Y0001678D01*
X0053364Y0001688D01*
X0053369Y0001712D01*
X0053378Y0001740D01*
X0053390Y0001769D01*
X0053399Y0001785D01*
X0053409Y0001800D01*
X0053420Y0001816D01*
X0053433Y0001830D01*
X0053434Y0001831D01*
X0053436Y0001833D01*
X0053440Y0001837D01*
X0053445Y0001841D01*
X0053454Y0001847D01*
X0053462Y0001854D01*
X0053483Y0001868D01*
X0053509Y0001881D01*
X0053540Y0001893D01*
X0053574Y0001902D01*
X0053592Y0001903D01*
X0053610Y0001905D01*
X0053760D01*
X0053765Y0001903D01*
D02*
G37*
G36*
X0009379Y0001997D02*
X0009389Y0001993D01*
X0009393Y0001987D01*
X0009398Y0001982D01*
Y0001980D01*
X0009399Y0001979D01*
X0009402Y0001970D01*
X0009403Y0001959D01*
Y0001953D01*
X0009400Y0001946D01*
X0009209Y0001566D01*
X0009212D01*
X0009216Y0001564D01*
X0009221D01*
X0009236Y0001560D01*
X0009254Y0001556D01*
X0009275Y0001547D01*
X0009298Y0001536D01*
X0009320Y0001522D01*
X0009341Y0001504D01*
X0009343D01*
X0009344Y0001501D01*
X0009351Y0001493D01*
X0009361Y0001478D01*
X0009374Y0001462D01*
X0009385Y0001439D01*
X0009395Y0001412D01*
X0009402Y0001383D01*
X0009405Y0001367D01*
Y0001350D01*
Y0001206D01*
Y0001205D01*
Y0001202D01*
Y0001198D01*
X0009403Y0001191D01*
Y0001184D01*
X0009402Y0001175D01*
X0009396Y0001154D01*
X0009389Y0001130D01*
X0009378Y0001105D01*
X0009362Y0001079D01*
X0009353Y0001067D01*
X0009341Y0001054D01*
X0009340D01*
X0009338Y0001051D01*
X0009330Y0001044D01*
X0009316Y0001034D01*
X0009298Y0001023D01*
X0009275Y0001010D01*
X0009250Y0001001D01*
X0009220Y0000993D01*
X0009204Y0000992D01*
X0009188Y0000991D01*
X0009002D01*
X0008996Y0000992D01*
X0008990Y0000995D01*
X0008983Y0000999D01*
X0008978Y0001006D01*
X0008973Y0001015D01*
X0008972Y0001026D01*
Y0001027D01*
Y0001032D01*
X0008973Y0001037D01*
X0008976Y0001044D01*
X0008980Y0001051D01*
X0008987Y0001057D01*
X0008996Y0001061D01*
X0009007Y0001063D01*
X0009190D01*
X0009197Y0001064D01*
X0009209Y0001065D01*
X0009223Y0001068D01*
X0009240Y0001072D01*
X0009257Y0001081D01*
X0009274Y0001091D01*
X0009289Y0001105D01*
X0009290Y0001106D01*
X0009296Y0001112D01*
X0009303Y0001120D01*
X0009312Y0001133D01*
X0009319Y0001147D01*
X0009326Y0001164D01*
X0009331Y0001184D01*
X0009333Y0001206D01*
Y0001350D01*
Y0001352D01*
Y0001353D01*
Y0001360D01*
X0009330Y0001371D01*
X0009327Y0001385D01*
X0009321Y0001402D01*
X0009314Y0001419D01*
X0009303Y0001436D01*
X0009289Y0001452D01*
X0009288Y0001453D01*
X0009282Y0001459D01*
X0009274Y0001466D01*
X0009261Y0001474D01*
X0009247Y0001481D01*
X0009228Y0001488D01*
X0009209Y0001494D01*
X0009188Y0001495D01*
X0009148D01*
X0009140Y0001498D01*
X0009128Y0001504D01*
X0009123Y0001508D01*
X0009118Y0001514D01*
Y0001515D01*
X0009117Y0001516D01*
X0009116Y0001525D01*
Y0001536D01*
X0009117Y0001543D01*
X0009121Y0001550D01*
X0009309Y0001928D01*
X0009002D01*
X0008996Y0001930D01*
X0008990Y0001932D01*
X0008983Y0001937D01*
X0008978Y0001944D01*
X0008973Y0001952D01*
X0008972Y0001965D01*
Y0001966D01*
Y0001970D01*
X0008973Y0001976D01*
X0008976Y0001983D01*
X0008980Y0001989D01*
X0008987Y0001994D01*
X0008996Y0001999D01*
X0009007Y0002000D01*
X0009371D01*
X0009379Y0001997D01*
D02*
G37*
G36*
X0008801Y0001999D02*
X0008808Y0001996D01*
X0008815Y0001992D01*
X0008821Y0001984D01*
X0008825Y0001976D01*
X0008827Y0001963D01*
Y0001962D01*
Y0001958D01*
X0008825Y0001952D01*
X0008822Y0001946D01*
X0008818Y0001939D01*
X0008811Y0001934D01*
X0008803Y0001930D01*
X0008790Y0001928D01*
X0008639D01*
X0008634Y0001927D01*
X0008619Y0001925D01*
X0008603Y0001921D01*
X0008583Y0001915D01*
X0008562Y0001906D01*
X0008541Y0001893D01*
X0008519Y0001875D01*
X0008517Y0001872D01*
X0008511Y0001865D01*
X0008502Y0001853D01*
X0008494Y0001839D01*
X0008484Y0001821D01*
X0008476Y0001798D01*
X0008470Y0001773D01*
X0008467Y0001746D01*
Y0001242D01*
Y0001240D01*
Y0001239D01*
Y0001235D01*
X0008469Y0001229D01*
X0008470Y0001215D01*
X0008474Y0001198D01*
X0008480Y0001178D01*
X0008490Y0001157D01*
X0008502Y0001136D01*
X0008519Y0001115D01*
X0008522Y0001112D01*
X0008529Y0001106D01*
X0008541Y0001098D01*
X0008555Y0001089D01*
X0008573Y0001079D01*
X0008595Y0001071D01*
X0008619Y0001065D01*
X0008646Y0001063D01*
X0008796D01*
X0008801Y0001061D01*
X0008808Y0001058D01*
X0008815Y0001054D01*
X0008821Y0001047D01*
X0008825Y0001039D01*
X0008827Y0001026D01*
Y0001024D01*
Y0001020D01*
X0008825Y0001015D01*
X0008822Y0001009D01*
X0008818Y0001002D01*
X0008811Y0000996D01*
X0008803Y0000992D01*
X0008790Y0000991D01*
X0008636D01*
X0008629Y0000992D01*
X0008619Y0000993D01*
X0008610Y0000995D01*
X0008586Y0001001D01*
X0008557Y0001009D01*
X0008528Y0001022D01*
X0008512Y0001030D01*
X0008498Y0001040D01*
X0008483Y0001051D01*
X0008469Y0001064D01*
X0008467Y0001065D01*
X0008466Y0001067D01*
X0008462Y0001071D01*
X0008457Y0001077D01*
X0008452Y0001085D01*
X0008446Y0001094D01*
X0008432Y0001115D01*
X0008418Y0001140D01*
X0008407Y0001171D01*
X0008398Y0001205D01*
X0008397Y0001223D01*
X0008395Y0001242D01*
Y0001746D01*
Y0001748D01*
Y0001750D01*
Y0001756D01*
X0008397Y0001763D01*
X0008398Y0001773D01*
X0008400Y0001783D01*
X0008405Y0001807D01*
X0008414Y0001835D01*
X0008426Y0001865D01*
X0008435Y0001880D01*
X0008445Y0001896D01*
X0008456Y0001911D01*
X0008469Y0001925D01*
X0008470Y0001927D01*
X0008471Y0001928D01*
X0008476Y0001932D01*
X0008481Y0001937D01*
X0008490Y0001942D01*
X0008498Y0001949D01*
X0008519Y0001963D01*
X0008545Y0001976D01*
X0008576Y0001989D01*
X0008610Y0001997D01*
X0008628Y0001999D01*
X0008646Y0002000D01*
X0008796D01*
X0008801Y0001999D01*
D02*
G37*
G36*
X0012704Y0001203D02*
X0012714Y0001202D01*
X0012724Y0001200D01*
X0012747Y0001195D01*
X0012776Y0001186D01*
X0012807Y0001174D01*
X0012822Y0001165D01*
X0012838Y0001155D01*
X0012853Y0001143D01*
X0012867Y0001130D01*
X0012869Y0001129D01*
X0012870Y0001127D01*
X0012874Y0001123D01*
X0012879Y0001116D01*
X0012884Y0001109D01*
X0012890Y0001100D01*
X0012904Y0001079D01*
X0012918Y0001054D01*
X0012929Y0001023D01*
X0012938Y0000989D01*
X0012939Y0000971D01*
X0012941Y0000952D01*
Y0000951D01*
Y0000950D01*
Y0000945D01*
Y0000940D01*
X0012938Y0000926D01*
X0012935Y0000906D01*
X0012931Y0000885D01*
X0012922Y0000861D01*
X0012912Y0000837D01*
X0012898Y0000813D01*
X0012539Y0000267D01*
X0012908D01*
X0012915Y0000266D01*
X0012922Y0000263D01*
X0012928Y0000259D01*
X0012935Y0000252D01*
X0012939Y0000243D01*
X0012941Y0000231D01*
Y0000229D01*
Y0000225D01*
X0012939Y0000219D01*
X0012936Y0000214D01*
X0012932Y0000207D01*
X0012925Y0000201D01*
X0012917Y0000197D01*
X0012904Y0000195D01*
X0012468D01*
X0012460Y0000198D01*
X0012449Y0000204D01*
X0012443Y0000208D01*
X0012439Y0000214D01*
Y0000215D01*
X0012437Y0000216D01*
X0012436Y0000226D01*
Y0000238D01*
X0012437Y0000243D01*
X0012442Y0000250D01*
X0012838Y0000852D01*
X0012839Y0000854D01*
X0012842Y0000861D01*
X0012848Y0000869D01*
X0012853Y0000882D01*
X0012859Y0000896D01*
X0012865Y0000913D01*
X0012867Y0000931D01*
X0012869Y0000952D01*
Y0000954D01*
Y0000955D01*
Y0000959D01*
X0012867Y0000965D01*
X0012866Y0000979D01*
X0012862Y0000996D01*
X0012856Y0001016D01*
X0012846Y0001037D01*
X0012833Y0001059D01*
X0012815Y0001079D01*
X0012812Y0001082D01*
X0012805Y0001088D01*
X0012794Y0001096D01*
X0012780Y0001106D01*
X0012762Y0001116D01*
X0012739Y0001124D01*
X0012714Y0001130D01*
X0012687Y0001133D01*
X0012677D01*
X0012666Y0001131D01*
X0012652Y0001129D01*
X0012636Y0001124D01*
X0012619Y0001117D01*
X0012601Y0001109D01*
X0012583Y0001098D01*
X0012581Y0001096D01*
X0012576Y0001092D01*
X0012567Y0001083D01*
X0012556Y0001074D01*
X0012546Y0001061D01*
X0012535Y0001045D01*
X0012525Y0001028D01*
X0012516Y0001009D01*
Y0001007D01*
X0012513Y0001003D01*
X0012511Y0000999D01*
X0012506Y0000993D01*
X0012501Y0000988D01*
X0012492Y0000985D01*
X0012482Y0000983D01*
X0012471Y0000986D01*
X0012470D01*
X0012466Y0000989D01*
X0012461Y0000992D01*
X0012456Y0000996D01*
X0012451Y0001002D01*
X0012447Y0001009D01*
X0012446Y0001019D01*
X0012449Y0001031D01*
Y0001033D01*
X0012450Y0001034D01*
X0012451Y0001038D01*
X0012454Y0001044D01*
X0012460Y0001058D01*
X0012470Y0001076D01*
X0012482Y0001096D01*
X0012498Y0001117D01*
X0012518Y0001137D01*
X0012540Y0001157D01*
X0012542D01*
X0012543Y0001158D01*
X0012552Y0001164D01*
X0012566Y0001172D01*
X0012583Y0001181D01*
X0012605Y0001189D01*
X0012629Y0001198D01*
X0012657Y0001203D01*
X0012687Y0001205D01*
X0012697D01*
X0012704Y0001203D01*
D02*
G37*
G36*
X0012265D02*
X0012272Y0001200D01*
X0012279Y0001196D01*
X0012285Y0001189D01*
X0012289Y0001181D01*
X0012291Y0001168D01*
Y0001167D01*
Y0001162D01*
X0012289Y0001157D01*
X0012287Y0001151D01*
X0012282Y0001144D01*
X0012275Y0001138D01*
X0012267Y0001134D01*
X0012254Y0001133D01*
X0012103D01*
X0012098Y0001131D01*
X0012084Y0001130D01*
X0012067Y0001126D01*
X0012047Y0001120D01*
X0012026Y0001110D01*
X0012005Y0001098D01*
X0011983Y0001079D01*
X0011981Y0001076D01*
X0011975Y0001069D01*
X0011967Y0001058D01*
X0011958Y0001044D01*
X0011948Y0001026D01*
X0011940Y0001003D01*
X0011934Y0000978D01*
X0011931Y0000951D01*
Y0000446D01*
Y0000445D01*
Y0000443D01*
Y0000439D01*
X0011933Y0000434D01*
X0011934Y0000419D01*
X0011938Y0000403D01*
X0011944Y0000383D01*
X0011954Y0000362D01*
X0011967Y0000341D01*
X0011983Y0000319D01*
X0011986Y0000317D01*
X0011993Y0000311D01*
X0012005Y0000302D01*
X0012019Y0000294D01*
X0012037Y0000284D01*
X0012060Y0000276D01*
X0012084Y0000270D01*
X0012110Y0000267D01*
X0012260D01*
X0012265Y0000266D01*
X0012272Y0000263D01*
X0012279Y0000259D01*
X0012285Y0000252D01*
X0012289Y0000243D01*
X0012291Y0000231D01*
Y0000229D01*
Y0000225D01*
X0012289Y0000219D01*
X0012287Y0000214D01*
X0012282Y0000207D01*
X0012275Y0000201D01*
X0012267Y0000197D01*
X0012254Y0000195D01*
X0012100D01*
X0012093Y0000197D01*
X0012084Y0000198D01*
X0012074Y0000200D01*
X0012050Y0000205D01*
X0012021Y0000214D01*
X0011992Y0000226D01*
X0011976Y0000235D01*
X0011962Y0000245D01*
X0011947Y0000256D01*
X0011933Y0000269D01*
X0011931Y0000270D01*
X0011930Y0000271D01*
X0011926Y0000276D01*
X0011921Y0000281D01*
X0011916Y0000290D01*
X0011910Y0000298D01*
X0011896Y0000319D01*
X0011882Y0000345D01*
X0011871Y0000376D01*
X0011862Y0000410D01*
X0011861Y0000428D01*
X0011859Y0000446D01*
Y0000951D01*
Y0000952D01*
Y0000955D01*
Y0000961D01*
X0011861Y0000968D01*
X0011862Y0000978D01*
X0011864Y0000988D01*
X0011869Y0001012D01*
X0011878Y0001040D01*
X0011890Y0001069D01*
X0011899Y0001085D01*
X0011909Y0001100D01*
X0011920Y0001116D01*
X0011933Y0001130D01*
X0011934Y0001131D01*
X0011936Y0001133D01*
X0011940Y0001137D01*
X0011945Y0001141D01*
X0011954Y0001147D01*
X0011962Y0001154D01*
X0011983Y0001168D01*
X0012009Y0001181D01*
X0012040Y0001193D01*
X0012074Y0001202D01*
X0012092Y0001203D01*
X0012110Y0001205D01*
X0012260D01*
X0012265Y0001203D01*
D02*
G37*
G36*
X0011710Y0013300D02*
X0011712D01*
X0011714Y0013299D01*
X0011722Y0013293D01*
X0011730Y0013282D01*
X0011731Y0013276D01*
X0011733Y0013268D01*
Y0012331D01*
Y0012329D01*
Y0012325D01*
X0011731Y0012319D01*
X0011729Y0012314D01*
X0011724Y0012307D01*
X0011717Y0012301D01*
X0011709Y0012297D01*
X0011696Y0012295D01*
X0011690D01*
X0011685Y0012297D01*
X0011679Y0012300D01*
X0011672Y0012304D01*
X0011667Y0012311D01*
X0011662Y0012319D01*
X0011661Y0012331D01*
Y0013181D01*
X0011504Y0013026D01*
X0011503Y0013024D01*
X0011500Y0013023D01*
X0011495Y0013019D01*
X0011489Y0013016D01*
X0011480Y0013014D01*
X0011472D01*
X0011464Y0013019D01*
X0011454Y0013026D01*
X0011452Y0013027D01*
X0011449Y0013030D01*
X0011447Y0013035D01*
X0011444Y0013041D01*
X0011442Y0013050D01*
Y0013058D01*
X0011447Y0013068D01*
X0011454Y0013078D01*
X0011671Y0013293D01*
X0011672Y0013295D01*
X0011674Y0013296D01*
X0011682Y0013300D01*
X0011688Y0013303D01*
X0011702D01*
X0011710Y0013300D01*
D02*
G37*
G36*
X0011273Y0013303D02*
X0011280Y0013300D01*
X0011287Y0013296D01*
X0011293Y0013289D01*
X0011297Y0013281D01*
X0011299Y0013268D01*
Y0013267D01*
Y0013262D01*
X0011297Y0013257D01*
X0011294Y0013251D01*
X0011290Y0013244D01*
X0011283Y0013238D01*
X0011275Y0013234D01*
X0011262Y0013233D01*
X0011111D01*
X0011105Y0013231D01*
X0011091Y0013230D01*
X0011074Y0013226D01*
X0011055Y0013220D01*
X0011034Y0013210D01*
X0011012Y0013198D01*
X0010991Y0013179D01*
X0010988Y0013176D01*
X0010983Y0013169D01*
X0010974Y0013158D01*
X0010966Y0013144D01*
X0010956Y0013126D01*
X0010948Y0013103D01*
X0010942Y0013078D01*
X0010939Y0013051D01*
Y0012546D01*
Y0012545D01*
Y0012543D01*
Y0012539D01*
X0010941Y0012534D01*
X0010942Y0012519D01*
X0010946Y0012503D01*
X0010952Y0012483D01*
X0010962Y0012462D01*
X0010974Y0012441D01*
X0010991Y0012419D01*
X0010994Y0012417D01*
X0011001Y0012411D01*
X0011012Y0012402D01*
X0011027Y0012394D01*
X0011045Y0012384D01*
X0011067Y0012376D01*
X0011091Y0012370D01*
X0011118Y0012367D01*
X0011268D01*
X0011273Y0012366D01*
X0011280Y0012363D01*
X0011287Y0012359D01*
X0011293Y0012352D01*
X0011297Y0012343D01*
X0011299Y0012331D01*
Y0012329D01*
Y0012325D01*
X0011297Y0012319D01*
X0011294Y0012314D01*
X0011290Y0012307D01*
X0011283Y0012301D01*
X0011275Y0012297D01*
X0011262Y0012295D01*
X0011108D01*
X0011101Y0012297D01*
X0011091Y0012298D01*
X0011082Y0012300D01*
X0011058Y0012305D01*
X0011029Y0012314D01*
X0011000Y0012326D01*
X0010984Y0012335D01*
X0010970Y0012345D01*
X0010955Y0012356D01*
X0010941Y0012369D01*
X0010939Y0012370D01*
X0010938Y0012371D01*
X0010933Y0012376D01*
X0010929Y0012381D01*
X0010924Y0012390D01*
X0010918Y0012398D01*
X0010904Y0012419D01*
X0010890Y0012445D01*
X0010878Y0012476D01*
X0010870Y0012510D01*
X0010869Y0012528D01*
X0010867Y0012546D01*
Y0013051D01*
Y0013052D01*
Y0013055D01*
Y0013061D01*
X0010869Y0013068D01*
X0010870Y0013078D01*
X0010871Y0013088D01*
X0010877Y0013112D01*
X0010886Y0013140D01*
X0010898Y0013169D01*
X0010907Y0013185D01*
X0010917Y0013200D01*
X0010928Y0013216D01*
X0010941Y0013230D01*
X0010942Y0013231D01*
X0010943Y0013233D01*
X0010948Y0013237D01*
X0010953Y0013241D01*
X0010962Y0013247D01*
X0010970Y0013254D01*
X0010991Y0013268D01*
X0011017Y0013281D01*
X0011048Y0013293D01*
X0011082Y0013302D01*
X0011100Y0013303D01*
X0011118Y0013305D01*
X0011268D01*
X0011273Y0013303D01*
D02*
G37*
%LPC*%
G36*
X0042380Y0010433D02*
X0042220D01*
Y0010000D01*
X0042372D01*
X0042379Y0010001D01*
X0042386D01*
X0042394Y0010003D01*
X0042416Y0010008D01*
X0042439Y0010016D01*
X0042465Y0010027D01*
X0042490Y0010042D01*
X0042503Y0010052D01*
X0042516Y0010063D01*
X0042517Y0010065D01*
X0042518Y0010066D01*
X0042525Y0010075D01*
X0042537Y0010087D01*
X0042548Y0010106D01*
X0042559Y0010127D01*
X0042571Y0010154D01*
X0042578Y0010183D01*
X0042580Y0010199D01*
Y0010216D01*
Y0010217D01*
Y0010220D01*
Y0010224D01*
X0042579Y0010231D01*
Y0010238D01*
X0042578Y0010247D01*
X0042572Y0010268D01*
X0042565Y0010292D01*
X0042554Y0010317D01*
X0042537Y0010343D01*
X0042527Y0010355D01*
X0042516Y0010368D01*
Y0010369D01*
X0042513Y0010371D01*
X0042504Y0010378D01*
X0042490Y0010389D01*
X0042473Y0010400D01*
X0042451Y0010412D01*
X0042424Y0010423D01*
X0042396Y0010430D01*
X0042380Y0010433D01*
D02*
G37*
G36*
X0044789Y0023983D02*
X0044628D01*
Y0023550D01*
X0044780D01*
X0044787Y0023551D01*
X0044795D01*
X0044803Y0023553D01*
X0044824Y0023558D01*
X0044848Y0023566D01*
X0044873Y0023577D01*
X0044899Y0023592D01*
X0044912Y0023602D01*
X0044924Y0023613D01*
X0044926Y0023615D01*
X0044927Y0023616D01*
X0044934Y0023625D01*
X0044945Y0023637D01*
X0044957Y0023656D01*
X0044968Y0023677D01*
X0044979Y0023704D01*
X0044986Y0023733D01*
X0044989Y0023749D01*
Y0023766D01*
Y0023767D01*
Y0023770D01*
Y0023774D01*
X0044988Y0023781D01*
Y0023788D01*
X0044986Y0023797D01*
X0044981Y0023818D01*
X0044974Y0023842D01*
X0044962Y0023867D01*
X0044945Y0023893D01*
X0044935Y0023905D01*
X0044924Y0023918D01*
Y0023919D01*
X0044921Y0023921D01*
X0044913Y0023928D01*
X0044899Y0023939D01*
X0044882Y0023950D01*
X0044859Y0023962D01*
X0044833Y0023973D01*
X0044804Y0023980D01*
X0044789Y0023983D01*
D02*
G37*
G36*
X0046156Y0009533D02*
X0045995D01*
Y0009100D01*
X0046148D01*
X0046155Y0009101D01*
X0046162D01*
X0046170Y0009103D01*
X0046191Y0009108D01*
X0046215Y0009116D01*
X0046241Y0009127D01*
X0046266Y0009142D01*
X0046279Y0009152D01*
X0046291Y0009163D01*
X0046293Y0009165D01*
X0046294Y0009166D01*
X0046301Y0009175D01*
X0046313Y0009187D01*
X0046324Y0009206D01*
X0046335Y0009227D01*
X0046346Y0009254D01*
X0046353Y0009283D01*
X0046356Y0009299D01*
Y0009316D01*
Y0009317D01*
Y0009320D01*
Y0009324D01*
X0046355Y0009331D01*
Y0009338D01*
X0046353Y0009347D01*
X0046348Y0009368D01*
X0046341Y0009392D01*
X0046329Y0009417D01*
X0046313Y0009443D01*
X0046303Y0009455D01*
X0046291Y0009468D01*
Y0009469D01*
X0046289Y0009471D01*
X0046280Y0009478D01*
X0046266Y0009489D01*
X0046249Y0009500D01*
X0046227Y0009512D01*
X0046200Y0009523D01*
X0046172Y0009530D01*
X0046156Y0009533D01*
D02*
G37*
G36*
X0049092Y0009533D02*
X0048931D01*
Y0009100D01*
X0049084D01*
X0049091Y0009101D01*
X0049098D01*
X0049106Y0009103D01*
X0049127Y0009108D01*
X0049151Y0009116D01*
X0049177Y0009127D01*
X0049202Y0009142D01*
X0049215Y0009152D01*
X0049227Y0009163D01*
X0049229Y0009165D01*
X0049230Y0009166D01*
X0049237Y0009175D01*
X0049248Y0009187D01*
X0049260Y0009206D01*
X0049271Y0009227D01*
X0049282Y0009254D01*
X0049289Y0009283D01*
X0049292Y0009299D01*
Y0009316D01*
Y0009317D01*
Y0009320D01*
Y0009324D01*
X0049291Y0009331D01*
Y0009338D01*
X0049289Y0009347D01*
X0049284Y0009368D01*
X0049277Y0009392D01*
X0049265Y0009417D01*
X0049248Y0009443D01*
X0049239Y0009455D01*
X0049227Y0009468D01*
Y0009469D01*
X0049224Y0009471D01*
X0049216Y0009478D01*
X0049202Y0009489D01*
X0049185Y0009500D01*
X0049162Y0009512D01*
X0049136Y0009523D01*
X0049107Y0009530D01*
X0049092Y0009533D01*
D02*
G37*
G36*
X0040092Y0010457D02*
X0039931D01*
Y0010024D01*
X0040084D01*
X0040091Y0010025D01*
X0040098D01*
X0040106Y0010027D01*
X0040127Y0010032D01*
X0040151Y0010040D01*
X0040177Y0010051D01*
X0040202Y0010066D01*
X0040215Y0010076D01*
X0040227Y0010087D01*
X0040229Y0010089D01*
X0040230Y0010090D01*
X0040237Y0010099D01*
X0040248Y0010111D01*
X0040260Y0010130D01*
X0040271Y0010151D01*
X0040282Y0010178D01*
X0040289Y0010207D01*
X0040292Y0010223D01*
Y0010240D01*
Y0010241D01*
Y0010244D01*
Y0010248D01*
X0040291Y0010255D01*
Y0010262D01*
X0040289Y0010271D01*
X0040284Y0010292D01*
X0040277Y0010316D01*
X0040265Y0010341D01*
X0040248Y0010367D01*
X0040239Y0010379D01*
X0040227Y0010392D01*
Y0010393D01*
X0040224Y0010395D01*
X0040216Y0010402D01*
X0040202Y0010413D01*
X0040185Y0010424D01*
X0040162Y0010436D01*
X0040136Y0010447D01*
X0040107Y0010454D01*
X0040092Y0010457D01*
D02*
G37*
G36*
X0021556Y0017833D02*
X0021395D01*
Y0017400D01*
X0021548D01*
X0021555Y0017401D01*
X0021562D01*
X0021570Y0017403D01*
X0021591Y0017408D01*
X0021615Y0017416D01*
X0021641Y0017427D01*
X0021666Y0017442D01*
X0021679Y0017452D01*
X0021691Y0017463D01*
X0021693Y0017465D01*
X0021694Y0017466D01*
X0021701Y0017475D01*
X0021713Y0017487D01*
X0021724Y0017506D01*
X0021735Y0017527D01*
X0021746Y0017554D01*
X0021753Y0017583D01*
X0021756Y0017599D01*
Y0017616D01*
Y0017617D01*
Y0017620D01*
Y0017624D01*
X0021755Y0017631D01*
Y0017638D01*
X0021753Y0017647D01*
X0021748Y0017668D01*
X0021741Y0017692D01*
X0021729Y0017717D01*
X0021713Y0017743D01*
X0021703Y0017755D01*
X0021691Y0017768D01*
Y0017769D01*
X0021689Y0017771D01*
X0021680Y0017778D01*
X0021666Y0017789D01*
X0021649Y0017800D01*
X0021627Y0017812D01*
X0021600Y0017823D01*
X0021572Y0017830D01*
X0021556Y0017833D01*
D02*
G37*
G36*
X0042699Y0016030D02*
X0042572Y0015556D01*
X0042826D01*
X0042699Y0016030D01*
D02*
G37*
G36*
X0042014Y0016133D02*
X0041907D01*
Y0015267D01*
X0042021D01*
X0042027Y0015269D01*
X0042041Y0015270D01*
X0042059Y0015274D01*
X0042079Y0015280D01*
X0042100Y0015290D01*
X0042121Y0015302D01*
X0042142Y0015319D01*
X0042145Y0015322D01*
X0042151Y0015329D01*
X0042159Y0015341D01*
X0042169Y0015355D01*
X0042179Y0015373D01*
X0042188Y0015396D01*
X0042193Y0015419D01*
X0042196Y0015446D01*
Y0015951D01*
Y0015952D01*
Y0015954D01*
Y0015958D01*
X0042195Y0015964D01*
X0042193Y0015978D01*
X0042189Y0015996D01*
X0042183Y0016016D01*
X0042173Y0016037D01*
X0042161Y0016058D01*
X0042142Y0016079D01*
X0042140Y0016082D01*
X0042133Y0016088D01*
X0042121Y0016096D01*
X0042107Y0016106D01*
X0042089Y0016116D01*
X0042066Y0016124D01*
X0042041Y0016130D01*
X0042014Y0016133D01*
D02*
G37*
G36*
X0025063Y0011430D02*
X0024936Y0010956D01*
X0025190D01*
X0025063Y0011430D01*
D02*
G37*
G36*
X0024378Y0011533D02*
X0024271D01*
Y0010667D01*
X0024385D01*
X0024391Y0010669D01*
X0024405Y0010670D01*
X0024423Y0010674D01*
X0024443Y0010680D01*
X0024464Y0010690D01*
X0024485Y0010702D01*
X0024507Y0010719D01*
X0024509Y0010722D01*
X0024515Y0010729D01*
X0024523Y0010741D01*
X0024533Y0010755D01*
X0024543Y0010773D01*
X0024552Y0010796D01*
X0024557Y0010819D01*
X0024560Y0010846D01*
Y0011351D01*
Y0011352D01*
Y0011354D01*
Y0011358D01*
X0024559Y0011364D01*
X0024557Y0011378D01*
X0024553Y0011396D01*
X0024547Y0011416D01*
X0024538Y0011437D01*
X0024525Y0011458D01*
X0024507Y0011479D01*
X0024504Y0011482D01*
X0024497Y0011488D01*
X0024485Y0011496D01*
X0024471Y0011506D01*
X0024453Y0011516D01*
X0024430Y0011524D01*
X0024405Y0011530D01*
X0024378Y0011533D01*
D02*
G37*
G36*
X0020099Y0025330D02*
X0019972Y0024856D01*
X0020226D01*
X0020099Y0025330D01*
D02*
G37*
G36*
X0019414Y0025433D02*
X0019307D01*
Y0024567D01*
X0019421D01*
X0019427Y0024569D01*
X0019441Y0024570D01*
X0019459Y0024574D01*
X0019479Y0024580D01*
X0019500Y0024590D01*
X0019521Y0024602D01*
X0019542Y0024619D01*
X0019545Y0024622D01*
X0019551Y0024629D01*
X0019559Y0024641D01*
X0019569Y0024655D01*
X0019579Y0024673D01*
X0019588Y0024696D01*
X0019593Y0024719D01*
X0019596Y0024746D01*
Y0025251D01*
Y0025252D01*
Y0025254D01*
Y0025258D01*
X0019595Y0025264D01*
X0019593Y0025278D01*
X0019589Y0025296D01*
X0019583Y0025316D01*
X0019573Y0025337D01*
X0019561Y0025358D01*
X0019542Y0025379D01*
X0019540Y0025382D01*
X0019533Y0025388D01*
X0019521Y0025396D01*
X0019507Y0025406D01*
X0019489Y0025416D01*
X0019466Y0025424D01*
X0019441Y0025430D01*
X0019414Y0025433D01*
D02*
G37*
G36*
X0038463Y0008330D02*
X0038336Y0007856D01*
X0038590D01*
X0038463Y0008330D01*
D02*
G37*
G36*
X0037778Y0008433D02*
X0037671D01*
Y0007567D01*
X0037785D01*
X0037791Y0007569D01*
X0037805Y0007570D01*
X0037823Y0007574D01*
X0037843Y0007580D01*
X0037864Y0007590D01*
X0037885Y0007602D01*
X0037907Y0007619D01*
X0037909Y0007622D01*
X0037915Y0007629D01*
X0037923Y0007641D01*
X0037933Y0007655D01*
X0037943Y0007673D01*
X0037952Y0007695D01*
X0037957Y0007719D01*
X0037960Y0007746D01*
Y0008251D01*
Y0008252D01*
Y0008254D01*
Y0008258D01*
X0037959Y0008264D01*
X0037957Y0008278D01*
X0037953Y0008296D01*
X0037947Y0008316D01*
X0037938Y0008337D01*
X0037925Y0008358D01*
X0037907Y0008379D01*
X0037904Y0008382D01*
X0037897Y0008388D01*
X0037885Y0008396D01*
X0037871Y0008406D01*
X0037853Y0008416D01*
X0037830Y0008424D01*
X0037805Y0008430D01*
X0037778Y0008433D01*
D02*
G37*
G36*
X0022371Y0009430D02*
X0022244Y0008956D01*
X0022498D01*
X0022371Y0009430D01*
D02*
G37*
G36*
X0021686Y0009533D02*
X0021579D01*
Y0008667D01*
X0021693D01*
X0021699Y0008669D01*
X0021713Y0008670D01*
X0021731Y0008674D01*
X0021751Y0008680D01*
X0021772Y0008690D01*
X0021793Y0008702D01*
X0021814Y0008719D01*
X0021817Y0008722D01*
X0021823Y0008729D01*
X0021831Y0008741D01*
X0021841Y0008755D01*
X0021851Y0008773D01*
X0021859Y0008795D01*
X0021865Y0008819D01*
X0021868Y0008846D01*
Y0009351D01*
Y0009352D01*
Y0009354D01*
Y0009358D01*
X0021867Y0009364D01*
X0021865Y0009378D01*
X0021861Y0009396D01*
X0021855Y0009416D01*
X0021845Y0009437D01*
X0021833Y0009458D01*
X0021814Y0009479D01*
X0021812Y0009482D01*
X0021804Y0009488D01*
X0021793Y0009496D01*
X0021779Y0009506D01*
X0021761Y0009516D01*
X0021738Y0009524D01*
X0021713Y0009530D01*
X0021686Y0009533D01*
D02*
G37*
G36*
X0055303Y0014233D02*
X0055296D01*
X0055291Y0014231D01*
X0055276Y0014230D01*
X0055260Y0014226D01*
X0055240Y0014220D01*
X0055219Y0014210D01*
X0055198Y0014198D01*
X0055176Y0014179D01*
X0055174Y0014176D01*
X0055168Y0014169D01*
X0055159Y0014158D01*
X0055151Y0014144D01*
X0055141Y0014126D01*
X0055133Y0014103D01*
X0055127Y0014078D01*
X0055124Y0014051D01*
Y0013979D01*
Y0013978D01*
Y0013976D01*
Y0013972D01*
X0055126Y0013966D01*
X0055127Y0013952D01*
X0055131Y0013935D01*
X0055137Y0013916D01*
X0055147Y0013894D01*
X0055159Y0013873D01*
X0055176Y0013852D01*
X0055179Y0013849D01*
X0055186Y0013844D01*
X0055198Y0013835D01*
X0055212Y0013827D01*
X0055230Y0013817D01*
X0055253Y0013808D01*
X0055276Y0013803D01*
X0055303Y0013800D01*
X0055485D01*
Y0014051D01*
Y0014052D01*
Y0014054D01*
Y0014058D01*
X0055484Y0014064D01*
X0055482Y0014078D01*
X0055478Y0014096D01*
X0055472Y0014116D01*
X0055463Y0014137D01*
X0055450Y0014158D01*
X0055432Y0014179D01*
X0055429Y0014182D01*
X0055422Y0014188D01*
X0055410Y0014196D01*
X0055396Y0014206D01*
X0055378Y0014216D01*
X0055355Y0014224D01*
X0055330Y0014230D01*
X0055303Y0014233D01*
D02*
G37*
G36*
X0053185Y0015533D02*
X0053178D01*
X0053172Y0015531D01*
X0053158Y0015530D01*
X0053141Y0015526D01*
X0053122Y0015520D01*
X0053100Y0015510D01*
X0053079Y0015498D01*
X0053058Y0015479D01*
X0053055Y0015476D01*
X0053050Y0015469D01*
X0053041Y0015459D01*
X0053033Y0015444D01*
X0053023Y0015426D01*
X0053014Y0015403D01*
X0053009Y0015379D01*
X0053006Y0015352D01*
Y0015351D01*
Y0015350D01*
Y0015345D01*
X0053007Y0015340D01*
X0053009Y0015326D01*
X0053013Y0015307D01*
X0053019Y0015288D01*
X0053028Y0015266D01*
X0053041Y0015245D01*
X0053058Y0015224D01*
X0053061Y0015221D01*
X0053068Y0015216D01*
X0053079Y0015207D01*
X0053093Y0015199D01*
X0053112Y0015189D01*
X0053134Y0015180D01*
X0053158Y0015175D01*
X0053185Y0015172D01*
X0053192D01*
X0053198Y0015173D01*
X0053212Y0015175D01*
X0053230Y0015179D01*
X0053250Y0015185D01*
X0053271Y0015194D01*
X0053292Y0015207D01*
X0053313Y0015224D01*
X0053316Y0015227D01*
X0053322Y0015234D01*
X0053330Y0015245D01*
X0053340Y0015259D01*
X0053350Y0015279D01*
X0053358Y0015300D01*
X0053364Y0015326D01*
X0053367Y0015352D01*
Y0015354D01*
Y0015355D01*
Y0015359D01*
X0053365Y0015365D01*
X0053364Y0015379D01*
X0053360Y0015396D01*
X0053354Y0015416D01*
X0053344Y0015437D01*
X0053332Y0015459D01*
X0053313Y0015479D01*
X0053310Y0015482D01*
X0053303Y0015488D01*
X0053292Y0015496D01*
X0053278Y0015506D01*
X0053260Y0015516D01*
X0053237Y0015524D01*
X0053212Y0015530D01*
X0053185Y0015533D01*
D02*
G37*
G36*
X0053202Y0015100D02*
X0053176D01*
X0053169Y0015099D01*
X0053162D01*
X0053154Y0015097D01*
X0053133Y0015092D01*
X0053109Y0015085D01*
X0053083Y0015073D01*
X0053058Y0015056D01*
X0053045Y0015046D01*
X0053033Y0015035D01*
Y0015034D01*
X0053030Y0015032D01*
X0053027Y0015028D01*
X0053023Y0015024D01*
X0053013Y0015010D01*
X0053002Y0014991D01*
X0052989Y0014969D01*
X0052979Y0014944D01*
X0052972Y0014914D01*
X0052971Y0014898D01*
X0052969Y0014883D01*
Y0014882D01*
Y0014879D01*
Y0014874D01*
X0052971Y0014867D01*
Y0014860D01*
X0052972Y0014852D01*
X0052978Y0014831D01*
X0052985Y0014807D01*
X0052996Y0014781D01*
X0053012Y0014756D01*
X0053021Y0014743D01*
X0053033Y0014731D01*
X0053034D01*
X0053036Y0014728D01*
X0053044Y0014721D01*
X0053058Y0014711D01*
X0053075Y0014700D01*
X0053098Y0014687D01*
X0053124Y0014677D01*
X0053153Y0014670D01*
X0053168Y0014669D01*
X0053185Y0014667D01*
X0053193D01*
X0053200Y0014669D01*
X0053208D01*
X0053217Y0014670D01*
X0053239Y0014676D01*
X0053262Y0014683D01*
X0053288Y0014694D01*
X0053313Y0014710D01*
X0053326Y0014719D01*
X0053339Y0014731D01*
X0053340Y0014732D01*
X0053341Y0014733D01*
X0053348Y0014742D01*
X0053358Y0014755D01*
X0053371Y0014773D01*
X0053382Y0014796D01*
X0053392Y0014821D01*
X0053399Y0014850D01*
X0053402Y0014866D01*
Y0014883D01*
Y0014884D01*
Y0014887D01*
Y0014891D01*
X0053401Y0014897D01*
X0053399Y0014914D01*
X0053394Y0014935D01*
X0053387Y0014959D01*
X0053375Y0014984D01*
X0053360Y0015010D01*
X0053350Y0015022D01*
X0053339Y0015035D01*
Y0015037D01*
X0053336Y0015038D01*
X0053327Y0015045D01*
X0053313Y0015056D01*
X0053296Y0015068D01*
X0053274Y0015079D01*
X0053247Y0015090D01*
X0053217Y0015097D01*
X0053202Y0015100D01*
D02*
G37*
G36*
X0022003Y0015500D02*
X0021824D01*
Y0015246D01*
Y0015245D01*
Y0015243D01*
Y0015239D01*
X0021826Y0015234D01*
X0021827Y0015219D01*
X0021831Y0015203D01*
X0021837Y0015183D01*
X0021847Y0015162D01*
X0021859Y0015141D01*
X0021876Y0015119D01*
X0021879Y0015117D01*
X0021886Y0015111D01*
X0021898Y0015102D01*
X0021912Y0015094D01*
X0021930Y0015084D01*
X0021953Y0015076D01*
X0021976Y0015070D01*
X0022003Y0015067D01*
X0022010D01*
X0022016Y0015069D01*
X0022030Y0015070D01*
X0022048Y0015074D01*
X0022068Y0015080D01*
X0022089Y0015090D01*
X0022110Y0015102D01*
X0022132Y0015119D01*
X0022134Y0015122D01*
X0022140Y0015129D01*
X0022148Y0015141D01*
X0022158Y0015155D01*
X0022168Y0015173D01*
X0022177Y0015196D01*
X0022182Y0015219D01*
X0022185Y0015246D01*
Y0015320D01*
Y0015321D01*
Y0015322D01*
Y0015327D01*
X0022184Y0015332D01*
X0022182Y0015346D01*
X0022178Y0015363D01*
X0022172Y0015383D01*
X0022163Y0015404D01*
X0022150Y0015427D01*
X0022132Y0015446D01*
X0022129Y0015449D01*
X0022122Y0015455D01*
X0022110Y0015463D01*
X0022096Y0015473D01*
X0022078Y0015483D01*
X0022055Y0015492D01*
X0022030Y0015497D01*
X0022003Y0015500D01*
D02*
G37*
G36*
X0011903Y0021733D02*
X0011896D01*
X0011891Y0021731D01*
X0011876Y0021730D01*
X0011860Y0021726D01*
X0011840Y0021720D01*
X0011819Y0021710D01*
X0011798Y0021698D01*
X0011776Y0021679D01*
X0011774Y0021676D01*
X0011768Y0021669D01*
X0011759Y0021659D01*
X0011751Y0021644D01*
X0011741Y0021626D01*
X0011733Y0021603D01*
X0011727Y0021579D01*
X0011724Y0021552D01*
Y0021046D01*
Y0021045D01*
Y0021043D01*
Y0021039D01*
X0011726Y0021034D01*
X0011727Y0021019D01*
X0011731Y0021003D01*
X0011737Y0020983D01*
X0011747Y0020962D01*
X0011759Y0020941D01*
X0011776Y0020919D01*
X0011779Y0020917D01*
X0011786Y0020911D01*
X0011798Y0020902D01*
X0011812Y0020894D01*
X0011830Y0020884D01*
X0011853Y0020876D01*
X0011876Y0020870D01*
X0011903Y0020867D01*
X0011910D01*
X0011916Y0020869D01*
X0011930Y0020870D01*
X0011948Y0020874D01*
X0011968Y0020880D01*
X0011989Y0020890D01*
X0012010Y0020902D01*
X0012032Y0020919D01*
X0012034Y0020922D01*
X0012040Y0020929D01*
X0012048Y0020941D01*
X0012058Y0020955D01*
X0012068Y0020973D01*
X0012077Y0020996D01*
X0012082Y0021019D01*
X0012085Y0021046D01*
Y0021552D01*
Y0021554D01*
Y0021555D01*
Y0021559D01*
X0012084Y0021565D01*
X0012082Y0021579D01*
X0012078Y0021596D01*
X0012072Y0021616D01*
X0012063Y0021637D01*
X0012050Y0021659D01*
X0012032Y0021679D01*
X0012029Y0021682D01*
X0012022Y0021688D01*
X0012010Y0021696D01*
X0011996Y0021706D01*
X0011978Y0021716D01*
X0011955Y0021724D01*
X0011930Y0021730D01*
X0011903Y0021733D01*
D02*
G37*
G36*
X0030387Y0022533D02*
X0030380D01*
X0030374Y0022531D01*
X0030360Y0022530D01*
X0030343Y0022526D01*
X0030323Y0022520D01*
X0030302Y0022510D01*
X0030281Y0022498D01*
X0030260Y0022479D01*
X0030257Y0022476D01*
X0030252Y0022469D01*
X0030243Y0022458D01*
X0030235Y0022444D01*
X0030225Y0022426D01*
X0030216Y0022403D01*
X0030211Y0022378D01*
X0030208Y0022351D01*
Y0022279D01*
Y0022278D01*
Y0022276D01*
Y0022272D01*
X0030209Y0022266D01*
X0030211Y0022252D01*
X0030215Y0022235D01*
X0030221Y0022216D01*
X0030230Y0022194D01*
X0030243Y0022173D01*
X0030260Y0022152D01*
X0030263Y0022149D01*
X0030270Y0022144D01*
X0030281Y0022135D01*
X0030295Y0022127D01*
X0030314Y0022117D01*
X0030336Y0022108D01*
X0030360Y0022103D01*
X0030387Y0022100D01*
X0030569D01*
Y0022351D01*
Y0022352D01*
Y0022354D01*
Y0022358D01*
X0030567Y0022364D01*
X0030566Y0022378D01*
X0030562Y0022396D01*
X0030556Y0022416D01*
X0030546Y0022437D01*
X0030533Y0022458D01*
X0030515Y0022479D01*
X0030512Y0022482D01*
X0030505Y0022488D01*
X0030494Y0022496D01*
X0030480Y0022506D01*
X0030462Y0022516D01*
X0030439Y0022524D01*
X0030414Y0022530D01*
X0030387Y0022533D01*
D02*
G37*
G36*
X0027869D02*
X0027861D01*
X0027856Y0022531D01*
X0027842Y0022530D01*
X0027825Y0022526D01*
X0027805Y0022520D01*
X0027784Y0022510D01*
X0027763Y0022498D01*
X0027742Y0022479D01*
X0027739Y0022476D01*
X0027733Y0022469D01*
X0027725Y0022459D01*
X0027716Y0022444D01*
X0027706Y0022426D01*
X0027698Y0022403D01*
X0027692Y0022379D01*
X0027690Y0022352D01*
Y0022351D01*
Y0022350D01*
Y0022345D01*
X0027691Y0022340D01*
X0027692Y0022326D01*
X0027697Y0022307D01*
X0027702Y0022287D01*
X0027712Y0022266D01*
X0027725Y0022245D01*
X0027742Y0022224D01*
X0027744Y0022221D01*
X0027752Y0022216D01*
X0027763Y0022207D01*
X0027777Y0022199D01*
X0027795Y0022189D01*
X0027818Y0022180D01*
X0027842Y0022175D01*
X0027869Y0022172D01*
X0027876D01*
X0027881Y0022173D01*
X0027895Y0022175D01*
X0027914Y0022179D01*
X0027933Y0022185D01*
X0027955Y0022194D01*
X0027976Y0022207D01*
X0027997Y0022224D01*
X0028000Y0022227D01*
X0028005Y0022234D01*
X0028014Y0022245D01*
X0028024Y0022259D01*
X0028033Y0022279D01*
X0028042Y0022300D01*
X0028048Y0022326D01*
X0028050Y0022352D01*
Y0022354D01*
Y0022355D01*
Y0022359D01*
X0028049Y0022365D01*
X0028048Y0022379D01*
X0028043Y0022396D01*
X0028038Y0022416D01*
X0028028Y0022437D01*
X0028015Y0022459D01*
X0027997Y0022479D01*
X0027994Y0022482D01*
X0027987Y0022488D01*
X0027976Y0022496D01*
X0027962Y0022506D01*
X0027943Y0022516D01*
X0027921Y0022524D01*
X0027895Y0022530D01*
X0027869Y0022533D01*
D02*
G37*
G36*
X0027885Y0022100D02*
X0027860D01*
X0027853Y0022099D01*
X0027846D01*
X0027838Y0022097D01*
X0027816Y0022092D01*
X0027792Y0022084D01*
X0027767Y0022073D01*
X0027742Y0022056D01*
X0027729Y0022046D01*
X0027716Y0022035D01*
Y0022034D01*
X0027713Y0022032D01*
X0027711Y0022028D01*
X0027706Y0022024D01*
X0027697Y0022010D01*
X0027685Y0021991D01*
X0027673Y0021969D01*
X0027663Y0021944D01*
X0027656Y0021914D01*
X0027654Y0021898D01*
X0027653Y0021883D01*
Y0021882D01*
Y0021879D01*
Y0021874D01*
X0027654Y0021867D01*
Y0021860D01*
X0027656Y0021852D01*
X0027661Y0021831D01*
X0027668Y0021807D01*
X0027680Y0021781D01*
X0027695Y0021756D01*
X0027705Y0021743D01*
X0027716Y0021731D01*
X0027718D01*
X0027719Y0021728D01*
X0027728Y0021721D01*
X0027742Y0021711D01*
X0027759Y0021700D01*
X0027781Y0021687D01*
X0027808Y0021677D01*
X0027836Y0021670D01*
X0027852Y0021669D01*
X0027869Y0021667D01*
X0027877D01*
X0027884Y0021669D01*
X0027891D01*
X0027901Y0021670D01*
X0027922Y0021676D01*
X0027946Y0021683D01*
X0027971Y0021694D01*
X0027997Y0021710D01*
X0028010Y0021719D01*
X0028022Y0021731D01*
X0028024Y0021732D01*
X0028025Y0021733D01*
X0028032Y0021742D01*
X0028042Y0021755D01*
X0028055Y0021773D01*
X0028066Y0021796D01*
X0028076Y0021821D01*
X0028083Y0021850D01*
X0028086Y0021866D01*
Y0021883D01*
Y0021884D01*
Y0021887D01*
Y0021891D01*
X0028084Y0021897D01*
X0028083Y0021914D01*
X0028077Y0021935D01*
X0028070Y0021959D01*
X0028059Y0021984D01*
X0028043Y0022010D01*
X0028033Y0022022D01*
X0028022Y0022035D01*
Y0022037D01*
X0028019Y0022038D01*
X0028011Y0022045D01*
X0027997Y0022056D01*
X0027980Y0022068D01*
X0027957Y0022079D01*
X0027931Y0022090D01*
X0027901Y0022097D01*
X0027885Y0022100D01*
D02*
G37*
G36*
X0053087Y0004100D02*
X0052908D01*
Y0003846D01*
Y0003845D01*
Y0003843D01*
Y0003839D01*
X0052909Y0003834D01*
X0052911Y0003819D01*
X0052915Y0003803D01*
X0052921Y0003783D01*
X0052930Y0003762D01*
X0052943Y0003741D01*
X0052960Y0003719D01*
X0052963Y0003717D01*
X0052970Y0003711D01*
X0052981Y0003702D01*
X0052995Y0003694D01*
X0053014Y0003684D01*
X0053036Y0003676D01*
X0053060Y0003670D01*
X0053087Y0003667D01*
X0053094D01*
X0053100Y0003669D01*
X0053114Y0003670D01*
X0053132Y0003674D01*
X0053152Y0003680D01*
X0053173Y0003690D01*
X0053194Y0003702D01*
X0053215Y0003719D01*
X0053218Y0003722D01*
X0053224Y0003729D01*
X0053232Y0003741D01*
X0053242Y0003755D01*
X0053252Y0003773D01*
X0053260Y0003796D01*
X0053266Y0003819D01*
X0053269Y0003846D01*
Y0003920D01*
Y0003921D01*
Y0003922D01*
Y0003927D01*
X0053267Y0003932D01*
X0053266Y0003946D01*
X0053262Y0003963D01*
X0053256Y0003983D01*
X0053246Y0004004D01*
X0053233Y0004027D01*
X0053215Y0004046D01*
X0053212Y0004049D01*
X0053205Y0004055D01*
X0053194Y0004063D01*
X0053180Y0004073D01*
X0053162Y0004083D01*
X0053139Y0004092D01*
X0053114Y0004097D01*
X0053087Y0004100D01*
D02*
G37*
%LPD*%
D10*
X0037025Y0026889D02*
G03*
X0037011Y0022562I-0001295J-0002159D01*
G01*
X0011725Y0010425D02*
G03*
X0011725Y0010425I-0000125J0000000D01*
G01*
X0046975Y0000425D02*
G03*
X0046975Y0000425I-0000125J0000000D01*
G01*
X0043905Y0012650D02*
G03*
X0043905Y0012650I-0000125J0000000D01*
G01*
X0023625Y0015450D02*
G03*
X0023625Y0015450I-0000125J0000000D01*
G01*
X0018175Y0024360D02*
G03*
X0018175Y0024360I-0000125J0000000D01*
G01*
X0034805Y0015241D02*
G03*
X0034819Y0019568I0001295J0002159D01*
G01*
X0050600Y0006700D02*
X0051500D01*
X0050600Y0005300D02*
X0051500D01*
X0037011Y0022562D02*
Y0026875D01*
X0012000Y0001700D02*
X0012900D01*
X0012000Y0003100D02*
X0012900D01*
X0034819Y0015255D02*
Y0019568D01*
D11*
X0045285Y0014775D02*
G03*
X0045285Y0014775I-0000300J0000000D01*
G01*
X0020475Y0023105D02*
G03*
X0020475Y0023105I-0000300J0000000D01*
G01*
D12*
X0041800Y0011924D02*
Y0012024D01*
X0043000Y0011924D02*
Y0012024D01*
X0049176Y0010100D02*
X0049276D01*
X0049176Y0011300D02*
X0049276D01*
X0046424D02*
X0046524D01*
X0046424Y0010100D02*
X0046524D01*
X0041100Y0011900D02*
Y0012000D01*
X0039900Y0011900D02*
Y0012000D01*
X0022900Y0017424D02*
Y0017524D01*
X0024100Y0017424D02*
Y0017524D01*
D13*
X0050350Y0004600D02*
X0050650D01*
X0050350Y0003625D02*
X0050650D01*
X0058400Y0013500D02*
X0064100D01*
X0056500D02*
X0058000D01*
X0056500D02*
Y0023500D01*
X0064100D01*
Y0013500D02*
Y0023500D01*
X0057500Y0013000D02*
X0058000Y0013500D01*
X0057500Y0013000D02*
X0058900D01*
X0058400Y0013500D02*
X0058900Y0013000D01*
X0051650Y0001900D02*
X0051950D01*
X0051650Y0000925D02*
X0051950D01*
X0025900Y0000300D02*
Y0006000D01*
Y0006400D02*
Y0007900D01*
X0035900D01*
Y0000300D02*
Y0007900D01*
X0025900Y0000300D02*
X0035900D01*
X0025400Y0006900D02*
X0025900Y0006400D01*
X0025400Y0005500D02*
Y0006900D01*
Y0005500D02*
X0025900Y0006000D01*
X0013400Y0010450D02*
X0020925D01*
X0013400Y0003750D02*
Y0010450D01*
Y0003750D02*
X0020925D01*
X0026175Y0024150D02*
Y0024450D01*
X0025200Y0024150D02*
Y0024450D01*
X0027125Y0024150D02*
Y0024450D01*
X0028100Y0024150D02*
Y0024450D01*
X0030800Y0024525D02*
Y0025525D01*
X0029000Y0024525D02*
Y0025525D01*
X0010500Y0017850D02*
Y0018850D01*
X0012300Y0017850D02*
Y0018850D01*
X0053900Y0016050D02*
Y0017050D01*
X0055700Y0016050D02*
Y0017050D01*
X0018400Y0013525D02*
Y0014525D01*
X0016600Y0013525D02*
Y0014525D01*
X0037525Y0007100D02*
X0045050D01*
Y0000400D02*
Y0007100D01*
X0037525Y0000400D02*
X0045050D01*
X0043900Y0019425D02*
X0046600D01*
X0043900Y0022675D02*
X0046600D01*
X0049085Y0013775D02*
Y0016975D01*
X0043985Y0013775D02*
Y0016975D01*
X0049085D01*
X0043985Y0013775D02*
X0049085D01*
X0050325Y0017150D02*
Y0017450D01*
X0051300Y0017150D02*
Y0017450D01*
X0052225Y0017150D02*
Y0017450D01*
X0053200Y0017150D02*
Y0017450D01*
X0011250Y0011875D02*
X0011550D01*
X0011250Y0010900D02*
X0011550D01*
X0000700Y0025100D02*
X0006400D01*
X0006800D02*
X0008300D01*
Y0005100D02*
Y0025100D01*
X0000700Y0005100D02*
X0008300D01*
X0000700D02*
Y0025100D01*
X0006800D02*
X0007300Y0025600D01*
X0005900D02*
X0007300D01*
X0005900D02*
X0006400Y0025100D01*
X0008525Y0003350D02*
Y0003650D01*
X0009500Y0003350D02*
Y0003650D01*
X0024875Y0017250D02*
Y0017550D01*
X0025850Y0017250D02*
Y0017550D01*
X0021975Y0013350D02*
Y0013650D01*
X0021000Y0013350D02*
Y0013650D01*
X0020175Y0013350D02*
Y0013650D01*
X0019200Y0013350D02*
Y0013650D01*
X0019175Y0019105D02*
Y0024105D01*
X0022375Y0019105D02*
Y0024105D01*
X0019175D02*
X0022375D01*
X0019175Y0019105D02*
X0022375D01*
X0015025Y0018750D02*
Y0019050D01*
X0016000Y0018750D02*
Y0019050D01*
X0014075Y0018750D02*
Y0019050D01*
X0013100Y0018750D02*
Y0019050D01*
D14*
X0025425Y0012100D02*
Y0015200D01*
X0024425Y0012100D02*
Y0015200D01*
Y0012100D02*
X0025425D01*
X0024425Y0015200D02*
X0025425D01*
D15*
X0045350Y0005999D02*
D03*
X0013099Y0004851D02*
D03*
D16*
X0013150Y0009350D02*
D03*
X0045300Y0001500D02*
D03*
M02*
