G04*
G04 #@! TF.GenerationSoftware,Altium Limited,Altium Designer,24.6.1 (21)*
G04*
G04 Layer_Physical_Order=1*
G04 Layer_Color=255*
%FSAX43Y43*%
%MOMM*%
G71*
G04*
G04 #@! TF.SameCoordinates,67DF9111-2897-4826-B50C-3AFFA42C07FF*
G04*
G04*
G04 #@! TF.FilePolarity,Positive*
G04*
G01*
G75*
%ADD13C,0.200*%
%ADD35R,1.200X0.900*%
%ADD36R,0.900X1.200*%
%ADD37R,1.200X1.400*%
G04:AMPARAMS|DCode=38|XSize=1.3mm|YSize=2.15mm|CornerRadius=0.163mm|HoleSize=0mm|Usage=FLASHONLY|Rotation=90.000|XOffset=0mm|YOffset=0mm|HoleType=Round|Shape=RoundedRectangle|*
%AMROUNDEDRECTD38*
21,1,1.300,1.825,0,0,90.0*
21,1,0.975,2.150,0,0,90.0*
1,1,0.325,0.913,0.488*
1,1,0.325,0.913,-0.488*
1,1,0.325,-0.913,-0.488*
1,1,0.325,-0.913,0.488*
%
%ADD38ROUNDEDRECTD38*%
G04:AMPARAMS|DCode=39|XSize=5.7mm|YSize=6mm|CornerRadius=0.713mm|HoleSize=0mm|Usage=FLASHONLY|Rotation=90.000|XOffset=0mm|YOffset=0mm|HoleType=Round|Shape=RoundedRectangle|*
%AMROUNDEDRECTD39*
21,1,5.700,4.575,0,0,90.0*
21,1,4.275,6.000,0,0,90.0*
1,1,1.425,2.288,2.138*
1,1,1.425,2.288,-2.138*
1,1,1.425,-2.288,-2.138*
1,1,1.425,-2.288,2.138*
%
%ADD39ROUNDEDRECTD39*%
%ADD40R,1.200X0.900*%
%ADD41R,1.900X1.300*%
%ADD42R,0.900X1.200*%
%ADD43R,1.900X3.450*%
%ADD44O,0.600X1.450*%
%ADD45O,1.050X0.600*%
%ADD46O,1.450X0.600*%
%ADD47C,0.500*%
%ADD48C,1.000*%
%ADD49C,0.400*%
%ADD50R,0.600X0.400*%
%ADD51O,1.400X1.200*%
%ADD52C,1.900*%
%ADD53R,1.900X1.900*%
%ADD54R,1.900X1.900*%
%ADD55C,1.000*%
%ADD56C,1.800*%
G36*
X0064100Y0000400D02*
X0053550D01*
Y0001150D01*
X0052600D01*
Y0001400D01*
X0052350D01*
Y0002500D01*
X0051650D01*
Y0002350D01*
X0051650Y0002200D01*
X0051500Y0002200D01*
X0050350D01*
Y0001859D01*
X0050159D01*
X0050140Y0001891D01*
X0049991Y0002040D01*
X0049809Y0002145D01*
X0049605Y0002200D01*
X0049395D01*
X0049191Y0002145D01*
X0049009Y0002040D01*
X0048860Y0001891D01*
X0048856Y0001884D01*
X0048632D01*
Y0001938D01*
X0048604Y0002079D01*
X0048524Y0002199D01*
X0048404Y0002279D01*
X0048263Y0002307D01*
X0046438D01*
X0046296Y0002279D01*
X0046176Y0002199D01*
X0046096Y0002079D01*
X0046068Y0001938D01*
Y0000962D01*
X0046096Y0000821D01*
X0046176Y0000701D01*
X0046296Y0000621D01*
X0046438Y0000593D01*
X0048263D01*
X0048404Y0000621D01*
X0048524Y0000701D01*
X0048604Y0000821D01*
X0048632Y0000962D01*
Y0000966D01*
X0048827D01*
X0048860Y0000909D01*
X0049009Y0000760D01*
X0049191Y0000655D01*
X0049395Y0000600D01*
X0049605D01*
X0049809Y0000655D01*
X0049991Y0000760D01*
X0050140Y0000909D01*
X0050159Y0000941D01*
X0050350D01*
Y0000600D01*
X0051495Y0000600D01*
X0051564Y0000450D01*
X0051521Y0000400D01*
X0043711D01*
X0043660Y0000550D01*
X0043852Y0000698D01*
X0044047Y0000951D01*
X0044169Y0001246D01*
X0044210Y0001562D01*
Y0003200D01*
X0040700D01*
X0037190D01*
Y0001562D01*
X0037231Y0001246D01*
X0037353Y0000951D01*
X0037548Y0000698D01*
X0037740Y0000550D01*
X0037689Y0000400D01*
X0000400D01*
Y0030100D01*
X0064100D01*
Y0000400D01*
D02*
G37*
%LPC*%
G36*
X0061118Y0029280D02*
X0060802D01*
X0060497Y0029198D01*
X0060223Y0029040D01*
X0060000Y0028817D01*
X0059842Y0028543D01*
X0059760Y0028238D01*
X0059620D01*
X0059538Y0028543D01*
X0059380Y0028817D01*
X0059157Y0029040D01*
X0058883Y0029198D01*
X0058578Y0029280D01*
X0058262D01*
X0057957Y0029198D01*
X0057683Y0029040D01*
X0057460Y0028817D01*
X0057302Y0028543D01*
X0057220Y0028238D01*
Y0027922D01*
X0057302Y0027617D01*
X0057460Y0027343D01*
X0057683Y0027120D01*
X0057957Y0026962D01*
X0058262Y0026880D01*
X0058578D01*
X0058883Y0026962D01*
X0059157Y0027120D01*
X0059380Y0027343D01*
X0059538Y0027617D01*
X0059620Y0027922D01*
X0059760D01*
X0059842Y0027617D01*
X0060000Y0027343D01*
X0060223Y0027120D01*
X0060497Y0026962D01*
X0060802Y0026880D01*
X0061118D01*
X0061423Y0026962D01*
X0061697Y0027120D01*
X0061920Y0027343D01*
X0062078Y0027617D01*
X0062160Y0027922D01*
Y0028238D01*
X0062078Y0028543D01*
X0061920Y0028817D01*
X0061697Y0029040D01*
X0061423Y0029198D01*
X0061118Y0029280D01*
D02*
G37*
G36*
X0005238D02*
X0004922D01*
X0004617Y0029198D01*
X0004343Y0029040D01*
X0004120Y0028817D01*
X0003962Y0028543D01*
X0003880Y0028238D01*
X0003740D01*
X0003658Y0028543D01*
X0003500Y0028817D01*
X0003277Y0029040D01*
X0003003Y0029198D01*
X0002698Y0029280D01*
X0002382D01*
X0002077Y0029198D01*
X0001803Y0029040D01*
X0001580Y0028817D01*
X0001422Y0028543D01*
X0001340Y0028238D01*
Y0027922D01*
X0001422Y0027617D01*
X0001580Y0027343D01*
X0001803Y0027120D01*
X0002077Y0026962D01*
X0002382Y0026880D01*
X0002698D01*
X0003003Y0026962D01*
X0003277Y0027120D01*
X0003500Y0027343D01*
X0003658Y0027617D01*
X0003740Y0027922D01*
X0003880D01*
X0003962Y0027617D01*
X0004120Y0027343D01*
X0004343Y0027120D01*
X0004617Y0026962D01*
X0004922Y0026880D01*
X0005238D01*
X0005543Y0026962D01*
X0005817Y0027120D01*
X0006040Y0027343D01*
X0006198Y0027617D01*
X0006280Y0027922D01*
Y0028238D01*
X0006198Y0028543D01*
X0006040Y0028817D01*
X0005817Y0029040D01*
X0005543Y0029198D01*
X0005238Y0029280D01*
D02*
G37*
G36*
X0031350Y0027525D02*
X0030150D01*
Y0026625D01*
X0031350D01*
Y0027525D01*
D02*
G37*
G36*
X0029650D02*
X0028450D01*
Y0026625D01*
X0029650D01*
Y0027525D01*
D02*
G37*
G36*
X0036030Y0026777D02*
X0035830D01*
X0035621Y0026749D01*
X0035427Y0026669D01*
X0035259Y0026541D01*
X0035131Y0026373D01*
X0035051Y0026179D01*
X0035023Y0025970D01*
X0035051Y0025761D01*
X0035127Y0025576D01*
X0035112Y0025546D01*
X0035028Y0025455D01*
X0034969Y0025479D01*
X0034760Y0025507D01*
X0034560D01*
X0034351Y0025479D01*
X0034157Y0025399D01*
X0033989Y0025271D01*
X0033861Y0025103D01*
X0033781Y0024909D01*
X0033753Y0024700D01*
X0033781Y0024491D01*
X0033787Y0024476D01*
X0031170Y0021859D01*
X0027390D01*
X0026684Y0022564D01*
X0026536Y0022664D01*
X0026360Y0022699D01*
X0024138D01*
X0024120Y0022711D01*
X0023925Y0022750D01*
X0023075D01*
X0022880Y0022711D01*
X0022715Y0022600D01*
X0022604Y0022435D01*
X0022565Y0022240D01*
X0022604Y0022045D01*
X0022715Y0021880D01*
X0022880Y0021769D01*
X0023075Y0021730D01*
X0023925D01*
X0024120Y0021769D01*
X0024138Y0021781D01*
X0026170D01*
X0026876Y0021076D01*
X0027024Y0020976D01*
X0027200Y0020941D01*
X0031170D01*
X0034994Y0017117D01*
X0035017Y0017067D01*
X0035019Y0016992D01*
X0035002Y0016927D01*
X0034839Y0016715D01*
X0034728Y0016447D01*
X0034723Y0016410D01*
X0035900D01*
X0037077D01*
X0037072Y0016447D01*
X0037059Y0016478D01*
X0037161Y0016623D01*
X0037270D01*
X0037479Y0016651D01*
X0037673Y0016731D01*
X0037841Y0016859D01*
X0037969Y0017027D01*
X0038049Y0017221D01*
X0038077Y0017430D01*
X0038049Y0017639D01*
X0037969Y0017833D01*
X0037841Y0018001D01*
X0037673Y0018129D01*
X0037479Y0018209D01*
X0037270Y0018237D01*
X0037070D01*
X0036861Y0018209D01*
X0036802Y0018185D01*
X0036718Y0018276D01*
X0036703Y0018306D01*
X0036730Y0018371D01*
X0038702Y0020344D01*
X0041425D01*
Y0019125D01*
X0043725D01*
Y0020230D01*
X0043864Y0020288D01*
X0044171Y0019980D01*
Y0018738D01*
X0044159Y0018720D01*
X0044120Y0018525D01*
Y0017675D01*
X0044159Y0017480D01*
X0044270Y0017315D01*
X0044435Y0017204D01*
X0044546Y0017182D01*
X0044595Y0017019D01*
X0042435Y0014859D01*
X0031890D01*
X0025454Y0021294D01*
X0025306Y0021394D01*
X0025130Y0021429D01*
X0024138D01*
X0024120Y0021441D01*
X0023925Y0021480D01*
X0023075D01*
X0022880Y0021441D01*
X0022715Y0021330D01*
X0022604Y0021165D01*
X0022565Y0020970D01*
X0022604Y0020775D01*
X0022715Y0020610D01*
X0022880Y0020499D01*
X0023075Y0020460D01*
X0023925D01*
X0024120Y0020499D01*
X0024138Y0020511D01*
X0024940D01*
X0031376Y0014076D01*
X0031524Y0013976D01*
X0031700Y0013941D01*
X0042625D01*
X0042801Y0013976D01*
X0042949Y0014076D01*
X0046074Y0017200D01*
X0046095Y0017204D01*
X0046260Y0017315D01*
X0046279Y0017343D01*
X0046449Y0017326D01*
X0046471Y0017272D01*
X0046599Y0017104D01*
X0046767Y0016976D01*
X0046920Y0016913D01*
Y0018100D01*
X0047420D01*
Y0016913D01*
X0047573Y0016976D01*
X0047741Y0017104D01*
X0047869Y0017272D01*
X0047891Y0017326D01*
X0048061Y0017343D01*
X0048080Y0017315D01*
X0048245Y0017204D01*
X0048440Y0017165D01*
X0048635Y0017204D01*
X0048800Y0017315D01*
X0048911Y0017480D01*
X0048943Y0017641D01*
X0050000D01*
Y0017450D01*
X0049850Y0017450D01*
X0049700D01*
Y0016750D01*
X0050800D01*
Y0016500D01*
X0051050D01*
Y0015550D01*
X0052450D01*
Y0016500D01*
X0052950D01*
Y0015550D01*
X0053350D01*
Y0015450D01*
X0054550D01*
Y0016350D01*
X0053800D01*
Y0017050D01*
X0055950D01*
Y0018750D01*
X0055188D01*
X0055131Y0018900D01*
X0055240Y0019009D01*
X0055345Y0019191D01*
X0055400Y0019395D01*
Y0019605D01*
X0055345Y0019809D01*
X0055240Y0019991D01*
X0055091Y0020140D01*
X0054998Y0020194D01*
X0055038Y0020344D01*
X0060051D01*
X0060080Y0020294D01*
X0060294Y0020080D01*
X0060556Y0019928D01*
X0060849Y0019850D01*
X0061151D01*
X0061444Y0019928D01*
X0061706Y0020080D01*
X0061920Y0020294D01*
X0062072Y0020556D01*
X0062150Y0020849D01*
Y0021151D01*
X0062072Y0021444D01*
X0061920Y0021706D01*
X0061706Y0021920D01*
X0061444Y0022072D01*
X0061151Y0022150D01*
X0060849D01*
X0060556Y0022072D01*
X0060294Y0021920D01*
X0060130Y0021756D01*
X0049075D01*
Y0022975D01*
X0046775D01*
Y0021509D01*
X0046750D01*
X0046574Y0021474D01*
X0046426Y0021374D01*
X0045576Y0020524D01*
X0045476Y0020376D01*
X0045441Y0020200D01*
Y0018738D01*
X0045429Y0018720D01*
X0045390Y0018525D01*
Y0017814D01*
X0045290Y0017714D01*
X0045140Y0017776D01*
Y0018525D01*
X0045101Y0018720D01*
X0045089Y0018738D01*
Y0020170D01*
X0045054Y0020346D01*
X0044954Y0020494D01*
X0044074Y0021374D01*
X0043926Y0021474D01*
X0043750Y0021509D01*
X0043725D01*
Y0022975D01*
X0041425D01*
Y0021756D01*
X0038702D01*
X0036802Y0023656D01*
X0036729Y0023833D01*
X0036601Y0024001D01*
X0036433Y0024129D01*
X0036239Y0024209D01*
X0036030Y0024237D01*
X0035830D01*
X0035621Y0024209D01*
X0035562Y0024185D01*
X0035478Y0024276D01*
X0035463Y0024306D01*
X0035539Y0024491D01*
X0035567Y0024700D01*
X0035539Y0024909D01*
X0035463Y0025094D01*
X0035478Y0025124D01*
X0035562Y0025215D01*
X0035621Y0025191D01*
X0035830Y0025163D01*
X0036030D01*
X0036239Y0025191D01*
X0036433Y0025271D01*
X0036601Y0025399D01*
X0036729Y0025567D01*
X0036809Y0025761D01*
X0036837Y0025970D01*
X0036809Y0026179D01*
X0036729Y0026373D01*
X0036601Y0026541D01*
X0036433Y0026669D01*
X0036239Y0026749D01*
X0036030Y0026777D01*
D02*
G37*
G36*
X0025450Y0026050D02*
X0024600D01*
Y0025350D01*
X0025450D01*
Y0026050D01*
D02*
G37*
G36*
X0031350Y0026125D02*
X0030150D01*
Y0025225D01*
X0031350D01*
Y0026125D01*
D02*
G37*
G36*
X0029650D02*
X0028450D01*
Y0026050D01*
X0027850D01*
Y0025100D01*
X0027350D01*
Y0026050D01*
X0025950D01*
Y0025100D01*
X0025700D01*
Y0024850D01*
X0024600D01*
Y0024150D01*
X0024763D01*
X0024825Y0024000D01*
X0024794Y0023969D01*
X0024138D01*
X0024120Y0023981D01*
X0023925Y0024020D01*
X0023075D01*
X0022880Y0023981D01*
X0022862Y0023969D01*
X0022180D01*
X0021224Y0024924D01*
X0021076Y0025024D01*
X0020900Y0025059D01*
X0005800D01*
X0005624Y0025024D01*
X0005476Y0024924D01*
X0004301Y0023750D01*
X0002650D01*
Y0022099D01*
X0001676Y0021124D01*
X0001576Y0020976D01*
X0001541Y0020800D01*
Y0016400D01*
X0001576Y0016224D01*
X0001676Y0016076D01*
X0003559Y0014192D01*
X0003514Y0014025D01*
X0003240Y0013951D01*
X0002910Y0013760D01*
X0002640Y0013490D01*
X0002449Y0013160D01*
X0002366Y0012850D01*
X0003800D01*
X0005234D01*
X0005151Y0013160D01*
X0004960Y0013490D01*
X0004690Y0013760D01*
X0004628Y0013796D01*
X0004667Y0013941D01*
X0008500D01*
X0008500Y0013941D01*
X0008610D01*
X0010141Y0012410D01*
Y0012200D01*
X0009950D01*
Y0010600D01*
X0010141D01*
Y0010248D01*
X0010046Y0010229D01*
X0009926Y0010149D01*
X0009846Y0010029D01*
X0009818Y0009887D01*
Y0008913D01*
X0009846Y0008771D01*
X0009926Y0008651D01*
X0010046Y0008571D01*
X0010188Y0008543D01*
X0012012D01*
X0012154Y0008571D01*
X0012274Y0008651D01*
X0012354Y0008771D01*
X0012382Y0008913D01*
Y0009887D01*
X0012354Y0010029D01*
X0012274Y0010149D01*
X0012272Y0010150D01*
X0012318Y0010300D01*
X0013150D01*
Y0011150D01*
X0012200D01*
Y0011400D01*
X0011950D01*
Y0012500D01*
X0011250D01*
Y0012327D01*
X0011100Y0012265D01*
X0011059Y0012306D01*
Y0012600D01*
X0011024Y0012776D01*
X0010924Y0012924D01*
X0009124Y0014724D01*
X0008976Y0014824D01*
X0008800Y0014859D01*
X0008500D01*
X0008500Y0014859D01*
X0004190D01*
X0002459Y0016590D01*
Y0020610D01*
X0003299Y0021450D01*
X0004950D01*
Y0023101D01*
X0005990Y0024141D01*
X0017466D01*
X0017481Y0023991D01*
X0017430Y0023981D01*
X0017265Y0023870D01*
X0017154Y0023705D01*
X0017115Y0023510D01*
X0017154Y0023315D01*
X0017265Y0023150D01*
X0017430Y0023039D01*
X0017625Y0023000D01*
X0018475D01*
X0018670Y0023039D01*
X0018835Y0023150D01*
X0018946Y0023315D01*
X0018985Y0023510D01*
X0018946Y0023705D01*
X0018835Y0023870D01*
X0018670Y0023981D01*
X0018619Y0023991D01*
X0018634Y0024141D01*
X0020710D01*
X0021666Y0023186D01*
X0021814Y0023086D01*
X0021990Y0023051D01*
X0022862D01*
X0022880Y0023039D01*
X0023075Y0023000D01*
X0023925D01*
X0024120Y0023039D01*
X0024138Y0023051D01*
X0024900D01*
Y0022850D01*
X0026500D01*
Y0023041D01*
X0026800D01*
Y0022850D01*
X0028400D01*
Y0023041D01*
X0028750D01*
Y0022825D01*
X0031050D01*
Y0024525D01*
X0028850D01*
X0028750Y0024525D01*
X0028700Y0024654D01*
Y0025225D01*
X0029650D01*
Y0026125D01*
D02*
G37*
G36*
X0018475Y0022750D02*
X0017625D01*
X0017430Y0022711D01*
X0017265Y0022600D01*
X0017154Y0022435D01*
X0017115Y0022240D01*
X0017154Y0022045D01*
X0017265Y0021880D01*
X0017430Y0021769D01*
X0017625Y0021730D01*
X0018475D01*
X0018670Y0021769D01*
X0018835Y0021880D01*
X0018946Y0022045D01*
X0018985Y0022240D01*
X0018946Y0022435D01*
X0018835Y0022600D01*
X0018670Y0022711D01*
X0018475Y0022750D01*
D02*
G37*
G36*
Y0021480D02*
X0017625D01*
X0017430Y0021441D01*
X0017265Y0021330D01*
X0017154Y0021165D01*
X0017115Y0020970D01*
X0017154Y0020775D01*
X0017265Y0020610D01*
X0017430Y0020499D01*
X0017625Y0020460D01*
X0018475D01*
X0018670Y0020499D01*
X0018835Y0020610D01*
X0018946Y0020775D01*
X0018985Y0020970D01*
X0018946Y0021165D01*
X0018835Y0021330D01*
X0018670Y0021441D01*
X0018475Y0021480D01*
D02*
G37*
G36*
X0012550Y0020550D02*
X0010250D01*
Y0020159D01*
X0005900D01*
X0005724Y0020124D01*
X0005576Y0020024D01*
X0004227Y0018676D01*
X0003951Y0018750D01*
X0003649D01*
X0003356Y0018672D01*
X0003094Y0018520D01*
X0002880Y0018306D01*
X0002728Y0018044D01*
X0002650Y0017751D01*
Y0017449D01*
X0002728Y0017156D01*
X0002880Y0016894D01*
X0003094Y0016680D01*
X0003356Y0016528D01*
X0003649Y0016450D01*
X0003951D01*
X0004244Y0016528D01*
X0004506Y0016680D01*
X0004720Y0016894D01*
X0004872Y0017156D01*
X0004950Y0017449D01*
Y0017751D01*
X0004876Y0018027D01*
X0006090Y0019241D01*
X0010250D01*
Y0018850D01*
X0012500D01*
Y0018150D01*
X0011650D01*
Y0017000D01*
Y0015850D01*
X0012850D01*
Y0017150D01*
X0013350D01*
Y0018100D01*
X0013850D01*
Y0017150D01*
X0015250D01*
Y0018100D01*
X0015500D01*
Y0018350D01*
X0016600D01*
Y0019050D01*
X0016450D01*
X0016300Y0019050D01*
Y0019241D01*
X0017412D01*
X0017430Y0019229D01*
X0017625Y0019190D01*
X0018475D01*
X0018670Y0019229D01*
X0018835Y0019340D01*
X0018946Y0019505D01*
X0018985Y0019700D01*
X0018946Y0019895D01*
X0018835Y0020060D01*
X0018670Y0020171D01*
X0018475Y0020210D01*
X0017625D01*
X0017430Y0020171D01*
X0017412Y0020159D01*
X0016300D01*
Y0020350D01*
X0014700D01*
Y0020159D01*
X0014400D01*
Y0020350D01*
X0012800D01*
Y0020159D01*
X0012550D01*
Y0020550D01*
D02*
G37*
G36*
X0011150Y0018150D02*
X0009950D01*
Y0017250D01*
X0011150D01*
Y0018150D01*
D02*
G37*
G36*
X0016600Y0017850D02*
X0015750D01*
Y0017150D01*
X0016600D01*
Y0017850D01*
D02*
G37*
G36*
X0062450Y0017450D02*
X0061250D01*
Y0016250D01*
X0062450D01*
Y0017450D01*
D02*
G37*
G36*
X0060750D02*
X0059550D01*
Y0016250D01*
X0060750D01*
Y0017450D01*
D02*
G37*
G36*
X0011150Y0016750D02*
X0009950D01*
Y0015850D01*
X0011150D01*
Y0016750D01*
D02*
G37*
G36*
X0026450Y0016350D02*
X0025600D01*
Y0015650D01*
X0026450D01*
Y0016350D01*
D02*
G37*
G36*
X0017250Y0016525D02*
X0016050D01*
Y0015625D01*
X0017250D01*
Y0016525D01*
D02*
G37*
G36*
X0050550Y0016250D02*
X0049700D01*
Y0015550D01*
X0050550D01*
Y0016250D01*
D02*
G37*
G36*
X0056250Y0016350D02*
X0055050D01*
Y0015450D01*
X0056250D01*
Y0016350D01*
D02*
G37*
G36*
X0037077Y0015910D02*
X0036150D01*
Y0015070D01*
X0036287Y0015088D01*
X0036555Y0015199D01*
X0036785Y0015375D01*
X0036961Y0015605D01*
X0037072Y0015873D01*
X0037077Y0015910D01*
D02*
G37*
G36*
X0035650D02*
X0034723D01*
X0034728Y0015873D01*
X0034839Y0015605D01*
X0035015Y0015375D01*
X0035245Y0015199D01*
X0035513Y0015088D01*
X0035650Y0015070D01*
Y0015910D01*
D02*
G37*
G36*
X0028205Y0015400D02*
X0027995D01*
X0027791Y0015345D01*
X0027609Y0015240D01*
X0027460Y0015091D01*
X0027441Y0015059D01*
X0026788D01*
X0026770Y0015071D01*
X0026575Y0015110D01*
X0026125D01*
X0025930Y0015071D01*
X0025765Y0014960D01*
X0025654Y0014795D01*
X0025615Y0014600D01*
X0025654Y0014405D01*
X0025765Y0014240D01*
X0025776Y0014232D01*
X0025744Y0014073D01*
X0025655Y0014055D01*
X0025506Y0013955D01*
X0024576Y0013024D01*
X0024476Y0012876D01*
X0024441Y0012700D01*
Y0003600D01*
X0024476Y0003424D01*
X0024576Y0003276D01*
X0026476Y0001376D01*
X0026624Y0001276D01*
X0026800Y0001241D01*
X0031700D01*
X0031876Y0001276D01*
X0032024Y0001376D01*
X0032973Y0002324D01*
X0033249Y0002250D01*
X0033551D01*
X0033844Y0002328D01*
X0034106Y0002480D01*
X0034320Y0002694D01*
X0034472Y0002956D01*
X0034550Y0003249D01*
Y0003551D01*
X0034472Y0003844D01*
X0034320Y0004106D01*
X0034106Y0004320D01*
X0033859Y0004463D01*
Y0005010D01*
X0036390Y0007541D01*
X0046900D01*
X0047076Y0007576D01*
X0047224Y0007676D01*
X0048764Y0009216D01*
X0048864Y0009364D01*
X0048899Y0009540D01*
Y0009900D01*
X0049126D01*
Y0011500D01*
X0048899D01*
Y0012012D01*
X0048911Y0012030D01*
X0048950Y0012225D01*
Y0013075D01*
X0048911Y0013270D01*
X0048800Y0013435D01*
X0048635Y0013546D01*
X0048440Y0013585D01*
X0048245Y0013546D01*
X0048080Y0013435D01*
X0047969Y0013270D01*
X0047930Y0013075D01*
Y0012225D01*
X0047969Y0012030D01*
X0047981Y0012012D01*
Y0011500D01*
X0047659D01*
Y0012120D01*
X0047680Y0012225D01*
Y0013075D01*
X0047641Y0013270D01*
X0047530Y0013435D01*
X0047365Y0013546D01*
X0047170Y0013585D01*
X0046975Y0013546D01*
X0046810Y0013435D01*
X0046699Y0013270D01*
X0046660Y0013075D01*
Y0012225D01*
X0046699Y0012030D01*
X0046741Y0011967D01*
Y0011500D01*
X0046574D01*
Y0009900D01*
X0046598D01*
Y0009647D01*
X0046365Y0009414D01*
X0033955D01*
X0033780Y0009379D01*
X0033631Y0009280D01*
X0028901Y0004550D01*
X0027899D01*
X0026809Y0005640D01*
Y0012255D01*
X0026935Y0012340D01*
X0027046Y0012505D01*
X0027085Y0012700D01*
X0027046Y0012895D01*
X0026935Y0013060D01*
X0026899Y0013085D01*
Y0013265D01*
X0026935Y0013290D01*
X0027046Y0013455D01*
X0027085Y0013650D01*
X0027046Y0013845D01*
X0026948Y0013991D01*
X0026970Y0014072D01*
X0027010Y0014141D01*
X0027441D01*
X0027460Y0014109D01*
X0027609Y0013960D01*
X0027791Y0013855D01*
X0027995Y0013800D01*
X0028205D01*
X0028241Y0013810D01*
X0029676Y0012376D01*
X0029824Y0012276D01*
X0030000Y0012241D01*
X0039288D01*
X0039400Y0012150D01*
Y0011450D01*
X0040500D01*
Y0011200D01*
X0040750D01*
Y0010250D01*
X0041600D01*
Y0010400D01*
X0041600Y0010550D01*
X0041750Y0010550D01*
X0043200D01*
X0043200Y0010550D01*
X0043327Y0010494D01*
X0043355Y0010391D01*
X0043460Y0010209D01*
X0043609Y0010060D01*
X0043791Y0009955D01*
X0043995Y0009900D01*
X0044205D01*
X0044409Y0009955D01*
X0044591Y0010060D01*
X0044740Y0010209D01*
X0044759Y0010241D01*
X0045050D01*
Y0009900D01*
X0046350D01*
Y0011500D01*
X0045050D01*
Y0011159D01*
X0044759D01*
X0044740Y0011191D01*
X0044591Y0011340D01*
X0044409Y0011445D01*
X0044205Y0011500D01*
X0043995D01*
X0043852Y0011462D01*
X0043789Y0011524D01*
X0043640Y0011624D01*
X0043465Y0011659D01*
X0043200D01*
Y0011850D01*
X0041705Y0011850D01*
X0041639Y0011962D01*
X0041705Y0012074D01*
X0043200D01*
Y0012191D01*
X0044127D01*
X0044159Y0012030D01*
X0044270Y0011865D01*
X0044435Y0011754D01*
X0044630Y0011715D01*
X0044825Y0011754D01*
X0044990Y0011865D01*
X0045101Y0012030D01*
X0045133Y0012191D01*
X0045397D01*
X0045429Y0012030D01*
X0045540Y0011865D01*
X0045705Y0011754D01*
X0045900Y0011715D01*
X0046095Y0011754D01*
X0046260Y0011865D01*
X0046371Y0012030D01*
X0046410Y0012225D01*
Y0013075D01*
X0046371Y0013270D01*
X0046260Y0013435D01*
X0046095Y0013546D01*
X0045900Y0013585D01*
X0045705Y0013546D01*
X0045540Y0013435D01*
X0045429Y0013270D01*
X0045397Y0013109D01*
X0045133D01*
X0045101Y0013270D01*
X0044990Y0013435D01*
X0044825Y0013546D01*
X0044630Y0013585D01*
X0044435Y0013546D01*
X0044270Y0013435D01*
X0044159Y0013270D01*
X0044127Y0013109D01*
X0043200D01*
Y0013374D01*
X0041600D01*
Y0013159D01*
X0041300D01*
Y0013374D01*
X0039700D01*
Y0013159D01*
X0030190D01*
X0028890Y0014459D01*
X0028900Y0014495D01*
Y0014705D01*
X0028845Y0014909D01*
X0028740Y0015091D01*
X0028591Y0015240D01*
X0028409Y0015345D01*
X0028205Y0015400D01*
D02*
G37*
G36*
X0062450Y0015750D02*
X0061250D01*
Y0014550D01*
X0062450D01*
Y0015750D01*
D02*
G37*
G36*
X0060750D02*
X0059550D01*
Y0014550D01*
X0060750D01*
Y0015750D01*
D02*
G37*
G36*
X0023925Y0020210D02*
X0023075D01*
X0022880Y0020171D01*
X0022715Y0020060D01*
X0022604Y0019895D01*
X0022565Y0019700D01*
X0022604Y0019505D01*
X0022715Y0019340D01*
X0022880Y0019229D01*
X0023041Y0019197D01*
Y0018874D01*
X0022700D01*
Y0017574D01*
X0024110D01*
X0024154Y0017566D01*
X0024200Y0017406D01*
X0024144Y0017350D01*
X0022700D01*
Y0016050D01*
X0023092D01*
Y0015073D01*
X0023080Y0015071D01*
X0022915Y0014960D01*
X0022804Y0014795D01*
X0022765Y0014600D01*
X0022804Y0014405D01*
X0022819Y0014382D01*
X0022744Y0014303D01*
X0022600Y0014361D01*
Y0015250D01*
X0021850D01*
Y0014300D01*
X0021150D01*
Y0015250D01*
X0020050D01*
Y0014300D01*
X0019350D01*
Y0015250D01*
X0018950D01*
Y0016525D01*
X0017750D01*
Y0015375D01*
Y0014225D01*
X0018600D01*
Y0013525D01*
X0016350D01*
Y0013159D01*
X0015800D01*
X0015624Y0013124D01*
X0015476Y0013024D01*
X0013476Y0011024D01*
X0013376Y0010876D01*
X0013341Y0010700D01*
Y0009290D01*
X0011083Y0007032D01*
X0010983Y0006883D01*
X0010948Y0006707D01*
Y0005657D01*
X0010188D01*
X0010046Y0005629D01*
X0009926Y0005549D01*
X0009846Y0005429D01*
X0009818Y0005287D01*
Y0005093D01*
X0009800Y0004950D01*
X0008200D01*
Y0004944D01*
X0008050Y0004881D01*
X0007991Y0004940D01*
X0007809Y0005045D01*
X0007605Y0005100D01*
X0007395D01*
X0007191Y0005045D01*
X0007009Y0004940D01*
X0006860Y0004791D01*
X0006755Y0004609D01*
X0006700Y0004405D01*
Y0004195D01*
X0006755Y0003991D01*
X0006860Y0003809D01*
X0007009Y0003660D01*
X0007191Y0003555D01*
X0007395Y0003500D01*
X0007605D01*
X0007750Y0003539D01*
X0007900Y0003450D01*
Y0002950D01*
X0010100D01*
Y0003650D01*
X0009950D01*
X0009800Y0003650D01*
Y0003941D01*
X0010641D01*
Y0003655D01*
X0010584Y0003616D01*
X0010517Y0003517D01*
X0010494Y0003400D01*
Y0003300D01*
X0010300D01*
Y0001500D01*
X0011900D01*
Y0003300D01*
X0011706D01*
Y0003400D01*
X0011683Y0003517D01*
X0011616Y0003616D01*
X0011559Y0003655D01*
Y0003943D01*
X0012012D01*
X0012154Y0003971D01*
X0012274Y0004051D01*
X0012354Y0004171D01*
X0012382Y0004312D01*
Y0005287D01*
X0012354Y0005429D01*
X0012274Y0005549D01*
X0012154Y0005629D01*
X0012012Y0005657D01*
X0011866D01*
Y0006517D01*
X0014090Y0008741D01*
X0014227Y0008695D01*
X0014240Y0008686D01*
Y0007650D01*
X0017250D01*
Y0010510D01*
X0015462D01*
X0015146Y0010469D01*
X0014851Y0010347D01*
X0014598Y0010152D01*
X0014409Y0009906D01*
X0014393Y0009905D01*
X0014259Y0009963D01*
Y0010510D01*
X0015990Y0012241D01*
X0016350D01*
Y0011825D01*
X0018650D01*
Y0012241D01*
X0018900D01*
Y0012050D01*
X0020500D01*
Y0012241D01*
X0020700D01*
Y0012050D01*
X0022300D01*
Y0012241D01*
X0023062D01*
X0023080Y0012229D01*
X0023275Y0012190D01*
X0023725D01*
X0023920Y0012229D01*
X0024085Y0012340D01*
X0024196Y0012505D01*
X0024235Y0012700D01*
X0024196Y0012895D01*
X0024148Y0012966D01*
X0024296Y0013079D01*
X0024424Y0013247D01*
X0024487Y0013400D01*
X0023500D01*
Y0013900D01*
X0024487D01*
X0024424Y0014053D01*
X0024296Y0014221D01*
X0024148Y0014334D01*
X0024196Y0014405D01*
X0024235Y0014600D01*
X0024196Y0014795D01*
X0024085Y0014960D01*
X0023920Y0015071D01*
X0023908Y0015073D01*
Y0016050D01*
X0024250D01*
Y0015650D01*
X0025100D01*
Y0016600D01*
X0025350D01*
Y0016850D01*
X0026450D01*
Y0017550D01*
X0026300D01*
X0026150Y0017550D01*
X0026150Y0017700D01*
Y0018850D01*
X0025449D01*
X0024380Y0019919D01*
X0024285Y0020060D01*
X0024120Y0020171D01*
X0023925Y0020210D01*
D02*
G37*
G36*
X0017250Y0015125D02*
X0016050D01*
Y0014225D01*
X0017250D01*
Y0015125D01*
D02*
G37*
G36*
X0056250Y0014950D02*
X0055050D01*
Y0014050D01*
X0056250D01*
Y0014950D01*
D02*
G37*
G36*
X0054550D02*
X0053350D01*
Y0014050D01*
X0054550D01*
Y0014950D01*
D02*
G37*
G36*
X0013150Y0012500D02*
X0012450D01*
Y0011650D01*
X0013150D01*
Y0012500D01*
D02*
G37*
G36*
X0005234Y0012350D02*
X0004050D01*
Y0011166D01*
X0004360Y0011249D01*
X0004690Y0011440D01*
X0004960Y0011710D01*
X0005151Y0012040D01*
X0005234Y0012350D01*
D02*
G37*
G36*
X0003550D02*
X0002366D01*
X0002449Y0012040D01*
X0002640Y0011710D01*
X0002910Y0011440D01*
X0003240Y0011249D01*
X0003550Y0011166D01*
Y0012350D01*
D02*
G37*
G36*
X0051705Y0011500D02*
X0051495D01*
X0051291Y0011445D01*
X0051109Y0011340D01*
X0050960Y0011191D01*
X0050941Y0011159D01*
X0050650D01*
Y0011500D01*
X0049350D01*
Y0009900D01*
X0050650D01*
Y0010241D01*
X0050941D01*
X0050960Y0010209D01*
X0051109Y0010060D01*
X0051141Y0010041D01*
Y0009490D01*
X0049376Y0007724D01*
X0049276Y0007576D01*
X0049241Y0007400D01*
Y0007255D01*
X0049184Y0007216D01*
X0049117Y0007117D01*
X0049094Y0007000D01*
Y0006900D01*
X0048900D01*
Y0006484D01*
X0048632D01*
Y0006537D01*
X0048604Y0006679D01*
X0048524Y0006799D01*
X0048404Y0006879D01*
X0048263Y0006907D01*
X0046438D01*
X0046296Y0006879D01*
X0046176Y0006799D01*
X0046096Y0006679D01*
X0046068Y0006537D01*
Y0005562D01*
X0046096Y0005421D01*
X0046176Y0005301D01*
X0046296Y0005221D01*
X0046438Y0005193D01*
X0048263D01*
X0048404Y0005221D01*
X0048524Y0005301D01*
X0048604Y0005421D01*
X0048632Y0005562D01*
Y0005566D01*
X0048900D01*
Y0005100D01*
X0049241D01*
Y0004900D01*
X0049050D01*
Y0003300D01*
X0050350D01*
X0050350Y0003150D01*
Y0003000D01*
X0051050D01*
Y0004100D01*
X0051300D01*
Y0004350D01*
X0052250D01*
Y0004800D01*
X0053550D01*
Y0005750D01*
X0051350D01*
Y0005200D01*
X0050500D01*
Y0006900D01*
X0050306D01*
Y0007000D01*
X0050283Y0007117D01*
X0050216Y0007216D01*
X0050212Y0007263D01*
X0051924Y0008976D01*
X0052024Y0009124D01*
X0052059Y0009300D01*
Y0010041D01*
X0052091Y0010060D01*
X0052240Y0010209D01*
X0052345Y0010391D01*
X0052400Y0010595D01*
Y0010805D01*
X0052345Y0011009D01*
X0052240Y0011191D01*
X0052091Y0011340D01*
X0051909Y0011445D01*
X0051705Y0011500D01*
D02*
G37*
G36*
X0040250Y0010950D02*
X0039400D01*
Y0010250D01*
X0040250D01*
Y0010950D01*
D02*
G37*
G36*
X0020038Y0010510D02*
X0018250D01*
Y0007650D01*
X0021260D01*
Y0009288D01*
X0021219Y0009604D01*
X0021097Y0009899D01*
X0020902Y0010152D01*
X0020649Y0010347D01*
X0020354Y0010469D01*
X0020038Y0010510D01*
D02*
G37*
G36*
X0003951Y0008750D02*
X0003649D01*
X0003356Y0008672D01*
X0003094Y0008520D01*
X0002880Y0008306D01*
X0002728Y0008044D01*
X0002650Y0007751D01*
Y0007449D01*
X0002728Y0007156D01*
X0002880Y0006894D01*
X0003094Y0006680D01*
X0003356Y0006528D01*
X0003649Y0006450D01*
X0003951D01*
X0004244Y0006528D01*
X0004506Y0006680D01*
X0004720Y0006894D01*
X0004872Y0007156D01*
X0004950Y0007449D01*
Y0007751D01*
X0004872Y0008044D01*
X0004720Y0008306D01*
X0004506Y0008520D01*
X0004244Y0008672D01*
X0003951Y0008750D01*
D02*
G37*
G36*
X0053550Y0007200D02*
X0052700D01*
Y0006250D01*
X0053550D01*
Y0007200D01*
D02*
G37*
G36*
X0052200D02*
X0051350D01*
Y0006250D01*
X0052200D01*
Y0007200D01*
D02*
G37*
G36*
X0042987Y0007060D02*
X0041200D01*
Y0004200D01*
X0044210D01*
Y0005838D01*
X0044169Y0006154D01*
X0044047Y0006449D01*
X0043852Y0006702D01*
X0043599Y0006897D01*
X0043304Y0007019D01*
X0042987Y0007060D01*
D02*
G37*
G36*
X0040200D02*
X0038412D01*
X0038096Y0007019D01*
X0037801Y0006897D01*
X0037548Y0006702D01*
X0037353Y0006449D01*
X0037231Y0006154D01*
X0037190Y0005838D01*
Y0004200D01*
X0040200D01*
Y0007060D01*
D02*
G37*
G36*
X0021260Y0006650D02*
X0018250D01*
Y0003790D01*
X0020038D01*
X0020354Y0003831D01*
X0020649Y0003953D01*
X0020902Y0004148D01*
X0021097Y0004401D01*
X0021219Y0004696D01*
X0021260Y0005012D01*
Y0006650D01*
D02*
G37*
G36*
X0017250D02*
X0014240D01*
Y0005012D01*
X0014281Y0004696D01*
X0014403Y0004401D01*
X0014598Y0004148D01*
X0014851Y0003953D01*
X0015146Y0003831D01*
X0015462Y0003790D01*
X0017250D01*
Y0006650D01*
D02*
G37*
G36*
X0052250Y0003850D02*
X0051550D01*
Y0003000D01*
X0052250D01*
Y0003850D01*
D02*
G37*
G36*
X0061118Y0003740D02*
X0060802D01*
X0060497Y0003658D01*
X0060223Y0003500D01*
X0060000Y0003277D01*
X0059842Y0003003D01*
X0059760Y0002698D01*
X0059620D01*
X0059538Y0003003D01*
X0059380Y0003277D01*
X0059157Y0003500D01*
X0058883Y0003658D01*
X0058578Y0003740D01*
X0058262D01*
X0057957Y0003658D01*
X0057683Y0003500D01*
X0057460Y0003277D01*
X0057302Y0003003D01*
X0057220Y0002698D01*
Y0002382D01*
X0057302Y0002077D01*
X0057460Y0001803D01*
X0057683Y0001580D01*
X0057957Y0001422D01*
X0058262Y0001340D01*
X0058578D01*
X0058883Y0001422D01*
X0059157Y0001580D01*
X0059380Y0001803D01*
X0059538Y0002077D01*
X0059620Y0002382D01*
X0059760D01*
X0059842Y0002077D01*
X0060000Y0001803D01*
X0060223Y0001580D01*
X0060497Y0001422D01*
X0060802Y0001340D01*
X0061118D01*
X0061423Y0001422D01*
X0061697Y0001580D01*
X0061920Y0001803D01*
X0062078Y0002077D01*
X0062160Y0002382D01*
Y0002698D01*
X0062078Y0003003D01*
X0061920Y0003277D01*
X0061697Y0003500D01*
X0061423Y0003658D01*
X0061118Y0003740D01*
D02*
G37*
G36*
X0005238D02*
X0004922D01*
X0004617Y0003658D01*
X0004343Y0003500D01*
X0004120Y0003277D01*
X0003962Y0003003D01*
X0003880Y0002698D01*
X0003740D01*
X0003658Y0003003D01*
X0003500Y0003277D01*
X0003277Y0003500D01*
X0003003Y0003658D01*
X0002698Y0003740D01*
X0002382D01*
X0002077Y0003658D01*
X0001803Y0003500D01*
X0001580Y0003277D01*
X0001422Y0003003D01*
X0001340Y0002698D01*
Y0002382D01*
X0001422Y0002077D01*
X0001580Y0001803D01*
X0001803Y0001580D01*
X0002077Y0001422D01*
X0002382Y0001340D01*
X0002698D01*
X0003003Y0001422D01*
X0003277Y0001580D01*
X0003500Y0001803D01*
X0003658Y0002077D01*
X0003740Y0002382D01*
X0003880D01*
X0003962Y0002077D01*
X0004120Y0001803D01*
X0004343Y0001580D01*
X0004617Y0001422D01*
X0004922Y0001340D01*
X0005238D01*
X0005543Y0001422D01*
X0005817Y0001580D01*
X0006040Y0001803D01*
X0006198Y0002077D01*
X0006280Y0002382D01*
Y0002698D01*
X0006198Y0003003D01*
X0006040Y0003277D01*
X0005817Y0003500D01*
X0005543Y0003658D01*
X0005238Y0003740D01*
D02*
G37*
G36*
X0014950Y0003600D02*
X0014100D01*
Y0002650D01*
X0014950D01*
Y0003600D01*
D02*
G37*
G36*
X0013600D02*
X0012750D01*
Y0002650D01*
X0013600D01*
Y0003600D01*
D02*
G37*
G36*
X0010100Y0002450D02*
X0009250D01*
Y0001750D01*
X0010100D01*
Y0002450D01*
D02*
G37*
G36*
X0008750D02*
X0007900D01*
Y0001750D01*
X0008750D01*
Y0002450D01*
D02*
G37*
G36*
X0053550Y0002500D02*
X0052850D01*
Y0001650D01*
X0053550D01*
Y0002500D01*
D02*
G37*
G36*
X0014950Y0002150D02*
X0014100D01*
Y0001200D01*
X0014950D01*
Y0002150D01*
D02*
G37*
G36*
X0013600D02*
X0012750D01*
Y0001200D01*
X0013600D01*
Y0002150D01*
D02*
G37*
%LPD*%
D13*
X0017400Y0012600D02*
X0017500Y0012700D01*
X0047170Y0012333D02*
Y0012650D01*
X0046985Y0012148D02*
X0047170Y0012333D01*
X0054600Y0018100D02*
X0054600Y0018100D01*
X0029500Y0023500D02*
X0029500Y0023500D01*
X0025690Y0023510D02*
X0025700Y0023500D01*
D35*
X0042400Y0011200D02*
D03*
Y0012724D02*
D03*
X0040500D02*
D03*
Y0011200D02*
D03*
X0023500Y0016700D02*
D03*
Y0018224D02*
D03*
D36*
X0049700Y0004100D02*
D03*
X0051300D02*
D03*
X0051000Y0001400D02*
D03*
X0052600D02*
D03*
X0010600Y0011400D02*
D03*
X0012200D02*
D03*
D37*
X0049700Y0006000D02*
D03*
X0052450D02*
D03*
X0013850Y0002400D02*
D03*
X0011100D02*
D03*
D38*
Y0009400D02*
D03*
Y0004800D02*
D03*
X0047350Y0006050D02*
D03*
Y0001450D02*
D03*
D39*
X0017750Y0007150D02*
D03*
X0040700Y0003700D02*
D03*
D40*
X0025700Y0025100D02*
D03*
Y0023500D02*
D03*
X0027600D02*
D03*
Y0025100D02*
D03*
X0050800Y0016500D02*
D03*
Y0018100D02*
D03*
X0052700Y0016500D02*
D03*
Y0018100D02*
D03*
X0009000Y0002700D02*
D03*
Y0004300D02*
D03*
X0025350Y0016600D02*
D03*
Y0018200D02*
D03*
X0021500Y0014300D02*
D03*
Y0012700D02*
D03*
X0019700Y0014300D02*
D03*
Y0012700D02*
D03*
X0015500Y0018100D02*
D03*
Y0019700D02*
D03*
X0013600D02*
D03*
Y0018100D02*
D03*
D41*
X0029900Y0026375D02*
D03*
Y0023675D02*
D03*
X0011400Y0017000D02*
D03*
Y0019700D02*
D03*
X0054800Y0015200D02*
D03*
Y0017900D02*
D03*
X0017500Y0015375D02*
D03*
Y0012675D02*
D03*
D42*
X0050000Y0010700D02*
D03*
X0048476D02*
D03*
X0045700D02*
D03*
X0047224D02*
D03*
D43*
X0047925Y0021050D02*
D03*
X0042575D02*
D03*
D44*
X0048440Y0018100D02*
D03*
X0047170D02*
D03*
X0045900D02*
D03*
X0044630D02*
D03*
X0048440Y0012650D02*
D03*
X0047170D02*
D03*
X0045900D02*
D03*
X0044630D02*
D03*
D45*
X0026350Y0014600D02*
D03*
Y0013650D02*
D03*
Y0012700D02*
D03*
X0023500D02*
D03*
Y0013650D02*
D03*
Y0014600D02*
D03*
D46*
X0018050Y0023510D02*
D03*
Y0022240D02*
D03*
Y0020970D02*
D03*
Y0019700D02*
D03*
X0023500Y0023510D02*
D03*
Y0022240D02*
D03*
Y0020970D02*
D03*
Y0019700D02*
D03*
D47*
X0024900Y0003600D02*
X0026800Y0001700D01*
X0024900Y0012700D02*
X0025831Y0013631D01*
X0024900Y0003600D02*
Y0012700D01*
X0026331Y0013631D02*
X0026350Y0013650D01*
X0025831Y0013631D02*
X0026331D01*
X0042625Y0014400D02*
X0045900Y0017675D01*
X0025130Y0020970D02*
X0031700Y0014400D01*
X0042625D01*
X0019700Y0012700D02*
X0021500D01*
X0017500D02*
X0019700D01*
X0043465Y0011200D02*
X0043965Y0010700D01*
X0042400Y0011200D02*
X0043465D01*
X0043965Y0010700D02*
X0045700D01*
X0023500Y0020970D02*
X0025130D01*
X0026360Y0022240D02*
X0027200Y0021400D01*
X0023500Y0022240D02*
X0026360D01*
X0027200Y0021400D02*
X0031360D01*
X0031700Y0001700D02*
X0033400Y0003400D01*
X0026800Y0001700D02*
X0031700D01*
X0045900Y0018100D02*
Y0020200D01*
X0045900Y0018100D02*
X0045900Y0018100D01*
X0044630Y0018100D02*
X0044630Y0018100D01*
Y0020170D01*
X0048440Y0009540D02*
Y0012650D01*
X0036200Y0008000D02*
X0046900D01*
X0033400Y0005200D02*
X0036200Y0008000D01*
X0046900D02*
X0048440Y0009540D01*
X0049700Y0004100D02*
Y0006000D01*
X0051600Y0009300D02*
Y0010700D01*
X0049700Y0007400D02*
X0051600Y0009300D01*
X0049700Y0006000D02*
Y0007400D01*
X0047375Y0006025D02*
X0049675D01*
X0049700Y0006000D01*
X0047350Y0006050D02*
X0047375Y0006025D01*
X0007500Y0004300D02*
X0009000D01*
X0049500Y0001400D02*
X0051000D01*
X0047375Y0001425D02*
X0049475D01*
X0047350Y0001450D02*
X0047375Y0001425D01*
X0049475D02*
X0049500Y0001400D01*
X0033400Y0003400D02*
Y0005200D01*
X0028400Y0003400D02*
X0033955Y0008955D01*
X0046555D01*
X0026350Y0005450D02*
X0028400Y0003400D01*
X0035330Y0017430D02*
X0037170D01*
X0031360Y0021400D02*
X0035330Y0017430D01*
X0031360Y0021400D02*
X0034660Y0024700D01*
X0047057Y0009457D02*
Y0010557D01*
X0046555Y0008955D02*
X0047057Y0009457D01*
Y0010557D02*
X0047200Y0010700D01*
Y0012620D01*
X0020900Y0024600D02*
X0021990Y0023510D01*
X0005800Y0024600D02*
X0020900D01*
X0003800Y0022600D02*
X0005800Y0024600D01*
X0002000Y0020800D02*
X0003800Y0022600D01*
X0002000Y0016400D02*
X0004000Y0014400D01*
X0008500D01*
X0002000Y0016400D02*
Y0020800D01*
X0008800Y0014400D02*
X0010600Y0012600D01*
X0008500Y0014400D02*
X0008800D01*
X0010600Y0009800D02*
Y0012600D01*
X0008500Y0014400D02*
X0008500Y0014400D01*
X0010600Y0009800D02*
X0011000Y0009400D01*
X0011100D01*
X0011407Y0005107D02*
Y0006707D01*
X0013800Y0009100D02*
Y0010700D01*
X0011407Y0006707D02*
X0013800Y0009100D01*
X0011100Y0004800D02*
X0011407Y0005107D01*
X0011100Y0002400D02*
Y0004800D01*
X0013800Y0010700D02*
X0015800Y0012700D01*
X0010700Y0004400D02*
X0011100Y0004800D01*
X0009300Y0004400D02*
X0010700D01*
X0023950Y0019700D02*
X0025350Y0018300D01*
X0025500D01*
X0023500Y0019700D02*
X0023950D01*
X0050000Y0010700D02*
X0051600D01*
X0026350Y0005450D02*
Y0012700D01*
X0030000D02*
X0042400D01*
X0028100Y0014600D02*
X0030000Y0012700D01*
X0044630Y0012650D02*
X0045900D01*
Y0017675D02*
Y0018100D01*
X0043750Y0021050D02*
X0044630Y0020170D01*
X0042575Y0021050D02*
X0043750D01*
X0045900Y0020200D02*
X0046750Y0021050D01*
X0047925D01*
X0042450Y0012650D02*
X0044630D01*
X0015800Y0012700D02*
X0017400D01*
X0026350Y0014600D02*
X0028100D01*
X0054600Y0018100D02*
Y0019500D01*
X0021990Y0023510D02*
X0023500D01*
X0027600Y0023500D02*
X0029500D01*
X0025700D02*
X0027600D01*
X0023500Y0023510D02*
X0025690D01*
X0003800Y0017600D02*
X0005900Y0019700D01*
X0011500D01*
X0013500D01*
X0015500D01*
X0018050D01*
X0021500Y0012700D02*
X0023500D01*
X0048540Y0018100D02*
X0050800D01*
X0052700D01*
X0054600D01*
X0023500Y0018224D02*
Y0019700D01*
D48*
X0047925Y0021050D02*
X0061000D01*
X0036060Y0018700D02*
X0038410Y0021050D01*
X0042575D01*
X0036030Y0023430D02*
X0038410Y0021050D01*
D49*
X0023500Y0014600D02*
Y0016700D01*
D50*
X0049700Y0006800D02*
D03*
X0011100Y0003200D02*
D03*
D51*
X0035930Y0023430D02*
D03*
Y0025970D02*
D03*
X0034660Y0024700D02*
D03*
X0037170Y0017430D02*
D03*
X0035900Y0016160D02*
D03*
Y0018700D02*
D03*
D52*
X0061000Y0021000D02*
D03*
X0033400Y0003400D02*
D03*
X0003800Y0017600D02*
D03*
Y0012600D02*
D03*
Y0007600D02*
D03*
D53*
X0061000Y0016000D02*
D03*
X0003800Y0022600D02*
D03*
D54*
X0028400Y0003400D02*
D03*
D55*
X0039300Y0002100D02*
D03*
X0042400D02*
D03*
X0007500Y0004300D02*
D03*
X0049500Y0001400D02*
D03*
X0042400Y0005200D02*
D03*
X0039300D02*
D03*
X0016100Y0005500D02*
D03*
X0019200D02*
D03*
X0016100Y0008100D02*
D03*
X0019200D02*
D03*
X0044100Y0010700D02*
D03*
X0051600D02*
D03*
X0028100Y0014600D02*
D03*
X0054600Y0019500D02*
D03*
D56*
X0060960Y0002540D02*
D03*
X0058420D02*
D03*
Y0028080D02*
D03*
X0060960D02*
D03*
X0005080D02*
D03*
X0002540D02*
D03*
X0005080Y0002540D02*
D03*
X0002540D02*
D03*
M02*
