G04*
G04 #@! TF.GenerationSoftware,Altium Limited,Altium Designer,24.6.1 (21)*
G04*
G04 Layer_Physical_Order=2*
G04 Layer_Color=16711680*
%FSAX43Y43*%
%MOMM*%
G71*
G04*
G04 #@! TF.SameCoordinates,67DF9111-2897-4826-B50C-3AFFA42C07FF*
G04*
G04*
G04 #@! TF.FilePolarity,Positive*
G04*
G01*
G75*
%ADD47C,0.500*%
%ADD51O,1.400X1.200*%
%ADD52C,1.900*%
%ADD53R,1.900X1.900*%
%ADD54R,1.900X1.900*%
%ADD55C,1.000*%
%ADD56C,1.800*%
G36*
X0064100Y0000400D02*
X0044461D01*
X0044399Y0000550D01*
X0044790Y0000941D01*
X0048841D01*
X0048860Y0000909D01*
X0049009Y0000760D01*
X0049191Y0000655D01*
X0049395Y0000600D01*
X0049605D01*
X0049809Y0000655D01*
X0049991Y0000760D01*
X0050140Y0000909D01*
X0050159Y0000941D01*
X0052200D01*
X0052376Y0000976D01*
X0052524Y0001076D01*
X0054924Y0003476D01*
X0055024Y0003624D01*
X0055059Y0003800D01*
Y0018841D01*
X0055091Y0018860D01*
X0055240Y0019009D01*
X0055345Y0019191D01*
X0055400Y0019395D01*
Y0019605D01*
X0055345Y0019809D01*
X0055240Y0019991D01*
X0055091Y0020140D01*
X0055059Y0020159D01*
Y0022300D01*
X0055024Y0022476D01*
X0054924Y0022624D01*
X0051224Y0026324D01*
X0051076Y0026424D01*
X0050900Y0026459D01*
X0036663D01*
X0036601Y0026541D01*
X0036433Y0026669D01*
X0036239Y0026749D01*
X0036030Y0026777D01*
X0035830D01*
X0035621Y0026749D01*
X0035427Y0026669D01*
X0035259Y0026541D01*
X0035131Y0026373D01*
X0035051Y0026179D01*
X0035023Y0025970D01*
X0035051Y0025761D01*
X0035127Y0025576D01*
X0035112Y0025546D01*
X0035028Y0025455D01*
X0034969Y0025479D01*
X0034760Y0025507D01*
X0034560D01*
X0034351Y0025479D01*
X0034157Y0025399D01*
X0033989Y0025271D01*
X0033861Y0025103D01*
X0033781Y0024909D01*
X0033753Y0024700D01*
X0033781Y0024491D01*
X0033861Y0024297D01*
X0033989Y0024129D01*
X0034157Y0024001D01*
X0034351Y0023921D01*
X0034560Y0023893D01*
X0034760D01*
X0034969Y0023921D01*
X0035028Y0023945D01*
X0035112Y0023854D01*
X0035127Y0023824D01*
X0035051Y0023639D01*
X0035023Y0023430D01*
X0035051Y0023221D01*
X0035131Y0023027D01*
X0035259Y0022859D01*
X0035427Y0022731D01*
X0035621Y0022651D01*
X0035830Y0022623D01*
X0036030D01*
X0036239Y0022651D01*
X0036433Y0022731D01*
X0036601Y0022859D01*
X0036729Y0023027D01*
X0036809Y0023221D01*
X0036837Y0023430D01*
X0036809Y0023639D01*
X0036729Y0023833D01*
X0036601Y0024001D01*
X0036433Y0024129D01*
X0036239Y0024209D01*
X0036030Y0024237D01*
X0035830D01*
X0035621Y0024209D01*
X0035562Y0024185D01*
X0035478Y0024276D01*
X0035463Y0024306D01*
X0035539Y0024491D01*
X0035567Y0024700D01*
X0035539Y0024909D01*
X0035463Y0025094D01*
X0035478Y0025124D01*
X0035562Y0025215D01*
X0035621Y0025191D01*
X0035830Y0025163D01*
X0036030D01*
X0036239Y0025191D01*
X0036433Y0025271D01*
X0036601Y0025399D01*
X0036709Y0025541D01*
X0050710D01*
X0054141Y0022110D01*
Y0020159D01*
X0054109Y0020140D01*
X0053960Y0019991D01*
X0053855Y0019809D01*
X0053800Y0019605D01*
Y0019395D01*
X0053855Y0019191D01*
X0053960Y0019009D01*
X0054109Y0018860D01*
X0054141Y0018841D01*
Y0003990D01*
X0052010Y0001859D01*
X0050159D01*
X0050140Y0001891D01*
X0049991Y0002040D01*
X0049809Y0002145D01*
X0049605Y0002200D01*
X0049395D01*
X0049191Y0002145D01*
X0049009Y0002040D01*
X0048860Y0001891D01*
X0048841Y0001859D01*
X0044600D01*
X0044424Y0001824D01*
X0044276Y0001724D01*
X0043810Y0001259D01*
X0043185D01*
X0043123Y0001409D01*
X0043200Y0001486D01*
X0043332Y0001714D01*
X0043368Y0001850D01*
X0041432D01*
X0041468Y0001714D01*
X0041600Y0001486D01*
X0041677Y0001409D01*
X0041615Y0001259D01*
X0040085D01*
X0040023Y0001409D01*
X0040100Y0001486D01*
X0040232Y0001714D01*
X0040268Y0001850D01*
X0038332D01*
X0038368Y0001714D01*
X0038500Y0001486D01*
X0038577Y0001409D01*
X0038515Y0001259D01*
X0011190D01*
X0008290Y0004159D01*
X0008300Y0004195D01*
Y0004405D01*
X0008245Y0004609D01*
X0008140Y0004791D01*
X0007991Y0004940D01*
X0007809Y0005045D01*
X0007605Y0005100D01*
X0007395D01*
X0007191Y0005045D01*
X0007009Y0004940D01*
X0006860Y0004791D01*
X0006755Y0004609D01*
X0006700Y0004405D01*
Y0004195D01*
X0006755Y0003991D01*
X0006860Y0003809D01*
X0007009Y0003660D01*
X0007191Y0003555D01*
X0007395Y0003500D01*
X0007605D01*
X0007641Y0003510D01*
X0010601Y0000550D01*
X0010539Y0000400D01*
X0000400D01*
Y0030100D01*
X0064100D01*
Y0000400D01*
D02*
G37*
%LPC*%
G36*
X0061118Y0029280D02*
X0060802D01*
X0060497Y0029198D01*
X0060223Y0029040D01*
X0060000Y0028817D01*
X0059842Y0028543D01*
X0059760Y0028238D01*
X0059620D01*
X0059538Y0028543D01*
X0059380Y0028817D01*
X0059157Y0029040D01*
X0058883Y0029198D01*
X0058578Y0029280D01*
X0058262D01*
X0057957Y0029198D01*
X0057683Y0029040D01*
X0057460Y0028817D01*
X0057302Y0028543D01*
X0057220Y0028238D01*
Y0027922D01*
X0057302Y0027617D01*
X0057460Y0027343D01*
X0057683Y0027120D01*
X0057957Y0026962D01*
X0058262Y0026880D01*
X0058578D01*
X0058883Y0026962D01*
X0059157Y0027120D01*
X0059380Y0027343D01*
X0059538Y0027617D01*
X0059620Y0027922D01*
X0059760D01*
X0059842Y0027617D01*
X0060000Y0027343D01*
X0060223Y0027120D01*
X0060497Y0026962D01*
X0060802Y0026880D01*
X0061118D01*
X0061423Y0026962D01*
X0061697Y0027120D01*
X0061920Y0027343D01*
X0062078Y0027617D01*
X0062160Y0027922D01*
Y0028238D01*
X0062078Y0028543D01*
X0061920Y0028817D01*
X0061697Y0029040D01*
X0061423Y0029198D01*
X0061118Y0029280D01*
D02*
G37*
G36*
X0005238D02*
X0004922D01*
X0004617Y0029198D01*
X0004343Y0029040D01*
X0004120Y0028817D01*
X0003962Y0028543D01*
X0003880Y0028238D01*
X0003740D01*
X0003658Y0028543D01*
X0003500Y0028817D01*
X0003277Y0029040D01*
X0003003Y0029198D01*
X0002698Y0029280D01*
X0002382D01*
X0002077Y0029198D01*
X0001803Y0029040D01*
X0001580Y0028817D01*
X0001422Y0028543D01*
X0001340Y0028238D01*
Y0027922D01*
X0001422Y0027617D01*
X0001580Y0027343D01*
X0001803Y0027120D01*
X0002077Y0026962D01*
X0002382Y0026880D01*
X0002698D01*
X0003003Y0026962D01*
X0003277Y0027120D01*
X0003500Y0027343D01*
X0003658Y0027617D01*
X0003740Y0027922D01*
X0003880D01*
X0003962Y0027617D01*
X0004120Y0027343D01*
X0004343Y0027120D01*
X0004617Y0026962D01*
X0004922Y0026880D01*
X0005238D01*
X0005543Y0026962D01*
X0005817Y0027120D01*
X0006040Y0027343D01*
X0006198Y0027617D01*
X0006280Y0027922D01*
Y0028238D01*
X0006198Y0028543D01*
X0006040Y0028817D01*
X0005817Y0029040D01*
X0005543Y0029198D01*
X0005238Y0029280D01*
D02*
G37*
G36*
X0004950Y0023750D02*
X0002650D01*
Y0021450D01*
X0004950D01*
Y0023750D01*
D02*
G37*
G36*
X0061151Y0022150D02*
X0060849D01*
X0060556Y0022072D01*
X0060294Y0021920D01*
X0060080Y0021706D01*
X0059928Y0021444D01*
X0059850Y0021151D01*
Y0020849D01*
X0059928Y0020556D01*
X0060080Y0020294D01*
X0060294Y0020080D01*
X0060556Y0019928D01*
X0060849Y0019850D01*
X0061151D01*
X0061444Y0019928D01*
X0061706Y0020080D01*
X0061920Y0020294D01*
X0062072Y0020556D01*
X0062150Y0020849D01*
Y0021151D01*
X0062072Y0021444D01*
X0061920Y0021706D01*
X0061706Y0021920D01*
X0061444Y0022072D01*
X0061151Y0022150D01*
D02*
G37*
G36*
X0003951Y0018750D02*
X0003649D01*
X0003356Y0018672D01*
X0003094Y0018520D01*
X0002880Y0018306D01*
X0002728Y0018044D01*
X0002650Y0017751D01*
Y0017449D01*
X0002728Y0017156D01*
X0002880Y0016894D01*
X0003094Y0016680D01*
X0003356Y0016528D01*
X0003649Y0016450D01*
X0003951D01*
X0004244Y0016528D01*
X0004506Y0016680D01*
X0004720Y0016894D01*
X0004872Y0017156D01*
X0004950Y0017449D01*
Y0017751D01*
X0004872Y0018044D01*
X0004720Y0018306D01*
X0004506Y0018520D01*
X0004244Y0018672D01*
X0003951Y0018750D01*
D02*
G37*
G36*
X0036000Y0019507D02*
X0035800D01*
X0035591Y0019479D01*
X0035397Y0019399D01*
X0035229Y0019271D01*
X0035101Y0019103D01*
X0035021Y0018909D01*
X0034993Y0018700D01*
X0035021Y0018491D01*
X0035101Y0018297D01*
X0035229Y0018129D01*
X0035397Y0018001D01*
X0035591Y0017921D01*
X0035800Y0017893D01*
X0036000D01*
X0036209Y0017921D01*
X0036268Y0017945D01*
X0036352Y0017854D01*
X0036367Y0017824D01*
X0036291Y0017639D01*
X0036263Y0017430D01*
X0036269Y0017385D01*
X0036150Y0017266D01*
Y0016410D01*
X0037077D01*
X0037072Y0016447D01*
X0037059Y0016478D01*
X0037161Y0016623D01*
X0037270D01*
X0037479Y0016651D01*
X0037673Y0016731D01*
X0037841Y0016859D01*
X0037969Y0017027D01*
X0038049Y0017221D01*
X0038077Y0017430D01*
X0038049Y0017639D01*
X0037969Y0017833D01*
X0037841Y0018001D01*
X0037673Y0018129D01*
X0037479Y0018209D01*
X0037270Y0018237D01*
X0037070D01*
X0036861Y0018209D01*
X0036802Y0018185D01*
X0036718Y0018276D01*
X0036703Y0018306D01*
X0036779Y0018491D01*
X0036807Y0018700D01*
X0036779Y0018909D01*
X0036699Y0019103D01*
X0036571Y0019271D01*
X0036403Y0019399D01*
X0036209Y0019479D01*
X0036000Y0019507D01*
D02*
G37*
G36*
X0035650Y0017250D02*
X0035513Y0017232D01*
X0035245Y0017121D01*
X0035015Y0016945D01*
X0034839Y0016715D01*
X0034728Y0016447D01*
X0034723Y0016410D01*
X0035650D01*
Y0017250D01*
D02*
G37*
G36*
X0062450Y0017450D02*
X0061250D01*
Y0016250D01*
X0062450D01*
Y0017450D01*
D02*
G37*
G36*
X0060750D02*
X0059550D01*
Y0016250D01*
X0060750D01*
Y0017450D01*
D02*
G37*
G36*
X0037077Y0015910D02*
X0036150D01*
Y0015070D01*
X0036287Y0015088D01*
X0036555Y0015199D01*
X0036785Y0015375D01*
X0036961Y0015605D01*
X0037072Y0015873D01*
X0037077Y0015910D01*
D02*
G37*
G36*
X0035650D02*
X0034723D01*
X0034728Y0015873D01*
X0034839Y0015605D01*
X0035015Y0015375D01*
X0035245Y0015199D01*
X0035513Y0015088D01*
X0035650Y0015070D01*
Y0015910D01*
D02*
G37*
G36*
X0062450Y0015750D02*
X0061250D01*
Y0014550D01*
X0062450D01*
Y0015750D01*
D02*
G37*
G36*
X0060750D02*
X0059550D01*
Y0014550D01*
X0060750D01*
Y0015750D01*
D02*
G37*
G36*
X0004050Y0014034D02*
Y0012850D01*
X0005234D01*
X0005151Y0013160D01*
X0004960Y0013490D01*
X0004690Y0013760D01*
X0004360Y0013951D01*
X0004050Y0014034D01*
D02*
G37*
G36*
X0003550D02*
X0003240Y0013951D01*
X0002910Y0013760D01*
X0002640Y0013490D01*
X0002449Y0013160D01*
X0002366Y0012850D01*
X0003550D01*
Y0014034D01*
D02*
G37*
G36*
X0005234Y0012350D02*
X0004050D01*
Y0011166D01*
X0004360Y0011249D01*
X0004690Y0011440D01*
X0004960Y0011710D01*
X0005151Y0012040D01*
X0005234Y0012350D01*
D02*
G37*
G36*
X0003550D02*
X0002366D01*
X0002449Y0012040D01*
X0002640Y0011710D01*
X0002910Y0011440D01*
X0003240Y0011249D01*
X0003550Y0011166D01*
Y0012350D01*
D02*
G37*
G36*
X0051705Y0011500D02*
X0051495D01*
X0051291Y0011445D01*
X0051109Y0011340D01*
X0050960Y0011191D01*
X0050941Y0011159D01*
X0044759D01*
X0044740Y0011191D01*
X0044591Y0011340D01*
X0044409Y0011445D01*
X0044205Y0011500D01*
X0043995D01*
X0043791Y0011445D01*
X0043609Y0011340D01*
X0043460Y0011191D01*
X0043355Y0011009D01*
X0043300Y0010805D01*
Y0010595D01*
X0043355Y0010391D01*
X0043460Y0010209D01*
X0043609Y0010060D01*
X0043791Y0009955D01*
X0043995Y0009900D01*
X0044205D01*
X0044409Y0009955D01*
X0044591Y0010060D01*
X0044740Y0010209D01*
X0044759Y0010241D01*
X0050941D01*
X0050960Y0010209D01*
X0051109Y0010060D01*
X0051291Y0009955D01*
X0051495Y0009900D01*
X0051705D01*
X0051909Y0009955D01*
X0052091Y0010060D01*
X0052240Y0010209D01*
X0052345Y0010391D01*
X0052400Y0010595D01*
Y0010805D01*
X0052345Y0011009D01*
X0052240Y0011191D01*
X0052091Y0011340D01*
X0051909Y0011445D01*
X0051705Y0011500D01*
D02*
G37*
G36*
X0028205Y0015400D02*
X0027995D01*
X0027791Y0015345D01*
X0027609Y0015240D01*
X0027460Y0015091D01*
X0027355Y0014909D01*
X0027300Y0014705D01*
Y0014495D01*
X0027355Y0014291D01*
X0027460Y0014109D01*
X0027609Y0013960D01*
X0027641Y0013941D01*
Y0011390D01*
X0026910Y0010659D01*
X0006400D01*
X0006224Y0010624D01*
X0006076Y0010524D01*
X0004227Y0008676D01*
X0003951Y0008750D01*
X0003649D01*
X0003356Y0008672D01*
X0003094Y0008520D01*
X0002880Y0008306D01*
X0002728Y0008044D01*
X0002650Y0007751D01*
Y0007449D01*
X0002728Y0007156D01*
X0002880Y0006894D01*
X0003094Y0006680D01*
X0003356Y0006528D01*
X0003649Y0006450D01*
X0003951D01*
X0004244Y0006528D01*
X0004506Y0006680D01*
X0004720Y0006894D01*
X0004872Y0007156D01*
X0004950Y0007449D01*
Y0007751D01*
X0004876Y0008027D01*
X0006590Y0009741D01*
X0027100D01*
X0027276Y0009776D01*
X0027424Y0009876D01*
X0028424Y0010876D01*
X0028524Y0011024D01*
X0028559Y0011200D01*
Y0013941D01*
X0028591Y0013960D01*
X0028740Y0014109D01*
X0028845Y0014291D01*
X0028900Y0014495D01*
Y0014705D01*
X0028845Y0014909D01*
X0028740Y0015091D01*
X0028591Y0015240D01*
X0028409Y0015345D01*
X0028205Y0015400D01*
D02*
G37*
G36*
X0019450Y0009068D02*
Y0008350D01*
X0020168D01*
X0020132Y0008486D01*
X0020000Y0008714D01*
X0019814Y0008900D01*
X0019586Y0009032D01*
X0019450Y0009068D01*
D02*
G37*
G36*
X0018950D02*
X0018814Y0009032D01*
X0018586Y0008900D01*
X0018400Y0008714D01*
X0018268Y0008486D01*
X0018232Y0008350D01*
X0018950D01*
Y0009068D01*
D02*
G37*
G36*
X0016350D02*
Y0008350D01*
X0017068D01*
X0017032Y0008486D01*
X0016900Y0008714D01*
X0016714Y0008900D01*
X0016486Y0009032D01*
X0016350Y0009068D01*
D02*
G37*
G36*
X0015850D02*
X0015714Y0009032D01*
X0015486Y0008900D01*
X0015300Y0008714D01*
X0015168Y0008486D01*
X0015132Y0008350D01*
X0015850D01*
Y0009068D01*
D02*
G37*
G36*
X0020168Y0007850D02*
X0019450D01*
Y0007132D01*
X0019586Y0007168D01*
X0019814Y0007300D01*
X0020000Y0007486D01*
X0020132Y0007714D01*
X0020168Y0007850D01*
D02*
G37*
G36*
X0018950D02*
X0018232D01*
X0018268Y0007714D01*
X0018400Y0007486D01*
X0018586Y0007300D01*
X0018814Y0007168D01*
X0018950Y0007132D01*
Y0007850D01*
D02*
G37*
G36*
X0017068D02*
X0016350D01*
Y0007132D01*
X0016486Y0007168D01*
X0016714Y0007300D01*
X0016900Y0007486D01*
X0017032Y0007714D01*
X0017068Y0007850D01*
D02*
G37*
G36*
X0015850D02*
X0015132D01*
X0015168Y0007714D01*
X0015300Y0007486D01*
X0015486Y0007300D01*
X0015714Y0007168D01*
X0015850Y0007132D01*
Y0007850D01*
D02*
G37*
G36*
X0019450Y0006468D02*
Y0005750D01*
X0020168D01*
X0020132Y0005886D01*
X0020000Y0006114D01*
X0019814Y0006300D01*
X0019586Y0006432D01*
X0019450Y0006468D01*
D02*
G37*
G36*
X0018950D02*
X0018814Y0006432D01*
X0018586Y0006300D01*
X0018400Y0006114D01*
X0018268Y0005886D01*
X0018232Y0005750D01*
X0018950D01*
Y0006468D01*
D02*
G37*
G36*
X0016350D02*
Y0005750D01*
X0017068D01*
X0017032Y0005886D01*
X0016900Y0006114D01*
X0016714Y0006300D01*
X0016486Y0006432D01*
X0016350Y0006468D01*
D02*
G37*
G36*
X0015850D02*
X0015714Y0006432D01*
X0015486Y0006300D01*
X0015300Y0006114D01*
X0015168Y0005886D01*
X0015132Y0005750D01*
X0015850D01*
Y0006468D01*
D02*
G37*
G36*
X0042650Y0006168D02*
Y0005450D01*
X0043368D01*
X0043332Y0005586D01*
X0043200Y0005814D01*
X0043014Y0006000D01*
X0042786Y0006132D01*
X0042650Y0006168D01*
D02*
G37*
G36*
X0042150D02*
X0042014Y0006132D01*
X0041786Y0006000D01*
X0041600Y0005814D01*
X0041468Y0005586D01*
X0041432Y0005450D01*
X0042150D01*
Y0006168D01*
D02*
G37*
G36*
X0039550D02*
Y0005450D01*
X0040268D01*
X0040232Y0005586D01*
X0040100Y0005814D01*
X0039914Y0006000D01*
X0039686Y0006132D01*
X0039550Y0006168D01*
D02*
G37*
G36*
X0039050D02*
X0038914Y0006132D01*
X0038686Y0006000D01*
X0038500Y0005814D01*
X0038368Y0005586D01*
X0038332Y0005450D01*
X0039050D01*
Y0006168D01*
D02*
G37*
G36*
X0020168Y0005250D02*
X0019450D01*
Y0004532D01*
X0019586Y0004568D01*
X0019814Y0004700D01*
X0020000Y0004886D01*
X0020132Y0005114D01*
X0020168Y0005250D01*
D02*
G37*
G36*
X0018950D02*
X0018232D01*
X0018268Y0005114D01*
X0018400Y0004886D01*
X0018586Y0004700D01*
X0018814Y0004568D01*
X0018950Y0004532D01*
Y0005250D01*
D02*
G37*
G36*
X0017068D02*
X0016350D01*
Y0004532D01*
X0016486Y0004568D01*
X0016714Y0004700D01*
X0016900Y0004886D01*
X0017032Y0005114D01*
X0017068Y0005250D01*
D02*
G37*
G36*
X0015850D02*
X0015132D01*
X0015168Y0005114D01*
X0015300Y0004886D01*
X0015486Y0004700D01*
X0015714Y0004568D01*
X0015850Y0004532D01*
Y0005250D01*
D02*
G37*
G36*
X0043368Y0004950D02*
X0042650D01*
Y0004232D01*
X0042786Y0004268D01*
X0043014Y0004400D01*
X0043200Y0004586D01*
X0043332Y0004814D01*
X0043368Y0004950D01*
D02*
G37*
G36*
X0042150D02*
X0041432D01*
X0041468Y0004814D01*
X0041600Y0004586D01*
X0041786Y0004400D01*
X0042014Y0004268D01*
X0042150Y0004232D01*
Y0004950D01*
D02*
G37*
G36*
X0040268D02*
X0039550D01*
Y0004232D01*
X0039686Y0004268D01*
X0039914Y0004400D01*
X0040100Y0004586D01*
X0040232Y0004814D01*
X0040268Y0004950D01*
D02*
G37*
G36*
X0039050D02*
X0038332D01*
X0038368Y0004814D01*
X0038500Y0004586D01*
X0038686Y0004400D01*
X0038914Y0004268D01*
X0039050Y0004232D01*
Y0004950D01*
D02*
G37*
G36*
X0061118Y0003740D02*
X0060802D01*
X0060497Y0003658D01*
X0060223Y0003500D01*
X0060000Y0003277D01*
X0059842Y0003003D01*
X0059760Y0002698D01*
X0059620D01*
X0059538Y0003003D01*
X0059380Y0003277D01*
X0059157Y0003500D01*
X0058883Y0003658D01*
X0058578Y0003740D01*
X0058262D01*
X0057957Y0003658D01*
X0057683Y0003500D01*
X0057460Y0003277D01*
X0057302Y0003003D01*
X0057220Y0002698D01*
Y0002382D01*
X0057302Y0002077D01*
X0057460Y0001803D01*
X0057683Y0001580D01*
X0057957Y0001422D01*
X0058262Y0001340D01*
X0058578D01*
X0058883Y0001422D01*
X0059157Y0001580D01*
X0059380Y0001803D01*
X0059538Y0002077D01*
X0059620Y0002382D01*
X0059760D01*
X0059842Y0002077D01*
X0060000Y0001803D01*
X0060223Y0001580D01*
X0060497Y0001422D01*
X0060802Y0001340D01*
X0061118D01*
X0061423Y0001422D01*
X0061697Y0001580D01*
X0061920Y0001803D01*
X0062078Y0002077D01*
X0062160Y0002382D01*
Y0002698D01*
X0062078Y0003003D01*
X0061920Y0003277D01*
X0061697Y0003500D01*
X0061423Y0003658D01*
X0061118Y0003740D01*
D02*
G37*
G36*
X0005238D02*
X0004922D01*
X0004617Y0003658D01*
X0004343Y0003500D01*
X0004120Y0003277D01*
X0003962Y0003003D01*
X0003880Y0002698D01*
X0003740D01*
X0003658Y0003003D01*
X0003500Y0003277D01*
X0003277Y0003500D01*
X0003003Y0003658D01*
X0002698Y0003740D01*
X0002382D01*
X0002077Y0003658D01*
X0001803Y0003500D01*
X0001580Y0003277D01*
X0001422Y0003003D01*
X0001340Y0002698D01*
Y0002382D01*
X0001422Y0002077D01*
X0001580Y0001803D01*
X0001803Y0001580D01*
X0002077Y0001422D01*
X0002382Y0001340D01*
X0002698D01*
X0003003Y0001422D01*
X0003277Y0001580D01*
X0003500Y0001803D01*
X0003658Y0002077D01*
X0003740Y0002382D01*
X0003880D01*
X0003962Y0002077D01*
X0004120Y0001803D01*
X0004343Y0001580D01*
X0004617Y0001422D01*
X0004922Y0001340D01*
X0005238D01*
X0005543Y0001422D01*
X0005817Y0001580D01*
X0006040Y0001803D01*
X0006198Y0002077D01*
X0006280Y0002382D01*
Y0002698D01*
X0006198Y0003003D01*
X0006040Y0003277D01*
X0005817Y0003500D01*
X0005543Y0003658D01*
X0005238Y0003740D01*
D02*
G37*
G36*
X0042650Y0003068D02*
Y0002350D01*
X0043368D01*
X0043332Y0002486D01*
X0043200Y0002714D01*
X0043014Y0002900D01*
X0042786Y0003032D01*
X0042650Y0003068D01*
D02*
G37*
G36*
X0042150D02*
X0042014Y0003032D01*
X0041786Y0002900D01*
X0041600Y0002714D01*
X0041468Y0002486D01*
X0041432Y0002350D01*
X0042150D01*
Y0003068D01*
D02*
G37*
G36*
X0039550D02*
Y0002350D01*
X0040268D01*
X0040232Y0002486D01*
X0040100Y0002714D01*
X0039914Y0002900D01*
X0039686Y0003032D01*
X0039550Y0003068D01*
D02*
G37*
G36*
X0039050D02*
X0038914Y0003032D01*
X0038686Y0002900D01*
X0038500Y0002714D01*
X0038368Y0002486D01*
X0038332Y0002350D01*
X0039050D01*
Y0003068D01*
D02*
G37*
G36*
X0033551Y0004550D02*
X0033249D01*
X0032956Y0004472D01*
X0032694Y0004320D01*
X0032480Y0004106D01*
X0032328Y0003844D01*
X0032250Y0003551D01*
Y0003249D01*
X0032328Y0002956D01*
X0032480Y0002694D01*
X0032694Y0002480D01*
X0032956Y0002328D01*
X0033249Y0002250D01*
X0033551D01*
X0033844Y0002328D01*
X0034106Y0002480D01*
X0034320Y0002694D01*
X0034472Y0002956D01*
X0034550Y0003249D01*
Y0003551D01*
X0034472Y0003844D01*
X0034320Y0004106D01*
X0034106Y0004320D01*
X0033844Y0004472D01*
X0033551Y0004550D01*
D02*
G37*
G36*
X0029550D02*
X0027250D01*
Y0002250D01*
X0029550D01*
Y0004550D01*
D02*
G37*
%LPD*%
D47*
X0036027Y0026000D02*
X0050900D01*
X0054600Y0019500D02*
Y0022300D01*
X0050900Y0026000D02*
X0054600Y0022300D01*
Y0003800D02*
Y0019500D01*
X0044000Y0000800D02*
X0044600Y0001400D01*
X0007500Y0004300D02*
X0011000Y0000800D01*
X0044000D01*
X0044600Y0001400D02*
X0049500D01*
X0052200D02*
X0054600Y0003800D01*
X0049500Y0001400D02*
X0052200D01*
X0006400Y0010200D02*
X0027100D01*
X0028100Y0011200D02*
Y0014600D01*
X0027100Y0010200D02*
X0028100Y0011200D01*
X0003800Y0007600D02*
X0006400Y0010200D01*
X0044100Y0010700D02*
X0051600D01*
D51*
X0035930Y0023430D02*
D03*
Y0025970D02*
D03*
X0034660Y0024700D02*
D03*
X0037170Y0017430D02*
D03*
X0035900Y0016160D02*
D03*
Y0018700D02*
D03*
D52*
X0061000Y0021000D02*
D03*
X0033400Y0003400D02*
D03*
X0003800Y0017600D02*
D03*
Y0012600D02*
D03*
Y0007600D02*
D03*
D53*
X0061000Y0016000D02*
D03*
X0003800Y0022600D02*
D03*
D54*
X0028400Y0003400D02*
D03*
D55*
X0039300Y0002100D02*
D03*
X0042400D02*
D03*
X0007500Y0004300D02*
D03*
X0049500Y0001400D02*
D03*
X0042400Y0005200D02*
D03*
X0039300D02*
D03*
X0016100Y0005500D02*
D03*
X0019200D02*
D03*
X0016100Y0008100D02*
D03*
X0019200D02*
D03*
X0044100Y0010700D02*
D03*
X0051600D02*
D03*
X0028100Y0014600D02*
D03*
X0054600Y0019500D02*
D03*
D56*
X0060960Y0002540D02*
D03*
X0058420D02*
D03*
Y0028080D02*
D03*
X0060960D02*
D03*
X0005080D02*
D03*
X0002540D02*
D03*
X0005080Y0002540D02*
D03*
X0002540D02*
D03*
M02*
