M48
;Layer_Color=9474304
;FILE_FORMAT=4:3
METRIC,LZ
;TYPE=PLATED
T01F00S00C0.500
T02F00S00C0.700
T03F00S00C1.300
T04F00S00C3.100
%
T01
X00075Y00043
X00161Y00055
Y00081
X00192
Y00055
X00281Y00146
X00393Y00052
Y00021
X00424
Y00052
X00441Y00107
X00516
X00495Y00014
X00546Y00195
T02
X00359Y001616
X003717Y001743
X00359Y00187
X003593Y002343
Y002597
X003466Y00247
T03
X00038Y00076
Y00126
Y00176
Y00226
X00284Y00034
X00334
X0061Y0016
Y0021
T04
X000254Y000254
Y002808
X006096
Y000254
M30
