G04*
G04 #@! TF.GenerationSoftware,Altium Limited,Altium Designer,24.6.1 (21)*
G04*
G04 Layer_Color=16711935*
%FSAX43Y43*%
%MOMM*%
G71*
G04*
G04 #@! TF.SameCoordinates,72FB08D7-BAFD-4CC0-8052-66671FA49B15*
G04*
G04*
G04 #@! TF.FilePolarity,Negative*
G04*
G01*
G75*
%ADD29O,1.603X1.403*%
%ADD30C,2.104*%
%ADD31R,2.104X2.104*%
%ADD32R,2.104X2.104*%
%ADD33C,1.203*%
%ADD34C,4.203*%
D29*
X0035930Y0023430D02*
D03*
Y0025970D02*
D03*
X0034660Y0024700D02*
D03*
X0037170Y0017430D02*
D03*
X0035900Y0016160D02*
D03*
Y0018700D02*
D03*
D30*
X0061000Y0021000D02*
D03*
X0033400Y0003400D02*
D03*
X0003800Y0017600D02*
D03*
Y0012600D02*
D03*
Y0007600D02*
D03*
D31*
X0061000Y0016000D02*
D03*
X0003800Y0022600D02*
D03*
D32*
X0028400Y0003400D02*
D03*
D33*
X0039300Y0002100D02*
D03*
X0042400D02*
D03*
X0007500Y0004300D02*
D03*
X0049500Y0001400D02*
D03*
X0042400Y0005200D02*
D03*
X0039300D02*
D03*
X0016100Y0005500D02*
D03*
X0019200D02*
D03*
X0016100Y0008100D02*
D03*
X0019200D02*
D03*
X0044100Y0010700D02*
D03*
X0051600D02*
D03*
X0028100Y0014600D02*
D03*
X0054600Y0019500D02*
D03*
D34*
X0060960Y0002540D02*
D03*
Y0028080D02*
D03*
X0002540D02*
D03*
Y0002540D02*
D03*
M02*
